<?xml version="1.0" encoding="utf-8" standalone="no"?>
<!DOCTYPE svg PUBLIC "-//W3C//DTD SVG 1.1//EN"
  "http://www.w3.org/Graphics/SVG/1.1/DTD/svg11.dtd">
<!-- Created with matplotlib (http://matplotlib.org/) -->
<svg height="648pt" version="1.1" viewBox="0 0 1152 648" width="1152pt" xmlns="http://www.w3.org/2000/svg" xmlns:xlink="http://www.w3.org/1999/xlink">
 <defs>
  <style type="text/css">
*{stroke-linecap:butt;stroke-linejoin:round;}
  </style>
 </defs>
 <g id="figure_1">
  <g id="patch_1">
   <path d="M 0 648 
L 1152 648 
L 1152 0 
L 0 0 
z
" style="fill:#ffffff;"/>
  </g>
  <g id="axes_1">
   <g id="patch_2">
    <path d="M 144 567 
L 1036.8 567 
L 1036.8 77.76 
L 144 77.76 
z
" style="fill:#ffffff;"/>
   </g>
   <g id="patch_3">
    <path clip-path="url(#p30043c28e6)" d="M 184.581818 567 
L 200.896117 567 
L 200.896117 514.437025 
L 184.581818 514.437025 
z
" style="fill:#e6194b;"/>
   </g>
   <g id="patch_4">
    <path clip-path="url(#p30043c28e6)" d="M 204.974692 567 
L 221.28899 567 
L 221.28899 495.004816 
L 204.974692 495.004816 
z
" style="fill:#e6194b;"/>
   </g>
   <g id="patch_5">
    <path clip-path="url(#p30043c28e6)" d="M 225.367565 567 
L 241.681864 567 
L 241.681864 494.661012 
L 225.367565 494.661012 
z
" style="fill:#e6194b;"/>
   </g>
   <g id="patch_6">
    <path clip-path="url(#p30043c28e6)" d="M 245.760439 567 
L 262.074737 567 
L 262.074737 492.279709 
L 245.760439 492.279709 
z
" style="fill:#e6194b;"/>
   </g>
   <g id="patch_7">
    <path clip-path="url(#p30043c28e6)" d="M 266.153312 567 
L 282.467611 567 
L 282.467611 528.877403 
L 266.153312 528.877403 
z
" style="fill:#e6194b;"/>
   </g>
   <g id="patch_8">
    <path clip-path="url(#p30043c28e6)" d="M 286.546185 567 
L 302.860484 567 
L 302.860484 548.183077 
L 286.546185 548.183077 
z
" style="fill:#e6194b;"/>
   </g>
   <g id="patch_9">
    <path clip-path="url(#p30043c28e6)" d="M 306.939059 567 
L 323.253358 567 
L 323.253358 479.112575 
L 306.939059 479.112575 
z
" style="fill:#e6194b;"/>
   </g>
   <g id="patch_10">
    <path clip-path="url(#p30043c28e6)" d="M 327.331932 567 
L 343.646231 567 
L 343.646231 495.403902 
L 327.331932 495.403902 
z
" style="fill:#e6194b;"/>
   </g>
   <g id="patch_11">
    <path clip-path="url(#p30043c28e6)" d="M 347.724806 567 
L 364.039105 567 
L 364.039105 520.010847 
L 347.724806 520.010847 
z
" style="fill:#e6194b;"/>
   </g>
   <g id="patch_12">
    <path clip-path="url(#p30043c28e6)" d="M 368.117679 567 
L 384.431978 567 
L 384.431978 435.896471 
L 368.117679 435.896471 
z
" style="fill:#e6194b;"/>
   </g>
   <g id="patch_13">
    <path clip-path="url(#p30043c28e6)" d="M 388.510553 567 
L 404.824852 567 
L 404.824852 436.323518 
L 388.510553 436.323518 
z
" style="fill:#e6194b;"/>
   </g>
   <g id="patch_14">
    <path clip-path="url(#p30043c28e6)" d="M 408.903426 567 
L 425.217725 567 
L 425.217725 443.31573 
L 408.903426 443.31573 
z
" style="fill:#e6194b;"/>
   </g>
   <g id="patch_15">
    <path clip-path="url(#p30043c28e6)" d="M 429.2963 567 
L 445.610598 567 
L 445.610598 552.68078 
L 429.2963 552.68078 
z
" style="fill:#e6194b;"/>
   </g>
   <g id="patch_16">
    <path clip-path="url(#p30043c28e6)" d="M 449.689173 567 
L 466.003472 567 
L 466.003472 482.911875 
L 449.689173 482.911875 
z
" style="fill:#e6194b;"/>
   </g>
   <g id="patch_17">
    <path clip-path="url(#p30043c28e6)" d="M 470.082047 567 
L 486.396345 567 
L 486.396345 502.914249 
L 470.082047 502.914249 
z
" style="fill:#e6194b;"/>
   </g>
   <g id="patch_18">
    <path clip-path="url(#p30043c28e6)" d="M 490.47492 567 
L 506.789219 567 
L 506.789219 509.150676 
L 490.47492 509.150676 
z
" style="fill:#e6194b;"/>
   </g>
   <g id="patch_19">
    <path clip-path="url(#p30043c28e6)" d="M 510.867794 567 
L 527.182092 567 
L 527.182092 509.016 
L 510.867794 509.016 
z
" style="fill:#e6194b;"/>
   </g>
   <g id="patch_20">
    <path clip-path="url(#p30043c28e6)" d="M 531.260667 567 
L 547.574966 567 
L 547.574966 492.449143 
L 531.260667 492.449143 
z
" style="fill:#e6194b;"/>
   </g>
   <g id="patch_21">
    <path clip-path="url(#p30043c28e6)" d="M 551.65354 567 
L 567.967839 567 
L 567.967839 548.538113 
L 551.65354 548.538113 
z
" style="fill:#e6194b;"/>
   </g>
   <g id="patch_22">
    <path clip-path="url(#p30043c28e6)" d="M 572.046414 567 
L 588.360713 567 
L 588.360713 505.845 
L 572.046414 505.845 
z
" style="fill:#e6194b;"/>
   </g>
   <g id="patch_23">
    <path clip-path="url(#p30043c28e6)" d="M 592.439287 567 
L 608.753586 567 
L 608.753586 494.250558 
L 592.439287 494.250558 
z
" style="fill:#e6194b;"/>
   </g>
   <g id="patch_24">
    <path clip-path="url(#p30043c28e6)" d="M 612.832161 567 
L 629.14646 567 
L 629.14646 474.626014 
L 612.832161 474.626014 
z
" style="fill:#e6194b;"/>
   </g>
   <g id="patch_25">
    <path clip-path="url(#p30043c28e6)" d="M 633.225034 567 
L 649.539333 567 
L 649.539333 507.649574 
L 633.225034 507.649574 
z
" style="fill:#e6194b;"/>
   </g>
   <g id="patch_26">
    <path clip-path="url(#p30043c28e6)" d="M 653.617908 567 
L 669.932206 567 
L 669.932206 501.768 
L 653.617908 501.768 
z
" style="fill:#e6194b;"/>
   </g>
   <g id="patch_27">
    <path clip-path="url(#p30043c28e6)" d="M 674.010781 567 
L 690.32508 567 
L 690.32508 452.600597 
L 674.010781 452.600597 
z
" style="fill:#e6194b;"/>
   </g>
   <g id="patch_28">
    <path clip-path="url(#p30043c28e6)" d="M 694.403655 567 
L 710.717953 567 
L 710.717953 475.742798 
L 694.403655 475.742798 
z
" style="fill:#e6194b;"/>
   </g>
   <g id="patch_29">
    <path clip-path="url(#p30043c28e6)" d="M 714.796528 567 
L 731.110827 567 
L 731.110827 491.732308 
L 714.796528 491.732308 
z
" style="fill:#e6194b;"/>
   </g>
   <g id="patch_30">
    <path clip-path="url(#p30043c28e6)" d="M 735.189402 567 
L 751.5037 567 
L 751.5037 523.023371 
L 735.189402 523.023371 
z
" style="fill:#e6194b;"/>
   </g>
   <g id="patch_31">
    <path clip-path="url(#p30043c28e6)" d="M 755.582275 567 
L 771.896574 567 
L 771.896574 522.354525 
L 755.582275 522.354525 
z
" style="fill:#e6194b;"/>
   </g>
   <g id="patch_32">
    <path clip-path="url(#p30043c28e6)" d="M 775.975148 567 
L 792.289447 567 
L 792.289447 491.148837 
L 775.975148 491.148837 
z
" style="fill:#e6194b;"/>
   </g>
   <g id="patch_33">
    <path clip-path="url(#p30043c28e6)" d="M 796.368022 567 
L 812.682321 567 
L 812.682321 514.256654 
L 796.368022 514.256654 
z
" style="fill:#e6194b;"/>
   </g>
   <g id="patch_34">
    <path clip-path="url(#p30043c28e6)" d="M 816.760895 567 
L 833.075194 567 
L 833.075194 474.907765 
L 816.760895 474.907765 
z
" style="fill:#e6194b;"/>
   </g>
   <g id="patch_35">
    <path clip-path="url(#p30043c28e6)" d="M 837.153769 567 
L 853.468068 567 
L 853.468068 492.288473 
L 837.153769 492.288473 
z
" style="fill:#e6194b;"/>
   </g>
   <g id="patch_36">
    <path clip-path="url(#p30043c28e6)" d="M 857.546642 567 
L 873.860941 567 
L 873.860941 485.46 
L 857.546642 485.46 
z
" style="fill:#e6194b;"/>
   </g>
   <g id="patch_37">
    <path clip-path="url(#p30043c28e6)" d="M 877.939516 567 
L 894.253815 567 
L 894.253815 481.847468 
L 877.939516 481.847468 
z
" style="fill:#e6194b;"/>
   </g>
   <g id="patch_38">
    <path clip-path="url(#p30043c28e6)" d="M 898.332389 567 
L 914.646688 567 
L 914.646688 525.761379 
L 898.332389 525.761379 
z
" style="fill:#e6194b;"/>
   </g>
   <g id="patch_39">
    <path clip-path="url(#p30043c28e6)" d="M 918.725263 567 
L 935.039561 567 
L 935.039561 486.532895 
L 918.725263 486.532895 
z
" style="fill:#e6194b;"/>
   </g>
   <g id="patch_40">
    <path clip-path="url(#p30043c28e6)" d="M 939.118136 567 
L 955.432435 567 
L 955.432435 511.92 
L 939.118136 511.92 
z
" style="fill:#e6194b;"/>
   </g>
   <g id="patch_41">
    <path clip-path="url(#p30043c28e6)" d="M 959.51101 567 
L 975.825308 567 
L 975.825308 515.693933 
L 959.51101 515.693933 
z
" style="fill:#e6194b;"/>
   </g>
   <g id="patch_42">
    <path clip-path="url(#p30043c28e6)" d="M 979.903883 567 
L 996.218182 567 
L 996.218182 382.877419 
L 979.903883 382.877419 
z
" style="fill:#e6194b;"/>
   </g>
   <g id="patch_43">
    <path clip-path="url(#p30043c28e6)" d="M 184.581818 514.437025 
L 200.896117 514.437025 
L 200.896117 360.791405 
L 184.581818 360.791405 
z
" style="fill:#fabebe;"/>
   </g>
   <g id="patch_44">
    <path clip-path="url(#p30043c28e6)" d="M 204.974692 495.004816 
L 221.28899 495.004816 
L 221.28899 259.384214 
L 204.974692 259.384214 
z
" style="fill:#fabebe;"/>
   </g>
   <g id="patch_45">
    <path clip-path="url(#p30043c28e6)" d="M 225.367565 494.661012 
L 241.681864 494.661012 
L 241.681864 313.813541 
L 225.367565 313.813541 
z
" style="fill:#fabebe;"/>
   </g>
   <g id="patch_46">
    <path clip-path="url(#p30043c28e6)" d="M 245.760439 492.279709 
L 262.074737 492.279709 
L 262.074737 300.141818 
L 245.760439 300.141818 
z
" style="fill:#fabebe;"/>
   </g>
   <g id="patch_47">
    <path clip-path="url(#p30043c28e6)" d="M 266.153312 528.877403 
L 282.467611 528.877403 
L 282.467611 319.203117 
L 266.153312 319.203117 
z
" style="fill:#fabebe;"/>
   </g>
   <g id="patch_48">
    <path clip-path="url(#p30043c28e6)" d="M 286.546185 548.183077 
L 302.860484 548.183077 
L 302.860484 303.563077 
L 286.546185 303.563077 
z
" style="fill:#fabebe;"/>
   </g>
   <g id="patch_49">
    <path clip-path="url(#p30043c28e6)" d="M 306.939059 479.112575 
L 323.253358 479.112575 
L 323.253358 271.112335 
L 306.939059 271.112335 
z
" style="fill:#fabebe;"/>
   </g>
   <g id="patch_50">
    <path clip-path="url(#p30043c28e6)" d="M 327.331932 495.403902 
L 343.646231 495.403902 
L 343.646231 263.56892 
L 327.331932 263.56892 
z
" style="fill:#fabebe;"/>
   </g>
   <g id="patch_51">
    <path clip-path="url(#p30043c28e6)" d="M 347.724806 520.010847 
L 364.039105 520.010847 
L 364.039105 330.672203 
L 347.724806 330.672203 
z
" style="fill:#fabebe;"/>
   </g>
   <g id="patch_52">
    <path clip-path="url(#p30043c28e6)" d="M 368.117679 435.896471 
L 384.431978 435.896471 
L 384.431978 208.863529 
L 368.117679 208.863529 
z
" style="fill:#fabebe;"/>
   </g>
   <g id="patch_53">
    <path clip-path="url(#p30043c28e6)" d="M 388.510553 436.323518 
L 404.824852 436.323518 
L 404.824852 259.432182 
L 388.510553 259.432182 
z
" style="fill:#fabebe;"/>
   </g>
   <g id="patch_54">
    <path clip-path="url(#p30043c28e6)" d="M 408.903426 443.31573 
L 425.217725 443.31573 
L 425.217725 237.175281 
L 408.903426 237.175281 
z
" style="fill:#fabebe;"/>
   </g>
   <g id="patch_55">
    <path clip-path="url(#p30043c28e6)" d="M 429.2963 552.68078 
L 445.610598 552.68078 
L 445.610598 302.094439 
L 429.2963 302.094439 
z
" style="fill:#fabebe;"/>
   </g>
   <g id="patch_56">
    <path clip-path="url(#p30043c28e6)" d="M 449.689173 482.911875 
L 466.003472 482.911875 
L 466.003472 289.891406 
L 449.689173 289.891406 
z
" style="fill:#fabebe;"/>
   </g>
   <g id="patch_57">
    <path clip-path="url(#p30043c28e6)" d="M 470.082047 502.914249 
L 486.396345 502.914249 
L 486.396345 274.706454 
L 470.082047 274.706454 
z
" style="fill:#fabebe;"/>
   </g>
   <g id="patch_58">
    <path clip-path="url(#p30043c28e6)" d="M 490.47492 509.150676 
L 506.789219 509.150676 
L 506.789219 297.587432 
L 490.47492 297.587432 
z
" style="fill:#fabebe;"/>
   </g>
   <g id="patch_59">
    <path clip-path="url(#p30043c28e6)" d="M 510.867794 509.016 
L 527.182092 509.016 
L 527.182092 262.584 
L 510.867794 262.584 
z
" style="fill:#fabebe;"/>
   </g>
   <g id="patch_60">
    <path clip-path="url(#p30043c28e6)" d="M 531.260667 492.449143 
L 547.574966 492.449143 
L 547.574966 316.944 
L 531.260667 316.944 
z
" style="fill:#fabebe;"/>
   </g>
   <g id="patch_61">
    <path clip-path="url(#p30043c28e6)" d="M 551.65354 548.538113 
L 567.967839 548.538113 
L 567.967839 262.378868 
L 551.65354 262.378868 
z
" style="fill:#fabebe;"/>
   </g>
   <g id="patch_62">
    <path clip-path="url(#p30043c28e6)" d="M 572.046414 505.845 
L 588.360713 505.845 
L 588.360713 245.93625 
L 572.046414 245.93625 
z
" style="fill:#fabebe;"/>
   </g>
   <g id="patch_63">
    <path clip-path="url(#p30043c28e6)" d="M 592.439287 494.250558 
L 608.753586 494.250558 
L 608.753586 217.802677 
L 592.439287 217.802677 
z
" style="fill:#fabebe;"/>
   </g>
   <g id="patch_64">
    <path clip-path="url(#p30043c28e6)" d="M 612.832161 474.626014 
L 629.14646 474.626014 
L 629.14646 264.218601 
L 612.832161 264.218601 
z
" style="fill:#fabebe;"/>
   </g>
   <g id="patch_65">
    <path clip-path="url(#p30043c28e6)" d="M 633.225034 507.649574 
L 649.539333 507.649574 
L 649.539333 287.89259 
L 633.225034 287.89259 
z
" style="fill:#fabebe;"/>
   </g>
   <g id="patch_66">
    <path clip-path="url(#p30043c28e6)" d="M 653.617908 501.768 
L 669.932206 501.768 
L 669.932206 329.792727 
L 653.617908 329.792727 
z
" style="fill:#fabebe;"/>
   </g>
   <g id="patch_67">
    <path clip-path="url(#p30043c28e6)" d="M 674.010781 452.600597 
L 690.32508 452.600597 
L 690.32508 299.256716 
L 674.010781 299.256716 
z
" style="fill:#fabebe;"/>
   </g>
   <g id="patch_68">
    <path clip-path="url(#p30043c28e6)" d="M 694.403655 475.742798 
L 710.717953 475.742798 
L 710.717953 285.623627 
L 694.403655 285.623627 
z
" style="fill:#fabebe;"/>
   </g>
   <g id="patch_69">
    <path clip-path="url(#p30043c28e6)" d="M 714.796528 491.732308 
L 731.110827 491.732308 
L 731.110827 337.775664 
L 714.796528 337.775664 
z
" style="fill:#fabebe;"/>
   </g>
   <g id="patch_70">
    <path clip-path="url(#p30043c28e6)" d="M 735.189402 523.023371 
L 751.5037 523.023371 
L 751.5037 272.906292 
L 735.189402 272.906292 
z
" style="fill:#fabebe;"/>
   </g>
   <g id="patch_71">
    <path clip-path="url(#p30043c28e6)" d="M 755.582275 522.354525 
L 771.896574 522.354525 
L 771.896574 315.869202 
L 755.582275 315.869202 
z
" style="fill:#fabebe;"/>
   </g>
   <g id="patch_72">
    <path clip-path="url(#p30043c28e6)" d="M 775.975148 491.148837 
L 792.289447 491.148837 
L 792.289447 316.691163 
L 775.975148 316.691163 
z
" style="fill:#fabebe;"/>
   </g>
   <g id="patch_73">
    <path clip-path="url(#p30043c28e6)" d="M 796.368022 514.256654 
L 812.682321 514.256654 
L 812.682321 299.645799 
L 796.368022 299.645799 
z
" style="fill:#fabebe;"/>
   </g>
   <g id="patch_74">
    <path clip-path="url(#p30043c28e6)" d="M 816.760895 474.907765 
L 833.075194 474.907765 
L 833.075194 295.040118 
L 816.760895 295.040118 
z
" style="fill:#fabebe;"/>
   </g>
   <g id="patch_75">
    <path clip-path="url(#p30043c28e6)" d="M 837.153769 492.288473 
L 853.468068 492.288473 
L 853.468068 403.11665 
L 837.153769 403.11665 
z
" style="fill:#fabebe;"/>
   </g>
   <g id="patch_76">
    <path clip-path="url(#p30043c28e6)" d="M 857.546642 485.46 
L 873.860941 485.46 
L 873.860941 380.986875 
L 857.546642 380.986875 
z
" style="fill:#fabebe;"/>
   </g>
   <g id="patch_77">
    <path clip-path="url(#p30043c28e6)" d="M 877.939516 481.847468 
L 894.253815 481.847468 
L 894.253815 303.801266 
L 877.939516 303.801266 
z
" style="fill:#fabebe;"/>
   </g>
   <g id="patch_78">
    <path clip-path="url(#p30043c28e6)" d="M 898.332389 525.761379 
L 914.646688 525.761379 
L 914.646688 312.070345 
L 898.332389 312.070345 
z
" style="fill:#fabebe;"/>
   </g>
   <g id="patch_79">
    <path clip-path="url(#p30043c28e6)" d="M 918.725263 486.532895 
L 935.039561 486.532895 
L 935.039561 328.817368 
L 918.725263 328.817368 
z
" style="fill:#fabebe;"/>
   </g>
   <g id="patch_80">
    <path clip-path="url(#p30043c28e6)" d="M 939.118136 511.92 
L 955.432435 511.92 
L 955.432435 299.7 
L 939.118136 299.7 
z
" style="fill:#fabebe;"/>
   </g>
   <g id="patch_81">
    <path clip-path="url(#p30043c28e6)" d="M 959.51101 515.693933 
L 975.825308 515.693933 
L 975.825308 341.619775 
L 959.51101 341.619775 
z
" style="fill:#fabebe;"/>
   </g>
   <g id="patch_82">
    <path clip-path="url(#p30043c28e6)" d="M 979.903883 382.877419 
L 996.218182 382.877419 
L 996.218182 240.84 
L 979.903883 240.84 
z
" style="fill:#fabebe;"/>
   </g>
   <g id="patch_83">
    <path clip-path="url(#p30043c28e6)" d="M 184.581818 360.791405 
L 200.896117 360.791405 
L 200.896117 89.889917 
L 184.581818 89.889917 
z
" style="fill:#aaffc3;"/>
   </g>
   <g id="patch_84">
    <path clip-path="url(#p30043c28e6)" d="M 204.974692 259.384214 
L 221.28899 259.384214 
L 221.28899 85.941271 
L 204.974692 85.941271 
z
" style="fill:#aaffc3;"/>
   </g>
   <g id="patch_85">
    <path clip-path="url(#p30043c28e6)" d="M 225.367565 313.813541 
L 241.681864 313.813541 
L 241.681864 108.218521 
L 225.367565 108.218521 
z
" style="fill:#aaffc3;"/>
   </g>
   <g id="patch_86">
    <path clip-path="url(#p30043c28e6)" d="M 245.760439 300.141818 
L 262.074737 300.141818 
L 262.074737 91.992436 
L 245.760439 91.992436 
z
" style="fill:#aaffc3;"/>
   </g>
   <g id="patch_87">
    <path clip-path="url(#p30043c28e6)" d="M 266.153312 319.203117 
L 282.467611 319.203117 
L 282.467611 115.882597 
L 266.153312 115.882597 
z
" style="fill:#aaffc3;"/>
   </g>
   <g id="patch_88">
    <path clip-path="url(#p30043c28e6)" d="M 286.546185 303.563077 
L 302.860484 303.563077 
L 302.860484 109.121538 
L 286.546185 109.121538 
z
" style="fill:#aaffc3;"/>
   </g>
   <g id="patch_89">
    <path clip-path="url(#p30043c28e6)" d="M 306.939059 271.112335 
L 323.253358 271.112335 
L 323.253358 83.619162 
L 306.939059 83.619162 
z
" style="fill:#aaffc3;"/>
   </g>
   <g id="patch_90">
    <path clip-path="url(#p30043c28e6)" d="M 327.331932 263.56892 
L 343.646231 263.56892 
L 343.646231 94.80669 
L 327.331932 94.80669 
z
" style="fill:#aaffc3;"/>
   </g>
   <g id="patch_91">
    <path clip-path="url(#p30043c28e6)" d="M 347.724806 330.672203 
L 364.039105 330.672203 
L 364.039105 95.726441 
L 347.724806 95.726441 
z
" style="fill:#aaffc3;"/>
   </g>
   <g id="patch_92">
    <path clip-path="url(#p30043c28e6)" d="M 368.117679 208.863529 
L 384.431978 208.863529 
L 384.431978 95.347059 
L 368.117679 95.347059 
z
" style="fill:#aaffc3;"/>
   </g>
   <g id="patch_93">
    <path clip-path="url(#p30043c28e6)" d="M 388.510553 259.432182 
L 404.824852 259.432182 
L 404.824852 103.25785 
L 388.510553 103.25785 
z
" style="fill:#aaffc3;"/>
   </g>
   <g id="patch_94">
    <path clip-path="url(#p30043c28e6)" d="M 408.903426 237.175281 
L 425.217725 237.175281 
L 425.217725 88.754157 
L 408.903426 88.754157 
z
" style="fill:#aaffc3;"/>
   </g>
   <g id="patch_95">
    <path clip-path="url(#p30043c28e6)" d="M 429.2963 302.094439 
L 445.610598 302.094439 
L 445.610598 104.011902 
L 429.2963 104.011902 
z
" style="fill:#aaffc3;"/>
   </g>
   <g id="patch_96">
    <path clip-path="url(#p30043c28e6)" d="M 449.689173 289.891406 
L 466.003472 289.891406 
L 466.003472 89.226562 
L 449.689173 89.226562 
z
" style="fill:#aaffc3;"/>
   </g>
   <g id="patch_97">
    <path clip-path="url(#p30043c28e6)" d="M 470.082047 274.706454 
L 486.396345 274.706454 
L 486.396345 85.575335 
L 470.082047 85.575335 
z
" style="fill:#aaffc3;"/>
   </g>
   <g id="patch_98">
    <path clip-path="url(#p30043c28e6)" d="M 490.47492 297.587432 
L 506.789219 297.587432 
L 506.789219 90.982703 
L 490.47492 90.982703 
z
" style="fill:#aaffc3;"/>
   </g>
   <g id="patch_99">
    <path clip-path="url(#p30043c28e6)" d="M 510.867794 262.584 
L 527.182092 262.584 
L 527.182092 88.632 
L 510.867794 88.632 
z
" style="fill:#aaffc3;"/>
   </g>
   <g id="patch_100">
    <path clip-path="url(#p30043c28e6)" d="M 531.260667 316.944 
L 547.574966 316.944 
L 547.574966 85.525714 
L 531.260667 85.525714 
z
" style="fill:#aaffc3;"/>
   </g>
   <g id="patch_101">
    <path clip-path="url(#p30043c28e6)" d="M 551.65354 262.378868 
L 567.967839 262.378868 
L 567.967839 102.375849 
L 551.65354 102.375849 
z
" style="fill:#aaffc3;"/>
   </g>
   <g id="patch_102">
    <path clip-path="url(#p30043c28e6)" d="M 572.046414 245.93625 
L 588.360713 245.93625 
L 588.360713 82.85625 
L 572.046414 82.85625 
z
" style="fill:#aaffc3;"/>
   </g>
   <g id="patch_103">
    <path clip-path="url(#p30043c28e6)" d="M 592.439287 217.802677 
L 608.753586 217.802677 
L 608.753586 81.397472 
L 592.439287 81.397472 
z
" style="fill:#aaffc3;"/>
   </g>
   <g id="patch_104">
    <path clip-path="url(#p30043c28e6)" d="M 612.832161 264.218601 
L 629.14646 264.218601 
L 629.14646 99.998182 
L 612.832161 99.998182 
z
" style="fill:#aaffc3;"/>
   </g>
   <g id="patch_105">
    <path clip-path="url(#p30043c28e6)" d="M 633.225034 287.89259 
L 649.539333 287.89259 
L 649.539333 95.404721 
L 633.225034 95.404721 
z
" style="fill:#aaffc3;"/>
   </g>
   <g id="patch_106">
    <path clip-path="url(#p30043c28e6)" d="M 653.617908 329.792727 
L 669.932206 329.792727 
L 669.932206 99.998182 
L 653.617908 99.998182 
z
" style="fill:#aaffc3;"/>
   </g>
   <g id="patch_107">
    <path clip-path="url(#p30043c28e6)" d="M 674.010781 299.256716 
L 690.32508 299.256716 
L 690.32508 85.06209 
L 674.010781 85.06209 
z
" style="fill:#aaffc3;"/>
   </g>
   <g id="patch_108">
    <path clip-path="url(#p30043c28e6)" d="M 694.403655 285.623627 
L 710.717953 285.623627 
L 710.717953 95.504456 
L 694.403655 95.504456 
z
" style="fill:#aaffc3;"/>
   </g>
   <g id="patch_109">
    <path clip-path="url(#p30043c28e6)" d="M 714.796528 337.775664 
L 731.110827 337.775664 
L 731.110827 101.708811 
L 714.796528 101.708811 
z
" style="fill:#aaffc3;"/>
   </g>
   <g id="patch_110">
    <path clip-path="url(#p30043c28e6)" d="M 735.189402 272.906292 
L 751.5037 272.906292 
L 751.5037 107.993933 
L 735.189402 107.993933 
z
" style="fill:#aaffc3;"/>
   </g>
   <g id="patch_111">
    <path clip-path="url(#p30043c28e6)" d="M 755.582275 315.869202 
L 771.896574 315.869202 
L 771.896574 79.620228 
L 755.582275 79.620228 
z
" style="fill:#aaffc3;"/>
   </g>
   <g id="patch_112">
    <path clip-path="url(#p30043c28e6)" d="M 775.975148 316.691163 
L 792.289447 316.691163 
L 792.289447 98.61907 
L 775.975148 98.61907 
z
" style="fill:#aaffc3;"/>
   </g>
   <g id="patch_113">
    <path clip-path="url(#p30043c28e6)" d="M 796.368022 299.645799 
L 812.682321 299.645799 
L 812.682321 105.041041 
L 796.368022 105.041041 
z
" style="fill:#aaffc3;"/>
   </g>
   <g id="patch_114">
    <path clip-path="url(#p30043c28e6)" d="M 816.760895 295.040118 
L 833.075194 295.040118 
L 833.075194 99.344118 
L 816.760895 99.344118 
z
" style="fill:#aaffc3;"/>
   </g>
   <g id="patch_115">
    <path clip-path="url(#p30043c28e6)" d="M 837.153769 403.11665 
L 853.468068 403.11665 
L 853.468068 113.910739 
L 837.153769 113.910739 
z
" style="fill:#aaffc3;"/>
   </g>
   <g id="patch_116">
    <path clip-path="url(#p30043c28e6)" d="M 857.546642 380.986875 
L 873.860941 380.986875 
L 873.860941 164.39625 
L 857.546642 164.39625 
z
" style="fill:#aaffc3;"/>
   </g>
   <g id="patch_117">
    <path clip-path="url(#p30043c28e6)" d="M 877.939516 303.801266 
L 894.253815 303.801266 
L 894.253815 124.206835 
L 877.939516 124.206835 
z
" style="fill:#aaffc3;"/>
   </g>
   <g id="patch_118">
    <path clip-path="url(#p30043c28e6)" d="M 898.332389 312.070345 
L 914.646688 312.070345 
L 914.646688 120.873103 
L 898.332389 120.873103 
z
" style="fill:#aaffc3;"/>
   </g>
   <g id="patch_119">
    <path clip-path="url(#p30043c28e6)" d="M 918.725263 328.817368 
L 935.039561 328.817368 
L 935.039561 105.118816 
L 918.725263 105.118816 
z
" style="fill:#aaffc3;"/>
   </g>
   <g id="patch_120">
    <path clip-path="url(#p30043c28e6)" d="M 939.118136 299.7 
L 955.432435 299.7 
L 955.432435 102.06 
L 939.118136 102.06 
z
" style="fill:#aaffc3;"/>
   </g>
   <g id="patch_121">
    <path clip-path="url(#p30043c28e6)" d="M 959.51101 341.619775 
L 975.825308 341.619775 
L 975.825308 110.742472 
L 959.51101 110.742472 
z
" style="fill:#aaffc3;"/>
   </g>
   <g id="patch_122">
    <path clip-path="url(#p30043c28e6)" d="M 979.903883 240.84 
L 996.218182 240.84 
L 996.218182 98.802581 
L 979.903883 98.802581 
z
" style="fill:#aaffc3;"/>
   </g>
   <g id="patch_123">
    <path clip-path="url(#p30043c28e6)" d="M 184.581818 89.889917 
L 200.896117 89.889917 
L 200.896117 77.76 
L 184.581818 77.76 
z
" style="fill:#3cb44b;"/>
   </g>
   <g id="patch_124">
    <path clip-path="url(#p30043c28e6)" d="M 204.974692 85.941271 
L 221.28899 85.941271 
L 221.28899 77.76 
L 204.974692 77.76 
z
" style="fill:#3cb44b;"/>
   </g>
   <g id="patch_125">
    <path clip-path="url(#p30043c28e6)" d="M 225.367565 108.218521 
L 241.681864 108.218521 
L 241.681864 77.76 
L 225.367565 77.76 
z
" style="fill:#3cb44b;"/>
   </g>
   <g id="patch_126">
    <path clip-path="url(#p30043c28e6)" d="M 245.760439 91.992436 
L 262.074737 91.992436 
L 262.074737 77.76 
L 245.760439 77.76 
z
" style="fill:#3cb44b;"/>
   </g>
   <g id="patch_127">
    <path clip-path="url(#p30043c28e6)" d="M 266.153312 115.882597 
L 282.467611 115.882597 
L 282.467611 77.76 
L 266.153312 77.76 
z
" style="fill:#3cb44b;"/>
   </g>
   <g id="patch_128">
    <path clip-path="url(#p30043c28e6)" d="M 286.546185 109.121538 
L 302.860484 109.121538 
L 302.860484 77.76 
L 286.546185 77.76 
z
" style="fill:#3cb44b;"/>
   </g>
   <g id="patch_129">
    <path clip-path="url(#p30043c28e6)" d="M 306.939059 83.619162 
L 323.253358 83.619162 
L 323.253358 77.76 
L 306.939059 77.76 
z
" style="fill:#3cb44b;"/>
   </g>
   <g id="patch_130">
    <path clip-path="url(#p30043c28e6)" d="M 327.331932 94.80669 
L 343.646231 94.80669 
L 343.646231 77.76 
L 327.331932 77.76 
z
" style="fill:#3cb44b;"/>
   </g>
   <g id="patch_131">
    <path clip-path="url(#p30043c28e6)" d="M 347.724806 95.726441 
L 364.039105 95.726441 
L 364.039105 77.76 
L 347.724806 77.76 
z
" style="fill:#3cb44b;"/>
   </g>
   <g id="patch_132">
    <path clip-path="url(#p30043c28e6)" d="M 368.117679 95.347059 
L 384.431978 95.347059 
L 384.431978 77.76 
L 368.117679 77.76 
z
" style="fill:#3cb44b;"/>
   </g>
   <g id="patch_133">
    <path clip-path="url(#p30043c28e6)" d="M 388.510553 103.25785 
L 404.824852 103.25785 
L 404.824852 77.76 
L 388.510553 77.76 
z
" style="fill:#3cb44b;"/>
   </g>
   <g id="patch_134">
    <path clip-path="url(#p30043c28e6)" d="M 408.903426 88.754157 
L 425.217725 88.754157 
L 425.217725 77.76 
L 408.903426 77.76 
z
" style="fill:#3cb44b;"/>
   </g>
   <g id="patch_135">
    <path clip-path="url(#p30043c28e6)" d="M 429.2963 104.011902 
L 445.610598 104.011902 
L 445.610598 77.76 
L 429.2963 77.76 
z
" style="fill:#3cb44b;"/>
   </g>
   <g id="patch_136">
    <path clip-path="url(#p30043c28e6)" d="M 449.689173 89.226562 
L 466.003472 89.226562 
L 466.003472 77.76 
L 449.689173 77.76 
z
" style="fill:#3cb44b;"/>
   </g>
   <g id="patch_137">
    <path clip-path="url(#p30043c28e6)" d="M 470.082047 85.575335 
L 486.396345 85.575335 
L 486.396345 77.76 
L 470.082047 77.76 
z
" style="fill:#3cb44b;"/>
   </g>
   <g id="patch_138">
    <path clip-path="url(#p30043c28e6)" d="M 490.47492 90.982703 
L 506.789219 90.982703 
L 506.789219 77.76 
L 490.47492 77.76 
z
" style="fill:#3cb44b;"/>
   </g>
   <g id="patch_139">
    <path clip-path="url(#p30043c28e6)" d="M 510.867794 88.632 
L 527.182092 88.632 
L 527.182092 77.76 
L 510.867794 77.76 
z
" style="fill:#3cb44b;"/>
   </g>
   <g id="patch_140">
    <path clip-path="url(#p30043c28e6)" d="M 531.260667 85.525714 
L 547.574966 85.525714 
L 547.574966 77.76 
L 531.260667 77.76 
z
" style="fill:#3cb44b;"/>
   </g>
   <g id="patch_141">
    <path clip-path="url(#p30043c28e6)" d="M 551.65354 102.375849 
L 567.967839 102.375849 
L 567.967839 77.76 
L 551.65354 77.76 
z
" style="fill:#3cb44b;"/>
   </g>
   <g id="patch_142">
    <path clip-path="url(#p30043c28e6)" d="M 572.046414 82.85625 
L 588.360713 82.85625 
L 588.360713 77.76 
L 572.046414 77.76 
z
" style="fill:#3cb44b;"/>
   </g>
   <g id="patch_143">
    <path clip-path="url(#p30043c28e6)" d="M 592.439287 81.397472 
L 608.753586 81.397472 
L 608.753586 77.76 
L 592.439287 77.76 
z
" style="fill:#3cb44b;"/>
   </g>
   <g id="patch_144">
    <path clip-path="url(#p30043c28e6)" d="M 612.832161 99.998182 
L 629.14646 99.998182 
L 629.14646 77.76 
L 612.832161 77.76 
z
" style="fill:#3cb44b;"/>
   </g>
   <g id="patch_145">
    <path clip-path="url(#p30043c28e6)" d="M 633.225034 95.404721 
L 649.539333 95.404721 
L 649.539333 77.76 
L 633.225034 77.76 
z
" style="fill:#3cb44b;"/>
   </g>
   <g id="patch_146">
    <path clip-path="url(#p30043c28e6)" d="M 653.617908 99.998182 
L 669.932206 99.998182 
L 669.932206 77.76 
L 653.617908 77.76 
z
" style="fill:#3cb44b;"/>
   </g>
   <g id="patch_147">
    <path clip-path="url(#p30043c28e6)" d="M 674.010781 85.06209 
L 690.32508 85.06209 
L 690.32508 77.76 
L 674.010781 77.76 
z
" style="fill:#3cb44b;"/>
   </g>
   <g id="patch_148">
    <path clip-path="url(#p30043c28e6)" d="M 694.403655 95.504456 
L 710.717953 95.504456 
L 710.717953 77.76 
L 694.403655 77.76 
z
" style="fill:#3cb44b;"/>
   </g>
   <g id="patch_149">
    <path clip-path="url(#p30043c28e6)" d="M 714.796528 101.708811 
L 731.110827 101.708811 
L 731.110827 77.76 
L 714.796528 77.76 
z
" style="fill:#3cb44b;"/>
   </g>
   <g id="patch_150">
    <path clip-path="url(#p30043c28e6)" d="M 735.189402 107.993933 
L 751.5037 107.993933 
L 751.5037 77.76 
L 735.189402 77.76 
z
" style="fill:#3cb44b;"/>
   </g>
   <g id="patch_151">
    <path clip-path="url(#p30043c28e6)" d="M 755.582275 79.620228 
L 771.896574 79.620228 
L 771.896574 77.76 
L 755.582275 77.76 
z
" style="fill:#3cb44b;"/>
   </g>
   <g id="patch_152">
    <path clip-path="url(#p30043c28e6)" d="M 775.975148 98.61907 
L 792.289447 98.61907 
L 792.289447 77.76 
L 775.975148 77.76 
z
" style="fill:#3cb44b;"/>
   </g>
   <g id="patch_153">
    <path clip-path="url(#p30043c28e6)" d="M 796.368022 105.041041 
L 812.682321 105.041041 
L 812.682321 77.76 
L 796.368022 77.76 
z
" style="fill:#3cb44b;"/>
   </g>
   <g id="patch_154">
    <path clip-path="url(#p30043c28e6)" d="M 816.760895 99.344118 
L 833.075194 99.344118 
L 833.075194 77.76 
L 816.760895 77.76 
z
" style="fill:#3cb44b;"/>
   </g>
   <g id="patch_155">
    <path clip-path="url(#p30043c28e6)" d="M 837.153769 113.910739 
L 853.468068 113.910739 
L 853.468068 77.76 
L 837.153769 77.76 
z
" style="fill:#3cb44b;"/>
   </g>
   <g id="patch_156">
    <path clip-path="url(#p30043c28e6)" d="M 857.546642 164.39625 
L 873.860941 164.39625 
L 873.860941 77.76 
L 857.546642 77.76 
z
" style="fill:#3cb44b;"/>
   </g>
   <g id="patch_157">
    <path clip-path="url(#p30043c28e6)" d="M 877.939516 124.206835 
L 894.253815 124.206835 
L 894.253815 77.76 
L 877.939516 77.76 
z
" style="fill:#3cb44b;"/>
   </g>
   <g id="patch_158">
    <path clip-path="url(#p30043c28e6)" d="M 898.332389 120.873103 
L 914.646688 120.873103 
L 914.646688 77.76 
L 898.332389 77.76 
z
" style="fill:#3cb44b;"/>
   </g>
   <g id="patch_159">
    <path clip-path="url(#p30043c28e6)" d="M 918.725263 105.118816 
L 935.039561 105.118816 
L 935.039561 77.76 
L 918.725263 77.76 
z
" style="fill:#3cb44b;"/>
   </g>
   <g id="patch_160">
    <path clip-path="url(#p30043c28e6)" d="M 939.118136 102.06 
L 955.432435 102.06 
L 955.432435 77.76 
L 939.118136 77.76 
z
" style="fill:#3cb44b;"/>
   </g>
   <g id="patch_161">
    <path clip-path="url(#p30043c28e6)" d="M 959.51101 110.742472 
L 975.825308 110.742472 
L 975.825308 77.76 
L 959.51101 77.76 
z
" style="fill:#3cb44b;"/>
   </g>
   <g id="patch_162">
    <path clip-path="url(#p30043c28e6)" d="M 979.903883 98.802581 
L 996.218182 98.802581 
L 996.218182 77.76 
L 979.903883 77.76 
z
" style="fill:#3cb44b;"/>
   </g>
   <g id="matplotlib.axis_1">
    <g id="xtick_1">
     <g id="line2d_1">
      <defs>
       <path d="M 0 0 
L 0 3.5 
" id="m55d9cb016a" style="stroke:#000000;stroke-width:0.8;"/>
      </defs>
      <g>
       <use style="stroke:#000000;stroke-width:0.8;" x="192.738968" xlink:href="#m55d9cb016a" y="567"/>
      </g>
     </g>
     <g id="text_1">
      <!-- T -->
      <defs>
       <path d="M -0.296875 72.90625 
L 61.375 72.90625 
L 61.375 64.59375 
L 35.5 64.59375 
L 35.5 0 
L 25.59375 0 
L 25.59375 64.59375 
L -0.296875 64.59375 
z
" id="DejaVuSans-54"/>
      </defs>
      <g transform="translate(189.685061 581.598438)scale(0.1 -0.1)">
       <use xlink:href="#DejaVuSans-54"/>
      </g>
     </g>
    </g>
    <g id="xtick_2">
     <g id="line2d_2">
      <g>
       <use style="stroke:#000000;stroke-width:0.8;" x="213.131841" xlink:href="#m55d9cb016a" y="567"/>
      </g>
     </g>
     <g id="text_2">
      <!-- W -->
      <defs>
       <path d="M 3.328125 72.90625 
L 13.28125 72.90625 
L 28.609375 11.28125 
L 43.890625 72.90625 
L 54.984375 72.90625 
L 70.3125 11.28125 
L 85.59375 72.90625 
L 95.609375 72.90625 
L 77.296875 0 
L 64.890625 0 
L 49.515625 63.28125 
L 33.984375 0 
L 21.578125 0 
z
" id="DejaVuSans-57"/>
      </defs>
      <g transform="translate(208.188091 581.598438)scale(0.1 -0.1)">
       <use xlink:href="#DejaVuSans-57"/>
      </g>
     </g>
    </g>
    <g id="xtick_3">
     <g id="line2d_3">
      <g>
       <use style="stroke:#000000;stroke-width:0.8;" x="233.524714" xlink:href="#m55d9cb016a" y="567"/>
      </g>
     </g>
     <g id="text_3">
      <!-- T -->
      <g transform="translate(230.470808 581.598438)scale(0.1 -0.1)">
       <use xlink:href="#DejaVuSans-54"/>
      </g>
     </g>
    </g>
    <g id="xtick_4">
     <g id="line2d_4">
      <g>
       <use style="stroke:#000000;stroke-width:0.8;" x="253.917588" xlink:href="#m55d9cb016a" y="567"/>
      </g>
     </g>
     <g id="text_4">
      <!-- F -->
      <defs>
       <path d="M 9.8125 72.90625 
L 51.703125 72.90625 
L 51.703125 64.59375 
L 19.671875 64.59375 
L 19.671875 43.109375 
L 48.578125 43.109375 
L 48.578125 34.8125 
L 19.671875 34.8125 
L 19.671875 0 
L 9.8125 0 
z
" id="DejaVuSans-46"/>
      </defs>
      <g transform="translate(251.041807 581.598438)scale(0.1 -0.1)">
       <use xlink:href="#DejaVuSans-46"/>
      </g>
     </g>
    </g>
    <g id="xtick_5">
     <g id="line2d_5">
      <g>
       <use style="stroke:#000000;stroke-width:0.8;" x="274.310461" xlink:href="#m55d9cb016a" y="567"/>
      </g>
     </g>
     <g id="text_5">
      <!-- S -->
      <defs>
       <path d="M 53.515625 70.515625 
L 53.515625 60.890625 
Q 47.90625 63.578125 42.921875 64.890625 
Q 37.9375 66.21875 33.296875 66.21875 
Q 25.25 66.21875 20.875 63.09375 
Q 16.5 59.96875 16.5 54.203125 
Q 16.5 49.359375 19.40625 46.890625 
Q 22.3125 44.4375 30.421875 42.921875 
L 36.375 41.703125 
Q 47.40625 39.59375 52.65625 34.296875 
Q 57.90625 29 57.90625 20.125 
Q 57.90625 9.515625 50.796875 4.046875 
Q 43.703125 -1.421875 29.984375 -1.421875 
Q 24.8125 -1.421875 18.96875 -0.25 
Q 13.140625 0.921875 6.890625 3.21875 
L 6.890625 13.375 
Q 12.890625 10.015625 18.65625 8.296875 
Q 24.421875 6.59375 29.984375 6.59375 
Q 38.421875 6.59375 43.015625 9.90625 
Q 47.609375 13.234375 47.609375 19.390625 
Q 47.609375 24.75 44.3125 27.78125 
Q 41.015625 30.8125 33.5 32.328125 
L 27.484375 33.5 
Q 16.453125 35.6875 11.515625 40.375 
Q 6.59375 45.0625 6.59375 53.421875 
Q 6.59375 63.09375 13.40625 68.65625 
Q 20.21875 74.21875 32.171875 74.21875 
Q 37.3125 74.21875 42.625 73.28125 
Q 47.953125 72.359375 53.515625 70.515625 
z
" id="DejaVuSans-53"/>
      </defs>
      <g transform="translate(271.136243 581.598438)scale(0.1 -0.1)">
       <use xlink:href="#DejaVuSans-53"/>
      </g>
     </g>
    </g>
    <g id="xtick_6">
     <g id="line2d_6">
      <g>
       <use style="stroke:#000000;stroke-width:0.8;" x="294.703335" xlink:href="#m55d9cb016a" y="567"/>
      </g>
     </g>
     <g id="text_6">
      <!-- S -->
      <g transform="translate(291.529116 581.598438)scale(0.1 -0.1)">
       <use xlink:href="#DejaVuSans-53"/>
      </g>
     </g>
    </g>
    <g id="xtick_7">
     <g id="line2d_7">
      <g>
       <use style="stroke:#000000;stroke-width:0.8;" x="315.096208" xlink:href="#m55d9cb016a" y="567"/>
      </g>
     </g>
     <g id="text_7">
      <!-- M -->
      <defs>
       <path d="M 9.8125 72.90625 
L 24.515625 72.90625 
L 43.109375 23.296875 
L 61.8125 72.90625 
L 76.515625 72.90625 
L 76.515625 0 
L 66.890625 0 
L 66.890625 64.015625 
L 48.09375 14.015625 
L 38.1875 14.015625 
L 19.390625 64.015625 
L 19.390625 0 
L 9.8125 0 
z
" id="DejaVuSans-4d"/>
      </defs>
      <g transform="translate(310.782146 581.598438)scale(0.1 -0.1)">
       <use xlink:href="#DejaVuSans-4d"/>
      </g>
     </g>
    </g>
    <g id="xtick_8">
     <g id="line2d_8">
      <g>
       <use style="stroke:#000000;stroke-width:0.8;" x="335.489082" xlink:href="#m55d9cb016a" y="567"/>
      </g>
     </g>
     <g id="text_8">
      <!-- T -->
      <g transform="translate(332.435176 581.598438)scale(0.1 -0.1)">
       <use xlink:href="#DejaVuSans-54"/>
      </g>
     </g>
    </g>
    <g id="xtick_9">
     <g id="line2d_9">
      <g>
       <use style="stroke:#000000;stroke-width:0.8;" x="355.881955" xlink:href="#m55d9cb016a" y="567"/>
      </g>
     </g>
     <g id="text_9">
      <!-- W -->
      <g transform="translate(350.938205 581.598438)scale(0.1 -0.1)">
       <use xlink:href="#DejaVuSans-57"/>
      </g>
     </g>
    </g>
    <g id="xtick_10">
     <g id="line2d_10">
      <g>
       <use style="stroke:#000000;stroke-width:0.8;" x="376.274829" xlink:href="#m55d9cb016a" y="567"/>
      </g>
     </g>
     <g id="text_10">
      <!-- T -->
      <g transform="translate(373.220922 581.598438)scale(0.1 -0.1)">
       <use xlink:href="#DejaVuSans-54"/>
      </g>
     </g>
    </g>
    <g id="xtick_11">
     <g id="line2d_11">
      <g>
       <use style="stroke:#000000;stroke-width:0.8;" x="396.667702" xlink:href="#m55d9cb016a" y="567"/>
      </g>
     </g>
     <g id="text_11">
      <!-- F -->
      <g transform="translate(393.791921 581.598438)scale(0.1 -0.1)">
       <use xlink:href="#DejaVuSans-46"/>
      </g>
     </g>
    </g>
    <g id="xtick_12">
     <g id="line2d_12">
      <g>
       <use style="stroke:#000000;stroke-width:0.8;" x="417.060576" xlink:href="#m55d9cb016a" y="567"/>
      </g>
     </g>
     <g id="text_12">
      <!-- S -->
      <g transform="translate(413.886357 581.598438)scale(0.1 -0.1)">
       <use xlink:href="#DejaVuSans-53"/>
      </g>
     </g>
    </g>
    <g id="xtick_13">
     <g id="line2d_13">
      <g>
       <use style="stroke:#000000;stroke-width:0.8;" x="437.453449" xlink:href="#m55d9cb016a" y="567"/>
      </g>
     </g>
     <g id="text_13">
      <!-- S -->
      <g transform="translate(434.27923 581.598438)scale(0.1 -0.1)">
       <use xlink:href="#DejaVuSans-53"/>
      </g>
     </g>
    </g>
    <g id="xtick_14">
     <g id="line2d_14">
      <g>
       <use style="stroke:#000000;stroke-width:0.8;" x="457.846323" xlink:href="#m55d9cb016a" y="567"/>
      </g>
     </g>
     <g id="text_14">
      <!-- M -->
      <g transform="translate(453.53226 581.598438)scale(0.1 -0.1)">
       <use xlink:href="#DejaVuSans-4d"/>
      </g>
     </g>
    </g>
    <g id="xtick_15">
     <g id="line2d_15">
      <g>
       <use style="stroke:#000000;stroke-width:0.8;" x="478.239196" xlink:href="#m55d9cb016a" y="567"/>
      </g>
     </g>
     <g id="text_15">
      <!-- T -->
      <g transform="translate(475.18529 581.598438)scale(0.1 -0.1)">
       <use xlink:href="#DejaVuSans-54"/>
      </g>
     </g>
    </g>
    <g id="xtick_16">
     <g id="line2d_16">
      <g>
       <use style="stroke:#000000;stroke-width:0.8;" x="498.632069" xlink:href="#m55d9cb016a" y="567"/>
      </g>
     </g>
     <g id="text_16">
      <!-- W -->
      <g transform="translate(493.688319 581.598438)scale(0.1 -0.1)">
       <use xlink:href="#DejaVuSans-57"/>
      </g>
     </g>
    </g>
    <g id="xtick_17">
     <g id="line2d_17">
      <g>
       <use style="stroke:#000000;stroke-width:0.8;" x="519.024943" xlink:href="#m55d9cb016a" y="567"/>
      </g>
     </g>
     <g id="text_17">
      <!-- T -->
      <g transform="translate(515.971037 581.598438)scale(0.1 -0.1)">
       <use xlink:href="#DejaVuSans-54"/>
      </g>
     </g>
    </g>
    <g id="xtick_18">
     <g id="line2d_18">
      <g>
       <use style="stroke:#000000;stroke-width:0.8;" x="539.417816" xlink:href="#m55d9cb016a" y="567"/>
      </g>
     </g>
     <g id="text_18">
      <!-- F -->
      <g transform="translate(536.542035 581.598438)scale(0.1 -0.1)">
       <use xlink:href="#DejaVuSans-46"/>
      </g>
     </g>
    </g>
    <g id="xtick_19">
     <g id="line2d_19">
      <g>
       <use style="stroke:#000000;stroke-width:0.8;" x="559.81069" xlink:href="#m55d9cb016a" y="567"/>
      </g>
     </g>
     <g id="text_19">
      <!-- S -->
      <g transform="translate(556.636471 581.598438)scale(0.1 -0.1)">
       <use xlink:href="#DejaVuSans-53"/>
      </g>
     </g>
    </g>
    <g id="xtick_20">
     <g id="line2d_20">
      <g>
       <use style="stroke:#000000;stroke-width:0.8;" x="580.203563" xlink:href="#m55d9cb016a" y="567"/>
      </g>
     </g>
     <g id="text_20">
      <!-- S -->
      <g transform="translate(577.029345 581.598438)scale(0.1 -0.1)">
       <use xlink:href="#DejaVuSans-53"/>
      </g>
     </g>
    </g>
    <g id="xtick_21">
     <g id="line2d_21">
      <g>
       <use style="stroke:#000000;stroke-width:0.8;" x="600.596437" xlink:href="#m55d9cb016a" y="567"/>
      </g>
     </g>
     <g id="text_21">
      <!-- M -->
      <g transform="translate(596.282374 581.598438)scale(0.1 -0.1)">
       <use xlink:href="#DejaVuSans-4d"/>
      </g>
     </g>
    </g>
    <g id="xtick_22">
     <g id="line2d_22">
      <g>
       <use style="stroke:#000000;stroke-width:0.8;" x="620.98931" xlink:href="#m55d9cb016a" y="567"/>
      </g>
     </g>
     <g id="text_22">
      <!-- T -->
      <g transform="translate(617.935404 581.598438)scale(0.1 -0.1)">
       <use xlink:href="#DejaVuSans-54"/>
      </g>
     </g>
    </g>
    <g id="xtick_23">
     <g id="line2d_23">
      <g>
       <use style="stroke:#000000;stroke-width:0.8;" x="641.382184" xlink:href="#m55d9cb016a" y="567"/>
      </g>
     </g>
     <g id="text_23">
      <!-- W -->
      <g transform="translate(636.438434 581.598438)scale(0.1 -0.1)">
       <use xlink:href="#DejaVuSans-57"/>
      </g>
     </g>
    </g>
    <g id="xtick_24">
     <g id="line2d_24">
      <g>
       <use style="stroke:#000000;stroke-width:0.8;" x="661.775057" xlink:href="#m55d9cb016a" y="567"/>
      </g>
     </g>
     <g id="text_24">
      <!-- T -->
      <g transform="translate(658.721151 581.598438)scale(0.1 -0.1)">
       <use xlink:href="#DejaVuSans-54"/>
      </g>
     </g>
    </g>
    <g id="xtick_25">
     <g id="line2d_25">
      <g>
       <use style="stroke:#000000;stroke-width:0.8;" x="682.167931" xlink:href="#m55d9cb016a" y="567"/>
      </g>
     </g>
     <g id="text_25">
      <!-- F -->
      <g transform="translate(679.292149 581.598438)scale(0.1 -0.1)">
       <use xlink:href="#DejaVuSans-46"/>
      </g>
     </g>
    </g>
    <g id="xtick_26">
     <g id="line2d_26">
      <g>
       <use style="stroke:#000000;stroke-width:0.8;" x="702.560804" xlink:href="#m55d9cb016a" y="567"/>
      </g>
     </g>
     <g id="text_26">
      <!-- S -->
      <g transform="translate(699.386585 581.598438)scale(0.1 -0.1)">
       <use xlink:href="#DejaVuSans-53"/>
      </g>
     </g>
    </g>
    <g id="xtick_27">
     <g id="line2d_27">
      <g>
       <use style="stroke:#000000;stroke-width:0.8;" x="722.953677" xlink:href="#m55d9cb016a" y="567"/>
      </g>
     </g>
     <g id="text_27">
      <!-- S -->
      <g transform="translate(719.779459 581.598438)scale(0.1 -0.1)">
       <use xlink:href="#DejaVuSans-53"/>
      </g>
     </g>
    </g>
    <g id="xtick_28">
     <g id="line2d_28">
      <g>
       <use style="stroke:#000000;stroke-width:0.8;" x="743.346551" xlink:href="#m55d9cb016a" y="567"/>
      </g>
     </g>
     <g id="text_28">
      <!-- M -->
      <g transform="translate(739.032488 581.598438)scale(0.1 -0.1)">
       <use xlink:href="#DejaVuSans-4d"/>
      </g>
     </g>
    </g>
    <g id="xtick_29">
     <g id="line2d_29">
      <g>
       <use style="stroke:#000000;stroke-width:0.8;" x="763.739424" xlink:href="#m55d9cb016a" y="567"/>
      </g>
     </g>
     <g id="text_29">
      <!-- T -->
      <g transform="translate(760.685518 581.598438)scale(0.1 -0.1)">
       <use xlink:href="#DejaVuSans-54"/>
      </g>
     </g>
    </g>
    <g id="xtick_30">
     <g id="line2d_30">
      <g>
       <use style="stroke:#000000;stroke-width:0.8;" x="784.132298" xlink:href="#m55d9cb016a" y="567"/>
      </g>
     </g>
     <g id="text_30">
      <!-- W -->
      <g transform="translate(779.188548 581.598438)scale(0.1 -0.1)">
       <use xlink:href="#DejaVuSans-57"/>
      </g>
     </g>
    </g>
    <g id="xtick_31">
     <g id="line2d_31">
      <g>
       <use style="stroke:#000000;stroke-width:0.8;" x="804.525171" xlink:href="#m55d9cb016a" y="567"/>
      </g>
     </g>
     <g id="text_31">
      <!-- T -->
      <g transform="translate(801.471265 581.598438)scale(0.1 -0.1)">
       <use xlink:href="#DejaVuSans-54"/>
      </g>
     </g>
    </g>
    <g id="xtick_32">
     <g id="line2d_32">
      <g>
       <use style="stroke:#000000;stroke-width:0.8;" x="824.918045" xlink:href="#m55d9cb016a" y="567"/>
      </g>
     </g>
     <g id="text_32">
      <!-- F -->
      <g transform="translate(822.042264 581.598438)scale(0.1 -0.1)">
       <use xlink:href="#DejaVuSans-46"/>
      </g>
     </g>
    </g>
    <g id="xtick_33">
     <g id="line2d_33">
      <g>
       <use style="stroke:#000000;stroke-width:0.8;" x="845.310918" xlink:href="#m55d9cb016a" y="567"/>
      </g>
     </g>
     <g id="text_33">
      <!-- S -->
      <g transform="translate(842.136699 581.598438)scale(0.1 -0.1)">
       <use xlink:href="#DejaVuSans-53"/>
      </g>
     </g>
    </g>
    <g id="xtick_34">
     <g id="line2d_34">
      <g>
       <use style="stroke:#000000;stroke-width:0.8;" x="865.703792" xlink:href="#m55d9cb016a" y="567"/>
      </g>
     </g>
     <g id="text_34">
      <!-- S -->
      <g transform="translate(862.529573 581.598438)scale(0.1 -0.1)">
       <use xlink:href="#DejaVuSans-53"/>
      </g>
     </g>
    </g>
    <g id="xtick_35">
     <g id="line2d_35">
      <g>
       <use style="stroke:#000000;stroke-width:0.8;" x="886.096665" xlink:href="#m55d9cb016a" y="567"/>
      </g>
     </g>
     <g id="text_35">
      <!-- M -->
      <g transform="translate(881.782603 581.598438)scale(0.1 -0.1)">
       <use xlink:href="#DejaVuSans-4d"/>
      </g>
     </g>
    </g>
    <g id="xtick_36">
     <g id="line2d_36">
      <g>
       <use style="stroke:#000000;stroke-width:0.8;" x="906.489539" xlink:href="#m55d9cb016a" y="567"/>
      </g>
     </g>
     <g id="text_36">
      <!-- T -->
      <g transform="translate(903.435632 581.598438)scale(0.1 -0.1)">
       <use xlink:href="#DejaVuSans-54"/>
      </g>
     </g>
    </g>
    <g id="xtick_37">
     <g id="line2d_37">
      <g>
       <use style="stroke:#000000;stroke-width:0.8;" x="926.882412" xlink:href="#m55d9cb016a" y="567"/>
      </g>
     </g>
     <g id="text_37">
      <!-- W -->
      <g transform="translate(921.938662 581.598438)scale(0.1 -0.1)">
       <use xlink:href="#DejaVuSans-57"/>
      </g>
     </g>
    </g>
    <g id="xtick_38">
     <g id="line2d_38">
      <g>
       <use style="stroke:#000000;stroke-width:0.8;" x="947.275286" xlink:href="#m55d9cb016a" y="567"/>
      </g>
     </g>
     <g id="text_38">
      <!-- T -->
      <g transform="translate(944.221379 581.598438)scale(0.1 -0.1)">
       <use xlink:href="#DejaVuSans-54"/>
      </g>
     </g>
    </g>
    <g id="xtick_39">
     <g id="line2d_39">
      <g>
       <use style="stroke:#000000;stroke-width:0.8;" x="967.668159" xlink:href="#m55d9cb016a" y="567"/>
      </g>
     </g>
     <g id="text_39">
      <!-- F -->
      <g transform="translate(964.792378 581.598438)scale(0.1 -0.1)">
       <use xlink:href="#DejaVuSans-46"/>
      </g>
     </g>
    </g>
    <g id="xtick_40">
     <g id="line2d_40">
      <g>
       <use style="stroke:#000000;stroke-width:0.8;" x="988.061032" xlink:href="#m55d9cb016a" y="567"/>
      </g>
     </g>
     <g id="text_40">
      <!-- S -->
      <g transform="translate(984.886814 581.598438)scale(0.1 -0.1)">
       <use xlink:href="#DejaVuSans-53"/>
      </g>
     </g>
    </g>
    <g id="text_41">
     <!-- Day -->
     <defs>
      <path d="M 19.671875 64.796875 
L 19.671875 8.109375 
L 31.59375 8.109375 
Q 46.6875 8.109375 53.6875 14.9375 
Q 60.6875 21.78125 60.6875 36.53125 
Q 60.6875 51.171875 53.6875 57.984375 
Q 46.6875 64.796875 31.59375 64.796875 
z
M 9.8125 72.90625 
L 30.078125 72.90625 
Q 51.265625 72.90625 61.171875 64.09375 
Q 71.09375 55.28125 71.09375 36.53125 
Q 71.09375 17.671875 61.125 8.828125 
Q 51.171875 0 30.078125 0 
L 9.8125 0 
z
" id="DejaVuSans-44"/>
      <path d="M 34.28125 27.484375 
Q 23.390625 27.484375 19.1875 25 
Q 14.984375 22.515625 14.984375 16.5 
Q 14.984375 11.71875 18.140625 8.90625 
Q 21.296875 6.109375 26.703125 6.109375 
Q 34.1875 6.109375 38.703125 11.40625 
Q 43.21875 16.703125 43.21875 25.484375 
L 43.21875 27.484375 
z
M 52.203125 31.203125 
L 52.203125 0 
L 43.21875 0 
L 43.21875 8.296875 
Q 40.140625 3.328125 35.546875 0.953125 
Q 30.953125 -1.421875 24.3125 -1.421875 
Q 15.921875 -1.421875 10.953125 3.296875 
Q 6 8.015625 6 15.921875 
Q 6 25.140625 12.171875 29.828125 
Q 18.359375 34.515625 30.609375 34.515625 
L 43.21875 34.515625 
L 43.21875 35.40625 
Q 43.21875 41.609375 39.140625 45 
Q 35.0625 48.390625 27.6875 48.390625 
Q 23 48.390625 18.546875 47.265625 
Q 14.109375 46.140625 10.015625 43.890625 
L 10.015625 52.203125 
Q 14.9375 54.109375 19.578125 55.046875 
Q 24.21875 56 28.609375 56 
Q 40.484375 56 46.34375 49.84375 
Q 52.203125 43.703125 52.203125 31.203125 
z
" id="DejaVuSans-61"/>
      <path d="M 32.171875 -5.078125 
Q 28.375 -14.84375 24.75 -17.8125 
Q 21.140625 -20.796875 15.09375 -20.796875 
L 7.90625 -20.796875 
L 7.90625 -13.28125 
L 13.1875 -13.28125 
Q 16.890625 -13.28125 18.9375 -11.515625 
Q 21 -9.765625 23.484375 -3.21875 
L 25.09375 0.875 
L 2.984375 54.6875 
L 12.5 54.6875 
L 29.59375 11.921875 
L 46.6875 54.6875 
L 56.203125 54.6875 
z
" id="DejaVuSans-79"/>
     </defs>
     <g transform="translate(580.526562 595.276562)scale(0.1 -0.1)">
      <use xlink:href="#DejaVuSans-44"/>
      <use x="77.001953" xlink:href="#DejaVuSans-61"/>
      <use x="138.28125" xlink:href="#DejaVuSans-79"/>
     </g>
    </g>
   </g>
   <g id="matplotlib.axis_2">
    <g id="ytick_1">
     <g id="line2d_41">
      <defs>
       <path d="M 0 0 
L -3.5 0 
" id="mcd10f9b1c4" style="stroke:#000000;stroke-width:0.8;"/>
      </defs>
      <g>
       <use style="stroke:#000000;stroke-width:0.8;" x="144" xlink:href="#mcd10f9b1c4" y="567"/>
      </g>
     </g>
     <g id="text_42">
      <!-- 0 -->
      <defs>
       <path d="M 31.78125 66.40625 
Q 24.171875 66.40625 20.328125 58.90625 
Q 16.5 51.421875 16.5 36.375 
Q 16.5 21.390625 20.328125 13.890625 
Q 24.171875 6.390625 31.78125 6.390625 
Q 39.453125 6.390625 43.28125 13.890625 
Q 47.125 21.390625 47.125 36.375 
Q 47.125 51.421875 43.28125 58.90625 
Q 39.453125 66.40625 31.78125 66.40625 
z
M 31.78125 74.21875 
Q 44.046875 74.21875 50.515625 64.515625 
Q 56.984375 54.828125 56.984375 36.375 
Q 56.984375 17.96875 50.515625 8.265625 
Q 44.046875 -1.421875 31.78125 -1.421875 
Q 19.53125 -1.421875 13.0625 8.265625 
Q 6.59375 17.96875 6.59375 36.375 
Q 6.59375 54.828125 13.0625 64.515625 
Q 19.53125 74.21875 31.78125 74.21875 
z
" id="DejaVuSans-30"/>
      </defs>
      <g transform="translate(130.6375 570.799219)scale(0.1 -0.1)">
       <use xlink:href="#DejaVuSans-30"/>
      </g>
     </g>
    </g>
    <g id="ytick_2">
     <g id="line2d_42">
      <g>
       <use style="stroke:#000000;stroke-width:0.8;" x="144" xlink:href="#mcd10f9b1c4" y="469.152"/>
      </g>
     </g>
     <g id="text_43">
      <!-- 20 -->
      <defs>
       <path d="M 19.1875 8.296875 
L 53.609375 8.296875 
L 53.609375 0 
L 7.328125 0 
L 7.328125 8.296875 
Q 12.9375 14.109375 22.625 23.890625 
Q 32.328125 33.6875 34.8125 36.53125 
Q 39.546875 41.84375 41.421875 45.53125 
Q 43.3125 49.21875 43.3125 52.78125 
Q 43.3125 58.59375 39.234375 62.25 
Q 35.15625 65.921875 28.609375 65.921875 
Q 23.96875 65.921875 18.8125 64.3125 
Q 13.671875 62.703125 7.8125 59.421875 
L 7.8125 69.390625 
Q 13.765625 71.78125 18.9375 73 
Q 24.125 74.21875 28.421875 74.21875 
Q 39.75 74.21875 46.484375 68.546875 
Q 53.21875 62.890625 53.21875 53.421875 
Q 53.21875 48.921875 51.53125 44.890625 
Q 49.859375 40.875 45.40625 35.40625 
Q 44.1875 33.984375 37.640625 27.21875 
Q 31.109375 20.453125 19.1875 8.296875 
z
" id="DejaVuSans-32"/>
      </defs>
      <g transform="translate(124.275 472.951219)scale(0.1 -0.1)">
       <use xlink:href="#DejaVuSans-32"/>
       <use x="63.623047" xlink:href="#DejaVuSans-30"/>
      </g>
     </g>
    </g>
    <g id="ytick_3">
     <g id="line2d_43">
      <g>
       <use style="stroke:#000000;stroke-width:0.8;" x="144" xlink:href="#mcd10f9b1c4" y="371.304"/>
      </g>
     </g>
     <g id="text_44">
      <!-- 40 -->
      <defs>
       <path d="M 37.796875 64.3125 
L 12.890625 25.390625 
L 37.796875 25.390625 
z
M 35.203125 72.90625 
L 47.609375 72.90625 
L 47.609375 25.390625 
L 58.015625 25.390625 
L 58.015625 17.1875 
L 47.609375 17.1875 
L 47.609375 0 
L 37.796875 0 
L 37.796875 17.1875 
L 4.890625 17.1875 
L 4.890625 26.703125 
z
" id="DejaVuSans-34"/>
      </defs>
      <g transform="translate(124.275 375.103219)scale(0.1 -0.1)">
       <use xlink:href="#DejaVuSans-34"/>
       <use x="63.623047" xlink:href="#DejaVuSans-30"/>
      </g>
     </g>
    </g>
    <g id="ytick_4">
     <g id="line2d_44">
      <g>
       <use style="stroke:#000000;stroke-width:0.8;" x="144" xlink:href="#mcd10f9b1c4" y="273.456"/>
      </g>
     </g>
     <g id="text_45">
      <!-- 60 -->
      <defs>
       <path d="M 33.015625 40.375 
Q 26.375 40.375 22.484375 35.828125 
Q 18.609375 31.296875 18.609375 23.390625 
Q 18.609375 15.53125 22.484375 10.953125 
Q 26.375 6.390625 33.015625 6.390625 
Q 39.65625 6.390625 43.53125 10.953125 
Q 47.40625 15.53125 47.40625 23.390625 
Q 47.40625 31.296875 43.53125 35.828125 
Q 39.65625 40.375 33.015625 40.375 
z
M 52.59375 71.296875 
L 52.59375 62.3125 
Q 48.875 64.0625 45.09375 64.984375 
Q 41.3125 65.921875 37.59375 65.921875 
Q 27.828125 65.921875 22.671875 59.328125 
Q 17.53125 52.734375 16.796875 39.40625 
Q 19.671875 43.65625 24.015625 45.921875 
Q 28.375 48.1875 33.59375 48.1875 
Q 44.578125 48.1875 50.953125 41.515625 
Q 57.328125 34.859375 57.328125 23.390625 
Q 57.328125 12.15625 50.6875 5.359375 
Q 44.046875 -1.421875 33.015625 -1.421875 
Q 20.359375 -1.421875 13.671875 8.265625 
Q 6.984375 17.96875 6.984375 36.375 
Q 6.984375 53.65625 15.1875 63.9375 
Q 23.390625 74.21875 37.203125 74.21875 
Q 40.921875 74.21875 44.703125 73.484375 
Q 48.484375 72.75 52.59375 71.296875 
z
" id="DejaVuSans-36"/>
      </defs>
      <g transform="translate(124.275 277.255219)scale(0.1 -0.1)">
       <use xlink:href="#DejaVuSans-36"/>
       <use x="63.623047" xlink:href="#DejaVuSans-30"/>
      </g>
     </g>
    </g>
    <g id="ytick_5">
     <g id="line2d_45">
      <g>
       <use style="stroke:#000000;stroke-width:0.8;" x="144" xlink:href="#mcd10f9b1c4" y="175.608"/>
      </g>
     </g>
     <g id="text_46">
      <!-- 80 -->
      <defs>
       <path d="M 31.78125 34.625 
Q 24.75 34.625 20.71875 30.859375 
Q 16.703125 27.09375 16.703125 20.515625 
Q 16.703125 13.921875 20.71875 10.15625 
Q 24.75 6.390625 31.78125 6.390625 
Q 38.8125 6.390625 42.859375 10.171875 
Q 46.921875 13.96875 46.921875 20.515625 
Q 46.921875 27.09375 42.890625 30.859375 
Q 38.875 34.625 31.78125 34.625 
z
M 21.921875 38.8125 
Q 15.578125 40.375 12.03125 44.71875 
Q 8.5 49.078125 8.5 55.328125 
Q 8.5 64.0625 14.71875 69.140625 
Q 20.953125 74.21875 31.78125 74.21875 
Q 42.671875 74.21875 48.875 69.140625 
Q 55.078125 64.0625 55.078125 55.328125 
Q 55.078125 49.078125 51.53125 44.71875 
Q 48 40.375 41.703125 38.8125 
Q 48.828125 37.15625 52.796875 32.3125 
Q 56.78125 27.484375 56.78125 20.515625 
Q 56.78125 9.90625 50.3125 4.234375 
Q 43.84375 -1.421875 31.78125 -1.421875 
Q 19.734375 -1.421875 13.25 4.234375 
Q 6.78125 9.90625 6.78125 20.515625 
Q 6.78125 27.484375 10.78125 32.3125 
Q 14.796875 37.15625 21.921875 38.8125 
z
M 18.3125 54.390625 
Q 18.3125 48.734375 21.84375 45.5625 
Q 25.390625 42.390625 31.78125 42.390625 
Q 38.140625 42.390625 41.71875 45.5625 
Q 45.3125 48.734375 45.3125 54.390625 
Q 45.3125 60.0625 41.71875 63.234375 
Q 38.140625 66.40625 31.78125 66.40625 
Q 25.390625 66.40625 21.84375 63.234375 
Q 18.3125 60.0625 18.3125 54.390625 
z
" id="DejaVuSans-38"/>
      </defs>
      <g transform="translate(124.275 179.407219)scale(0.1 -0.1)">
       <use xlink:href="#DejaVuSans-38"/>
       <use x="63.623047" xlink:href="#DejaVuSans-30"/>
      </g>
     </g>
    </g>
    <g id="ytick_6">
     <g id="line2d_46">
      <g>
       <use style="stroke:#000000;stroke-width:0.8;" x="144" xlink:href="#mcd10f9b1c4" y="77.76"/>
      </g>
     </g>
     <g id="text_47">
      <!-- 100 -->
      <defs>
       <path d="M 12.40625 8.296875 
L 28.515625 8.296875 
L 28.515625 63.921875 
L 10.984375 60.40625 
L 10.984375 69.390625 
L 28.421875 72.90625 
L 38.28125 72.90625 
L 38.28125 8.296875 
L 54.390625 8.296875 
L 54.390625 0 
L 12.40625 0 
z
" id="DejaVuSans-31"/>
      </defs>
      <g transform="translate(117.9125 81.559219)scale(0.1 -0.1)">
       <use xlink:href="#DejaVuSans-31"/>
       <use x="63.623047" xlink:href="#DejaVuSans-30"/>
       <use x="127.246094" xlink:href="#DejaVuSans-30"/>
      </g>
     </g>
    </g>
    <g id="text_48">
     <!-- Percentage -->
     <defs>
      <path d="M 19.671875 64.796875 
L 19.671875 37.40625 
L 32.078125 37.40625 
Q 38.96875 37.40625 42.71875 40.96875 
Q 46.484375 44.53125 46.484375 51.125 
Q 46.484375 57.671875 42.71875 61.234375 
Q 38.96875 64.796875 32.078125 64.796875 
z
M 9.8125 72.90625 
L 32.078125 72.90625 
Q 44.34375 72.90625 50.609375 67.359375 
Q 56.890625 61.8125 56.890625 51.125 
Q 56.890625 40.328125 50.609375 34.8125 
Q 44.34375 29.296875 32.078125 29.296875 
L 19.671875 29.296875 
L 19.671875 0 
L 9.8125 0 
z
" id="DejaVuSans-50"/>
      <path d="M 56.203125 29.59375 
L 56.203125 25.203125 
L 14.890625 25.203125 
Q 15.484375 15.921875 20.484375 11.0625 
Q 25.484375 6.203125 34.421875 6.203125 
Q 39.59375 6.203125 44.453125 7.46875 
Q 49.3125 8.734375 54.109375 11.28125 
L 54.109375 2.78125 
Q 49.265625 0.734375 44.1875 -0.34375 
Q 39.109375 -1.421875 33.890625 -1.421875 
Q 20.796875 -1.421875 13.15625 6.1875 
Q 5.515625 13.8125 5.515625 26.8125 
Q 5.515625 40.234375 12.765625 48.109375 
Q 20.015625 56 32.328125 56 
Q 43.359375 56 49.78125 48.890625 
Q 56.203125 41.796875 56.203125 29.59375 
z
M 47.21875 32.234375 
Q 47.125 39.59375 43.09375 43.984375 
Q 39.0625 48.390625 32.421875 48.390625 
Q 24.90625 48.390625 20.390625 44.140625 
Q 15.875 39.890625 15.1875 32.171875 
z
" id="DejaVuSans-65"/>
      <path d="M 41.109375 46.296875 
Q 39.59375 47.171875 37.8125 47.578125 
Q 36.03125 48 33.890625 48 
Q 26.265625 48 22.1875 43.046875 
Q 18.109375 38.09375 18.109375 28.8125 
L 18.109375 0 
L 9.078125 0 
L 9.078125 54.6875 
L 18.109375 54.6875 
L 18.109375 46.1875 
Q 20.953125 51.171875 25.484375 53.578125 
Q 30.03125 56 36.53125 56 
Q 37.453125 56 38.578125 55.875 
Q 39.703125 55.765625 41.0625 55.515625 
z
" id="DejaVuSans-72"/>
      <path d="M 48.78125 52.59375 
L 48.78125 44.1875 
Q 44.96875 46.296875 41.140625 47.34375 
Q 37.3125 48.390625 33.40625 48.390625 
Q 24.65625 48.390625 19.8125 42.84375 
Q 14.984375 37.3125 14.984375 27.296875 
Q 14.984375 17.28125 19.8125 11.734375 
Q 24.65625 6.203125 33.40625 6.203125 
Q 37.3125 6.203125 41.140625 7.25 
Q 44.96875 8.296875 48.78125 10.40625 
L 48.78125 2.09375 
Q 45.015625 0.34375 40.984375 -0.53125 
Q 36.96875 -1.421875 32.421875 -1.421875 
Q 20.0625 -1.421875 12.78125 6.34375 
Q 5.515625 14.109375 5.515625 27.296875 
Q 5.515625 40.671875 12.859375 48.328125 
Q 20.21875 56 33.015625 56 
Q 37.15625 56 41.109375 55.140625 
Q 45.0625 54.296875 48.78125 52.59375 
z
" id="DejaVuSans-63"/>
      <path d="M 54.890625 33.015625 
L 54.890625 0 
L 45.90625 0 
L 45.90625 32.71875 
Q 45.90625 40.484375 42.875 44.328125 
Q 39.84375 48.1875 33.796875 48.1875 
Q 26.515625 48.1875 22.3125 43.546875 
Q 18.109375 38.921875 18.109375 30.90625 
L 18.109375 0 
L 9.078125 0 
L 9.078125 54.6875 
L 18.109375 54.6875 
L 18.109375 46.1875 
Q 21.34375 51.125 25.703125 53.5625 
Q 30.078125 56 35.796875 56 
Q 45.21875 56 50.046875 50.171875 
Q 54.890625 44.34375 54.890625 33.015625 
z
" id="DejaVuSans-6e"/>
      <path d="M 18.3125 70.21875 
L 18.3125 54.6875 
L 36.8125 54.6875 
L 36.8125 47.703125 
L 18.3125 47.703125 
L 18.3125 18.015625 
Q 18.3125 11.328125 20.140625 9.421875 
Q 21.96875 7.515625 27.59375 7.515625 
L 36.8125 7.515625 
L 36.8125 0 
L 27.59375 0 
Q 17.1875 0 13.234375 3.875 
Q 9.28125 7.765625 9.28125 18.015625 
L 9.28125 47.703125 
L 2.6875 47.703125 
L 2.6875 54.6875 
L 9.28125 54.6875 
L 9.28125 70.21875 
z
" id="DejaVuSans-74"/>
      <path d="M 45.40625 27.984375 
Q 45.40625 37.75 41.375 43.109375 
Q 37.359375 48.484375 30.078125 48.484375 
Q 22.859375 48.484375 18.828125 43.109375 
Q 14.796875 37.75 14.796875 27.984375 
Q 14.796875 18.265625 18.828125 12.890625 
Q 22.859375 7.515625 30.078125 7.515625 
Q 37.359375 7.515625 41.375 12.890625 
Q 45.40625 18.265625 45.40625 27.984375 
z
M 54.390625 6.78125 
Q 54.390625 -7.171875 48.1875 -13.984375 
Q 42 -20.796875 29.203125 -20.796875 
Q 24.46875 -20.796875 20.265625 -20.09375 
Q 16.0625 -19.390625 12.109375 -17.921875 
L 12.109375 -9.1875 
Q 16.0625 -11.328125 19.921875 -12.34375 
Q 23.78125 -13.375 27.78125 -13.375 
Q 36.625 -13.375 41.015625 -8.765625 
Q 45.40625 -4.15625 45.40625 5.171875 
L 45.40625 9.625 
Q 42.625 4.78125 38.28125 2.390625 
Q 33.9375 0 27.875 0 
Q 17.828125 0 11.671875 7.65625 
Q 5.515625 15.328125 5.515625 27.984375 
Q 5.515625 40.671875 11.671875 48.328125 
Q 17.828125 56 27.875 56 
Q 33.9375 56 38.28125 53.609375 
Q 42.625 51.21875 45.40625 46.390625 
L 45.40625 54.6875 
L 54.390625 54.6875 
z
" id="DejaVuSans-67"/>
     </defs>
     <g transform="translate(111.832812 350.7925)rotate(-90)scale(0.1 -0.1)">
      <use xlink:href="#DejaVuSans-50"/>
      <use x="60.255859" xlink:href="#DejaVuSans-65"/>
      <use x="121.779297" xlink:href="#DejaVuSans-72"/>
      <use x="162.861328" xlink:href="#DejaVuSans-63"/>
      <use x="217.841797" xlink:href="#DejaVuSans-65"/>
      <use x="279.365234" xlink:href="#DejaVuSans-6e"/>
      <use x="342.744141" xlink:href="#DejaVuSans-74"/>
      <use x="381.953125" xlink:href="#DejaVuSans-61"/>
      <use x="443.232422" xlink:href="#DejaVuSans-67"/>
      <use x="506.708984" xlink:href="#DejaVuSans-65"/>
     </g>
    </g>
   </g>
   <g id="patch_163">
    <path d="M 144 567 
L 144 77.76 
" style="fill:none;stroke:#000000;stroke-linecap:square;stroke-linejoin:miter;stroke-width:0.8;"/>
   </g>
   <g id="patch_164">
    <path d="M 1036.8 567 
L 1036.8 77.76 
" style="fill:none;stroke:#000000;stroke-linecap:square;stroke-linejoin:miter;stroke-width:0.8;"/>
   </g>
   <g id="patch_165">
    <path d="M 144 567 
L 1036.8 567 
" style="fill:none;stroke:#000000;stroke-linecap:square;stroke-linejoin:miter;stroke-width:0.8;"/>
   </g>
   <g id="patch_166">
    <path d="M 144 77.76 
L 1036.8 77.76 
" style="fill:none;stroke:#000000;stroke-linecap:square;stroke-linejoin:miter;stroke-width:0.8;"/>
   </g>
   <g id="text_49">
    <!-- Daily percentage of each sentiment class -->
    <defs>
     <path d="M 9.421875 54.6875 
L 18.40625 54.6875 
L 18.40625 0 
L 9.421875 0 
z
M 9.421875 75.984375 
L 18.40625 75.984375 
L 18.40625 64.59375 
L 9.421875 64.59375 
z
" id="DejaVuSans-69"/>
     <path d="M 9.421875 75.984375 
L 18.40625 75.984375 
L 18.40625 0 
L 9.421875 0 
z
" id="DejaVuSans-6c"/>
     <path id="DejaVuSans-20"/>
     <path d="M 18.109375 8.203125 
L 18.109375 -20.796875 
L 9.078125 -20.796875 
L 9.078125 54.6875 
L 18.109375 54.6875 
L 18.109375 46.390625 
Q 20.953125 51.265625 25.265625 53.625 
Q 29.59375 56 35.59375 56 
Q 45.5625 56 51.78125 48.09375 
Q 58.015625 40.1875 58.015625 27.296875 
Q 58.015625 14.40625 51.78125 6.484375 
Q 45.5625 -1.421875 35.59375 -1.421875 
Q 29.59375 -1.421875 25.265625 0.953125 
Q 20.953125 3.328125 18.109375 8.203125 
z
M 48.6875 27.296875 
Q 48.6875 37.203125 44.609375 42.84375 
Q 40.53125 48.484375 33.40625 48.484375 
Q 26.265625 48.484375 22.1875 42.84375 
Q 18.109375 37.203125 18.109375 27.296875 
Q 18.109375 17.390625 22.1875 11.75 
Q 26.265625 6.109375 33.40625 6.109375 
Q 40.53125 6.109375 44.609375 11.75 
Q 48.6875 17.390625 48.6875 27.296875 
z
" id="DejaVuSans-70"/>
     <path d="M 30.609375 48.390625 
Q 23.390625 48.390625 19.1875 42.75 
Q 14.984375 37.109375 14.984375 27.296875 
Q 14.984375 17.484375 19.15625 11.84375 
Q 23.34375 6.203125 30.609375 6.203125 
Q 37.796875 6.203125 41.984375 11.859375 
Q 46.1875 17.53125 46.1875 27.296875 
Q 46.1875 37.015625 41.984375 42.703125 
Q 37.796875 48.390625 30.609375 48.390625 
z
M 30.609375 56 
Q 42.328125 56 49.015625 48.375 
Q 55.71875 40.765625 55.71875 27.296875 
Q 55.71875 13.875 49.015625 6.21875 
Q 42.328125 -1.421875 30.609375 -1.421875 
Q 18.84375 -1.421875 12.171875 6.21875 
Q 5.515625 13.875 5.515625 27.296875 
Q 5.515625 40.765625 12.171875 48.375 
Q 18.84375 56 30.609375 56 
z
" id="DejaVuSans-6f"/>
     <path d="M 37.109375 75.984375 
L 37.109375 68.5 
L 28.515625 68.5 
Q 23.6875 68.5 21.796875 66.546875 
Q 19.921875 64.59375 19.921875 59.515625 
L 19.921875 54.6875 
L 34.71875 54.6875 
L 34.71875 47.703125 
L 19.921875 47.703125 
L 19.921875 0 
L 10.890625 0 
L 10.890625 47.703125 
L 2.296875 47.703125 
L 2.296875 54.6875 
L 10.890625 54.6875 
L 10.890625 58.5 
Q 10.890625 67.625 15.140625 71.796875 
Q 19.390625 75.984375 28.609375 75.984375 
z
" id="DejaVuSans-66"/>
     <path d="M 54.890625 33.015625 
L 54.890625 0 
L 45.90625 0 
L 45.90625 32.71875 
Q 45.90625 40.484375 42.875 44.328125 
Q 39.84375 48.1875 33.796875 48.1875 
Q 26.515625 48.1875 22.3125 43.546875 
Q 18.109375 38.921875 18.109375 30.90625 
L 18.109375 0 
L 9.078125 0 
L 9.078125 75.984375 
L 18.109375 75.984375 
L 18.109375 46.1875 
Q 21.34375 51.125 25.703125 53.5625 
Q 30.078125 56 35.796875 56 
Q 45.21875 56 50.046875 50.171875 
Q 54.890625 44.34375 54.890625 33.015625 
z
" id="DejaVuSans-68"/>
     <path d="M 44.28125 53.078125 
L 44.28125 44.578125 
Q 40.484375 46.53125 36.375 47.5 
Q 32.28125 48.484375 27.875 48.484375 
Q 21.1875 48.484375 17.84375 46.4375 
Q 14.5 44.390625 14.5 40.28125 
Q 14.5 37.15625 16.890625 35.375 
Q 19.28125 33.59375 26.515625 31.984375 
L 29.59375 31.296875 
Q 39.15625 29.25 43.1875 25.515625 
Q 47.21875 21.78125 47.21875 15.09375 
Q 47.21875 7.46875 41.1875 3.015625 
Q 35.15625 -1.421875 24.609375 -1.421875 
Q 20.21875 -1.421875 15.453125 -0.5625 
Q 10.6875 0.296875 5.421875 2 
L 5.421875 11.28125 
Q 10.40625 8.6875 15.234375 7.390625 
Q 20.0625 6.109375 24.8125 6.109375 
Q 31.15625 6.109375 34.5625 8.28125 
Q 37.984375 10.453125 37.984375 14.40625 
Q 37.984375 18.0625 35.515625 20.015625 
Q 33.0625 21.96875 24.703125 23.78125 
L 21.578125 24.515625 
Q 13.234375 26.265625 9.515625 29.90625 
Q 5.8125 33.546875 5.8125 39.890625 
Q 5.8125 47.609375 11.28125 51.796875 
Q 16.75 56 26.8125 56 
Q 31.78125 56 36.171875 55.265625 
Q 40.578125 54.546875 44.28125 53.078125 
z
" id="DejaVuSans-73"/>
     <path d="M 52 44.1875 
Q 55.375 50.25 60.0625 53.125 
Q 64.75 56 71.09375 56 
Q 79.640625 56 84.28125 50.015625 
Q 88.921875 44.046875 88.921875 33.015625 
L 88.921875 0 
L 79.890625 0 
L 79.890625 32.71875 
Q 79.890625 40.578125 77.09375 44.375 
Q 74.3125 48.1875 68.609375 48.1875 
Q 61.625 48.1875 57.5625 43.546875 
Q 53.515625 38.921875 53.515625 30.90625 
L 53.515625 0 
L 44.484375 0 
L 44.484375 32.71875 
Q 44.484375 40.625 41.703125 44.40625 
Q 38.921875 48.1875 33.109375 48.1875 
Q 26.21875 48.1875 22.15625 43.53125 
Q 18.109375 38.875 18.109375 30.90625 
L 18.109375 0 
L 9.078125 0 
L 9.078125 54.6875 
L 18.109375 54.6875 
L 18.109375 46.1875 
Q 21.1875 51.21875 25.484375 53.609375 
Q 29.78125 56 35.6875 56 
Q 41.65625 56 45.828125 52.96875 
Q 50 49.953125 52 44.1875 
z
" id="DejaVuSans-6d"/>
    </defs>
    <g transform="translate(465.916875 71.76)scale(0.12 -0.12)">
     <use xlink:href="#DejaVuSans-44"/>
     <use x="77.001953" xlink:href="#DejaVuSans-61"/>
     <use x="138.28125" xlink:href="#DejaVuSans-69"/>
     <use x="166.064453" xlink:href="#DejaVuSans-6c"/>
     <use x="193.847656" xlink:href="#DejaVuSans-79"/>
     <use x="253.027344" xlink:href="#DejaVuSans-20"/>
     <use x="284.814453" xlink:href="#DejaVuSans-70"/>
     <use x="348.291016" xlink:href="#DejaVuSans-65"/>
     <use x="409.814453" xlink:href="#DejaVuSans-72"/>
     <use x="450.896484" xlink:href="#DejaVuSans-63"/>
     <use x="505.876953" xlink:href="#DejaVuSans-65"/>
     <use x="567.400391" xlink:href="#DejaVuSans-6e"/>
     <use x="630.779297" xlink:href="#DejaVuSans-74"/>
     <use x="669.988281" xlink:href="#DejaVuSans-61"/>
     <use x="731.267578" xlink:href="#DejaVuSans-67"/>
     <use x="794.744141" xlink:href="#DejaVuSans-65"/>
     <use x="856.267578" xlink:href="#DejaVuSans-20"/>
     <use x="888.054688" xlink:href="#DejaVuSans-6f"/>
     <use x="949.236328" xlink:href="#DejaVuSans-66"/>
     <use x="984.441406" xlink:href="#DejaVuSans-20"/>
     <use x="1016.228516" xlink:href="#DejaVuSans-65"/>
     <use x="1077.751953" xlink:href="#DejaVuSans-61"/>
     <use x="1139.03125" xlink:href="#DejaVuSans-63"/>
     <use x="1194.011719" xlink:href="#DejaVuSans-68"/>
     <use x="1257.390625" xlink:href="#DejaVuSans-20"/>
     <use x="1289.177734" xlink:href="#DejaVuSans-73"/>
     <use x="1341.277344" xlink:href="#DejaVuSans-65"/>
     <use x="1402.800781" xlink:href="#DejaVuSans-6e"/>
     <use x="1466.179688" xlink:href="#DejaVuSans-74"/>
     <use x="1505.388672" xlink:href="#DejaVuSans-69"/>
     <use x="1533.171875" xlink:href="#DejaVuSans-6d"/>
     <use x="1630.583984" xlink:href="#DejaVuSans-65"/>
     <use x="1692.107422" xlink:href="#DejaVuSans-6e"/>
     <use x="1755.486328" xlink:href="#DejaVuSans-74"/>
     <use x="1794.695312" xlink:href="#DejaVuSans-20"/>
     <use x="1826.482422" xlink:href="#DejaVuSans-63"/>
     <use x="1881.462891" xlink:href="#DejaVuSans-6c"/>
     <use x="1909.246094" xlink:href="#DejaVuSans-61"/>
     <use x="1970.525391" xlink:href="#DejaVuSans-73"/>
     <use x="2022.625" xlink:href="#DejaVuSans-73"/>
    </g>
   </g>
   <g id="legend_1">
    <g id="patch_167">
     <path d="M 151 562 
L 254.071875 562 
Q 256.071875 562 256.071875 560 
L 256.071875 502.2875 
Q 256.071875 500.2875 254.071875 500.2875 
L 151 500.2875 
Q 149 500.2875 149 502.2875 
L 149 560 
Q 149 562 151 562 
z
" style="fill:#ffffff;opacity:0.8;stroke:#cccccc;stroke-linejoin:miter;"/>
    </g>
    <g id="patch_168">
     <path d="M 153 511.885938 
L 173 511.885938 
L 173 504.885938 
L 153 504.885938 
z
" style="fill:#e6194b;"/>
    </g>
    <g id="text_50">
     <!-- Very Negative -->
     <defs>
      <path d="M 28.609375 0 
L 0.78125 72.90625 
L 11.078125 72.90625 
L 34.1875 11.53125 
L 57.328125 72.90625 
L 67.578125 72.90625 
L 39.796875 0 
z
" id="DejaVuSans-56"/>
      <path d="M 9.8125 72.90625 
L 23.09375 72.90625 
L 55.421875 11.921875 
L 55.421875 72.90625 
L 64.984375 72.90625 
L 64.984375 0 
L 51.703125 0 
L 19.390625 60.984375 
L 19.390625 0 
L 9.8125 0 
z
" id="DejaVuSans-4e"/>
      <path d="M 2.984375 54.6875 
L 12.5 54.6875 
L 29.59375 8.796875 
L 46.6875 54.6875 
L 56.203125 54.6875 
L 35.6875 0 
L 23.484375 0 
z
" id="DejaVuSans-76"/>
     </defs>
     <g transform="translate(181 511.885938)scale(0.1 -0.1)">
      <use xlink:href="#DejaVuSans-56"/>
      <use x="68.298828" xlink:href="#DejaVuSans-65"/>
      <use x="129.822266" xlink:href="#DejaVuSans-72"/>
      <use x="170.935547" xlink:href="#DejaVuSans-79"/>
      <use x="230.115234" xlink:href="#DejaVuSans-20"/>
      <use x="261.902344" xlink:href="#DejaVuSans-4e"/>
      <use x="336.707031" xlink:href="#DejaVuSans-65"/>
      <use x="398.230469" xlink:href="#DejaVuSans-67"/>
      <use x="461.707031" xlink:href="#DejaVuSans-61"/>
      <use x="522.986328" xlink:href="#DejaVuSans-74"/>
      <use x="562.195312" xlink:href="#DejaVuSans-69"/>
      <use x="589.978516" xlink:href="#DejaVuSans-76"/>
      <use x="649.158203" xlink:href="#DejaVuSans-65"/>
     </g>
    </g>
    <g id="patch_169">
     <path d="M 153 526.564062 
L 173 526.564062 
L 173 519.564062 
L 153 519.564062 
z
" style="fill:#fabebe;"/>
    </g>
    <g id="text_51">
     <!-- Negative -->
     <g transform="translate(181 526.564062)scale(0.1 -0.1)">
      <use xlink:href="#DejaVuSans-4e"/>
      <use x="74.804688" xlink:href="#DejaVuSans-65"/>
      <use x="136.328125" xlink:href="#DejaVuSans-67"/>
      <use x="199.804688" xlink:href="#DejaVuSans-61"/>
      <use x="261.083984" xlink:href="#DejaVuSans-74"/>
      <use x="300.292969" xlink:href="#DejaVuSans-69"/>
      <use x="328.076172" xlink:href="#DejaVuSans-76"/>
      <use x="387.255859" xlink:href="#DejaVuSans-65"/>
     </g>
    </g>
    <g id="patch_170">
     <path d="M 153 541.242188 
L 173 541.242188 
L 173 534.242188 
L 153 534.242188 
z
" style="fill:#aaffc3;"/>
    </g>
    <g id="text_52">
     <!-- Positive -->
     <g transform="translate(181 541.242188)scale(0.1 -0.1)">
      <use xlink:href="#DejaVuSans-50"/>
      <use x="60.255859" xlink:href="#DejaVuSans-6f"/>
      <use x="121.4375" xlink:href="#DejaVuSans-73"/>
      <use x="173.537109" xlink:href="#DejaVuSans-69"/>
      <use x="201.320312" xlink:href="#DejaVuSans-74"/>
      <use x="240.529297" xlink:href="#DejaVuSans-69"/>
      <use x="268.3125" xlink:href="#DejaVuSans-76"/>
      <use x="327.492188" xlink:href="#DejaVuSans-65"/>
     </g>
    </g>
    <g id="patch_171">
     <path d="M 153 555.920313 
L 173 555.920313 
L 173 548.920313 
L 153 548.920313 
z
" style="fill:#3cb44b;"/>
    </g>
    <g id="text_53">
     <!-- Very Positive -->
     <g transform="translate(181 555.920313)scale(0.1 -0.1)">
      <use xlink:href="#DejaVuSans-56"/>
      <use x="68.298828" xlink:href="#DejaVuSans-65"/>
      <use x="129.822266" xlink:href="#DejaVuSans-72"/>
      <use x="170.935547" xlink:href="#DejaVuSans-79"/>
      <use x="230.115234" xlink:href="#DejaVuSans-20"/>
      <use x="261.902344" xlink:href="#DejaVuSans-50"/>
      <use x="322.158203" xlink:href="#DejaVuSans-6f"/>
      <use x="383.339844" xlink:href="#DejaVuSans-73"/>
      <use x="435.439453" xlink:href="#DejaVuSans-69"/>
      <use x="463.222656" xlink:href="#DejaVuSans-74"/>
      <use x="502.431641" xlink:href="#DejaVuSans-69"/>
      <use x="530.214844" xlink:href="#DejaVuSans-76"/>
      <use x="589.394531" xlink:href="#DejaVuSans-65"/>
     </g>
    </g>
   </g>
  </g>
 </g>
 <defs>
  <clipPath id="p30043c28e6">
   <rect height="489.24" width="892.8" x="144" y="77.76"/>
  </clipPath>
 </defs>
</svg>
