<?xml version="1.0" encoding="utf-8" standalone="no"?>
<!DOCTYPE svg PUBLIC "-//W3C//DTD SVG 1.1//EN"
  "http://www.w3.org/Graphics/SVG/1.1/DTD/svg11.dtd">
<!-- Created with matplotlib (http://matplotlib.org/) -->
<svg height="648pt" version="1.1" viewBox="0 0 1152 648" width="1152pt" xmlns="http://www.w3.org/2000/svg" xmlns:xlink="http://www.w3.org/1999/xlink">
 <defs>
  <style type="text/css">
*{stroke-linecap:butt;stroke-linejoin:round;}
  </style>
 </defs>
 <g id="figure_1">
  <g id="patch_1">
   <path d="M 0 648 
L 1152 648 
L 1152 0 
L 0 0 
z
" style="fill:#ffffff;"/>
  </g>
  <g id="axes_1">
   <g id="patch_2">
    <path d="M 144 567 
L 1036.8 567 
L 1036.8 77.76 
L 144 77.76 
z
" style="fill:#ffffff;"/>
   </g>
   <g id="patch_3">
    <path clip-path="url(#p03bf7b8bd7)" d="M 184.581818 567 
L 197.116743 567 
L 197.116743 514.437025 
L 184.581818 514.437025 
z
" style="fill:#e6194b;"/>
   </g>
   <g id="patch_4">
    <path clip-path="url(#p03bf7b8bd7)" d="M 200.250474 567 
L 212.785398 567 
L 212.785398 495.004816 
L 200.250474 495.004816 
z
" style="fill:#e6194b;"/>
   </g>
   <g id="patch_5">
    <path clip-path="url(#p03bf7b8bd7)" d="M 215.91913 567 
L 228.454054 567 
L 228.454054 494.661012 
L 215.91913 494.661012 
z
" style="fill:#e6194b;"/>
   </g>
   <g id="patch_6">
    <path clip-path="url(#p03bf7b8bd7)" d="M 231.587785 567 
L 244.12271 567 
L 244.12271 492.279709 
L 231.587785 492.279709 
z
" style="fill:#e6194b;"/>
   </g>
   <g id="patch_7">
    <path clip-path="url(#p03bf7b8bd7)" d="M 247.256441 567 
L 259.791365 567 
L 259.791365 528.877403 
L 247.256441 528.877403 
z
" style="fill:#e6194b;"/>
   </g>
   <g id="patch_8">
    <path clip-path="url(#p03bf7b8bd7)" d="M 262.925097 567 
L 275.460021 567 
L 275.460021 548.183077 
L 262.925097 548.183077 
z
" style="fill:#e6194b;"/>
   </g>
   <g id="patch_9">
    <path clip-path="url(#p03bf7b8bd7)" d="M 278.593752 567 
L 291.128677 567 
L 291.128677 479.112575 
L 278.593752 479.112575 
z
" style="fill:#e6194b;"/>
   </g>
   <g id="patch_10">
    <path clip-path="url(#p03bf7b8bd7)" d="M 294.262408 567 
L 306.797332 567 
L 306.797332 495.403902 
L 294.262408 495.403902 
z
" style="fill:#e6194b;"/>
   </g>
   <g id="patch_11">
    <path clip-path="url(#p03bf7b8bd7)" d="M 309.931064 567 
L 322.465988 567 
L 322.465988 520.010847 
L 309.931064 520.010847 
z
" style="fill:#e6194b;"/>
   </g>
   <g id="patch_12">
    <path clip-path="url(#p03bf7b8bd7)" d="M 325.599719 567 
L 338.134644 567 
L 338.134644 435.896471 
L 325.599719 435.896471 
z
" style="fill:#e6194b;"/>
   </g>
   <g id="patch_13">
    <path clip-path="url(#p03bf7b8bd7)" d="M 341.268375 567 
L 353.803299 567 
L 353.803299 436.323518 
L 341.268375 436.323518 
z
" style="fill:#e6194b;"/>
   </g>
   <g id="patch_14">
    <path clip-path="url(#p03bf7b8bd7)" d="M 356.937031 567 
L 369.471955 567 
L 369.471955 443.31573 
L 356.937031 443.31573 
z
" style="fill:#e6194b;"/>
   </g>
   <g id="patch_15">
    <path clip-path="url(#p03bf7b8bd7)" d="M 372.605686 567 
L 385.140611 567 
L 385.140611 552.68078 
L 372.605686 552.68078 
z
" style="fill:#e6194b;"/>
   </g>
   <g id="patch_16">
    <path clip-path="url(#p03bf7b8bd7)" d="M 388.274342 567 
L 400.809266 567 
L 400.809266 482.911875 
L 388.274342 482.911875 
z
" style="fill:#e6194b;"/>
   </g>
   <g id="patch_17">
    <path clip-path="url(#p03bf7b8bd7)" d="M 403.942998 567 
L 416.477922 567 
L 416.477922 502.914249 
L 403.942998 502.914249 
z
" style="fill:#e6194b;"/>
   </g>
   <g id="patch_18">
    <path clip-path="url(#p03bf7b8bd7)" d="M 419.611653 567 
L 432.146578 567 
L 432.146578 509.150676 
L 419.611653 509.150676 
z
" style="fill:#e6194b;"/>
   </g>
   <g id="patch_19">
    <path clip-path="url(#p03bf7b8bd7)" d="M 435.280309 567 
L 447.815233 567 
L 447.815233 509.016 
L 435.280309 509.016 
z
" style="fill:#e6194b;"/>
   </g>
   <g id="patch_20">
    <path clip-path="url(#p03bf7b8bd7)" d="M 450.948965 567 
L 463.483889 567 
L 463.483889 492.449143 
L 450.948965 492.449143 
z
" style="fill:#e6194b;"/>
   </g>
   <g id="patch_21">
    <path clip-path="url(#p03bf7b8bd7)" d="M 466.61762 567 
L 479.152545 567 
L 479.152545 548.538113 
L 466.61762 548.538113 
z
" style="fill:#e6194b;"/>
   </g>
   <g id="patch_22">
    <path clip-path="url(#p03bf7b8bd7)" d="M 482.286276 567 
L 494.8212 567 
L 494.8212 505.845 
L 482.286276 505.845 
z
" style="fill:#e6194b;"/>
   </g>
   <g id="patch_23">
    <path clip-path="url(#p03bf7b8bd7)" d="M 497.954932 567 
L 510.489856 567 
L 510.489856 494.250558 
L 497.954932 494.250558 
z
" style="fill:#e6194b;"/>
   </g>
   <g id="patch_24">
    <path clip-path="url(#p03bf7b8bd7)" d="M 513.623587 567 
L 526.158512 567 
L 526.158512 474.947875 
L 513.623587 474.947875 
z
" style="fill:#e6194b;"/>
   </g>
   <g id="patch_25">
    <path clip-path="url(#p03bf7b8bd7)" d="M 529.292243 567 
L 541.827167 567 
L 541.827167 507.649574 
L 529.292243 507.649574 
z
" style="fill:#e6194b;"/>
   </g>
   <g id="patch_26">
    <path clip-path="url(#p03bf7b8bd7)" d="M 544.960899 567 
L 557.495823 567 
L 557.495823 501.768 
L 544.960899 501.768 
z
" style="fill:#e6194b;"/>
   </g>
   <g id="patch_27">
    <path clip-path="url(#p03bf7b8bd7)" d="M 560.629554 567 
L 573.164479 567 
L 573.164479 452.600597 
L 560.629554 452.600597 
z
" style="fill:#e6194b;"/>
   </g>
   <g id="patch_28">
    <path clip-path="url(#p03bf7b8bd7)" d="M 576.29821 567 
L 588.833134 567 
L 588.833134 475.742798 
L 576.29821 475.742798 
z
" style="fill:#e6194b;"/>
   </g>
   <g id="patch_29">
    <path clip-path="url(#p03bf7b8bd7)" d="M 591.966866 567 
L 604.50179 567 
L 604.50179 491.732308 
L 591.966866 491.732308 
z
" style="fill:#e6194b;"/>
   </g>
   <g id="patch_30">
    <path clip-path="url(#p03bf7b8bd7)" d="M 607.635521 567 
L 620.170446 567 
L 620.170446 523.023371 
L 607.635521 523.023371 
z
" style="fill:#e6194b;"/>
   </g>
   <g id="patch_31">
    <path clip-path="url(#p03bf7b8bd7)" d="M 623.304177 567 
L 635.839101 567 
L 635.839101 522.354525 
L 623.304177 522.354525 
z
" style="fill:#e6194b;"/>
   </g>
   <g id="patch_32">
    <path clip-path="url(#p03bf7b8bd7)" d="M 638.972833 567 
L 651.507757 567 
L 651.507757 491.148837 
L 638.972833 491.148837 
z
" style="fill:#e6194b;"/>
   </g>
   <g id="patch_33">
    <path clip-path="url(#p03bf7b8bd7)" d="M 654.641488 567 
L 667.176413 567 
L 667.176413 514.256654 
L 654.641488 514.256654 
z
" style="fill:#e6194b;"/>
   </g>
   <g id="patch_34">
    <path clip-path="url(#p03bf7b8bd7)" d="M 670.310144 567 
L 682.845068 567 
L 682.845068 474.907765 
L 670.310144 474.907765 
z
" style="fill:#e6194b;"/>
   </g>
   <g id="patch_35">
    <path clip-path="url(#p03bf7b8bd7)" d="M 685.9788 567 
L 698.513724 567 
L 698.513724 492.288473 
L 685.9788 492.288473 
z
" style="fill:#e6194b;"/>
   </g>
   <g id="patch_36">
    <path clip-path="url(#p03bf7b8bd7)" d="M 701.647455 567 
L 714.18238 567 
L 714.18238 485.46 
L 701.647455 485.46 
z
" style="fill:#e6194b;"/>
   </g>
   <g id="patch_37">
    <path clip-path="url(#p03bf7b8bd7)" d="M 717.316111 567 
L 729.851035 567 
L 729.851035 481.847468 
L 717.316111 481.847468 
z
" style="fill:#e6194b;"/>
   </g>
   <g id="patch_38">
    <path clip-path="url(#p03bf7b8bd7)" d="M 732.984767 567 
L 745.519691 567 
L 745.519691 525.761379 
L 732.984767 525.761379 
z
" style="fill:#e6194b;"/>
   </g>
   <g id="patch_39">
    <path clip-path="url(#p03bf7b8bd7)" d="M 748.653422 567 
L 761.188347 567 
L 761.188347 486.796721 
L 748.653422 486.796721 
z
" style="fill:#e6194b;"/>
   </g>
   <g id="patch_40">
    <path clip-path="url(#p03bf7b8bd7)" d="M 764.322078 567 
L 776.857002 567 
L 776.857002 511.92 
L 764.322078 511.92 
z
" style="fill:#e6194b;"/>
   </g>
   <g id="patch_41">
    <path clip-path="url(#p03bf7b8bd7)" d="M 779.990734 567 
L 792.525658 567 
L 792.525658 516.07539 
L 779.990734 516.07539 
z
" style="fill:#e6194b;"/>
   </g>
   <g id="patch_42">
    <path clip-path="url(#p03bf7b8bd7)" d="M 795.659389 567 
L 808.194314 567 
L 808.194314 455.995966 
L 795.659389 455.995966 
z
" style="fill:#e6194b;"/>
   </g>
   <g id="patch_43">
    <path clip-path="url(#p03bf7b8bd7)" d="M 811.328045 567 
L 823.862969 567 
L 823.862969 516.678171 
L 811.328045 516.678171 
z
" style="fill:#e6194b;"/>
   </g>
   <g id="patch_44">
    <path clip-path="url(#p03bf7b8bd7)" d="M 826.996701 567 
L 839.531625 567 
L 839.531625 485.110043 
L 826.996701 485.110043 
z
" style="fill:#e6194b;"/>
   </g>
   <g id="patch_45">
    <path clip-path="url(#p03bf7b8bd7)" d="M 842.665356 567 
L 855.200281 567 
L 855.200281 529.088413 
L 842.665356 529.088413 
z
" style="fill:#e6194b;"/>
   </g>
   <g id="patch_46">
    <path clip-path="url(#p03bf7b8bd7)" d="M 858.334012 567 
L 870.868936 567 
L 870.868936 548.255172 
L 858.334012 548.255172 
z
" style="fill:#e6194b;"/>
   </g>
   <g id="patch_47">
    <path clip-path="url(#p03bf7b8bd7)" d="M 874.002668 567 
L 886.537592 567 
L 886.537592 518.076 
L 874.002668 518.076 
z
" style="fill:#e6194b;"/>
   </g>
   <g id="patch_48">
    <path clip-path="url(#p03bf7b8bd7)" d="M 889.671323 567 
L 902.206248 567 
L 902.206248 541.340559 
L 889.671323 541.340559 
z
" style="fill:#e6194b;"/>
   </g>
   <g id="patch_49">
    <path clip-path="url(#p03bf7b8bd7)" d="M 905.339979 567 
L 917.874903 567 
L 917.874903 539.043429 
L 905.339979 539.043429 
z
" style="fill:#e6194b;"/>
   </g>
   <g id="patch_50">
    <path clip-path="url(#p03bf7b8bd7)" d="M 921.008635 567 
L 933.543559 567 
L 933.543559 496.762574 
L 921.008635 496.762574 
z
" style="fill:#e6194b;"/>
   </g>
   <g id="patch_51">
    <path clip-path="url(#p03bf7b8bd7)" d="M 936.67729 567 
L 949.212215 567 
L 949.212215 498.697013 
L 936.67729 498.697013 
z
" style="fill:#e6194b;"/>
   </g>
   <g id="patch_52">
    <path clip-path="url(#p03bf7b8bd7)" d="M 952.345946 567 
L 964.88087 567 
L 964.88087 516.321753 
L 952.345946 516.321753 
z
" style="fill:#e6194b;"/>
   </g>
   <g id="patch_53">
    <path clip-path="url(#p03bf7b8bd7)" d="M 968.014602 567 
L 980.549526 567 
L 980.549526 465.777931 
L 968.014602 465.777931 
z
" style="fill:#e6194b;"/>
   </g>
   <g id="patch_54">
    <path clip-path="url(#p03bf7b8bd7)" d="M 983.683257 567 
L 996.218182 567 
L 996.218182 502.876311 
L 983.683257 502.876311 
z
" style="fill:#e6194b;"/>
   </g>
   <g id="patch_55">
    <path clip-path="url(#p03bf7b8bd7)" d="M 184.581818 514.437025 
L 197.116743 514.437025 
L 197.116743 360.791405 
L 184.581818 360.791405 
z
" style="fill:#fabebe;"/>
   </g>
   <g id="patch_56">
    <path clip-path="url(#p03bf7b8bd7)" d="M 200.250474 495.004816 
L 212.785398 495.004816 
L 212.785398 259.384214 
L 200.250474 259.384214 
z
" style="fill:#fabebe;"/>
   </g>
   <g id="patch_57">
    <path clip-path="url(#p03bf7b8bd7)" d="M 215.91913 494.661012 
L 228.454054 494.661012 
L 228.454054 313.813541 
L 215.91913 313.813541 
z
" style="fill:#fabebe;"/>
   </g>
   <g id="patch_58">
    <path clip-path="url(#p03bf7b8bd7)" d="M 231.587785 492.279709 
L 244.12271 492.279709 
L 244.12271 300.141818 
L 231.587785 300.141818 
z
" style="fill:#fabebe;"/>
   </g>
   <g id="patch_59">
    <path clip-path="url(#p03bf7b8bd7)" d="M 247.256441 528.877403 
L 259.791365 528.877403 
L 259.791365 319.203117 
L 247.256441 319.203117 
z
" style="fill:#fabebe;"/>
   </g>
   <g id="patch_60">
    <path clip-path="url(#p03bf7b8bd7)" d="M 262.925097 548.183077 
L 275.460021 548.183077 
L 275.460021 303.563077 
L 262.925097 303.563077 
z
" style="fill:#fabebe;"/>
   </g>
   <g id="patch_61">
    <path clip-path="url(#p03bf7b8bd7)" d="M 278.593752 479.112575 
L 291.128677 479.112575 
L 291.128677 271.112335 
L 278.593752 271.112335 
z
" style="fill:#fabebe;"/>
   </g>
   <g id="patch_62">
    <path clip-path="url(#p03bf7b8bd7)" d="M 294.262408 495.403902 
L 306.797332 495.403902 
L 306.797332 263.56892 
L 294.262408 263.56892 
z
" style="fill:#fabebe;"/>
   </g>
   <g id="patch_63">
    <path clip-path="url(#p03bf7b8bd7)" d="M 309.931064 520.010847 
L 322.465988 520.010847 
L 322.465988 330.672203 
L 309.931064 330.672203 
z
" style="fill:#fabebe;"/>
   </g>
   <g id="patch_64">
    <path clip-path="url(#p03bf7b8bd7)" d="M 325.599719 435.896471 
L 338.134644 435.896471 
L 338.134644 208.863529 
L 325.599719 208.863529 
z
" style="fill:#fabebe;"/>
   </g>
   <g id="patch_65">
    <path clip-path="url(#p03bf7b8bd7)" d="M 341.268375 436.323518 
L 353.803299 436.323518 
L 353.803299 259.432182 
L 341.268375 259.432182 
z
" style="fill:#fabebe;"/>
   </g>
   <g id="patch_66">
    <path clip-path="url(#p03bf7b8bd7)" d="M 356.937031 443.31573 
L 369.471955 443.31573 
L 369.471955 237.175281 
L 356.937031 237.175281 
z
" style="fill:#fabebe;"/>
   </g>
   <g id="patch_67">
    <path clip-path="url(#p03bf7b8bd7)" d="M 372.605686 552.68078 
L 385.140611 552.68078 
L 385.140611 302.094439 
L 372.605686 302.094439 
z
" style="fill:#fabebe;"/>
   </g>
   <g id="patch_68">
    <path clip-path="url(#p03bf7b8bd7)" d="M 388.274342 482.911875 
L 400.809266 482.911875 
L 400.809266 289.891406 
L 388.274342 289.891406 
z
" style="fill:#fabebe;"/>
   </g>
   <g id="patch_69">
    <path clip-path="url(#p03bf7b8bd7)" d="M 403.942998 502.914249 
L 416.477922 502.914249 
L 416.477922 274.706454 
L 403.942998 274.706454 
z
" style="fill:#fabebe;"/>
   </g>
   <g id="patch_70">
    <path clip-path="url(#p03bf7b8bd7)" d="M 419.611653 509.150676 
L 432.146578 509.150676 
L 432.146578 297.587432 
L 419.611653 297.587432 
z
" style="fill:#fabebe;"/>
   </g>
   <g id="patch_71">
    <path clip-path="url(#p03bf7b8bd7)" d="M 435.280309 509.016 
L 447.815233 509.016 
L 447.815233 262.584 
L 435.280309 262.584 
z
" style="fill:#fabebe;"/>
   </g>
   <g id="patch_72">
    <path clip-path="url(#p03bf7b8bd7)" d="M 450.948965 492.449143 
L 463.483889 492.449143 
L 463.483889 316.944 
L 450.948965 316.944 
z
" style="fill:#fabebe;"/>
   </g>
   <g id="patch_73">
    <path clip-path="url(#p03bf7b8bd7)" d="M 466.61762 548.538113 
L 479.152545 548.538113 
L 479.152545 262.378868 
L 466.61762 262.378868 
z
" style="fill:#fabebe;"/>
   </g>
   <g id="patch_74">
    <path clip-path="url(#p03bf7b8bd7)" d="M 482.286276 505.845 
L 494.8212 505.845 
L 494.8212 245.93625 
L 482.286276 245.93625 
z
" style="fill:#fabebe;"/>
   </g>
   <g id="patch_75">
    <path clip-path="url(#p03bf7b8bd7)" d="M 497.954932 494.250558 
L 510.489856 494.250558 
L 510.489856 217.802677 
L 497.954932 217.802677 
z
" style="fill:#fabebe;"/>
   </g>
   <g id="patch_76">
    <path clip-path="url(#p03bf7b8bd7)" d="M 513.623587 474.947875 
L 526.158512 474.947875 
L 526.158512 265.273589 
L 513.623587 265.273589 
z
" style="fill:#fabebe;"/>
   </g>
   <g id="patch_77">
    <path clip-path="url(#p03bf7b8bd7)" d="M 529.292243 507.649574 
L 541.827167 507.649574 
L 541.827167 287.89259 
L 529.292243 287.89259 
z
" style="fill:#fabebe;"/>
   </g>
   <g id="patch_78">
    <path clip-path="url(#p03bf7b8bd7)" d="M 544.960899 501.768 
L 557.495823 501.768 
L 557.495823 329.792727 
L 544.960899 329.792727 
z
" style="fill:#fabebe;"/>
   </g>
   <g id="patch_79">
    <path clip-path="url(#p03bf7b8bd7)" d="M 560.629554 452.600597 
L 573.164479 452.600597 
L 573.164479 299.256716 
L 560.629554 299.256716 
z
" style="fill:#fabebe;"/>
   </g>
   <g id="patch_80">
    <path clip-path="url(#p03bf7b8bd7)" d="M 576.29821 475.742798 
L 588.833134 475.742798 
L 588.833134 285.623627 
L 576.29821 285.623627 
z
" style="fill:#fabebe;"/>
   </g>
   <g id="patch_81">
    <path clip-path="url(#p03bf7b8bd7)" d="M 591.966866 491.732308 
L 604.50179 491.732308 
L 604.50179 337.775664 
L 591.966866 337.775664 
z
" style="fill:#fabebe;"/>
   </g>
   <g id="patch_82">
    <path clip-path="url(#p03bf7b8bd7)" d="M 607.635521 523.023371 
L 620.170446 523.023371 
L 620.170446 272.906292 
L 607.635521 272.906292 
z
" style="fill:#fabebe;"/>
   </g>
   <g id="patch_83">
    <path clip-path="url(#p03bf7b8bd7)" d="M 623.304177 522.354525 
L 635.839101 522.354525 
L 635.839101 315.869202 
L 623.304177 315.869202 
z
" style="fill:#fabebe;"/>
   </g>
   <g id="patch_84">
    <path clip-path="url(#p03bf7b8bd7)" d="M 638.972833 491.148837 
L 651.507757 491.148837 
L 651.507757 316.691163 
L 638.972833 316.691163 
z
" style="fill:#fabebe;"/>
   </g>
   <g id="patch_85">
    <path clip-path="url(#p03bf7b8bd7)" d="M 654.641488 514.256654 
L 667.176413 514.256654 
L 667.176413 299.645799 
L 654.641488 299.645799 
z
" style="fill:#fabebe;"/>
   </g>
   <g id="patch_86">
    <path clip-path="url(#p03bf7b8bd7)" d="M 670.310144 474.907765 
L 682.845068 474.907765 
L 682.845068 295.040118 
L 670.310144 295.040118 
z
" style="fill:#fabebe;"/>
   </g>
   <g id="patch_87">
    <path clip-path="url(#p03bf7b8bd7)" d="M 685.9788 492.288473 
L 698.513724 492.288473 
L 698.513724 403.11665 
L 685.9788 403.11665 
z
" style="fill:#fabebe;"/>
   </g>
   <g id="patch_88">
    <path clip-path="url(#p03bf7b8bd7)" d="M 701.647455 485.46 
L 714.18238 485.46 
L 714.18238 380.986875 
L 701.647455 380.986875 
z
" style="fill:#fabebe;"/>
   </g>
   <g id="patch_89">
    <path clip-path="url(#p03bf7b8bd7)" d="M 717.316111 481.847468 
L 729.851035 481.847468 
L 729.851035 303.801266 
L 717.316111 303.801266 
z
" style="fill:#fabebe;"/>
   </g>
   <g id="patch_90">
    <path clip-path="url(#p03bf7b8bd7)" d="M 732.984767 525.761379 
L 745.519691 525.761379 
L 745.519691 312.070345 
L 732.984767 312.070345 
z
" style="fill:#fabebe;"/>
   </g>
   <g id="patch_91">
    <path clip-path="url(#p03bf7b8bd7)" d="M 748.653422 486.796721 
L 761.188347 486.796721 
L 761.188347 329.598295 
L 748.653422 329.598295 
z
" style="fill:#fabebe;"/>
   </g>
   <g id="patch_92">
    <path clip-path="url(#p03bf7b8bd7)" d="M 764.322078 511.92 
L 776.857002 511.92 
L 776.857002 299.7 
L 764.322078 299.7 
z
" style="fill:#fabebe;"/>
   </g>
   <g id="patch_93">
    <path clip-path="url(#p03bf7b8bd7)" d="M 779.990734 516.07539 
L 792.525658 516.07539 
L 792.525658 343.295465 
L 779.990734 343.295465 
z
" style="fill:#fabebe;"/>
   </g>
   <g id="patch_94">
    <path clip-path="url(#p03bf7b8bd7)" d="M 795.659389 455.995966 
L 808.194314 455.995966 
L 808.194314 307.990588 
L 795.659389 307.990588 
z
" style="fill:#fabebe;"/>
   </g>
   <g id="patch_95">
    <path clip-path="url(#p03bf7b8bd7)" d="M 811.328045 516.678171 
L 823.862969 516.678171 
L 823.862969 371.304 
L 811.328045 371.304 
z
" style="fill:#fabebe;"/>
   </g>
   <g id="patch_96">
    <path clip-path="url(#p03bf7b8bd7)" d="M 826.996701 485.110043 
L 839.531625 485.110043 
L 839.531625 312.931159 
L 826.996701 312.931159 
z
" style="fill:#fabebe;"/>
   </g>
   <g id="patch_97">
    <path clip-path="url(#p03bf7b8bd7)" d="M 842.665356 529.088413 
L 855.200281 529.088413 
L 855.200281 283.565756 
L 842.665356 283.565756 
z
" style="fill:#fabebe;"/>
   </g>
   <g id="patch_98">
    <path clip-path="url(#p03bf7b8bd7)" d="M 858.334012 548.255172 
L 870.868936 548.255172 
L 870.868936 298.948966 
L 858.334012 298.948966 
z
" style="fill:#fabebe;"/>
   </g>
   <g id="patch_99">
    <path clip-path="url(#p03bf7b8bd7)" d="M 874.002668 518.076 
L 886.537592 518.076 
L 886.537592 338.105571 
L 874.002668 338.105571 
z
" style="fill:#fabebe;"/>
   </g>
   <g id="patch_100">
    <path clip-path="url(#p03bf7b8bd7)" d="M 889.671323 541.340559 
L 902.206248 541.340559 
L 902.206248 348.039441 
L 889.671323 348.039441 
z
" style="fill:#fabebe;"/>
   </g>
   <g id="patch_101">
    <path clip-path="url(#p03bf7b8bd7)" d="M 905.339979 539.043429 
L 917.874903 539.043429 
L 917.874903 298.616914 
L 905.339979 298.616914 
z
" style="fill:#fabebe;"/>
   </g>
   <g id="patch_102">
    <path clip-path="url(#p03bf7b8bd7)" d="M 921.008635 496.762574 
L 933.543559 496.762574 
L 933.543559 368.397624 
L 921.008635 368.397624 
z
" style="fill:#fabebe;"/>
   </g>
   <g id="patch_103">
    <path clip-path="url(#p03bf7b8bd7)" d="M 936.67729 498.697013 
L 949.212215 498.697013 
L 949.212215 309.672468 
L 936.67729 309.672468 
z
" style="fill:#fabebe;"/>
   </g>
   <g id="patch_104">
    <path clip-path="url(#p03bf7b8bd7)" d="M 952.345946 516.321753 
L 964.88087 516.321753 
L 964.88087 305.812112 
L 952.345946 305.812112 
z
" style="fill:#fabebe;"/>
   </g>
   <g id="patch_105">
    <path clip-path="url(#p03bf7b8bd7)" d="M 968.014602 465.777931 
L 980.549526 465.777931 
L 980.549526 281.891172 
L 968.014602 281.891172 
z
" style="fill:#fabebe;"/>
   </g>
   <g id="patch_106">
    <path clip-path="url(#p03bf7b8bd7)" d="M 983.683257 502.876311 
L 996.218182 502.876311 
L 996.218182 329.504854 
L 983.683257 329.504854 
z
" style="fill:#fabebe;"/>
   </g>
   <g id="patch_107">
    <path clip-path="url(#p03bf7b8bd7)" d="M 184.581818 360.791405 
L 197.116743 360.791405 
L 197.116743 89.889917 
L 184.581818 89.889917 
z
" style="fill:#aaffc3;"/>
   </g>
   <g id="patch_108">
    <path clip-path="url(#p03bf7b8bd7)" d="M 200.250474 259.384214 
L 212.785398 259.384214 
L 212.785398 85.941271 
L 200.250474 85.941271 
z
" style="fill:#aaffc3;"/>
   </g>
   <g id="patch_109">
    <path clip-path="url(#p03bf7b8bd7)" d="M 215.91913 313.813541 
L 228.454054 313.813541 
L 228.454054 108.218521 
L 215.91913 108.218521 
z
" style="fill:#aaffc3;"/>
   </g>
   <g id="patch_110">
    <path clip-path="url(#p03bf7b8bd7)" d="M 231.587785 300.141818 
L 244.12271 300.141818 
L 244.12271 91.992436 
L 231.587785 91.992436 
z
" style="fill:#aaffc3;"/>
   </g>
   <g id="patch_111">
    <path clip-path="url(#p03bf7b8bd7)" d="M 247.256441 319.203117 
L 259.791365 319.203117 
L 259.791365 115.882597 
L 247.256441 115.882597 
z
" style="fill:#aaffc3;"/>
   </g>
   <g id="patch_112">
    <path clip-path="url(#p03bf7b8bd7)" d="M 262.925097 303.563077 
L 275.460021 303.563077 
L 275.460021 109.121538 
L 262.925097 109.121538 
z
" style="fill:#aaffc3;"/>
   </g>
   <g id="patch_113">
    <path clip-path="url(#p03bf7b8bd7)" d="M 278.593752 271.112335 
L 291.128677 271.112335 
L 291.128677 83.619162 
L 278.593752 83.619162 
z
" style="fill:#aaffc3;"/>
   </g>
   <g id="patch_114">
    <path clip-path="url(#p03bf7b8bd7)" d="M 294.262408 263.56892 
L 306.797332 263.56892 
L 306.797332 94.80669 
L 294.262408 94.80669 
z
" style="fill:#aaffc3;"/>
   </g>
   <g id="patch_115">
    <path clip-path="url(#p03bf7b8bd7)" d="M 309.931064 330.672203 
L 322.465988 330.672203 
L 322.465988 95.726441 
L 309.931064 95.726441 
z
" style="fill:#aaffc3;"/>
   </g>
   <g id="patch_116">
    <path clip-path="url(#p03bf7b8bd7)" d="M 325.599719 208.863529 
L 338.134644 208.863529 
L 338.134644 95.347059 
L 325.599719 95.347059 
z
" style="fill:#aaffc3;"/>
   </g>
   <g id="patch_117">
    <path clip-path="url(#p03bf7b8bd7)" d="M 341.268375 259.432182 
L 353.803299 259.432182 
L 353.803299 103.25785 
L 341.268375 103.25785 
z
" style="fill:#aaffc3;"/>
   </g>
   <g id="patch_118">
    <path clip-path="url(#p03bf7b8bd7)" d="M 356.937031 237.175281 
L 369.471955 237.175281 
L 369.471955 88.754157 
L 356.937031 88.754157 
z
" style="fill:#aaffc3;"/>
   </g>
   <g id="patch_119">
    <path clip-path="url(#p03bf7b8bd7)" d="M 372.605686 302.094439 
L 385.140611 302.094439 
L 385.140611 104.011902 
L 372.605686 104.011902 
z
" style="fill:#aaffc3;"/>
   </g>
   <g id="patch_120">
    <path clip-path="url(#p03bf7b8bd7)" d="M 388.274342 289.891406 
L 400.809266 289.891406 
L 400.809266 89.226562 
L 388.274342 89.226562 
z
" style="fill:#aaffc3;"/>
   </g>
   <g id="patch_121">
    <path clip-path="url(#p03bf7b8bd7)" d="M 403.942998 274.706454 
L 416.477922 274.706454 
L 416.477922 85.575335 
L 403.942998 85.575335 
z
" style="fill:#aaffc3;"/>
   </g>
   <g id="patch_122">
    <path clip-path="url(#p03bf7b8bd7)" d="M 419.611653 297.587432 
L 432.146578 297.587432 
L 432.146578 90.982703 
L 419.611653 90.982703 
z
" style="fill:#aaffc3;"/>
   </g>
   <g id="patch_123">
    <path clip-path="url(#p03bf7b8bd7)" d="M 435.280309 262.584 
L 447.815233 262.584 
L 447.815233 88.632 
L 435.280309 88.632 
z
" style="fill:#aaffc3;"/>
   </g>
   <g id="patch_124">
    <path clip-path="url(#p03bf7b8bd7)" d="M 450.948965 316.944 
L 463.483889 316.944 
L 463.483889 85.525714 
L 450.948965 85.525714 
z
" style="fill:#aaffc3;"/>
   </g>
   <g id="patch_125">
    <path clip-path="url(#p03bf7b8bd7)" d="M 466.61762 262.378868 
L 479.152545 262.378868 
L 479.152545 102.375849 
L 466.61762 102.375849 
z
" style="fill:#aaffc3;"/>
   </g>
   <g id="patch_126">
    <path clip-path="url(#p03bf7b8bd7)" d="M 482.286276 245.93625 
L 494.8212 245.93625 
L 494.8212 82.85625 
L 482.286276 82.85625 
z
" style="fill:#aaffc3;"/>
   </g>
   <g id="patch_127">
    <path clip-path="url(#p03bf7b8bd7)" d="M 497.954932 217.802677 
L 510.489856 217.802677 
L 510.489856 81.397472 
L 497.954932 81.397472 
z
" style="fill:#aaffc3;"/>
   </g>
   <g id="patch_128">
    <path clip-path="url(#p03bf7b8bd7)" d="M 513.623587 265.273589 
L 526.158512 265.273589 
L 526.158512 99.920697 
L 513.623587 99.920697 
z
" style="fill:#aaffc3;"/>
   </g>
   <g id="patch_129">
    <path clip-path="url(#p03bf7b8bd7)" d="M 529.292243 287.89259 
L 541.827167 287.89259 
L 541.827167 95.404721 
L 529.292243 95.404721 
z
" style="fill:#aaffc3;"/>
   </g>
   <g id="patch_130">
    <path clip-path="url(#p03bf7b8bd7)" d="M 544.960899 329.792727 
L 557.495823 329.792727 
L 557.495823 99.998182 
L 544.960899 99.998182 
z
" style="fill:#aaffc3;"/>
   </g>
   <g id="patch_131">
    <path clip-path="url(#p03bf7b8bd7)" d="M 560.629554 299.256716 
L 573.164479 299.256716 
L 573.164479 85.06209 
L 560.629554 85.06209 
z
" style="fill:#aaffc3;"/>
   </g>
   <g id="patch_132">
    <path clip-path="url(#p03bf7b8bd7)" d="M 576.29821 285.623627 
L 588.833134 285.623627 
L 588.833134 95.504456 
L 576.29821 95.504456 
z
" style="fill:#aaffc3;"/>
   </g>
   <g id="patch_133">
    <path clip-path="url(#p03bf7b8bd7)" d="M 591.966866 337.775664 
L 604.50179 337.775664 
L 604.50179 101.708811 
L 591.966866 101.708811 
z
" style="fill:#aaffc3;"/>
   </g>
   <g id="patch_134">
    <path clip-path="url(#p03bf7b8bd7)" d="M 607.635521 272.906292 
L 620.170446 272.906292 
L 620.170446 107.993933 
L 607.635521 107.993933 
z
" style="fill:#aaffc3;"/>
   </g>
   <g id="patch_135">
    <path clip-path="url(#p03bf7b8bd7)" d="M 623.304177 315.869202 
L 635.839101 315.869202 
L 635.839101 79.620228 
L 623.304177 79.620228 
z
" style="fill:#aaffc3;"/>
   </g>
   <g id="patch_136">
    <path clip-path="url(#p03bf7b8bd7)" d="M 638.972833 316.691163 
L 651.507757 316.691163 
L 651.507757 98.61907 
L 638.972833 98.61907 
z
" style="fill:#aaffc3;"/>
   </g>
   <g id="patch_137">
    <path clip-path="url(#p03bf7b8bd7)" d="M 654.641488 299.645799 
L 667.176413 299.645799 
L 667.176413 105.041041 
L 654.641488 105.041041 
z
" style="fill:#aaffc3;"/>
   </g>
   <g id="patch_138">
    <path clip-path="url(#p03bf7b8bd7)" d="M 670.310144 295.040118 
L 682.845068 295.040118 
L 682.845068 99.344118 
L 670.310144 99.344118 
z
" style="fill:#aaffc3;"/>
   </g>
   <g id="patch_139">
    <path clip-path="url(#p03bf7b8bd7)" d="M 685.9788 403.11665 
L 698.513724 403.11665 
L 698.513724 113.910739 
L 685.9788 113.910739 
z
" style="fill:#aaffc3;"/>
   </g>
   <g id="patch_140">
    <path clip-path="url(#p03bf7b8bd7)" d="M 701.647455 380.986875 
L 714.18238 380.986875 
L 714.18238 164.39625 
L 701.647455 164.39625 
z
" style="fill:#aaffc3;"/>
   </g>
   <g id="patch_141">
    <path clip-path="url(#p03bf7b8bd7)" d="M 717.316111 303.801266 
L 729.851035 303.801266 
L 729.851035 124.206835 
L 717.316111 124.206835 
z
" style="fill:#aaffc3;"/>
   </g>
   <g id="patch_142">
    <path clip-path="url(#p03bf7b8bd7)" d="M 732.984767 312.070345 
L 745.519691 312.070345 
L 745.519691 120.873103 
L 732.984767 120.873103 
z
" style="fill:#aaffc3;"/>
   </g>
   <g id="patch_143">
    <path clip-path="url(#p03bf7b8bd7)" d="M 748.653422 329.598295 
L 761.188347 329.598295 
L 761.188347 105.029115 
L 748.653422 105.029115 
z
" style="fill:#aaffc3;"/>
   </g>
   <g id="patch_144">
    <path clip-path="url(#p03bf7b8bd7)" d="M 764.322078 299.7 
L 776.857002 299.7 
L 776.857002 102.06 
L 764.322078 102.06 
z
" style="fill:#aaffc3;"/>
   </g>
   <g id="patch_145">
    <path clip-path="url(#p03bf7b8bd7)" d="M 779.990734 343.295465 
L 792.525658 343.295465 
L 792.525658 110.497249 
L 779.990734 110.497249 
z
" style="fill:#aaffc3;"/>
   </g>
   <g id="patch_146">
    <path clip-path="url(#p03bf7b8bd7)" d="M 795.659389 307.990588 
L 808.194314 307.990588 
L 808.194314 108.594454 
L 795.659389 108.594454 
z
" style="fill:#aaffc3;"/>
   </g>
   <g id="patch_147">
    <path clip-path="url(#p03bf7b8bd7)" d="M 811.328045 371.304 
L 823.862969 371.304 
L 823.862969 108.512229 
L 811.328045 108.512229 
z
" style="fill:#aaffc3;"/>
   </g>
   <g id="patch_148">
    <path clip-path="url(#p03bf7b8bd7)" d="M 826.996701 312.931159 
L 839.531625 312.931159 
L 839.531625 90.358455 
L 826.996701 90.358455 
z
" style="fill:#aaffc3;"/>
   </g>
   <g id="patch_149">
    <path clip-path="url(#p03bf7b8bd7)" d="M 842.665356 283.565756 
L 855.200281 283.565756 
L 855.200281 90.397196 
L 842.665356 90.397196 
z
" style="fill:#aaffc3;"/>
   </g>
   <g id="patch_150">
    <path clip-path="url(#p03bf7b8bd7)" d="M 858.334012 298.948966 
L 870.868936 298.948966 
L 870.868936 87.132414 
L 858.334012 87.132414 
z
" style="fill:#aaffc3;"/>
   </g>
   <g id="patch_151">
    <path clip-path="url(#p03bf7b8bd7)" d="M 874.002668 338.105571 
L 886.537592 338.105571 
L 886.537592 107.463857 
L 874.002668 107.463857 
z
" style="fill:#aaffc3;"/>
   </g>
   <g id="patch_152">
    <path clip-path="url(#p03bf7b8bd7)" d="M 889.671323 348.039441 
L 902.206248 348.039441 
L 902.206248 93.155664 
L 889.671323 93.155664 
z
" style="fill:#aaffc3;"/>
   </g>
   <g id="patch_153">
    <path clip-path="url(#p03bf7b8bd7)" d="M 905.339979 298.616914 
L 917.874903 298.616914 
L 917.874903 114.103543 
L 905.339979 114.103543 
z
" style="fill:#aaffc3;"/>
   </g>
   <g id="patch_154">
    <path clip-path="url(#p03bf7b8bd7)" d="M 921.008635 368.397624 
L 933.543559 368.397624 
L 933.543559 114.089703 
L 921.008635 114.089703 
z
" style="fill:#aaffc3;"/>
   </g>
   <g id="patch_155">
    <path clip-path="url(#p03bf7b8bd7)" d="M 936.67729 309.672468 
L 949.212215 309.672468 
L 949.212215 87.290649 
L 936.67729 87.290649 
z
" style="fill:#aaffc3;"/>
   </g>
   <g id="patch_156">
    <path clip-path="url(#p03bf7b8bd7)" d="M 952.345946 305.812112 
L 964.88087 305.812112 
L 964.88087 95.30247 
L 952.345946 95.30247 
z
" style="fill:#aaffc3;"/>
   </g>
   <g id="patch_157">
    <path clip-path="url(#p03bf7b8bd7)" d="M 968.014602 281.891172 
L 980.549526 281.891172 
L 980.549526 89.569241 
L 968.014602 89.569241 
z
" style="fill:#aaffc3;"/>
   </g>
   <g id="patch_158">
    <path clip-path="url(#p03bf7b8bd7)" d="M 983.683257 329.504854 
L 996.218182 329.504854 
L 996.218182 111.00932 
L 983.683257 111.00932 
z
" style="fill:#aaffc3;"/>
   </g>
   <g id="patch_159">
    <path clip-path="url(#p03bf7b8bd7)" d="M 184.581818 89.889917 
L 197.116743 89.889917 
L 197.116743 77.76 
L 184.581818 77.76 
z
" style="fill:#3cb44b;"/>
   </g>
   <g id="patch_160">
    <path clip-path="url(#p03bf7b8bd7)" d="M 200.250474 85.941271 
L 212.785398 85.941271 
L 212.785398 77.76 
L 200.250474 77.76 
z
" style="fill:#3cb44b;"/>
   </g>
   <g id="patch_161">
    <path clip-path="url(#p03bf7b8bd7)" d="M 215.91913 108.218521 
L 228.454054 108.218521 
L 228.454054 77.76 
L 215.91913 77.76 
z
" style="fill:#3cb44b;"/>
   </g>
   <g id="patch_162">
    <path clip-path="url(#p03bf7b8bd7)" d="M 231.587785 91.992436 
L 244.12271 91.992436 
L 244.12271 77.76 
L 231.587785 77.76 
z
" style="fill:#3cb44b;"/>
   </g>
   <g id="patch_163">
    <path clip-path="url(#p03bf7b8bd7)" d="M 247.256441 115.882597 
L 259.791365 115.882597 
L 259.791365 77.76 
L 247.256441 77.76 
z
" style="fill:#3cb44b;"/>
   </g>
   <g id="patch_164">
    <path clip-path="url(#p03bf7b8bd7)" d="M 262.925097 109.121538 
L 275.460021 109.121538 
L 275.460021 77.76 
L 262.925097 77.76 
z
" style="fill:#3cb44b;"/>
   </g>
   <g id="patch_165">
    <path clip-path="url(#p03bf7b8bd7)" d="M 278.593752 83.619162 
L 291.128677 83.619162 
L 291.128677 77.76 
L 278.593752 77.76 
z
" style="fill:#3cb44b;"/>
   </g>
   <g id="patch_166">
    <path clip-path="url(#p03bf7b8bd7)" d="M 294.262408 94.80669 
L 306.797332 94.80669 
L 306.797332 77.76 
L 294.262408 77.76 
z
" style="fill:#3cb44b;"/>
   </g>
   <g id="patch_167">
    <path clip-path="url(#p03bf7b8bd7)" d="M 309.931064 95.726441 
L 322.465988 95.726441 
L 322.465988 77.76 
L 309.931064 77.76 
z
" style="fill:#3cb44b;"/>
   </g>
   <g id="patch_168">
    <path clip-path="url(#p03bf7b8bd7)" d="M 325.599719 95.347059 
L 338.134644 95.347059 
L 338.134644 77.76 
L 325.599719 77.76 
z
" style="fill:#3cb44b;"/>
   </g>
   <g id="patch_169">
    <path clip-path="url(#p03bf7b8bd7)" d="M 341.268375 103.25785 
L 353.803299 103.25785 
L 353.803299 77.76 
L 341.268375 77.76 
z
" style="fill:#3cb44b;"/>
   </g>
   <g id="patch_170">
    <path clip-path="url(#p03bf7b8bd7)" d="M 356.937031 88.754157 
L 369.471955 88.754157 
L 369.471955 77.76 
L 356.937031 77.76 
z
" style="fill:#3cb44b;"/>
   </g>
   <g id="patch_171">
    <path clip-path="url(#p03bf7b8bd7)" d="M 372.605686 104.011902 
L 385.140611 104.011902 
L 385.140611 77.76 
L 372.605686 77.76 
z
" style="fill:#3cb44b;"/>
   </g>
   <g id="patch_172">
    <path clip-path="url(#p03bf7b8bd7)" d="M 388.274342 89.226562 
L 400.809266 89.226562 
L 400.809266 77.76 
L 388.274342 77.76 
z
" style="fill:#3cb44b;"/>
   </g>
   <g id="patch_173">
    <path clip-path="url(#p03bf7b8bd7)" d="M 403.942998 85.575335 
L 416.477922 85.575335 
L 416.477922 77.76 
L 403.942998 77.76 
z
" style="fill:#3cb44b;"/>
   </g>
   <g id="patch_174">
    <path clip-path="url(#p03bf7b8bd7)" d="M 419.611653 90.982703 
L 432.146578 90.982703 
L 432.146578 77.76 
L 419.611653 77.76 
z
" style="fill:#3cb44b;"/>
   </g>
   <g id="patch_175">
    <path clip-path="url(#p03bf7b8bd7)" d="M 435.280309 88.632 
L 447.815233 88.632 
L 447.815233 77.76 
L 435.280309 77.76 
z
" style="fill:#3cb44b;"/>
   </g>
   <g id="patch_176">
    <path clip-path="url(#p03bf7b8bd7)" d="M 450.948965 85.525714 
L 463.483889 85.525714 
L 463.483889 77.76 
L 450.948965 77.76 
z
" style="fill:#3cb44b;"/>
   </g>
   <g id="patch_177">
    <path clip-path="url(#p03bf7b8bd7)" d="M 466.61762 102.375849 
L 479.152545 102.375849 
L 479.152545 77.76 
L 466.61762 77.76 
z
" style="fill:#3cb44b;"/>
   </g>
   <g id="patch_178">
    <path clip-path="url(#p03bf7b8bd7)" d="M 482.286276 82.85625 
L 494.8212 82.85625 
L 494.8212 77.76 
L 482.286276 77.76 
z
" style="fill:#3cb44b;"/>
   </g>
   <g id="patch_179">
    <path clip-path="url(#p03bf7b8bd7)" d="M 497.954932 81.397472 
L 510.489856 81.397472 
L 510.489856 77.76 
L 497.954932 77.76 
z
" style="fill:#3cb44b;"/>
   </g>
   <g id="patch_180">
    <path clip-path="url(#p03bf7b8bd7)" d="M 513.623587 99.920697 
L 526.158512 99.920697 
L 526.158512 77.76 
L 513.623587 77.76 
z
" style="fill:#3cb44b;"/>
   </g>
   <g id="patch_181">
    <path clip-path="url(#p03bf7b8bd7)" d="M 529.292243 95.404721 
L 541.827167 95.404721 
L 541.827167 77.76 
L 529.292243 77.76 
z
" style="fill:#3cb44b;"/>
   </g>
   <g id="patch_182">
    <path clip-path="url(#p03bf7b8bd7)" d="M 544.960899 99.998182 
L 557.495823 99.998182 
L 557.495823 77.76 
L 544.960899 77.76 
z
" style="fill:#3cb44b;"/>
   </g>
   <g id="patch_183">
    <path clip-path="url(#p03bf7b8bd7)" d="M 560.629554 85.06209 
L 573.164479 85.06209 
L 573.164479 77.76 
L 560.629554 77.76 
z
" style="fill:#3cb44b;"/>
   </g>
   <g id="patch_184">
    <path clip-path="url(#p03bf7b8bd7)" d="M 576.29821 95.504456 
L 588.833134 95.504456 
L 588.833134 77.76 
L 576.29821 77.76 
z
" style="fill:#3cb44b;"/>
   </g>
   <g id="patch_185">
    <path clip-path="url(#p03bf7b8bd7)" d="M 591.966866 101.708811 
L 604.50179 101.708811 
L 604.50179 77.76 
L 591.966866 77.76 
z
" style="fill:#3cb44b;"/>
   </g>
   <g id="patch_186">
    <path clip-path="url(#p03bf7b8bd7)" d="M 607.635521 107.993933 
L 620.170446 107.993933 
L 620.170446 77.76 
L 607.635521 77.76 
z
" style="fill:#3cb44b;"/>
   </g>
   <g id="patch_187">
    <path clip-path="url(#p03bf7b8bd7)" d="M 623.304177 79.620228 
L 635.839101 79.620228 
L 635.839101 77.76 
L 623.304177 77.76 
z
" style="fill:#3cb44b;"/>
   </g>
   <g id="patch_188">
    <path clip-path="url(#p03bf7b8bd7)" d="M 638.972833 98.61907 
L 651.507757 98.61907 
L 651.507757 77.76 
L 638.972833 77.76 
z
" style="fill:#3cb44b;"/>
   </g>
   <g id="patch_189">
    <path clip-path="url(#p03bf7b8bd7)" d="M 654.641488 105.041041 
L 667.176413 105.041041 
L 667.176413 77.76 
L 654.641488 77.76 
z
" style="fill:#3cb44b;"/>
   </g>
   <g id="patch_190">
    <path clip-path="url(#p03bf7b8bd7)" d="M 670.310144 99.344118 
L 682.845068 99.344118 
L 682.845068 77.76 
L 670.310144 77.76 
z
" style="fill:#3cb44b;"/>
   </g>
   <g id="patch_191">
    <path clip-path="url(#p03bf7b8bd7)" d="M 685.9788 113.910739 
L 698.513724 113.910739 
L 698.513724 77.76 
L 685.9788 77.76 
z
" style="fill:#3cb44b;"/>
   </g>
   <g id="patch_192">
    <path clip-path="url(#p03bf7b8bd7)" d="M 701.647455 164.39625 
L 714.18238 164.39625 
L 714.18238 77.76 
L 701.647455 77.76 
z
" style="fill:#3cb44b;"/>
   </g>
   <g id="patch_193">
    <path clip-path="url(#p03bf7b8bd7)" d="M 717.316111 124.206835 
L 729.851035 124.206835 
L 729.851035 77.76 
L 717.316111 77.76 
z
" style="fill:#3cb44b;"/>
   </g>
   <g id="patch_194">
    <path clip-path="url(#p03bf7b8bd7)" d="M 732.984767 120.873103 
L 745.519691 120.873103 
L 745.519691 77.76 
L 732.984767 77.76 
z
" style="fill:#3cb44b;"/>
   </g>
   <g id="patch_195">
    <path clip-path="url(#p03bf7b8bd7)" d="M 748.653422 105.029115 
L 761.188347 105.029115 
L 761.188347 77.76 
L 748.653422 77.76 
z
" style="fill:#3cb44b;"/>
   </g>
   <g id="patch_196">
    <path clip-path="url(#p03bf7b8bd7)" d="M 764.322078 102.06 
L 776.857002 102.06 
L 776.857002 77.76 
L 764.322078 77.76 
z
" style="fill:#3cb44b;"/>
   </g>
   <g id="patch_197">
    <path clip-path="url(#p03bf7b8bd7)" d="M 779.990734 110.497249 
L 792.525658 110.497249 
L 792.525658 77.76 
L 779.990734 77.76 
z
" style="fill:#3cb44b;"/>
   </g>
   <g id="patch_198">
    <path clip-path="url(#p03bf7b8bd7)" d="M 795.659389 108.594454 
L 808.194314 108.594454 
L 808.194314 77.76 
L 795.659389 77.76 
z
" style="fill:#3cb44b;"/>
   </g>
   <g id="patch_199">
    <path clip-path="url(#p03bf7b8bd7)" d="M 811.328045 108.512229 
L 823.862969 108.512229 
L 823.862969 77.76 
L 811.328045 77.76 
z
" style="fill:#3cb44b;"/>
   </g>
   <g id="patch_200">
    <path clip-path="url(#p03bf7b8bd7)" d="M 826.996701 90.358455 
L 839.531625 90.358455 
L 839.531625 77.76 
L 826.996701 77.76 
z
" style="fill:#3cb44b;"/>
   </g>
   <g id="patch_201">
    <path clip-path="url(#p03bf7b8bd7)" d="M 842.665356 90.397196 
L 855.200281 90.397196 
L 855.200281 77.76 
L 842.665356 77.76 
z
" style="fill:#3cb44b;"/>
   </g>
   <g id="patch_202">
    <path clip-path="url(#p03bf7b8bd7)" d="M 858.334012 87.132414 
L 870.868936 87.132414 
L 870.868936 77.76 
L 858.334012 77.76 
z
" style="fill:#3cb44b;"/>
   </g>
   <g id="patch_203">
    <path clip-path="url(#p03bf7b8bd7)" d="M 874.002668 107.463857 
L 886.537592 107.463857 
L 886.537592 77.76 
L 874.002668 77.76 
z
" style="fill:#3cb44b;"/>
   </g>
   <g id="patch_204">
    <path clip-path="url(#p03bf7b8bd7)" d="M 889.671323 93.155664 
L 902.206248 93.155664 
L 902.206248 77.76 
L 889.671323 77.76 
z
" style="fill:#3cb44b;"/>
   </g>
   <g id="patch_205">
    <path clip-path="url(#p03bf7b8bd7)" d="M 905.339979 114.103543 
L 917.874903 114.103543 
L 917.874903 77.76 
L 905.339979 77.76 
z
" style="fill:#3cb44b;"/>
   </g>
   <g id="patch_206">
    <path clip-path="url(#p03bf7b8bd7)" d="M 921.008635 114.089703 
L 933.543559 114.089703 
L 933.543559 77.76 
L 921.008635 77.76 
z
" style="fill:#3cb44b;"/>
   </g>
   <g id="patch_207">
    <path clip-path="url(#p03bf7b8bd7)" d="M 936.67729 87.290649 
L 949.212215 87.290649 
L 949.212215 77.76 
L 936.67729 77.76 
z
" style="fill:#3cb44b;"/>
   </g>
   <g id="patch_208">
    <path clip-path="url(#p03bf7b8bd7)" d="M 952.345946 95.30247 
L 964.88087 95.30247 
L 964.88087 77.76 
L 952.345946 77.76 
z
" style="fill:#3cb44b;"/>
   </g>
   <g id="patch_209">
    <path clip-path="url(#p03bf7b8bd7)" d="M 968.014602 89.569241 
L 980.549526 89.569241 
L 980.549526 77.76 
L 968.014602 77.76 
z
" style="fill:#3cb44b;"/>
   </g>
   <g id="patch_210">
    <path clip-path="url(#p03bf7b8bd7)" d="M 983.683257 111.00932 
L 996.218182 111.00932 
L 996.218182 77.76 
L 983.683257 77.76 
z
" style="fill:#3cb44b;"/>
   </g>
   <g id="matplotlib.axis_1">
    <g id="xtick_1">
     <g id="line2d_1">
      <defs>
       <path d="M 0 0 
L 0 3.5 
" id="mba64aaa24c" style="stroke:#000000;stroke-width:0.8;"/>
      </defs>
      <g>
       <use style="stroke:#000000;stroke-width:0.8;" x="190.84928" xlink:href="#mba64aaa24c" y="567"/>
      </g>
     </g>
     <g id="text_1">
      <!-- T -->
      <defs>
       <path d="M -0.296875 72.90625 
L 61.375 72.90625 
L 61.375 64.59375 
L 35.5 64.59375 
L 35.5 0 
L 25.59375 0 
L 25.59375 64.59375 
L -0.296875 64.59375 
z
" id="DejaVuSans-54"/>
      </defs>
      <g transform="translate(187.795374 581.598438)scale(0.1 -0.1)">
       <use xlink:href="#DejaVuSans-54"/>
      </g>
     </g>
    </g>
    <g id="xtick_2">
     <g id="line2d_2">
      <g>
       <use style="stroke:#000000;stroke-width:0.8;" x="206.517936" xlink:href="#mba64aaa24c" y="567"/>
      </g>
     </g>
     <g id="text_2">
      <!-- W -->
      <defs>
       <path d="M 3.328125 72.90625 
L 13.28125 72.90625 
L 28.609375 11.28125 
L 43.890625 72.90625 
L 54.984375 72.90625 
L 70.3125 11.28125 
L 85.59375 72.90625 
L 95.609375 72.90625 
L 77.296875 0 
L 64.890625 0 
L 49.515625 63.28125 
L 33.984375 0 
L 21.578125 0 
z
" id="DejaVuSans-57"/>
      </defs>
      <g transform="translate(201.574186 581.598438)scale(0.1 -0.1)">
       <use xlink:href="#DejaVuSans-57"/>
      </g>
     </g>
    </g>
    <g id="xtick_3">
     <g id="line2d_3">
      <g>
       <use style="stroke:#000000;stroke-width:0.8;" x="222.186592" xlink:href="#mba64aaa24c" y="567"/>
      </g>
     </g>
     <g id="text_3">
      <!-- T -->
      <g transform="translate(219.132686 581.598438)scale(0.1 -0.1)">
       <use xlink:href="#DejaVuSans-54"/>
      </g>
     </g>
    </g>
    <g id="xtick_4">
     <g id="line2d_4">
      <g>
       <use style="stroke:#000000;stroke-width:0.8;" x="237.855247" xlink:href="#mba64aaa24c" y="567"/>
      </g>
     </g>
     <g id="text_4">
      <!-- F -->
      <defs>
       <path d="M 9.8125 72.90625 
L 51.703125 72.90625 
L 51.703125 64.59375 
L 19.671875 64.59375 
L 19.671875 43.109375 
L 48.578125 43.109375 
L 48.578125 34.8125 
L 19.671875 34.8125 
L 19.671875 0 
L 9.8125 0 
z
" id="DejaVuSans-46"/>
      </defs>
      <g transform="translate(234.979466 581.598438)scale(0.1 -0.1)">
       <use xlink:href="#DejaVuSans-46"/>
      </g>
     </g>
    </g>
    <g id="xtick_5">
     <g id="line2d_5">
      <g>
       <use style="stroke:#000000;stroke-width:0.8;" x="253.523903" xlink:href="#mba64aaa24c" y="567"/>
      </g>
     </g>
     <g id="text_5">
      <!-- S -->
      <defs>
       <path d="M 53.515625 70.515625 
L 53.515625 60.890625 
Q 47.90625 63.578125 42.921875 64.890625 
Q 37.9375 66.21875 33.296875 66.21875 
Q 25.25 66.21875 20.875 63.09375 
Q 16.5 59.96875 16.5 54.203125 
Q 16.5 49.359375 19.40625 46.890625 
Q 22.3125 44.4375 30.421875 42.921875 
L 36.375 41.703125 
Q 47.40625 39.59375 52.65625 34.296875 
Q 57.90625 29 57.90625 20.125 
Q 57.90625 9.515625 50.796875 4.046875 
Q 43.703125 -1.421875 29.984375 -1.421875 
Q 24.8125 -1.421875 18.96875 -0.25 
Q 13.140625 0.921875 6.890625 3.21875 
L 6.890625 13.375 
Q 12.890625 10.015625 18.65625 8.296875 
Q 24.421875 6.59375 29.984375 6.59375 
Q 38.421875 6.59375 43.015625 9.90625 
Q 47.609375 13.234375 47.609375 19.390625 
Q 47.609375 24.75 44.3125 27.78125 
Q 41.015625 30.8125 33.5 32.328125 
L 27.484375 33.5 
Q 16.453125 35.6875 11.515625 40.375 
Q 6.59375 45.0625 6.59375 53.421875 
Q 6.59375 63.09375 13.40625 68.65625 
Q 20.21875 74.21875 32.171875 74.21875 
Q 37.3125 74.21875 42.625 73.28125 
Q 47.953125 72.359375 53.515625 70.515625 
z
" id="DejaVuSans-53"/>
      </defs>
      <g transform="translate(250.349684 581.598438)scale(0.1 -0.1)">
       <use xlink:href="#DejaVuSans-53"/>
      </g>
     </g>
    </g>
    <g id="xtick_6">
     <g id="line2d_6">
      <g>
       <use style="stroke:#000000;stroke-width:0.8;" x="269.192559" xlink:href="#mba64aaa24c" y="567"/>
      </g>
     </g>
     <g id="text_6">
      <!-- S -->
      <g transform="translate(266.01834 581.598438)scale(0.1 -0.1)">
       <use xlink:href="#DejaVuSans-53"/>
      </g>
     </g>
    </g>
    <g id="xtick_7">
     <g id="line2d_7">
      <g>
       <use style="stroke:#000000;stroke-width:0.8;" x="284.861214" xlink:href="#mba64aaa24c" y="567"/>
      </g>
     </g>
     <g id="text_7">
      <!-- M -->
      <defs>
       <path d="M 9.8125 72.90625 
L 24.515625 72.90625 
L 43.109375 23.296875 
L 61.8125 72.90625 
L 76.515625 72.90625 
L 76.515625 0 
L 66.890625 0 
L 66.890625 64.015625 
L 48.09375 14.015625 
L 38.1875 14.015625 
L 19.390625 64.015625 
L 19.390625 0 
L 9.8125 0 
z
" id="DejaVuSans-4d"/>
      </defs>
      <g transform="translate(280.547152 581.598438)scale(0.1 -0.1)">
       <use xlink:href="#DejaVuSans-4d"/>
      </g>
     </g>
    </g>
    <g id="xtick_8">
     <g id="line2d_8">
      <g>
       <use style="stroke:#000000;stroke-width:0.8;" x="300.52987" xlink:href="#mba64aaa24c" y="567"/>
      </g>
     </g>
     <g id="text_8">
      <!-- T -->
      <g transform="translate(297.475964 581.598438)scale(0.1 -0.1)">
       <use xlink:href="#DejaVuSans-54"/>
      </g>
     </g>
    </g>
    <g id="xtick_9">
     <g id="line2d_9">
      <g>
       <use style="stroke:#000000;stroke-width:0.8;" x="316.198526" xlink:href="#mba64aaa24c" y="567"/>
      </g>
     </g>
     <g id="text_9">
      <!-- W -->
      <g transform="translate(311.254776 581.598438)scale(0.1 -0.1)">
       <use xlink:href="#DejaVuSans-57"/>
      </g>
     </g>
    </g>
    <g id="xtick_10">
     <g id="line2d_10">
      <g>
       <use style="stroke:#000000;stroke-width:0.8;" x="331.867181" xlink:href="#mba64aaa24c" y="567"/>
      </g>
     </g>
     <g id="text_10">
      <!-- T -->
      <g transform="translate(328.813275 581.598438)scale(0.1 -0.1)">
       <use xlink:href="#DejaVuSans-54"/>
      </g>
     </g>
    </g>
    <g id="xtick_11">
     <g id="line2d_11">
      <g>
       <use style="stroke:#000000;stroke-width:0.8;" x="347.535837" xlink:href="#mba64aaa24c" y="567"/>
      </g>
     </g>
     <g id="text_11">
      <!-- F -->
      <g transform="translate(344.660056 581.598438)scale(0.1 -0.1)">
       <use xlink:href="#DejaVuSans-46"/>
      </g>
     </g>
    </g>
    <g id="xtick_12">
     <g id="line2d_12">
      <g>
       <use style="stroke:#000000;stroke-width:0.8;" x="363.204493" xlink:href="#mba64aaa24c" y="567"/>
      </g>
     </g>
     <g id="text_12">
      <!-- S -->
      <g transform="translate(360.030274 581.598438)scale(0.1 -0.1)">
       <use xlink:href="#DejaVuSans-53"/>
      </g>
     </g>
    </g>
    <g id="xtick_13">
     <g id="line2d_13">
      <g>
       <use style="stroke:#000000;stroke-width:0.8;" x="378.873148" xlink:href="#mba64aaa24c" y="567"/>
      </g>
     </g>
     <g id="text_13">
      <!-- S -->
      <g transform="translate(375.69893 581.598438)scale(0.1 -0.1)">
       <use xlink:href="#DejaVuSans-53"/>
      </g>
     </g>
    </g>
    <g id="xtick_14">
     <g id="line2d_14">
      <g>
       <use style="stroke:#000000;stroke-width:0.8;" x="394.541804" xlink:href="#mba64aaa24c" y="567"/>
      </g>
     </g>
     <g id="text_14">
      <!-- M -->
      <g transform="translate(390.227742 581.598438)scale(0.1 -0.1)">
       <use xlink:href="#DejaVuSans-4d"/>
      </g>
     </g>
    </g>
    <g id="xtick_15">
     <g id="line2d_15">
      <g>
       <use style="stroke:#000000;stroke-width:0.8;" x="410.21046" xlink:href="#mba64aaa24c" y="567"/>
      </g>
     </g>
     <g id="text_15">
      <!-- T -->
      <g transform="translate(407.156554 581.598438)scale(0.1 -0.1)">
       <use xlink:href="#DejaVuSans-54"/>
      </g>
     </g>
    </g>
    <g id="xtick_16">
     <g id="line2d_16">
      <g>
       <use style="stroke:#000000;stroke-width:0.8;" x="425.879115" xlink:href="#mba64aaa24c" y="567"/>
      </g>
     </g>
     <g id="text_16">
      <!-- W -->
      <g transform="translate(420.935365 581.598438)scale(0.1 -0.1)">
       <use xlink:href="#DejaVuSans-57"/>
      </g>
     </g>
    </g>
    <g id="xtick_17">
     <g id="line2d_17">
      <g>
       <use style="stroke:#000000;stroke-width:0.8;" x="441.547771" xlink:href="#mba64aaa24c" y="567"/>
      </g>
     </g>
     <g id="text_17">
      <!-- T -->
      <g transform="translate(438.493865 581.598438)scale(0.1 -0.1)">
       <use xlink:href="#DejaVuSans-54"/>
      </g>
     </g>
    </g>
    <g id="xtick_18">
     <g id="line2d_18">
      <g>
       <use style="stroke:#000000;stroke-width:0.8;" x="457.216427" xlink:href="#mba64aaa24c" y="567"/>
      </g>
     </g>
     <g id="text_18">
      <!-- F -->
      <g transform="translate(454.340646 581.598438)scale(0.1 -0.1)">
       <use xlink:href="#DejaVuSans-46"/>
      </g>
     </g>
    </g>
    <g id="xtick_19">
     <g id="line2d_19">
      <g>
       <use style="stroke:#000000;stroke-width:0.8;" x="472.885082" xlink:href="#mba64aaa24c" y="567"/>
      </g>
     </g>
     <g id="text_19">
      <!-- S -->
      <g transform="translate(469.710864 581.598438)scale(0.1 -0.1)">
       <use xlink:href="#DejaVuSans-53"/>
      </g>
     </g>
    </g>
    <g id="xtick_20">
     <g id="line2d_20">
      <g>
       <use style="stroke:#000000;stroke-width:0.8;" x="488.553738" xlink:href="#mba64aaa24c" y="567"/>
      </g>
     </g>
     <g id="text_20">
      <!-- S -->
      <g transform="translate(485.379519 581.598438)scale(0.1 -0.1)">
       <use xlink:href="#DejaVuSans-53"/>
      </g>
     </g>
    </g>
    <g id="xtick_21">
     <g id="line2d_21">
      <g>
       <use style="stroke:#000000;stroke-width:0.8;" x="504.222394" xlink:href="#mba64aaa24c" y="567"/>
      </g>
     </g>
     <g id="text_21">
      <!-- M -->
      <g transform="translate(499.908331 581.598438)scale(0.1 -0.1)">
       <use xlink:href="#DejaVuSans-4d"/>
      </g>
     </g>
    </g>
    <g id="xtick_22">
     <g id="line2d_22">
      <g>
       <use style="stroke:#000000;stroke-width:0.8;" x="519.891049" xlink:href="#mba64aaa24c" y="567"/>
      </g>
     </g>
     <g id="text_22">
      <!-- T -->
      <g transform="translate(516.837143 581.598438)scale(0.1 -0.1)">
       <use xlink:href="#DejaVuSans-54"/>
      </g>
     </g>
    </g>
    <g id="xtick_23">
     <g id="line2d_23">
      <g>
       <use style="stroke:#000000;stroke-width:0.8;" x="535.559705" xlink:href="#mba64aaa24c" y="567"/>
      </g>
     </g>
     <g id="text_23">
      <!-- W -->
      <g transform="translate(530.615955 581.598438)scale(0.1 -0.1)">
       <use xlink:href="#DejaVuSans-57"/>
      </g>
     </g>
    </g>
    <g id="xtick_24">
     <g id="line2d_24">
      <g>
       <use style="stroke:#000000;stroke-width:0.8;" x="551.228361" xlink:href="#mba64aaa24c" y="567"/>
      </g>
     </g>
     <g id="text_24">
      <!-- T -->
      <g transform="translate(548.174455 581.598438)scale(0.1 -0.1)">
       <use xlink:href="#DejaVuSans-54"/>
      </g>
     </g>
    </g>
    <g id="xtick_25">
     <g id="line2d_25">
      <g>
       <use style="stroke:#000000;stroke-width:0.8;" x="566.897016" xlink:href="#mba64aaa24c" y="567"/>
      </g>
     </g>
     <g id="text_25">
      <!-- F -->
      <g transform="translate(564.021235 581.598438)scale(0.1 -0.1)">
       <use xlink:href="#DejaVuSans-46"/>
      </g>
     </g>
    </g>
    <g id="xtick_26">
     <g id="line2d_26">
      <g>
       <use style="stroke:#000000;stroke-width:0.8;" x="582.565672" xlink:href="#mba64aaa24c" y="567"/>
      </g>
     </g>
     <g id="text_26">
      <!-- S -->
      <g transform="translate(579.391453 581.598438)scale(0.1 -0.1)">
       <use xlink:href="#DejaVuSans-53"/>
      </g>
     </g>
    </g>
    <g id="xtick_27">
     <g id="line2d_27">
      <g>
       <use style="stroke:#000000;stroke-width:0.8;" x="598.234328" xlink:href="#mba64aaa24c" y="567"/>
      </g>
     </g>
     <g id="text_27">
      <!-- S -->
      <g transform="translate(595.060109 581.598438)scale(0.1 -0.1)">
       <use xlink:href="#DejaVuSans-53"/>
      </g>
     </g>
    </g>
    <g id="xtick_28">
     <g id="line2d_28">
      <g>
       <use style="stroke:#000000;stroke-width:0.8;" x="613.902984" xlink:href="#mba64aaa24c" y="567"/>
      </g>
     </g>
     <g id="text_28">
      <!-- M -->
      <g transform="translate(609.588921 581.598438)scale(0.1 -0.1)">
       <use xlink:href="#DejaVuSans-4d"/>
      </g>
     </g>
    </g>
    <g id="xtick_29">
     <g id="line2d_29">
      <g>
       <use style="stroke:#000000;stroke-width:0.8;" x="629.571639" xlink:href="#mba64aaa24c" y="567"/>
      </g>
     </g>
     <g id="text_29">
      <!-- T -->
      <g transform="translate(626.517733 581.598438)scale(0.1 -0.1)">
       <use xlink:href="#DejaVuSans-54"/>
      </g>
     </g>
    </g>
    <g id="xtick_30">
     <g id="line2d_30">
      <g>
       <use style="stroke:#000000;stroke-width:0.8;" x="645.240295" xlink:href="#mba64aaa24c" y="567"/>
      </g>
     </g>
     <g id="text_30">
      <!-- W -->
      <g transform="translate(640.296545 581.598438)scale(0.1 -0.1)">
       <use xlink:href="#DejaVuSans-57"/>
      </g>
     </g>
    </g>
    <g id="xtick_31">
     <g id="line2d_31">
      <g>
       <use style="stroke:#000000;stroke-width:0.8;" x="660.908951" xlink:href="#mba64aaa24c" y="567"/>
      </g>
     </g>
     <g id="text_31">
      <!-- T -->
      <g transform="translate(657.855044 581.598438)scale(0.1 -0.1)">
       <use xlink:href="#DejaVuSans-54"/>
      </g>
     </g>
    </g>
    <g id="xtick_32">
     <g id="line2d_32">
      <g>
       <use style="stroke:#000000;stroke-width:0.8;" x="676.577606" xlink:href="#mba64aaa24c" y="567"/>
      </g>
     </g>
     <g id="text_32">
      <!-- F -->
      <g transform="translate(673.701825 581.598438)scale(0.1 -0.1)">
       <use xlink:href="#DejaVuSans-46"/>
      </g>
     </g>
    </g>
    <g id="xtick_33">
     <g id="line2d_33">
      <g>
       <use style="stroke:#000000;stroke-width:0.8;" x="692.246262" xlink:href="#mba64aaa24c" y="567"/>
      </g>
     </g>
     <g id="text_33">
      <!-- S -->
      <g transform="translate(689.072043 581.598438)scale(0.1 -0.1)">
       <use xlink:href="#DejaVuSans-53"/>
      </g>
     </g>
    </g>
    <g id="xtick_34">
     <g id="line2d_34">
      <g>
       <use style="stroke:#000000;stroke-width:0.8;" x="707.914918" xlink:href="#mba64aaa24c" y="567"/>
      </g>
     </g>
     <g id="text_34">
      <!-- S -->
      <g transform="translate(704.740699 581.598438)scale(0.1 -0.1)">
       <use xlink:href="#DejaVuSans-53"/>
      </g>
     </g>
    </g>
    <g id="xtick_35">
     <g id="line2d_35">
      <g>
       <use style="stroke:#000000;stroke-width:0.8;" x="723.583573" xlink:href="#mba64aaa24c" y="567"/>
      </g>
     </g>
     <g id="text_35">
      <!-- M -->
      <g transform="translate(719.269511 581.598438)scale(0.1 -0.1)">
       <use xlink:href="#DejaVuSans-4d"/>
      </g>
     </g>
    </g>
    <g id="xtick_36">
     <g id="line2d_36">
      <g>
       <use style="stroke:#000000;stroke-width:0.8;" x="739.252229" xlink:href="#mba64aaa24c" y="567"/>
      </g>
     </g>
     <g id="text_36">
      <!-- T -->
      <g transform="translate(736.198323 581.598438)scale(0.1 -0.1)">
       <use xlink:href="#DejaVuSans-54"/>
      </g>
     </g>
    </g>
    <g id="xtick_37">
     <g id="line2d_37">
      <g>
       <use style="stroke:#000000;stroke-width:0.8;" x="754.920885" xlink:href="#mba64aaa24c" y="567"/>
      </g>
     </g>
     <g id="text_37">
      <!-- W -->
      <g transform="translate(749.977135 581.598438)scale(0.1 -0.1)">
       <use xlink:href="#DejaVuSans-57"/>
      </g>
     </g>
    </g>
    <g id="xtick_38">
     <g id="line2d_38">
      <g>
       <use style="stroke:#000000;stroke-width:0.8;" x="770.58954" xlink:href="#mba64aaa24c" y="567"/>
      </g>
     </g>
     <g id="text_38">
      <!-- T -->
      <g transform="translate(767.535634 581.598438)scale(0.1 -0.1)">
       <use xlink:href="#DejaVuSans-54"/>
      </g>
     </g>
    </g>
    <g id="xtick_39">
     <g id="line2d_39">
      <g>
       <use style="stroke:#000000;stroke-width:0.8;" x="786.258196" xlink:href="#mba64aaa24c" y="567"/>
      </g>
     </g>
     <g id="text_39">
      <!-- F -->
      <g transform="translate(783.382415 581.598438)scale(0.1 -0.1)">
       <use xlink:href="#DejaVuSans-46"/>
      </g>
     </g>
    </g>
    <g id="xtick_40">
     <g id="line2d_40">
      <g>
       <use style="stroke:#000000;stroke-width:0.8;" x="801.926852" xlink:href="#mba64aaa24c" y="567"/>
      </g>
     </g>
     <g id="text_40">
      <!-- S -->
      <g transform="translate(798.752633 581.598438)scale(0.1 -0.1)">
       <use xlink:href="#DejaVuSans-53"/>
      </g>
     </g>
    </g>
    <g id="xtick_41">
     <g id="line2d_41">
      <g>
       <use style="stroke:#000000;stroke-width:0.8;" x="817.595507" xlink:href="#mba64aaa24c" y="567"/>
      </g>
     </g>
     <g id="text_41">
      <!-- S -->
      <g transform="translate(814.421288 581.598438)scale(0.1 -0.1)">
       <use xlink:href="#DejaVuSans-53"/>
      </g>
     </g>
    </g>
    <g id="xtick_42">
     <g id="line2d_42">
      <g>
       <use style="stroke:#000000;stroke-width:0.8;" x="833.264163" xlink:href="#mba64aaa24c" y="567"/>
      </g>
     </g>
     <g id="text_42">
      <!-- M -->
      <g transform="translate(828.9501 581.598438)scale(0.1 -0.1)">
       <use xlink:href="#DejaVuSans-4d"/>
      </g>
     </g>
    </g>
    <g id="xtick_43">
     <g id="line2d_43">
      <g>
       <use style="stroke:#000000;stroke-width:0.8;" x="848.932819" xlink:href="#mba64aaa24c" y="567"/>
      </g>
     </g>
     <g id="text_43">
      <!-- T -->
      <g transform="translate(845.878912 581.598438)scale(0.1 -0.1)">
       <use xlink:href="#DejaVuSans-54"/>
      </g>
     </g>
    </g>
    <g id="xtick_44">
     <g id="line2d_44">
      <g>
       <use style="stroke:#000000;stroke-width:0.8;" x="864.601474" xlink:href="#mba64aaa24c" y="567"/>
      </g>
     </g>
     <g id="text_44">
      <!-- W -->
      <g transform="translate(859.657724 581.598438)scale(0.1 -0.1)">
       <use xlink:href="#DejaVuSans-57"/>
      </g>
     </g>
    </g>
    <g id="xtick_45">
     <g id="line2d_45">
      <g>
       <use style="stroke:#000000;stroke-width:0.8;" x="880.27013" xlink:href="#mba64aaa24c" y="567"/>
      </g>
     </g>
     <g id="text_45">
      <!-- T -->
      <g transform="translate(877.216224 581.598438)scale(0.1 -0.1)">
       <use xlink:href="#DejaVuSans-54"/>
      </g>
     </g>
    </g>
    <g id="xtick_46">
     <g id="line2d_46">
      <g>
       <use style="stroke:#000000;stroke-width:0.8;" x="895.938786" xlink:href="#mba64aaa24c" y="567"/>
      </g>
     </g>
     <g id="text_46">
      <!-- F -->
      <g transform="translate(893.063004 581.598438)scale(0.1 -0.1)">
       <use xlink:href="#DejaVuSans-46"/>
      </g>
     </g>
    </g>
    <g id="xtick_47">
     <g id="line2d_47">
      <g>
       <use style="stroke:#000000;stroke-width:0.8;" x="911.607441" xlink:href="#mba64aaa24c" y="567"/>
      </g>
     </g>
     <g id="text_47">
      <!-- S -->
      <g transform="translate(908.433222 581.598438)scale(0.1 -0.1)">
       <use xlink:href="#DejaVuSans-53"/>
      </g>
     </g>
    </g>
    <g id="xtick_48">
     <g id="line2d_48">
      <g>
       <use style="stroke:#000000;stroke-width:0.8;" x="927.276097" xlink:href="#mba64aaa24c" y="567"/>
      </g>
     </g>
     <g id="text_48">
      <!-- S -->
      <g transform="translate(924.101878 581.598438)scale(0.1 -0.1)">
       <use xlink:href="#DejaVuSans-53"/>
      </g>
     </g>
    </g>
    <g id="xtick_49">
     <g id="line2d_49">
      <g>
       <use style="stroke:#000000;stroke-width:0.8;" x="942.944753" xlink:href="#mba64aaa24c" y="567"/>
      </g>
     </g>
     <g id="text_49">
      <!-- M -->
      <g transform="translate(938.63069 581.598438)scale(0.1 -0.1)">
       <use xlink:href="#DejaVuSans-4d"/>
      </g>
     </g>
    </g>
    <g id="xtick_50">
     <g id="line2d_50">
      <g>
       <use style="stroke:#000000;stroke-width:0.8;" x="958.613408" xlink:href="#mba64aaa24c" y="567"/>
      </g>
     </g>
     <g id="text_50">
      <!-- T -->
      <g transform="translate(955.559502 581.598438)scale(0.1 -0.1)">
       <use xlink:href="#DejaVuSans-54"/>
      </g>
     </g>
    </g>
    <g id="xtick_51">
     <g id="line2d_51">
      <g>
       <use style="stroke:#000000;stroke-width:0.8;" x="974.282064" xlink:href="#mba64aaa24c" y="567"/>
      </g>
     </g>
     <g id="text_51">
      <!-- W -->
      <g transform="translate(969.338314 581.598438)scale(0.1 -0.1)">
       <use xlink:href="#DejaVuSans-57"/>
      </g>
     </g>
    </g>
    <g id="xtick_52">
     <g id="line2d_52">
      <g>
       <use style="stroke:#000000;stroke-width:0.8;" x="989.95072" xlink:href="#mba64aaa24c" y="567"/>
      </g>
     </g>
     <g id="text_52">
      <!-- T -->
      <g transform="translate(986.896813 581.598438)scale(0.1 -0.1)">
       <use xlink:href="#DejaVuSans-54"/>
      </g>
     </g>
    </g>
    <g id="text_53">
     <!-- Day -->
     <defs>
      <path d="M 19.671875 64.796875 
L 19.671875 8.109375 
L 31.59375 8.109375 
Q 46.6875 8.109375 53.6875 14.9375 
Q 60.6875 21.78125 60.6875 36.53125 
Q 60.6875 51.171875 53.6875 57.984375 
Q 46.6875 64.796875 31.59375 64.796875 
z
M 9.8125 72.90625 
L 30.078125 72.90625 
Q 51.265625 72.90625 61.171875 64.09375 
Q 71.09375 55.28125 71.09375 36.53125 
Q 71.09375 17.671875 61.125 8.828125 
Q 51.171875 0 30.078125 0 
L 9.8125 0 
z
" id="DejaVuSans-44"/>
      <path d="M 34.28125 27.484375 
Q 23.390625 27.484375 19.1875 25 
Q 14.984375 22.515625 14.984375 16.5 
Q 14.984375 11.71875 18.140625 8.90625 
Q 21.296875 6.109375 26.703125 6.109375 
Q 34.1875 6.109375 38.703125 11.40625 
Q 43.21875 16.703125 43.21875 25.484375 
L 43.21875 27.484375 
z
M 52.203125 31.203125 
L 52.203125 0 
L 43.21875 0 
L 43.21875 8.296875 
Q 40.140625 3.328125 35.546875 0.953125 
Q 30.953125 -1.421875 24.3125 -1.421875 
Q 15.921875 -1.421875 10.953125 3.296875 
Q 6 8.015625 6 15.921875 
Q 6 25.140625 12.171875 29.828125 
Q 18.359375 34.515625 30.609375 34.515625 
L 43.21875 34.515625 
L 43.21875 35.40625 
Q 43.21875 41.609375 39.140625 45 
Q 35.0625 48.390625 27.6875 48.390625 
Q 23 48.390625 18.546875 47.265625 
Q 14.109375 46.140625 10.015625 43.890625 
L 10.015625 52.203125 
Q 14.9375 54.109375 19.578125 55.046875 
Q 24.21875 56 28.609375 56 
Q 40.484375 56 46.34375 49.84375 
Q 52.203125 43.703125 52.203125 31.203125 
z
" id="DejaVuSans-61"/>
      <path d="M 32.171875 -5.078125 
Q 28.375 -14.84375 24.75 -17.8125 
Q 21.140625 -20.796875 15.09375 -20.796875 
L 7.90625 -20.796875 
L 7.90625 -13.28125 
L 13.1875 -13.28125 
Q 16.890625 -13.28125 18.9375 -11.515625 
Q 21 -9.765625 23.484375 -3.21875 
L 25.09375 0.875 
L 2.984375 54.6875 
L 12.5 54.6875 
L 29.59375 11.921875 
L 46.6875 54.6875 
L 56.203125 54.6875 
z
" id="DejaVuSans-79"/>
     </defs>
     <g transform="translate(580.526562 595.276562)scale(0.1 -0.1)">
      <use xlink:href="#DejaVuSans-44"/>
      <use x="77.001953" xlink:href="#DejaVuSans-61"/>
      <use x="138.28125" xlink:href="#DejaVuSans-79"/>
     </g>
    </g>
   </g>
   <g id="matplotlib.axis_2">
    <g id="ytick_1">
     <g id="line2d_53">
      <defs>
       <path d="M 0 0 
L -3.5 0 
" id="m62a213d8f4" style="stroke:#000000;stroke-width:0.8;"/>
      </defs>
      <g>
       <use style="stroke:#000000;stroke-width:0.8;" x="144" xlink:href="#m62a213d8f4" y="567"/>
      </g>
     </g>
     <g id="text_54">
      <!-- 0 -->
      <defs>
       <path d="M 31.78125 66.40625 
Q 24.171875 66.40625 20.328125 58.90625 
Q 16.5 51.421875 16.5 36.375 
Q 16.5 21.390625 20.328125 13.890625 
Q 24.171875 6.390625 31.78125 6.390625 
Q 39.453125 6.390625 43.28125 13.890625 
Q 47.125 21.390625 47.125 36.375 
Q 47.125 51.421875 43.28125 58.90625 
Q 39.453125 66.40625 31.78125 66.40625 
z
M 31.78125 74.21875 
Q 44.046875 74.21875 50.515625 64.515625 
Q 56.984375 54.828125 56.984375 36.375 
Q 56.984375 17.96875 50.515625 8.265625 
Q 44.046875 -1.421875 31.78125 -1.421875 
Q 19.53125 -1.421875 13.0625 8.265625 
Q 6.59375 17.96875 6.59375 36.375 
Q 6.59375 54.828125 13.0625 64.515625 
Q 19.53125 74.21875 31.78125 74.21875 
z
" id="DejaVuSans-30"/>
      </defs>
      <g transform="translate(130.6375 570.799219)scale(0.1 -0.1)">
       <use xlink:href="#DejaVuSans-30"/>
      </g>
     </g>
    </g>
    <g id="ytick_2">
     <g id="line2d_54">
      <g>
       <use style="stroke:#000000;stroke-width:0.8;" x="144" xlink:href="#m62a213d8f4" y="469.152"/>
      </g>
     </g>
     <g id="text_55">
      <!-- 20 -->
      <defs>
       <path d="M 19.1875 8.296875 
L 53.609375 8.296875 
L 53.609375 0 
L 7.328125 0 
L 7.328125 8.296875 
Q 12.9375 14.109375 22.625 23.890625 
Q 32.328125 33.6875 34.8125 36.53125 
Q 39.546875 41.84375 41.421875 45.53125 
Q 43.3125 49.21875 43.3125 52.78125 
Q 43.3125 58.59375 39.234375 62.25 
Q 35.15625 65.921875 28.609375 65.921875 
Q 23.96875 65.921875 18.8125 64.3125 
Q 13.671875 62.703125 7.8125 59.421875 
L 7.8125 69.390625 
Q 13.765625 71.78125 18.9375 73 
Q 24.125 74.21875 28.421875 74.21875 
Q 39.75 74.21875 46.484375 68.546875 
Q 53.21875 62.890625 53.21875 53.421875 
Q 53.21875 48.921875 51.53125 44.890625 
Q 49.859375 40.875 45.40625 35.40625 
Q 44.1875 33.984375 37.640625 27.21875 
Q 31.109375 20.453125 19.1875 8.296875 
z
" id="DejaVuSans-32"/>
      </defs>
      <g transform="translate(124.275 472.951219)scale(0.1 -0.1)">
       <use xlink:href="#DejaVuSans-32"/>
       <use x="63.623047" xlink:href="#DejaVuSans-30"/>
      </g>
     </g>
    </g>
    <g id="ytick_3">
     <g id="line2d_55">
      <g>
       <use style="stroke:#000000;stroke-width:0.8;" x="144" xlink:href="#m62a213d8f4" y="371.304"/>
      </g>
     </g>
     <g id="text_56">
      <!-- 40 -->
      <defs>
       <path d="M 37.796875 64.3125 
L 12.890625 25.390625 
L 37.796875 25.390625 
z
M 35.203125 72.90625 
L 47.609375 72.90625 
L 47.609375 25.390625 
L 58.015625 25.390625 
L 58.015625 17.1875 
L 47.609375 17.1875 
L 47.609375 0 
L 37.796875 0 
L 37.796875 17.1875 
L 4.890625 17.1875 
L 4.890625 26.703125 
z
" id="DejaVuSans-34"/>
      </defs>
      <g transform="translate(124.275 375.103219)scale(0.1 -0.1)">
       <use xlink:href="#DejaVuSans-34"/>
       <use x="63.623047" xlink:href="#DejaVuSans-30"/>
      </g>
     </g>
    </g>
    <g id="ytick_4">
     <g id="line2d_56">
      <g>
       <use style="stroke:#000000;stroke-width:0.8;" x="144" xlink:href="#m62a213d8f4" y="273.456"/>
      </g>
     </g>
     <g id="text_57">
      <!-- 60 -->
      <defs>
       <path d="M 33.015625 40.375 
Q 26.375 40.375 22.484375 35.828125 
Q 18.609375 31.296875 18.609375 23.390625 
Q 18.609375 15.53125 22.484375 10.953125 
Q 26.375 6.390625 33.015625 6.390625 
Q 39.65625 6.390625 43.53125 10.953125 
Q 47.40625 15.53125 47.40625 23.390625 
Q 47.40625 31.296875 43.53125 35.828125 
Q 39.65625 40.375 33.015625 40.375 
z
M 52.59375 71.296875 
L 52.59375 62.3125 
Q 48.875 64.0625 45.09375 64.984375 
Q 41.3125 65.921875 37.59375 65.921875 
Q 27.828125 65.921875 22.671875 59.328125 
Q 17.53125 52.734375 16.796875 39.40625 
Q 19.671875 43.65625 24.015625 45.921875 
Q 28.375 48.1875 33.59375 48.1875 
Q 44.578125 48.1875 50.953125 41.515625 
Q 57.328125 34.859375 57.328125 23.390625 
Q 57.328125 12.15625 50.6875 5.359375 
Q 44.046875 -1.421875 33.015625 -1.421875 
Q 20.359375 -1.421875 13.671875 8.265625 
Q 6.984375 17.96875 6.984375 36.375 
Q 6.984375 53.65625 15.1875 63.9375 
Q 23.390625 74.21875 37.203125 74.21875 
Q 40.921875 74.21875 44.703125 73.484375 
Q 48.484375 72.75 52.59375 71.296875 
z
" id="DejaVuSans-36"/>
      </defs>
      <g transform="translate(124.275 277.255219)scale(0.1 -0.1)">
       <use xlink:href="#DejaVuSans-36"/>
       <use x="63.623047" xlink:href="#DejaVuSans-30"/>
      </g>
     </g>
    </g>
    <g id="ytick_5">
     <g id="line2d_57">
      <g>
       <use style="stroke:#000000;stroke-width:0.8;" x="144" xlink:href="#m62a213d8f4" y="175.608"/>
      </g>
     </g>
     <g id="text_58">
      <!-- 80 -->
      <defs>
       <path d="M 31.78125 34.625 
Q 24.75 34.625 20.71875 30.859375 
Q 16.703125 27.09375 16.703125 20.515625 
Q 16.703125 13.921875 20.71875 10.15625 
Q 24.75 6.390625 31.78125 6.390625 
Q 38.8125 6.390625 42.859375 10.171875 
Q 46.921875 13.96875 46.921875 20.515625 
Q 46.921875 27.09375 42.890625 30.859375 
Q 38.875 34.625 31.78125 34.625 
z
M 21.921875 38.8125 
Q 15.578125 40.375 12.03125 44.71875 
Q 8.5 49.078125 8.5 55.328125 
Q 8.5 64.0625 14.71875 69.140625 
Q 20.953125 74.21875 31.78125 74.21875 
Q 42.671875 74.21875 48.875 69.140625 
Q 55.078125 64.0625 55.078125 55.328125 
Q 55.078125 49.078125 51.53125 44.71875 
Q 48 40.375 41.703125 38.8125 
Q 48.828125 37.15625 52.796875 32.3125 
Q 56.78125 27.484375 56.78125 20.515625 
Q 56.78125 9.90625 50.3125 4.234375 
Q 43.84375 -1.421875 31.78125 -1.421875 
Q 19.734375 -1.421875 13.25 4.234375 
Q 6.78125 9.90625 6.78125 20.515625 
Q 6.78125 27.484375 10.78125 32.3125 
Q 14.796875 37.15625 21.921875 38.8125 
z
M 18.3125 54.390625 
Q 18.3125 48.734375 21.84375 45.5625 
Q 25.390625 42.390625 31.78125 42.390625 
Q 38.140625 42.390625 41.71875 45.5625 
Q 45.3125 48.734375 45.3125 54.390625 
Q 45.3125 60.0625 41.71875 63.234375 
Q 38.140625 66.40625 31.78125 66.40625 
Q 25.390625 66.40625 21.84375 63.234375 
Q 18.3125 60.0625 18.3125 54.390625 
z
" id="DejaVuSans-38"/>
      </defs>
      <g transform="translate(124.275 179.407219)scale(0.1 -0.1)">
       <use xlink:href="#DejaVuSans-38"/>
       <use x="63.623047" xlink:href="#DejaVuSans-30"/>
      </g>
     </g>
    </g>
    <g id="ytick_6">
     <g id="line2d_58">
      <g>
       <use style="stroke:#000000;stroke-width:0.8;" x="144" xlink:href="#m62a213d8f4" y="77.76"/>
      </g>
     </g>
     <g id="text_59">
      <!-- 100 -->
      <defs>
       <path d="M 12.40625 8.296875 
L 28.515625 8.296875 
L 28.515625 63.921875 
L 10.984375 60.40625 
L 10.984375 69.390625 
L 28.421875 72.90625 
L 38.28125 72.90625 
L 38.28125 8.296875 
L 54.390625 8.296875 
L 54.390625 0 
L 12.40625 0 
z
" id="DejaVuSans-31"/>
      </defs>
      <g transform="translate(117.9125 81.559219)scale(0.1 -0.1)">
       <use xlink:href="#DejaVuSans-31"/>
       <use x="63.623047" xlink:href="#DejaVuSans-30"/>
       <use x="127.246094" xlink:href="#DejaVuSans-30"/>
      </g>
     </g>
    </g>
    <g id="text_60">
     <!-- Percentage -->
     <defs>
      <path d="M 19.671875 64.796875 
L 19.671875 37.40625 
L 32.078125 37.40625 
Q 38.96875 37.40625 42.71875 40.96875 
Q 46.484375 44.53125 46.484375 51.125 
Q 46.484375 57.671875 42.71875 61.234375 
Q 38.96875 64.796875 32.078125 64.796875 
z
M 9.8125 72.90625 
L 32.078125 72.90625 
Q 44.34375 72.90625 50.609375 67.359375 
Q 56.890625 61.8125 56.890625 51.125 
Q 56.890625 40.328125 50.609375 34.8125 
Q 44.34375 29.296875 32.078125 29.296875 
L 19.671875 29.296875 
L 19.671875 0 
L 9.8125 0 
z
" id="DejaVuSans-50"/>
      <path d="M 56.203125 29.59375 
L 56.203125 25.203125 
L 14.890625 25.203125 
Q 15.484375 15.921875 20.484375 11.0625 
Q 25.484375 6.203125 34.421875 6.203125 
Q 39.59375 6.203125 44.453125 7.46875 
Q 49.3125 8.734375 54.109375 11.28125 
L 54.109375 2.78125 
Q 49.265625 0.734375 44.1875 -0.34375 
Q 39.109375 -1.421875 33.890625 -1.421875 
Q 20.796875 -1.421875 13.15625 6.1875 
Q 5.515625 13.8125 5.515625 26.8125 
Q 5.515625 40.234375 12.765625 48.109375 
Q 20.015625 56 32.328125 56 
Q 43.359375 56 49.78125 48.890625 
Q 56.203125 41.796875 56.203125 29.59375 
z
M 47.21875 32.234375 
Q 47.125 39.59375 43.09375 43.984375 
Q 39.0625 48.390625 32.421875 48.390625 
Q 24.90625 48.390625 20.390625 44.140625 
Q 15.875 39.890625 15.1875 32.171875 
z
" id="DejaVuSans-65"/>
      <path d="M 41.109375 46.296875 
Q 39.59375 47.171875 37.8125 47.578125 
Q 36.03125 48 33.890625 48 
Q 26.265625 48 22.1875 43.046875 
Q 18.109375 38.09375 18.109375 28.8125 
L 18.109375 0 
L 9.078125 0 
L 9.078125 54.6875 
L 18.109375 54.6875 
L 18.109375 46.1875 
Q 20.953125 51.171875 25.484375 53.578125 
Q 30.03125 56 36.53125 56 
Q 37.453125 56 38.578125 55.875 
Q 39.703125 55.765625 41.0625 55.515625 
z
" id="DejaVuSans-72"/>
      <path d="M 48.78125 52.59375 
L 48.78125 44.1875 
Q 44.96875 46.296875 41.140625 47.34375 
Q 37.3125 48.390625 33.40625 48.390625 
Q 24.65625 48.390625 19.8125 42.84375 
Q 14.984375 37.3125 14.984375 27.296875 
Q 14.984375 17.28125 19.8125 11.734375 
Q 24.65625 6.203125 33.40625 6.203125 
Q 37.3125 6.203125 41.140625 7.25 
Q 44.96875 8.296875 48.78125 10.40625 
L 48.78125 2.09375 
Q 45.015625 0.34375 40.984375 -0.53125 
Q 36.96875 -1.421875 32.421875 -1.421875 
Q 20.0625 -1.421875 12.78125 6.34375 
Q 5.515625 14.109375 5.515625 27.296875 
Q 5.515625 40.671875 12.859375 48.328125 
Q 20.21875 56 33.015625 56 
Q 37.15625 56 41.109375 55.140625 
Q 45.0625 54.296875 48.78125 52.59375 
z
" id="DejaVuSans-63"/>
      <path d="M 54.890625 33.015625 
L 54.890625 0 
L 45.90625 0 
L 45.90625 32.71875 
Q 45.90625 40.484375 42.875 44.328125 
Q 39.84375 48.1875 33.796875 48.1875 
Q 26.515625 48.1875 22.3125 43.546875 
Q 18.109375 38.921875 18.109375 30.90625 
L 18.109375 0 
L 9.078125 0 
L 9.078125 54.6875 
L 18.109375 54.6875 
L 18.109375 46.1875 
Q 21.34375 51.125 25.703125 53.5625 
Q 30.078125 56 35.796875 56 
Q 45.21875 56 50.046875 50.171875 
Q 54.890625 44.34375 54.890625 33.015625 
z
" id="DejaVuSans-6e"/>
      <path d="M 18.3125 70.21875 
L 18.3125 54.6875 
L 36.8125 54.6875 
L 36.8125 47.703125 
L 18.3125 47.703125 
L 18.3125 18.015625 
Q 18.3125 11.328125 20.140625 9.421875 
Q 21.96875 7.515625 27.59375 7.515625 
L 36.8125 7.515625 
L 36.8125 0 
L 27.59375 0 
Q 17.1875 0 13.234375 3.875 
Q 9.28125 7.765625 9.28125 18.015625 
L 9.28125 47.703125 
L 2.6875 47.703125 
L 2.6875 54.6875 
L 9.28125 54.6875 
L 9.28125 70.21875 
z
" id="DejaVuSans-74"/>
      <path d="M 45.40625 27.984375 
Q 45.40625 37.75 41.375 43.109375 
Q 37.359375 48.484375 30.078125 48.484375 
Q 22.859375 48.484375 18.828125 43.109375 
Q 14.796875 37.75 14.796875 27.984375 
Q 14.796875 18.265625 18.828125 12.890625 
Q 22.859375 7.515625 30.078125 7.515625 
Q 37.359375 7.515625 41.375 12.890625 
Q 45.40625 18.265625 45.40625 27.984375 
z
M 54.390625 6.78125 
Q 54.390625 -7.171875 48.1875 -13.984375 
Q 42 -20.796875 29.203125 -20.796875 
Q 24.46875 -20.796875 20.265625 -20.09375 
Q 16.0625 -19.390625 12.109375 -17.921875 
L 12.109375 -9.1875 
Q 16.0625 -11.328125 19.921875 -12.34375 
Q 23.78125 -13.375 27.78125 -13.375 
Q 36.625 -13.375 41.015625 -8.765625 
Q 45.40625 -4.15625 45.40625 5.171875 
L 45.40625 9.625 
Q 42.625 4.78125 38.28125 2.390625 
Q 33.9375 0 27.875 0 
Q 17.828125 0 11.671875 7.65625 
Q 5.515625 15.328125 5.515625 27.984375 
Q 5.515625 40.671875 11.671875 48.328125 
Q 17.828125 56 27.875 56 
Q 33.9375 56 38.28125 53.609375 
Q 42.625 51.21875 45.40625 46.390625 
L 45.40625 54.6875 
L 54.390625 54.6875 
z
" id="DejaVuSans-67"/>
     </defs>
     <g transform="translate(111.832812 350.7925)rotate(-90)scale(0.1 -0.1)">
      <use xlink:href="#DejaVuSans-50"/>
      <use x="60.255859" xlink:href="#DejaVuSans-65"/>
      <use x="121.779297" xlink:href="#DejaVuSans-72"/>
      <use x="162.861328" xlink:href="#DejaVuSans-63"/>
      <use x="217.841797" xlink:href="#DejaVuSans-65"/>
      <use x="279.365234" xlink:href="#DejaVuSans-6e"/>
      <use x="342.744141" xlink:href="#DejaVuSans-74"/>
      <use x="381.953125" xlink:href="#DejaVuSans-61"/>
      <use x="443.232422" xlink:href="#DejaVuSans-67"/>
      <use x="506.708984" xlink:href="#DejaVuSans-65"/>
     </g>
    </g>
   </g>
   <g id="patch_211">
    <path d="M 144 567 
L 144 77.76 
" style="fill:none;stroke:#000000;stroke-linecap:square;stroke-linejoin:miter;stroke-width:0.8;"/>
   </g>
   <g id="patch_212">
    <path d="M 1036.8 567 
L 1036.8 77.76 
" style="fill:none;stroke:#000000;stroke-linecap:square;stroke-linejoin:miter;stroke-width:0.8;"/>
   </g>
   <g id="patch_213">
    <path d="M 144 567 
L 1036.8 567 
" style="fill:none;stroke:#000000;stroke-linecap:square;stroke-linejoin:miter;stroke-width:0.8;"/>
   </g>
   <g id="patch_214">
    <path d="M 144 77.76 
L 1036.8 77.76 
" style="fill:none;stroke:#000000;stroke-linecap:square;stroke-linejoin:miter;stroke-width:0.8;"/>
   </g>
   <g id="text_61">
    <!-- Daily percentage of each sentiment class -->
    <defs>
     <path d="M 9.421875 54.6875 
L 18.40625 54.6875 
L 18.40625 0 
L 9.421875 0 
z
M 9.421875 75.984375 
L 18.40625 75.984375 
L 18.40625 64.59375 
L 9.421875 64.59375 
z
" id="DejaVuSans-69"/>
     <path d="M 9.421875 75.984375 
L 18.40625 75.984375 
L 18.40625 0 
L 9.421875 0 
z
" id="DejaVuSans-6c"/>
     <path id="DejaVuSans-20"/>
     <path d="M 18.109375 8.203125 
L 18.109375 -20.796875 
L 9.078125 -20.796875 
L 9.078125 54.6875 
L 18.109375 54.6875 
L 18.109375 46.390625 
Q 20.953125 51.265625 25.265625 53.625 
Q 29.59375 56 35.59375 56 
Q 45.5625 56 51.78125 48.09375 
Q 58.015625 40.1875 58.015625 27.296875 
Q 58.015625 14.40625 51.78125 6.484375 
Q 45.5625 -1.421875 35.59375 -1.421875 
Q 29.59375 -1.421875 25.265625 0.953125 
Q 20.953125 3.328125 18.109375 8.203125 
z
M 48.6875 27.296875 
Q 48.6875 37.203125 44.609375 42.84375 
Q 40.53125 48.484375 33.40625 48.484375 
Q 26.265625 48.484375 22.1875 42.84375 
Q 18.109375 37.203125 18.109375 27.296875 
Q 18.109375 17.390625 22.1875 11.75 
Q 26.265625 6.109375 33.40625 6.109375 
Q 40.53125 6.109375 44.609375 11.75 
Q 48.6875 17.390625 48.6875 27.296875 
z
" id="DejaVuSans-70"/>
     <path d="M 30.609375 48.390625 
Q 23.390625 48.390625 19.1875 42.75 
Q 14.984375 37.109375 14.984375 27.296875 
Q 14.984375 17.484375 19.15625 11.84375 
Q 23.34375 6.203125 30.609375 6.203125 
Q 37.796875 6.203125 41.984375 11.859375 
Q 46.1875 17.53125 46.1875 27.296875 
Q 46.1875 37.015625 41.984375 42.703125 
Q 37.796875 48.390625 30.609375 48.390625 
z
M 30.609375 56 
Q 42.328125 56 49.015625 48.375 
Q 55.71875 40.765625 55.71875 27.296875 
Q 55.71875 13.875 49.015625 6.21875 
Q 42.328125 -1.421875 30.609375 -1.421875 
Q 18.84375 -1.421875 12.171875 6.21875 
Q 5.515625 13.875 5.515625 27.296875 
Q 5.515625 40.765625 12.171875 48.375 
Q 18.84375 56 30.609375 56 
z
" id="DejaVuSans-6f"/>
     <path d="M 37.109375 75.984375 
L 37.109375 68.5 
L 28.515625 68.5 
Q 23.6875 68.5 21.796875 66.546875 
Q 19.921875 64.59375 19.921875 59.515625 
L 19.921875 54.6875 
L 34.71875 54.6875 
L 34.71875 47.703125 
L 19.921875 47.703125 
L 19.921875 0 
L 10.890625 0 
L 10.890625 47.703125 
L 2.296875 47.703125 
L 2.296875 54.6875 
L 10.890625 54.6875 
L 10.890625 58.5 
Q 10.890625 67.625 15.140625 71.796875 
Q 19.390625 75.984375 28.609375 75.984375 
z
" id="DejaVuSans-66"/>
     <path d="M 54.890625 33.015625 
L 54.890625 0 
L 45.90625 0 
L 45.90625 32.71875 
Q 45.90625 40.484375 42.875 44.328125 
Q 39.84375 48.1875 33.796875 48.1875 
Q 26.515625 48.1875 22.3125 43.546875 
Q 18.109375 38.921875 18.109375 30.90625 
L 18.109375 0 
L 9.078125 0 
L 9.078125 75.984375 
L 18.109375 75.984375 
L 18.109375 46.1875 
Q 21.34375 51.125 25.703125 53.5625 
Q 30.078125 56 35.796875 56 
Q 45.21875 56 50.046875 50.171875 
Q 54.890625 44.34375 54.890625 33.015625 
z
" id="DejaVuSans-68"/>
     <path d="M 44.28125 53.078125 
L 44.28125 44.578125 
Q 40.484375 46.53125 36.375 47.5 
Q 32.28125 48.484375 27.875 48.484375 
Q 21.1875 48.484375 17.84375 46.4375 
Q 14.5 44.390625 14.5 40.28125 
Q 14.5 37.15625 16.890625 35.375 
Q 19.28125 33.59375 26.515625 31.984375 
L 29.59375 31.296875 
Q 39.15625 29.25 43.1875 25.515625 
Q 47.21875 21.78125 47.21875 15.09375 
Q 47.21875 7.46875 41.1875 3.015625 
Q 35.15625 -1.421875 24.609375 -1.421875 
Q 20.21875 -1.421875 15.453125 -0.5625 
Q 10.6875 0.296875 5.421875 2 
L 5.421875 11.28125 
Q 10.40625 8.6875 15.234375 7.390625 
Q 20.0625 6.109375 24.8125 6.109375 
Q 31.15625 6.109375 34.5625 8.28125 
Q 37.984375 10.453125 37.984375 14.40625 
Q 37.984375 18.0625 35.515625 20.015625 
Q 33.0625 21.96875 24.703125 23.78125 
L 21.578125 24.515625 
Q 13.234375 26.265625 9.515625 29.90625 
Q 5.8125 33.546875 5.8125 39.890625 
Q 5.8125 47.609375 11.28125 51.796875 
Q 16.75 56 26.8125 56 
Q 31.78125 56 36.171875 55.265625 
Q 40.578125 54.546875 44.28125 53.078125 
z
" id="DejaVuSans-73"/>
     <path d="M 52 44.1875 
Q 55.375 50.25 60.0625 53.125 
Q 64.75 56 71.09375 56 
Q 79.640625 56 84.28125 50.015625 
Q 88.921875 44.046875 88.921875 33.015625 
L 88.921875 0 
L 79.890625 0 
L 79.890625 32.71875 
Q 79.890625 40.578125 77.09375 44.375 
Q 74.3125 48.1875 68.609375 48.1875 
Q 61.625 48.1875 57.5625 43.546875 
Q 53.515625 38.921875 53.515625 30.90625 
L 53.515625 0 
L 44.484375 0 
L 44.484375 32.71875 
Q 44.484375 40.625 41.703125 44.40625 
Q 38.921875 48.1875 33.109375 48.1875 
Q 26.21875 48.1875 22.15625 43.53125 
Q 18.109375 38.875 18.109375 30.90625 
L 18.109375 0 
L 9.078125 0 
L 9.078125 54.6875 
L 18.109375 54.6875 
L 18.109375 46.1875 
Q 21.1875 51.21875 25.484375 53.609375 
Q 29.78125 56 35.6875 56 
Q 41.65625 56 45.828125 52.96875 
Q 50 49.953125 52 44.1875 
z
" id="DejaVuSans-6d"/>
    </defs>
    <g transform="translate(465.916875 71.76)scale(0.12 -0.12)">
     <use xlink:href="#DejaVuSans-44"/>
     <use x="77.001953" xlink:href="#DejaVuSans-61"/>
     <use x="138.28125" xlink:href="#DejaVuSans-69"/>
     <use x="166.064453" xlink:href="#DejaVuSans-6c"/>
     <use x="193.847656" xlink:href="#DejaVuSans-79"/>
     <use x="253.027344" xlink:href="#DejaVuSans-20"/>
     <use x="284.814453" xlink:href="#DejaVuSans-70"/>
     <use x="348.291016" xlink:href="#DejaVuSans-65"/>
     <use x="409.814453" xlink:href="#DejaVuSans-72"/>
     <use x="450.896484" xlink:href="#DejaVuSans-63"/>
     <use x="505.876953" xlink:href="#DejaVuSans-65"/>
     <use x="567.400391" xlink:href="#DejaVuSans-6e"/>
     <use x="630.779297" xlink:href="#DejaVuSans-74"/>
     <use x="669.988281" xlink:href="#DejaVuSans-61"/>
     <use x="731.267578" xlink:href="#DejaVuSans-67"/>
     <use x="794.744141" xlink:href="#DejaVuSans-65"/>
     <use x="856.267578" xlink:href="#DejaVuSans-20"/>
     <use x="888.054688" xlink:href="#DejaVuSans-6f"/>
     <use x="949.236328" xlink:href="#DejaVuSans-66"/>
     <use x="984.441406" xlink:href="#DejaVuSans-20"/>
     <use x="1016.228516" xlink:href="#DejaVuSans-65"/>
     <use x="1077.751953" xlink:href="#DejaVuSans-61"/>
     <use x="1139.03125" xlink:href="#DejaVuSans-63"/>
     <use x="1194.011719" xlink:href="#DejaVuSans-68"/>
     <use x="1257.390625" xlink:href="#DejaVuSans-20"/>
     <use x="1289.177734" xlink:href="#DejaVuSans-73"/>
     <use x="1341.277344" xlink:href="#DejaVuSans-65"/>
     <use x="1402.800781" xlink:href="#DejaVuSans-6e"/>
     <use x="1466.179688" xlink:href="#DejaVuSans-74"/>
     <use x="1505.388672" xlink:href="#DejaVuSans-69"/>
     <use x="1533.171875" xlink:href="#DejaVuSans-6d"/>
     <use x="1630.583984" xlink:href="#DejaVuSans-65"/>
     <use x="1692.107422" xlink:href="#DejaVuSans-6e"/>
     <use x="1755.486328" xlink:href="#DejaVuSans-74"/>
     <use x="1794.695312" xlink:href="#DejaVuSans-20"/>
     <use x="1826.482422" xlink:href="#DejaVuSans-63"/>
     <use x="1881.462891" xlink:href="#DejaVuSans-6c"/>
     <use x="1909.246094" xlink:href="#DejaVuSans-61"/>
     <use x="1970.525391" xlink:href="#DejaVuSans-73"/>
     <use x="2022.625" xlink:href="#DejaVuSans-73"/>
    </g>
   </g>
   <g id="legend_1">
    <g id="patch_215">
     <path d="M 151 562 
L 254.071875 562 
Q 256.071875 562 256.071875 560 
L 256.071875 502.2875 
Q 256.071875 500.2875 254.071875 500.2875 
L 151 500.2875 
Q 149 500.2875 149 502.2875 
L 149 560 
Q 149 562 151 562 
z
" style="fill:#ffffff;opacity:0.8;stroke:#cccccc;stroke-linejoin:miter;"/>
    </g>
    <g id="patch_216">
     <path d="M 153 511.885938 
L 173 511.885938 
L 173 504.885938 
L 153 504.885938 
z
" style="fill:#e6194b;"/>
    </g>
    <g id="text_62">
     <!-- Very Negative -->
     <defs>
      <path d="M 28.609375 0 
L 0.78125 72.90625 
L 11.078125 72.90625 
L 34.1875 11.53125 
L 57.328125 72.90625 
L 67.578125 72.90625 
L 39.796875 0 
z
" id="DejaVuSans-56"/>
      <path d="M 9.8125 72.90625 
L 23.09375 72.90625 
L 55.421875 11.921875 
L 55.421875 72.90625 
L 64.984375 72.90625 
L 64.984375 0 
L 51.703125 0 
L 19.390625 60.984375 
L 19.390625 0 
L 9.8125 0 
z
" id="DejaVuSans-4e"/>
      <path d="M 2.984375 54.6875 
L 12.5 54.6875 
L 29.59375 8.796875 
L 46.6875 54.6875 
L 56.203125 54.6875 
L 35.6875 0 
L 23.484375 0 
z
" id="DejaVuSans-76"/>
     </defs>
     <g transform="translate(181 511.885938)scale(0.1 -0.1)">
      <use xlink:href="#DejaVuSans-56"/>
      <use x="68.298828" xlink:href="#DejaVuSans-65"/>
      <use x="129.822266" xlink:href="#DejaVuSans-72"/>
      <use x="170.935547" xlink:href="#DejaVuSans-79"/>
      <use x="230.115234" xlink:href="#DejaVuSans-20"/>
      <use x="261.902344" xlink:href="#DejaVuSans-4e"/>
      <use x="336.707031" xlink:href="#DejaVuSans-65"/>
      <use x="398.230469" xlink:href="#DejaVuSans-67"/>
      <use x="461.707031" xlink:href="#DejaVuSans-61"/>
      <use x="522.986328" xlink:href="#DejaVuSans-74"/>
      <use x="562.195312" xlink:href="#DejaVuSans-69"/>
      <use x="589.978516" xlink:href="#DejaVuSans-76"/>
      <use x="649.158203" xlink:href="#DejaVuSans-65"/>
     </g>
    </g>
    <g id="patch_217">
     <path d="M 153 526.564062 
L 173 526.564062 
L 173 519.564062 
L 153 519.564062 
z
" style="fill:#fabebe;"/>
    </g>
    <g id="text_63">
     <!-- Negative -->
     <g transform="translate(181 526.564062)scale(0.1 -0.1)">
      <use xlink:href="#DejaVuSans-4e"/>
      <use x="74.804688" xlink:href="#DejaVuSans-65"/>
      <use x="136.328125" xlink:href="#DejaVuSans-67"/>
      <use x="199.804688" xlink:href="#DejaVuSans-61"/>
      <use x="261.083984" xlink:href="#DejaVuSans-74"/>
      <use x="300.292969" xlink:href="#DejaVuSans-69"/>
      <use x="328.076172" xlink:href="#DejaVuSans-76"/>
      <use x="387.255859" xlink:href="#DejaVuSans-65"/>
     </g>
    </g>
    <g id="patch_218">
     <path d="M 153 541.242188 
L 173 541.242188 
L 173 534.242188 
L 153 534.242188 
z
" style="fill:#aaffc3;"/>
    </g>
    <g id="text_64">
     <!-- Positive -->
     <g transform="translate(181 541.242188)scale(0.1 -0.1)">
      <use xlink:href="#DejaVuSans-50"/>
      <use x="60.255859" xlink:href="#DejaVuSans-6f"/>
      <use x="121.4375" xlink:href="#DejaVuSans-73"/>
      <use x="173.537109" xlink:href="#DejaVuSans-69"/>
      <use x="201.320312" xlink:href="#DejaVuSans-74"/>
      <use x="240.529297" xlink:href="#DejaVuSans-69"/>
      <use x="268.3125" xlink:href="#DejaVuSans-76"/>
      <use x="327.492188" xlink:href="#DejaVuSans-65"/>
     </g>
    </g>
    <g id="patch_219">
     <path d="M 153 555.920313 
L 173 555.920313 
L 173 548.920313 
L 153 548.920313 
z
" style="fill:#3cb44b;"/>
    </g>
    <g id="text_65">
     <!-- Very Positive -->
     <g transform="translate(181 555.920313)scale(0.1 -0.1)">
      <use xlink:href="#DejaVuSans-56"/>
      <use x="68.298828" xlink:href="#DejaVuSans-65"/>
      <use x="129.822266" xlink:href="#DejaVuSans-72"/>
      <use x="170.935547" xlink:href="#DejaVuSans-79"/>
      <use x="230.115234" xlink:href="#DejaVuSans-20"/>
      <use x="261.902344" xlink:href="#DejaVuSans-50"/>
      <use x="322.158203" xlink:href="#DejaVuSans-6f"/>
      <use x="383.339844" xlink:href="#DejaVuSans-73"/>
      <use x="435.439453" xlink:href="#DejaVuSans-69"/>
      <use x="463.222656" xlink:href="#DejaVuSans-74"/>
      <use x="502.431641" xlink:href="#DejaVuSans-69"/>
      <use x="530.214844" xlink:href="#DejaVuSans-76"/>
      <use x="589.394531" xlink:href="#DejaVuSans-65"/>
     </g>
    </g>
   </g>
  </g>
 </g>
 <defs>
  <clipPath id="p03bf7b8bd7">
   <rect height="489.24" width="892.8" x="144" y="77.76"/>
  </clipPath>
 </defs>
</svg>
