<?xml version="1.0" encoding="utf-8" standalone="no"?>
<!DOCTYPE svg PUBLIC "-//W3C//DTD SVG 1.1//EN"
  "http://www.w3.org/Graphics/SVG/1.1/DTD/svg11.dtd">
<!-- Created with matplotlib (http://matplotlib.org/) -->
<svg height="648pt" version="1.1" viewBox="0 0 1152 648" width="1152pt" xmlns="http://www.w3.org/2000/svg" xmlns:xlink="http://www.w3.org/1999/xlink">
 <defs>
  <style type="text/css">
*{stroke-linecap:butt;stroke-linejoin:round;}
  </style>
 </defs>
 <g id="figure_1">
  <g id="patch_1">
   <path d="M 0 648 
L 1152 648 
L 1152 0 
L 0 0 
z
" style="fill:#ffffff;"/>
  </g>
  <g id="axes_1">
   <g id="patch_2">
    <path d="M 144 567 
L 1036.8 567 
L 1036.8 77.76 
L 144 77.76 
z
" style="fill:#ffffff;"/>
   </g>
   <g id="patch_3">
    <path clip-path="url(#p6d3226049e)" d="M 184.581818 567 
L 197.116743 567 
L 197.116743 549.889104 
L 184.581818 549.889104 
z
" style="fill:#e6194b;"/>
   </g>
   <g id="patch_4">
    <path clip-path="url(#p6d3226049e)" d="M 200.250474 567 
L 212.785398 567 
L 212.785398 509.086199 
L 200.250474 509.086199 
z
" style="fill:#e6194b;"/>
   </g>
   <g id="patch_5">
    <path clip-path="url(#p6d3226049e)" d="M 215.91913 567 
L 228.454054 567 
L 228.454054 516.983535 
L 215.91913 516.983535 
z
" style="fill:#e6194b;"/>
   </g>
   <g id="patch_6">
    <path clip-path="url(#p6d3226049e)" d="M 231.587785 567 
L 244.12271 567 
L 244.12271 511.718644 
L 231.587785 511.718644 
z
" style="fill:#e6194b;"/>
   </g>
   <g id="patch_7">
    <path clip-path="url(#p6d3226049e)" d="M 247.256441 567 
L 259.791365 567 
L 259.791365 551.205327 
L 247.256441 551.205327 
z
" style="fill:#e6194b;"/>
   </g>
   <g id="patch_8">
    <path clip-path="url(#p6d3226049e)" d="M 262.925097 567 
L 275.460021 567 
L 275.460021 559.102663 
L 262.925097 559.102663 
z
" style="fill:#e6194b;"/>
   </g>
   <g id="patch_9">
    <path clip-path="url(#p6d3226049e)" d="M 278.593752 567 
L 291.128677 567 
L 291.128677 488.026634 
L 278.593752 488.026634 
z
" style="fill:#e6194b;"/>
   </g>
   <g id="patch_10">
    <path clip-path="url(#p6d3226049e)" d="M 294.262408 567 
L 306.797332 567 
L 306.797332 511.718644 
L 294.262408 511.718644 
z
" style="fill:#e6194b;"/>
   </g>
   <g id="patch_11">
    <path clip-path="url(#p6d3226049e)" d="M 309.931064 567 
L 322.465988 567 
L 322.465988 522.248426 
L 309.931064 522.248426 
z
" style="fill:#e6194b;"/>
   </g>
   <g id="patch_12">
    <path clip-path="url(#p6d3226049e)" d="M 325.599719 567 
L 338.134644 567 
L 338.134644 459.069734 
L 325.599719 459.069734 
z
" style="fill:#e6194b;"/>
   </g>
   <g id="patch_13">
    <path clip-path="url(#p6d3226049e)" d="M 341.268375 567 
L 353.803299 567 
L 353.803299 459.069734 
L 341.268375 459.069734 
z
" style="fill:#e6194b;"/>
   </g>
   <g id="patch_14">
    <path clip-path="url(#p6d3226049e)" d="M 356.937031 567 
L 369.471955 567 
L 369.471955 507.769976 
L 356.937031 507.769976 
z
" style="fill:#e6194b;"/>
   </g>
   <g id="patch_15">
    <path clip-path="url(#p6d3226049e)" d="M 372.605686 567 
L 385.140611 567 
L 385.140611 559.102663 
L 372.605686 559.102663 
z
" style="fill:#e6194b;"/>
   </g>
   <g id="patch_16">
    <path clip-path="url(#p6d3226049e)" d="M 388.274342 567 
L 400.809266 567 
L 400.809266 509.086199 
L 388.274342 509.086199 
z
" style="fill:#e6194b;"/>
   </g>
   <g id="patch_17">
    <path clip-path="url(#p6d3226049e)" d="M 403.942998 567 
L 416.477922 567 
L 416.477922 513.034867 
L 403.942998 513.034867 
z
" style="fill:#e6194b;"/>
   </g>
   <g id="patch_18">
    <path clip-path="url(#p6d3226049e)" d="M 419.611653 567 
L 432.146578 567 
L 432.146578 520.932203 
L 419.611653 520.932203 
z
" style="fill:#e6194b;"/>
   </g>
   <g id="patch_19">
    <path clip-path="url(#p6d3226049e)" d="M 435.280309 567 
L 447.815233 567 
L 447.815233 524.880872 
L 435.280309 524.880872 
z
" style="fill:#e6194b;"/>
   </g>
   <g id="patch_20">
    <path clip-path="url(#p6d3226049e)" d="M 450.948965 567 
L 463.483889 567 
L 463.483889 503.821308 
L 450.948965 503.821308 
z
" style="fill:#e6194b;"/>
   </g>
   <g id="patch_21">
    <path clip-path="url(#p6d3226049e)" d="M 466.61762 567 
L 479.152545 567 
L 479.152545 559.102663 
L 466.61762 559.102663 
z
" style="fill:#e6194b;"/>
   </g>
   <g id="patch_22">
    <path clip-path="url(#p6d3226049e)" d="M 482.286276 567 
L 494.8212 567 
L 494.8212 535.410654 
L 482.286276 535.410654 
z
" style="fill:#e6194b;"/>
   </g>
   <g id="patch_23">
    <path clip-path="url(#p6d3226049e)" d="M 497.954932 567 
L 510.489856 567 
L 510.489856 514.35109 
L 497.954932 514.35109 
z
" style="fill:#e6194b;"/>
   </g>
   <g id="patch_24">
    <path clip-path="url(#p6d3226049e)" d="M 513.623587 567 
L 526.158512 567 
L 526.158512 495.923971 
L 513.623587 495.923971 
z
" style="fill:#e6194b;"/>
   </g>
   <g id="patch_25">
    <path clip-path="url(#p6d3226049e)" d="M 529.292243 567 
L 541.827167 567 
L 541.827167 518.299758 
L 529.292243 518.299758 
z
" style="fill:#e6194b;"/>
   </g>
   <g id="patch_26">
    <path clip-path="url(#p6d3226049e)" d="M 544.960899 567 
L 557.495823 567 
L 557.495823 509.086199 
L 544.960899 509.086199 
z
" style="fill:#e6194b;"/>
   </g>
   <g id="patch_27">
    <path clip-path="url(#p6d3226049e)" d="M 560.629554 567 
L 573.164479 567 
L 573.164479 505.13753 
L 560.629554 505.13753 
z
" style="fill:#e6194b;"/>
   </g>
   <g id="patch_28">
    <path clip-path="url(#p6d3226049e)" d="M 576.29821 567 
L 588.833134 567 
L 588.833134 519.615981 
L 576.29821 519.615981 
z
" style="fill:#e6194b;"/>
   </g>
   <g id="patch_29">
    <path clip-path="url(#p6d3226049e)" d="M 591.966866 567 
L 604.50179 567 
L 604.50179 538.043099 
L 591.966866 538.043099 
z
" style="fill:#e6194b;"/>
   </g>
   <g id="patch_30">
    <path clip-path="url(#p6d3226049e)" d="M 607.635521 567 
L 620.170446 567 
L 620.170446 545.940436 
L 607.635521 545.940436 
z
" style="fill:#e6194b;"/>
   </g>
   <g id="patch_31">
    <path clip-path="url(#p6d3226049e)" d="M 623.304177 567 
L 635.839101 567 
L 635.839101 535.410654 
L 623.304177 535.410654 
z
" style="fill:#e6194b;"/>
   </g>
   <g id="patch_32">
    <path clip-path="url(#p6d3226049e)" d="M 638.972833 567 
L 651.507757 567 
L 651.507757 514.35109 
L 638.972833 514.35109 
z
" style="fill:#e6194b;"/>
   </g>
   <g id="patch_33">
    <path clip-path="url(#p6d3226049e)" d="M 654.641488 567 
L 667.176413 567 
L 667.176413 528.82954 
L 654.641488 528.82954 
z
" style="fill:#e6194b;"/>
   </g>
   <g id="patch_34">
    <path clip-path="url(#p6d3226049e)" d="M 670.310144 567 
L 682.845068 567 
L 682.845068 482.761743 
L 670.310144 482.761743 
z
" style="fill:#e6194b;"/>
   </g>
   <g id="patch_35">
    <path clip-path="url(#p6d3226049e)" d="M 685.9788 567 
L 698.513724 567 
L 698.513724 526.197094 
L 685.9788 526.197094 
z
" style="fill:#e6194b;"/>
   </g>
   <g id="patch_36">
    <path clip-path="url(#p6d3226049e)" d="M 701.647455 567 
L 714.18238 567 
L 714.18238 524.880872 
L 701.647455 524.880872 
z
" style="fill:#e6194b;"/>
   </g>
   <g id="patch_37">
    <path clip-path="url(#p6d3226049e)" d="M 717.316111 567 
L 729.851035 567 
L 729.851035 494.607748 
L 717.316111 494.607748 
z
" style="fill:#e6194b;"/>
   </g>
   <g id="patch_38">
    <path clip-path="url(#p6d3226049e)" d="M 732.984767 567 
L 745.519691 567 
L 745.519691 538.043099 
L 732.984767 538.043099 
z
" style="fill:#e6194b;"/>
   </g>
   <g id="patch_39">
    <path clip-path="url(#p6d3226049e)" d="M 748.653422 567 
L 761.188347 567 
L 761.188347 501.188862 
L 748.653422 501.188862 
z
" style="fill:#e6194b;"/>
   </g>
   <g id="patch_40">
    <path clip-path="url(#p6d3226049e)" d="M 764.322078 567 
L 776.857002 567 
L 776.857002 522.248426 
L 764.322078 522.248426 
z
" style="fill:#e6194b;"/>
   </g>
   <g id="patch_41">
    <path clip-path="url(#p6d3226049e)" d="M 779.990734 567 
L 792.525658 567 
L 792.525658 530.145763 
L 779.990734 530.145763 
z
" style="fill:#e6194b;"/>
   </g>
   <g id="patch_42">
    <path clip-path="url(#p6d3226049e)" d="M 795.659389 567 
L 808.194314 567 
L 808.194314 495.923971 
L 795.659389 495.923971 
z
" style="fill:#e6194b;"/>
   </g>
   <g id="patch_43">
    <path clip-path="url(#p6d3226049e)" d="M 811.328045 567 
L 823.862969 567 
L 823.862969 543.30799 
L 811.328045 543.30799 
z
" style="fill:#e6194b;"/>
   </g>
   <g id="patch_44">
    <path clip-path="url(#p6d3226049e)" d="M 826.996701 567 
L 839.531625 567 
L 839.531625 515.667312 
L 826.996701 515.667312 
z
" style="fill:#e6194b;"/>
   </g>
   <g id="patch_45">
    <path clip-path="url(#p6d3226049e)" d="M 842.665356 567 
L 855.200281 567 
L 855.200281 539.359322 
L 842.665356 539.359322 
z
" style="fill:#e6194b;"/>
   </g>
   <g id="patch_46">
    <path clip-path="url(#p6d3226049e)" d="M 858.334012 567 
L 870.868936 567 
L 870.868936 553.837772 
L 858.334012 553.837772 
z
" style="fill:#e6194b;"/>
   </g>
   <g id="patch_47">
    <path clip-path="url(#p6d3226049e)" d="M 874.002668 567 
L 886.537592 567 
L 886.537592 530.145763 
L 874.002668 530.145763 
z
" style="fill:#e6194b;"/>
   </g>
   <g id="patch_48">
    <path clip-path="url(#p6d3226049e)" d="M 889.671323 567 
L 902.206248 567 
L 902.206248 547.256659 
L 889.671323 547.256659 
z
" style="fill:#e6194b;"/>
   </g>
   <g id="patch_49">
    <path clip-path="url(#p6d3226049e)" d="M 905.339979 567 
L 917.874903 567 
L 917.874903 553.837772 
L 905.339979 553.837772 
z
" style="fill:#e6194b;"/>
   </g>
   <g id="patch_50">
    <path clip-path="url(#p6d3226049e)" d="M 921.008635 567 
L 933.543559 567 
L 933.543559 528.82954 
L 921.008635 528.82954 
z
" style="fill:#e6194b;"/>
   </g>
   <g id="patch_51">
    <path clip-path="url(#p6d3226049e)" d="M 936.67729 567 
L 949.212215 567 
L 949.212215 510.402421 
L 936.67729 510.402421 
z
" style="fill:#e6194b;"/>
   </g>
   <g id="patch_52">
    <path clip-path="url(#p6d3226049e)" d="M 952.345946 567 
L 964.88087 567 
L 964.88087 532.778208 
L 952.345946 532.778208 
z
" style="fill:#e6194b;"/>
   </g>
   <g id="patch_53">
    <path clip-path="url(#p6d3226049e)" d="M 968.014602 567 
L 980.549526 567 
L 980.549526 488.026634 
L 968.014602 488.026634 
z
" style="fill:#e6194b;"/>
   </g>
   <g id="patch_54">
    <path clip-path="url(#p6d3226049e)" d="M 983.683257 567 
L 996.218182 567 
L 996.218182 531.461985 
L 983.683257 531.461985 
z
" style="fill:#e6194b;"/>
   </g>
   <g id="patch_55">
    <path clip-path="url(#p6d3226049e)" d="M 184.581818 549.889104 
L 197.116743 549.889104 
L 197.116743 499.872639 
L 184.581818 499.872639 
z
" style="fill:#fabebe;"/>
   </g>
   <g id="patch_56">
    <path clip-path="url(#p6d3226049e)" d="M 200.250474 509.086199 
L 212.785398 509.086199 
L 212.785398 319.550121 
L 200.250474 319.550121 
z
" style="fill:#fabebe;"/>
   </g>
   <g id="patch_57">
    <path clip-path="url(#p6d3226049e)" d="M 215.91913 516.983535 
L 228.454054 516.983535 
L 228.454054 391.942373 
L 215.91913 391.942373 
z
" style="fill:#fabebe;"/>
   </g>
   <g id="patch_58">
    <path clip-path="url(#p6d3226049e)" d="M 231.587785 511.718644 
L 244.12271 511.718644 
L 244.12271 369.566586 
L 231.587785 369.566586 
z
" style="fill:#fabebe;"/>
   </g>
   <g id="patch_59">
    <path clip-path="url(#p6d3226049e)" d="M 247.256441 551.205327 
L 259.791365 551.205327 
L 259.791365 464.334625 
L 247.256441 464.334625 
z
" style="fill:#fabebe;"/>
   </g>
   <g id="patch_60">
    <path clip-path="url(#p6d3226049e)" d="M 262.925097 559.102663 
L 275.460021 559.102663 
L 275.460021 456.437288 
L 262.925097 456.437288 
z
" style="fill:#fabebe;"/>
   </g>
   <g id="patch_61">
    <path clip-path="url(#p6d3226049e)" d="M 278.593752 488.026634 
L 291.128677 488.026634 
L 291.128677 301.123002 
L 278.593752 301.123002 
z
" style="fill:#fabebe;"/>
   </g>
   <g id="patch_62">
    <path clip-path="url(#p6d3226049e)" d="M 294.262408 511.718644 
L 306.797332 511.718644 
L 306.797332 332.712349 
L 294.262408 332.712349 
z
" style="fill:#fabebe;"/>
   </g>
   <g id="patch_63">
    <path clip-path="url(#p6d3226049e)" d="M 309.931064 522.248426 
L 322.465988 522.248426 
L 322.465988 341.925908 
L 309.931064 341.925908 
z
" style="fill:#fabebe;"/>
   </g>
   <g id="patch_64">
    <path clip-path="url(#p6d3226049e)" d="M 325.599719 459.069734 
L 338.134644 459.069734 
L 338.134644 272.166102 
L 325.599719 272.166102 
z
" style="fill:#fabebe;"/>
   </g>
   <g id="patch_65">
    <path clip-path="url(#p6d3226049e)" d="M 341.268375 459.069734 
L 353.803299 459.069734 
L 353.803299 312.969007 
L 341.268375 312.969007 
z
" style="fill:#fabebe;"/>
   </g>
   <g id="patch_66">
    <path clip-path="url(#p6d3226049e)" d="M 356.937031 507.769976 
L 369.471955 507.769976 
L 369.471955 409.053269 
L 356.937031 409.053269 
z
" style="fill:#fabebe;"/>
   </g>
   <g id="patch_67">
    <path clip-path="url(#p6d3226049e)" d="M 372.605686 559.102663 
L 385.140611 559.102663 
L 385.140611 420.899274 
L 372.605686 420.899274 
z
" style="fill:#fabebe;"/>
   </g>
   <g id="patch_68">
    <path clip-path="url(#p6d3226049e)" d="M 388.274342 509.086199 
L 400.809266 509.086199 
L 400.809266 376.1477 
L 388.274342 376.1477 
z
" style="fill:#fabebe;"/>
   </g>
   <g id="patch_69">
    <path clip-path="url(#p6d3226049e)" d="M 403.942998 513.034867 
L 416.477922 513.034867 
L 416.477922 320.866344 
L 403.942998 320.866344 
z
" style="fill:#fabebe;"/>
   </g>
   <g id="patch_70">
    <path clip-path="url(#p6d3226049e)" d="M 419.611653 520.932203 
L 432.146578 520.932203 
L 432.146578 352.45569 
L 419.611653 352.45569 
z
" style="fill:#fabebe;"/>
   </g>
   <g id="patch_71">
    <path clip-path="url(#p6d3226049e)" d="M 435.280309 524.880872 
L 447.815233 524.880872 
L 447.815233 345.874576 
L 435.280309 345.874576 
z
" style="fill:#fabebe;"/>
   </g>
   <g id="patch_72">
    <path clip-path="url(#p6d3226049e)" d="M 450.948965 503.821308 
L 463.483889 503.821308 
L 463.483889 355.088136 
L 450.948965 355.088136 
z
" style="fill:#fabebe;"/>
   </g>
   <g id="patch_73">
    <path clip-path="url(#p6d3226049e)" d="M 466.61762 559.102663 
L 479.152545 559.102663 
L 479.152545 436.693947 
L 466.61762 436.693947 
z
" style="fill:#fabebe;"/>
   </g>
   <g id="patch_74">
    <path clip-path="url(#p6d3226049e)" d="M 482.286276 535.410654 
L 494.8212 535.410654 
L 494.8212 401.155932 
L 482.286276 401.155932 
z
" style="fill:#fabebe;"/>
   </g>
   <g id="patch_75">
    <path clip-path="url(#p6d3226049e)" d="M 497.954932 514.35109 
L 510.489856 514.35109 
L 510.489856 314.28523 
L 497.954932 314.28523 
z
" style="fill:#fabebe;"/>
   </g>
   <g id="patch_76">
    <path clip-path="url(#p6d3226049e)" d="M 513.623587 495.923971 
L 526.158512 495.923971 
L 526.158512 334.028571 
L 513.623587 334.028571 
z
" style="fill:#fabebe;"/>
   </g>
   <g id="patch_77">
    <path clip-path="url(#p6d3226049e)" d="M 529.292243 518.299758 
L 541.827167 518.299758 
L 541.827167 337.97724 
L 529.292243 337.97724 
z
" style="fill:#fabebe;"/>
   </g>
   <g id="patch_78">
    <path clip-path="url(#p6d3226049e)" d="M 544.960899 509.086199 
L 557.495823 509.086199 
L 557.495823 356.404358 
L 544.960899 356.404358 
z
" style="fill:#fabebe;"/>
   </g>
   <g id="patch_79">
    <path clip-path="url(#p6d3226049e)" d="M 560.629554 505.13753 
L 573.164479 505.13753 
L 573.164479 422.215496 
L 560.629554 422.215496 
z
" style="fill:#fabebe;"/>
   </g>
   <g id="patch_80">
    <path clip-path="url(#p6d3226049e)" d="M 576.29821 519.615981 
L 588.833134 519.615981 
L 588.833134 420.899274 
L 576.29821 420.899274 
z
" style="fill:#fabebe;"/>
   </g>
   <g id="patch_81">
    <path clip-path="url(#p6d3226049e)" d="M 591.966866 538.043099 
L 604.50179 538.043099 
L 604.50179 478.813075 
L 591.966866 478.813075 
z
" style="fill:#fabebe;"/>
   </g>
   <g id="patch_82">
    <path clip-path="url(#p6d3226049e)" d="M 607.635521 545.940436 
L 620.170446 545.940436 
L 620.170446 426.164165 
L 607.635521 426.164165 
z
" style="fill:#fabebe;"/>
   </g>
   <g id="patch_83">
    <path clip-path="url(#p6d3226049e)" d="M 623.304177 535.410654 
L 635.839101 535.410654 
L 635.839101 389.309927 
L 623.304177 389.309927 
z
" style="fill:#fabebe;"/>
   </g>
   <g id="patch_84">
    <path clip-path="url(#p6d3226049e)" d="M 638.972833 514.35109 
L 651.507757 514.35109 
L 651.507757 393.258596 
L 638.972833 393.258596 
z
" style="fill:#fabebe;"/>
   </g>
   <g id="patch_85">
    <path clip-path="url(#p6d3226049e)" d="M 654.641488 528.82954 
L 667.176413 528.82954 
L 667.176413 373.515254 
L 654.641488 373.515254 
z
" style="fill:#fabebe;"/>
   </g>
   <g id="patch_86">
    <path clip-path="url(#p6d3226049e)" d="M 670.310144 482.761743 
L 682.845068 482.761743 
L 682.845068 318.233898 
L 670.310144 318.233898 
z
" style="fill:#fabebe;"/>
   </g>
   <g id="patch_87">
    <path clip-path="url(#p6d3226049e)" d="M 685.9788 526.197094 
L 698.513724 526.197094 
L 698.513724 477.496852 
L 685.9788 477.496852 
z
" style="fill:#fabebe;"/>
   </g>
   <g id="patch_88">
    <path clip-path="url(#p6d3226049e)" d="M 701.647455 524.880872 
L 714.18238 524.880872 
L 714.18238 470.915738 
L 701.647455 470.915738 
z
" style="fill:#fabebe;"/>
   </g>
   <g id="patch_89">
    <path clip-path="url(#p6d3226049e)" d="M 717.316111 494.607748 
L 729.851035 494.607748 
L 729.851035 343.242131 
L 717.316111 343.242131 
z
" style="fill:#fabebe;"/>
   </g>
   <g id="patch_90">
    <path clip-path="url(#p6d3226049e)" d="M 732.984767 538.043099 
L 745.519691 538.043099 
L 745.519691 387.993705 
L 732.984767 387.993705 
z
" style="fill:#fabebe;"/>
   </g>
   <g id="patch_91">
    <path clip-path="url(#p6d3226049e)" d="M 748.653422 501.188862 
L 761.188347 501.188862 
L 761.188347 372.199031 
L 748.653422 372.199031 
z
" style="fill:#fabebe;"/>
   </g>
   <g id="patch_92">
    <path clip-path="url(#p6d3226049e)" d="M 764.322078 522.248426 
L 776.857002 522.248426 
L 776.857002 349.823245 
L 764.322078 349.823245 
z
" style="fill:#fabebe;"/>
   </g>
   <g id="patch_93">
    <path clip-path="url(#p6d3226049e)" d="M 779.990734 530.145763 
L 792.525658 530.145763 
L 792.525658 405.1046 
L 779.990734 405.1046 
z
" style="fill:#fabebe;"/>
   </g>
   <g id="patch_94">
    <path clip-path="url(#p6d3226049e)" d="M 795.659389 495.923971 
L 808.194314 495.923971 
L 808.194314 401.155932 
L 795.659389 401.155932 
z
" style="fill:#fabebe;"/>
   </g>
   <g id="patch_95">
    <path clip-path="url(#p6d3226049e)" d="M 811.328045 543.30799 
L 823.862969 543.30799 
L 823.862969 474.864407 
L 811.328045 474.864407 
z
" style="fill:#fabebe;"/>
   </g>
   <g id="patch_96">
    <path clip-path="url(#p6d3226049e)" d="M 826.996701 515.667312 
L 839.531625 515.667312 
L 839.531625 407.737046 
L 826.996701 407.737046 
z
" style="fill:#fabebe;"/>
   </g>
   <g id="patch_97">
    <path clip-path="url(#p6d3226049e)" d="M 842.665356 539.359322 
L 855.200281 539.359322 
L 855.200281 360.353027 
L 842.665356 360.353027 
z
" style="fill:#fabebe;"/>
   </g>
   <g id="patch_98">
    <path clip-path="url(#p6d3226049e)" d="M 858.334012 553.837772 
L 870.868936 553.837772 
L 870.868936 378.780145 
L 858.334012 378.780145 
z
" style="fill:#fabebe;"/>
   </g>
   <g id="patch_99">
    <path clip-path="url(#p6d3226049e)" d="M 874.002668 530.145763 
L 886.537592 530.145763 
L 886.537592 394.574818 
L 874.002668 394.574818 
z
" style="fill:#fabebe;"/>
   </g>
   <g id="patch_100">
    <path clip-path="url(#p6d3226049e)" d="M 889.671323 547.256659 
L 902.206248 547.256659 
L 902.206248 398.523487 
L 889.671323 398.523487 
z
" style="fill:#fabebe;"/>
   </g>
   <g id="patch_101">
    <path clip-path="url(#p6d3226049e)" d="M 905.339979 553.837772 
L 917.874903 553.837772 
L 917.874903 440.642615 
L 905.339979 440.642615 
z
" style="fill:#fabebe;"/>
   </g>
   <g id="patch_102">
    <path clip-path="url(#p6d3226049e)" d="M 921.008635 528.82954 
L 933.543559 528.82954 
L 933.543559 459.069734 
L 921.008635 459.069734 
z
" style="fill:#fabebe;"/>
   </g>
   <g id="patch_103">
    <path clip-path="url(#p6d3226049e)" d="M 936.67729 510.402421 
L 949.212215 510.402421 
L 949.212215 353.771913 
L 936.67729 353.771913 
z
" style="fill:#fabebe;"/>
   </g>
   <g id="patch_104">
    <path clip-path="url(#p6d3226049e)" d="M 952.345946 532.778208 
L 964.88087 532.778208 
L 964.88087 390.62615 
L 952.345946 390.62615 
z
" style="fill:#fabebe;"/>
   </g>
   <g id="patch_105">
    <path clip-path="url(#p6d3226049e)" d="M 968.014602 488.026634 
L 980.549526 488.026634 
L 980.549526 344.558354 
L 968.014602 344.558354 
z
" style="fill:#fabebe;"/>
   </g>
   <g id="patch_106">
    <path clip-path="url(#p6d3226049e)" d="M 983.683257 531.461985 
L 996.218182 531.461985 
L 996.218182 435.377724 
L 983.683257 435.377724 
z
" style="fill:#fabebe;"/>
   </g>
   <g id="patch_107">
    <path clip-path="url(#p6d3226049e)" d="M 184.581818 499.872639 
L 197.116743 499.872639 
L 197.116743 411.685714 
L 184.581818 411.685714 
z
" style="fill:#aaffc3;"/>
   </g>
   <g id="patch_108">
    <path clip-path="url(#p6d3226049e)" d="M 200.250474 319.550121 
L 212.785398 319.550121 
L 212.785398 180.030508 
L 200.250474 180.030508 
z
" style="fill:#aaffc3;"/>
   </g>
   <g id="patch_109">
    <path clip-path="url(#p6d3226049e)" d="M 215.91913 391.942373 
L 228.454054 391.942373 
L 228.454054 249.790315 
L 215.91913 249.790315 
z
" style="fill:#aaffc3;"/>
   </g>
   <g id="patch_110">
    <path clip-path="url(#p6d3226049e)" d="M 231.587785 369.566586 
L 244.12271 369.566586 
L 244.12271 215.568523 
L 231.587785 215.568523 
z
" style="fill:#aaffc3;"/>
   </g>
   <g id="patch_111">
    <path clip-path="url(#p6d3226049e)" d="M 247.256441 464.334625 
L 259.791365 464.334625 
L 259.791365 380.096368 
L 247.256441 380.096368 
z
" style="fill:#aaffc3;"/>
   </g>
   <g id="patch_112">
    <path clip-path="url(#p6d3226049e)" d="M 262.925097 456.437288 
L 275.460021 456.437288 
L 275.460021 374.831477 
L 262.925097 374.831477 
z
" style="fill:#aaffc3;"/>
   </g>
   <g id="patch_113">
    <path clip-path="url(#p6d3226049e)" d="M 278.593752 301.123002 
L 291.128677 301.123002 
L 291.128677 132.646489 
L 278.593752 132.646489 
z
" style="fill:#aaffc3;"/>
   </g>
   <g id="patch_114">
    <path clip-path="url(#p6d3226049e)" d="M 294.262408 332.712349 
L 306.797332 332.712349 
L 306.797332 202.406295 
L 294.262408 202.406295 
z
" style="fill:#aaffc3;"/>
   </g>
   <g id="patch_115">
    <path clip-path="url(#p6d3226049e)" d="M 309.931064 341.925908 
L 322.465988 341.925908 
L 322.465988 118.168039 
L 309.931064 118.168039 
z
" style="fill:#aaffc3;"/>
   </g>
   <g id="patch_116">
    <path clip-path="url(#p6d3226049e)" d="M 325.599719 272.166102 
L 338.134644 272.166102 
L 338.134644 178.714286 
L 325.599719 178.714286 
z
" style="fill:#aaffc3;"/>
   </g>
   <g id="patch_117">
    <path clip-path="url(#p6d3226049e)" d="M 341.268375 312.969007 
L 353.803299 312.969007 
L 353.803299 183.979177 
L 341.268375 183.979177 
z
" style="fill:#aaffc3;"/>
   </g>
   <g id="patch_118">
    <path clip-path="url(#p6d3226049e)" d="M 356.937031 409.053269 
L 369.471955 409.053269 
L 369.471955 337.97724 
L 356.937031 337.97724 
z
" style="fill:#aaffc3;"/>
   </g>
   <g id="patch_119">
    <path clip-path="url(#p6d3226049e)" d="M 372.605686 420.899274 
L 385.140611 420.899274 
L 385.140611 311.652785 
L 372.605686 311.652785 
z
" style="fill:#aaffc3;"/>
   </g>
   <g id="patch_120">
    <path clip-path="url(#p6d3226049e)" d="M 388.274342 376.1477 
L 400.809266 376.1477 
L 400.809266 237.94431 
L 388.274342 237.94431 
z
" style="fill:#aaffc3;"/>
   </g>
   <g id="patch_121">
    <path clip-path="url(#p6d3226049e)" d="M 403.942998 320.866344 
L 416.477922 320.866344 
L 416.477922 161.60339 
L 403.942998 161.60339 
z
" style="fill:#aaffc3;"/>
   </g>
   <g id="patch_122">
    <path clip-path="url(#p6d3226049e)" d="M 419.611653 352.45569 
L 432.146578 352.45569 
L 432.146578 187.927845 
L 419.611653 187.927845 
z
" style="fill:#aaffc3;"/>
   </g>
   <g id="patch_123">
    <path clip-path="url(#p6d3226049e)" d="M 435.280309 345.874576 
L 447.815233 345.874576 
L 447.815233 219.517191 
L 435.280309 219.517191 
z
" style="fill:#aaffc3;"/>
   </g>
   <g id="patch_124">
    <path clip-path="url(#p6d3226049e)" d="M 450.948965 355.088136 
L 463.483889 355.088136 
L 463.483889 158.970944 
L 450.948965 158.970944 
z
" style="fill:#aaffc3;"/>
   </g>
   <g id="patch_125">
    <path clip-path="url(#p6d3226049e)" d="M 466.61762 436.693947 
L 479.152545 436.693947 
L 479.152545 368.250363 
L 466.61762 368.250363 
z
" style="fill:#aaffc3;"/>
   </g>
   <g id="patch_126">
    <path clip-path="url(#p6d3226049e)" d="M 482.286276 401.155932 
L 494.8212 401.155932 
L 494.8212 316.917676 
L 482.286276 316.917676 
z
" style="fill:#aaffc3;"/>
   </g>
   <g id="patch_127">
    <path clip-path="url(#p6d3226049e)" d="M 497.954932 314.28523 
L 510.489856 314.28523 
L 510.489856 215.568523 
L 497.954932 215.568523 
z
" style="fill:#aaffc3;"/>
   </g>
   <g id="patch_128">
    <path clip-path="url(#p6d3226049e)" d="M 513.623587 334.028571 
L 526.158512 334.028571 
L 526.158512 206.354964 
L 513.623587 206.354964 
z
" style="fill:#aaffc3;"/>
   </g>
   <g id="patch_129">
    <path clip-path="url(#p6d3226049e)" d="M 529.292243 337.97724 
L 541.827167 337.97724 
L 541.827167 180.030508 
L 529.292243 180.030508 
z
" style="fill:#aaffc3;"/>
   </g>
   <g id="patch_130">
    <path clip-path="url(#p6d3226049e)" d="M 544.960899 356.404358 
L 557.495823 356.404358 
L 557.495823 152.389831 
L 544.960899 152.389831 
z
" style="fill:#aaffc3;"/>
   </g>
   <g id="patch_131">
    <path clip-path="url(#p6d3226049e)" d="M 560.629554 422.215496 
L 573.164479 422.215496 
L 573.164479 306.387893 
L 560.629554 306.387893 
z
" style="fill:#aaffc3;"/>
   </g>
   <g id="patch_132">
    <path clip-path="url(#p6d3226049e)" d="M 576.29821 420.899274 
L 588.833134 420.899274 
L 588.833134 322.182567 
L 576.29821 322.182567 
z
" style="fill:#aaffc3;"/>
   </g>
   <g id="patch_133">
    <path clip-path="url(#p6d3226049e)" d="M 591.966866 478.813075 
L 604.50179 478.813075 
L 604.50179 387.993705 
L 591.966866 387.993705 
z
" style="fill:#aaffc3;"/>
   </g>
   <g id="patch_134">
    <path clip-path="url(#p6d3226049e)" d="M 607.635521 426.164165 
L 620.170446 426.164165 
L 620.170446 347.190799 
L 607.635521 347.190799 
z
" style="fill:#aaffc3;"/>
   </g>
   <g id="patch_135">
    <path clip-path="url(#p6d3226049e)" d="M 623.304177 389.309927 
L 635.839101 389.309927 
L 635.839101 222.149637 
L 623.304177 222.149637 
z
" style="fill:#aaffc3;"/>
   </g>
   <g id="patch_136">
    <path clip-path="url(#p6d3226049e)" d="M 638.972833 393.258596 
L 651.507757 393.258596 
L 651.507757 241.892978 
L 638.972833 241.892978 
z
" style="fill:#aaffc3;"/>
   </g>
   <g id="patch_137">
    <path clip-path="url(#p6d3226049e)" d="M 654.641488 373.515254 
L 667.176413 373.515254 
L 667.176413 232.679419 
L 654.641488 232.679419 
z
" style="fill:#aaffc3;"/>
   </g>
   <g id="patch_138">
    <path clip-path="url(#p6d3226049e)" d="M 670.310144 318.233898 
L 682.845068 318.233898 
L 682.845068 139.227603 
L 670.310144 139.227603 
z
" style="fill:#aaffc3;"/>
   </g>
   <g id="patch_139">
    <path clip-path="url(#p6d3226049e)" d="M 685.9788 477.496852 
L 698.513724 477.496852 
L 698.513724 319.550121 
L 685.9788 319.550121 
z
" style="fill:#aaffc3;"/>
   </g>
   <g id="patch_140">
    <path clip-path="url(#p6d3226049e)" d="M 701.647455 470.915738 
L 714.18238 470.915738 
L 714.18238 359.036804 
L 701.647455 359.036804 
z
" style="fill:#aaffc3;"/>
   </g>
   <g id="patch_141">
    <path clip-path="url(#p6d3226049e)" d="M 717.316111 343.242131 
L 729.851035 343.242131 
L 729.851035 190.560291 
L 717.316111 190.560291 
z
" style="fill:#aaffc3;"/>
   </g>
   <g id="patch_142">
    <path clip-path="url(#p6d3226049e)" d="M 732.984767 387.993705 
L 745.519691 387.993705 
L 745.519691 253.738983 
L 732.984767 253.738983 
z
" style="fill:#aaffc3;"/>
   </g>
   <g id="patch_143">
    <path clip-path="url(#p6d3226049e)" d="M 748.653422 372.199031 
L 761.188347 372.199031 
L 761.188347 187.927845 
L 748.653422 187.927845 
z
" style="fill:#aaffc3;"/>
   </g>
   <g id="patch_144">
    <path clip-path="url(#p6d3226049e)" d="M 764.322078 349.823245 
L 776.857002 349.823245 
L 776.857002 189.244068 
L 764.322078 189.244068 
z
" style="fill:#aaffc3;"/>
   </g>
   <g id="patch_145">
    <path clip-path="url(#p6d3226049e)" d="M 779.990734 405.1046 
L 792.525658 405.1046 
L 792.525658 236.628087 
L 779.990734 236.628087 
z
" style="fill:#aaffc3;"/>
   </g>
   <g id="patch_146">
    <path clip-path="url(#p6d3226049e)" d="M 795.659389 401.155932 
L 808.194314 401.155932 
L 808.194314 273.482324 
L 795.659389 273.482324 
z
" style="fill:#aaffc3;"/>
   </g>
   <g id="patch_147">
    <path clip-path="url(#p6d3226049e)" d="M 811.328045 474.864407 
L 823.862969 474.864407 
L 823.862969 351.139467 
L 811.328045 351.139467 
z
" style="fill:#aaffc3;"/>
   </g>
   <g id="patch_148">
    <path clip-path="url(#p6d3226049e)" d="M 826.996701 407.737046 
L 839.531625 407.737046 
L 839.531625 268.217433 
L 826.996701 268.217433 
z
" style="fill:#aaffc3;"/>
   </g>
   <g id="patch_149">
    <path clip-path="url(#p6d3226049e)" d="M 842.665356 360.353027 
L 855.200281 360.353027 
L 855.200281 219.517191 
L 842.665356 219.517191 
z
" style="fill:#aaffc3;"/>
   </g>
   <g id="patch_150">
    <path clip-path="url(#p6d3226049e)" d="M 858.334012 378.780145 
L 870.868936 378.780145 
L 870.868936 230.046973 
L 858.334012 230.046973 
z
" style="fill:#aaffc3;"/>
   </g>
   <g id="patch_151">
    <path clip-path="url(#p6d3226049e)" d="M 874.002668 394.574818 
L 886.537592 394.574818 
L 886.537592 220.833414 
L 874.002668 220.833414 
z
" style="fill:#aaffc3;"/>
   </g>
   <g id="patch_152">
    <path clip-path="url(#p6d3226049e)" d="M 889.671323 398.523487 
L 902.206248 398.523487 
L 902.206248 202.406295 
L 889.671323 202.406295 
z
" style="fill:#aaffc3;"/>
   </g>
   <g id="patch_153">
    <path clip-path="url(#p6d3226049e)" d="M 905.339979 440.642615 
L 917.874903 440.642615 
L 917.874903 353.771913 
L 905.339979 353.771913 
z
" style="fill:#aaffc3;"/>
   </g>
   <g id="patch_154">
    <path clip-path="url(#p6d3226049e)" d="M 921.008635 459.069734 
L 933.543559 459.069734 
L 933.543559 320.866344 
L 921.008635 320.866344 
z
" style="fill:#aaffc3;"/>
   </g>
   <g id="patch_155">
    <path clip-path="url(#p6d3226049e)" d="M 936.67729 353.771913 
L 949.212215 353.771913 
L 949.212215 169.500726 
L 936.67729 169.500726 
z
" style="fill:#aaffc3;"/>
   </g>
   <g id="patch_156">
    <path clip-path="url(#p6d3226049e)" d="M 952.345946 390.62615 
L 964.88087 390.62615 
L 964.88087 248.474092 
L 952.345946 248.474092 
z
" style="fill:#aaffc3;"/>
   </g>
   <g id="patch_157">
    <path clip-path="url(#p6d3226049e)" d="M 968.014602 344.558354 
L 980.549526 344.558354 
L 980.549526 194.508959 
L 968.014602 194.508959 
z
" style="fill:#aaffc3;"/>
   </g>
   <g id="patch_158">
    <path clip-path="url(#p6d3226049e)" d="M 983.683257 435.377724 
L 996.218182 435.377724 
L 996.218182 314.28523 
L 983.683257 314.28523 
z
" style="fill:#aaffc3;"/>
   </g>
   <g id="patch_159">
    <path clip-path="url(#p6d3226049e)" d="M 184.581818 411.685714 
L 197.116743 411.685714 
L 197.116743 407.737046 
L 184.581818 407.737046 
z
" style="fill:#3cb44b;"/>
   </g>
   <g id="patch_160">
    <path clip-path="url(#p6d3226049e)" d="M 200.250474 180.030508 
L 212.785398 180.030508 
L 212.785398 173.449395 
L 200.250474 173.449395 
z
" style="fill:#3cb44b;"/>
   </g>
   <g id="patch_161">
    <path clip-path="url(#p6d3226049e)" d="M 215.91913 249.790315 
L 228.454054 249.790315 
L 228.454054 228.730751 
L 215.91913 228.730751 
z
" style="fill:#3cb44b;"/>
   </g>
   <g id="patch_162">
    <path clip-path="url(#p6d3226049e)" d="M 231.587785 215.568523 
L 244.12271 215.568523 
L 244.12271 205.038741 
L 231.587785 205.038741 
z
" style="fill:#3cb44b;"/>
   </g>
   <g id="patch_163">
    <path clip-path="url(#p6d3226049e)" d="M 247.256441 380.096368 
L 259.791365 380.096368 
L 259.791365 364.301695 
L 247.256441 364.301695 
z
" style="fill:#3cb44b;"/>
   </g>
   <g id="patch_164">
    <path clip-path="url(#p6d3226049e)" d="M 262.925097 374.831477 
L 275.460021 374.831477 
L 275.460021 361.669249 
L 262.925097 361.669249 
z
" style="fill:#3cb44b;"/>
   </g>
   <g id="patch_165">
    <path clip-path="url(#p6d3226049e)" d="M 278.593752 132.646489 
L 291.128677 132.646489 
L 291.128677 127.381598 
L 278.593752 127.381598 
z
" style="fill:#3cb44b;"/>
   </g>
   <g id="patch_166">
    <path clip-path="url(#p6d3226049e)" d="M 294.262408 202.406295 
L 306.797332 202.406295 
L 306.797332 189.244068 
L 294.262408 189.244068 
z
" style="fill:#3cb44b;"/>
   </g>
   <g id="patch_167">
    <path clip-path="url(#p6d3226049e)" d="M 309.931064 118.168039 
L 322.465988 118.168039 
L 322.465988 101.057143 
L 309.931064 101.057143 
z
" style="fill:#3cb44b;"/>
   </g>
   <g id="patch_168">
    <path clip-path="url(#p6d3226049e)" d="M 325.599719 178.714286 
L 338.134644 178.714286 
L 338.134644 164.235835 
L 325.599719 164.235835 
z
" style="fill:#3cb44b;"/>
   </g>
   <g id="patch_169">
    <path clip-path="url(#p6d3226049e)" d="M 341.268375 183.979177 
L 353.803299 183.979177 
L 353.803299 162.919613 
L 341.268375 162.919613 
z
" style="fill:#3cb44b;"/>
   </g>
   <g id="patch_170">
    <path clip-path="url(#p6d3226049e)" d="M 356.937031 337.97724 
L 369.471955 337.97724 
L 369.471955 332.712349 
L 356.937031 332.712349 
z
" style="fill:#3cb44b;"/>
   </g>
   <g id="patch_171">
    <path clip-path="url(#p6d3226049e)" d="M 372.605686 311.652785 
L 385.140611 311.652785 
L 385.140611 297.174334 
L 372.605686 297.174334 
z
" style="fill:#3cb44b;"/>
   </g>
   <g id="patch_172">
    <path clip-path="url(#p6d3226049e)" d="M 388.274342 237.94431 
L 400.809266 237.94431 
L 400.809266 230.046973 
L 388.274342 230.046973 
z
" style="fill:#3cb44b;"/>
   </g>
   <g id="patch_173">
    <path clip-path="url(#p6d3226049e)" d="M 403.942998 161.60339 
L 416.477922 161.60339 
L 416.477922 155.022276 
L 403.942998 155.022276 
z
" style="fill:#3cb44b;"/>
   </g>
   <g id="patch_174">
    <path clip-path="url(#p6d3226049e)" d="M 419.611653 187.927845 
L 432.146578 187.927845 
L 432.146578 177.398063 
L 419.611653 177.398063 
z
" style="fill:#3cb44b;"/>
   </g>
   <g id="patch_175">
    <path clip-path="url(#p6d3226049e)" d="M 435.280309 219.517191 
L 447.815233 219.517191 
L 447.815233 211.619855 
L 435.280309 211.619855 
z
" style="fill:#3cb44b;"/>
   </g>
   <g id="patch_176">
    <path clip-path="url(#p6d3226049e)" d="M 450.948965 158.970944 
L 463.483889 158.970944 
L 463.483889 152.389831 
L 450.948965 152.389831 
z
" style="fill:#3cb44b;"/>
   </g>
   <g id="patch_177">
    <path clip-path="url(#p6d3226049e)" d="M 466.61762 368.250363 
L 479.152545 368.250363 
L 479.152545 357.720581 
L 466.61762 357.720581 
z
" style="fill:#3cb44b;"/>
   </g>
   <g id="patch_178">
    <path clip-path="url(#p6d3226049e)" d="M 482.286276 316.917676 
L 494.8212 316.917676 
L 494.8212 314.28523 
L 482.286276 314.28523 
z
" style="fill:#3cb44b;"/>
   </g>
   <g id="patch_179">
    <path clip-path="url(#p6d3226049e)" d="M 497.954932 215.568523 
L 510.489856 215.568523 
L 510.489856 212.936077 
L 497.954932 212.936077 
z
" style="fill:#3cb44b;"/>
   </g>
   <g id="patch_180">
    <path clip-path="url(#p6d3226049e)" d="M 513.623587 206.354964 
L 526.158512 206.354964 
L 526.158512 189.244068 
L 513.623587 189.244068 
z
" style="fill:#3cb44b;"/>
   </g>
   <g id="patch_181">
    <path clip-path="url(#p6d3226049e)" d="M 529.292243 180.030508 
L 541.827167 180.030508 
L 541.827167 165.552058 
L 529.292243 165.552058 
z
" style="fill:#3cb44b;"/>
   </g>
   <g id="patch_182">
    <path clip-path="url(#p6d3226049e)" d="M 544.960899 152.389831 
L 557.495823 152.389831 
L 557.495823 132.646489 
L 544.960899 132.646489 
z
" style="fill:#3cb44b;"/>
   </g>
   <g id="patch_183">
    <path clip-path="url(#p6d3226049e)" d="M 560.629554 306.387893 
L 573.164479 306.387893 
L 573.164479 302.439225 
L 560.629554 302.439225 
z
" style="fill:#3cb44b;"/>
   </g>
   <g id="patch_184">
    <path clip-path="url(#p6d3226049e)" d="M 576.29821 322.182567 
L 588.833134 322.182567 
L 588.833134 312.969007 
L 576.29821 312.969007 
z
" style="fill:#3cb44b;"/>
   </g>
   <g id="patch_185">
    <path clip-path="url(#p6d3226049e)" d="M 591.966866 387.993705 
L 604.50179 387.993705 
L 604.50179 378.780145 
L 591.966866 378.780145 
z
" style="fill:#3cb44b;"/>
   </g>
   <g id="patch_186">
    <path clip-path="url(#p6d3226049e)" d="M 607.635521 347.190799 
L 620.170446 347.190799 
L 620.170446 332.712349 
L 607.635521 332.712349 
z
" style="fill:#3cb44b;"/>
   </g>
   <g id="patch_187">
    <path clip-path="url(#p6d3226049e)" d="M 623.304177 222.149637 
L 635.839101 222.149637 
L 635.839101 220.833414 
L 623.304177 220.833414 
z
" style="fill:#3cb44b;"/>
   </g>
   <g id="patch_188">
    <path clip-path="url(#p6d3226049e)" d="M 638.972833 241.892978 
L 651.507757 241.892978 
L 651.507757 227.414528 
L 638.972833 227.414528 
z
" style="fill:#3cb44b;"/>
   </g>
   <g id="patch_189">
    <path clip-path="url(#p6d3226049e)" d="M 654.641488 232.679419 
L 667.176413 232.679419 
L 667.176413 212.936077 
L 654.641488 212.936077 
z
" style="fill:#3cb44b;"/>
   </g>
   <g id="patch_190">
    <path clip-path="url(#p6d3226049e)" d="M 670.310144 139.227603 
L 682.845068 139.227603 
L 682.845068 119.484262 
L 670.310144 119.484262 
z
" style="fill:#3cb44b;"/>
   </g>
   <g id="patch_191">
    <path clip-path="url(#p6d3226049e)" d="M 685.9788 319.550121 
L 698.513724 319.550121 
L 698.513724 299.80678 
L 685.9788 299.80678 
z
" style="fill:#3cb44b;"/>
   </g>
   <g id="patch_192">
    <path clip-path="url(#p6d3226049e)" d="M 701.647455 359.036804 
L 714.18238 359.036804 
L 714.18238 314.28523 
L 701.647455 314.28523 
z
" style="fill:#3cb44b;"/>
   </g>
   <g id="patch_193">
    <path clip-path="url(#p6d3226049e)" d="M 717.316111 190.560291 
L 729.851035 190.560291 
L 729.851035 151.073608 
L 717.316111 151.073608 
z
" style="fill:#3cb44b;"/>
   </g>
   <g id="patch_194">
    <path clip-path="url(#p6d3226049e)" d="M 732.984767 253.738983 
L 745.519691 253.738983 
L 745.519691 223.46586 
L 732.984767 223.46586 
z
" style="fill:#3cb44b;"/>
   </g>
   <g id="patch_195">
    <path clip-path="url(#p6d3226049e)" d="M 748.653422 187.927845 
L 761.188347 187.927845 
L 761.188347 165.552058 
L 748.653422 165.552058 
z
" style="fill:#3cb44b;"/>
   </g>
   <g id="patch_196">
    <path clip-path="url(#p6d3226049e)" d="M 764.322078 189.244068 
L 776.857002 189.244068 
L 776.857002 169.500726 
L 764.322078 169.500726 
z
" style="fill:#3cb44b;"/>
   </g>
   <g id="patch_197">
    <path clip-path="url(#p6d3226049e)" d="M 779.990734 236.628087 
L 792.525658 236.628087 
L 792.525658 212.936077 
L 779.990734 212.936077 
z
" style="fill:#3cb44b;"/>
   </g>
   <g id="patch_198">
    <path clip-path="url(#p6d3226049e)" d="M 795.659389 273.482324 
L 808.194314 273.482324 
L 808.194314 253.738983 
L 795.659389 253.738983 
z
" style="fill:#3cb44b;"/>
   </g>
   <g id="patch_199">
    <path clip-path="url(#p6d3226049e)" d="M 811.328045 351.139467 
L 823.862969 351.139467 
L 823.862969 336.661017 
L 811.328045 336.661017 
z
" style="fill:#3cb44b;"/>
   </g>
   <g id="patch_200">
    <path clip-path="url(#p6d3226049e)" d="M 826.996701 268.217433 
L 839.531625 268.217433 
L 839.531625 260.320097 
L 826.996701 260.320097 
z
" style="fill:#3cb44b;"/>
   </g>
   <g id="patch_201">
    <path clip-path="url(#p6d3226049e)" d="M 842.665356 219.517191 
L 855.200281 219.517191 
L 855.200281 210.303632 
L 842.665356 210.303632 
z
" style="fill:#3cb44b;"/>
   </g>
   <g id="patch_202">
    <path clip-path="url(#p6d3226049e)" d="M 858.334012 230.046973 
L 870.868936 230.046973 
L 870.868936 223.46586 
L 858.334012 223.46586 
z
" style="fill:#3cb44b;"/>
   </g>
   <g id="patch_203">
    <path clip-path="url(#p6d3226049e)" d="M 874.002668 220.833414 
L 886.537592 220.833414 
L 886.537592 198.457627 
L 874.002668 198.457627 
z
" style="fill:#3cb44b;"/>
   </g>
   <g id="patch_204">
    <path clip-path="url(#p6d3226049e)" d="M 889.671323 202.406295 
L 902.206248 202.406295 
L 902.206248 190.560291 
L 889.671323 190.560291 
z
" style="fill:#3cb44b;"/>
   </g>
   <g id="patch_205">
    <path clip-path="url(#p6d3226049e)" d="M 905.339979 353.771913 
L 917.874903 353.771913 
L 917.874903 336.661017 
L 905.339979 336.661017 
z
" style="fill:#3cb44b;"/>
   </g>
   <g id="patch_206">
    <path clip-path="url(#p6d3226049e)" d="M 921.008635 320.866344 
L 933.543559 320.866344 
L 933.543559 301.123002 
L 921.008635 301.123002 
z
" style="fill:#3cb44b;"/>
   </g>
   <g id="patch_207">
    <path clip-path="url(#p6d3226049e)" d="M 936.67729 169.500726 
L 949.212215 169.500726 
L 949.212215 161.60339 
L 936.67729 161.60339 
z
" style="fill:#3cb44b;"/>
   </g>
   <g id="patch_208">
    <path clip-path="url(#p6d3226049e)" d="M 952.345946 248.474092 
L 964.88087 248.474092 
L 964.88087 236.628087 
L 952.345946 236.628087 
z
" style="fill:#3cb44b;"/>
   </g>
   <g id="patch_209">
    <path clip-path="url(#p6d3226049e)" d="M 968.014602 194.508959 
L 980.549526 194.508959 
L 980.549526 185.2954 
L 968.014602 185.2954 
z
" style="fill:#3cb44b;"/>
   </g>
   <g id="patch_210">
    <path clip-path="url(#p6d3226049e)" d="M 983.683257 314.28523 
L 996.218182 314.28523 
L 996.218182 295.858111 
L 983.683257 295.858111 
z
" style="fill:#3cb44b;"/>
   </g>
   <g id="matplotlib.axis_1">
    <g id="xtick_1">
     <g id="line2d_1">
      <defs>
       <path d="M 0 0 
L 0 3.5 
" id="m6a9eeb6859" style="stroke:#000000;stroke-width:0.8;"/>
      </defs>
      <g>
       <use style="stroke:#000000;stroke-width:0.8;" x="190.84928" xlink:href="#m6a9eeb6859" y="567"/>
      </g>
     </g>
     <g id="text_1">
      <!-- T -->
      <defs>
       <path d="M -0.296875 72.90625 
L 61.375 72.90625 
L 61.375 64.59375 
L 35.5 64.59375 
L 35.5 0 
L 25.59375 0 
L 25.59375 64.59375 
L -0.296875 64.59375 
z
" id="DejaVuSans-54"/>
      </defs>
      <g transform="translate(187.795374 581.598438)scale(0.1 -0.1)">
       <use xlink:href="#DejaVuSans-54"/>
      </g>
     </g>
    </g>
    <g id="xtick_2">
     <g id="line2d_2">
      <g>
       <use style="stroke:#000000;stroke-width:0.8;" x="206.517936" xlink:href="#m6a9eeb6859" y="567"/>
      </g>
     </g>
     <g id="text_2">
      <!-- W -->
      <defs>
       <path d="M 3.328125 72.90625 
L 13.28125 72.90625 
L 28.609375 11.28125 
L 43.890625 72.90625 
L 54.984375 72.90625 
L 70.3125 11.28125 
L 85.59375 72.90625 
L 95.609375 72.90625 
L 77.296875 0 
L 64.890625 0 
L 49.515625 63.28125 
L 33.984375 0 
L 21.578125 0 
z
" id="DejaVuSans-57"/>
      </defs>
      <g transform="translate(201.574186 581.598438)scale(0.1 -0.1)">
       <use xlink:href="#DejaVuSans-57"/>
      </g>
     </g>
    </g>
    <g id="xtick_3">
     <g id="line2d_3">
      <g>
       <use style="stroke:#000000;stroke-width:0.8;" x="222.186592" xlink:href="#m6a9eeb6859" y="567"/>
      </g>
     </g>
     <g id="text_3">
      <!-- T -->
      <g transform="translate(219.132686 581.598438)scale(0.1 -0.1)">
       <use xlink:href="#DejaVuSans-54"/>
      </g>
     </g>
    </g>
    <g id="xtick_4">
     <g id="line2d_4">
      <g>
       <use style="stroke:#000000;stroke-width:0.8;" x="237.855247" xlink:href="#m6a9eeb6859" y="567"/>
      </g>
     </g>
     <g id="text_4">
      <!-- F -->
      <defs>
       <path d="M 9.8125 72.90625 
L 51.703125 72.90625 
L 51.703125 64.59375 
L 19.671875 64.59375 
L 19.671875 43.109375 
L 48.578125 43.109375 
L 48.578125 34.8125 
L 19.671875 34.8125 
L 19.671875 0 
L 9.8125 0 
z
" id="DejaVuSans-46"/>
      </defs>
      <g transform="translate(234.979466 581.598438)scale(0.1 -0.1)">
       <use xlink:href="#DejaVuSans-46"/>
      </g>
     </g>
    </g>
    <g id="xtick_5">
     <g id="line2d_5">
      <g>
       <use style="stroke:#000000;stroke-width:0.8;" x="253.523903" xlink:href="#m6a9eeb6859" y="567"/>
      </g>
     </g>
     <g id="text_5">
      <!-- S -->
      <defs>
       <path d="M 53.515625 70.515625 
L 53.515625 60.890625 
Q 47.90625 63.578125 42.921875 64.890625 
Q 37.9375 66.21875 33.296875 66.21875 
Q 25.25 66.21875 20.875 63.09375 
Q 16.5 59.96875 16.5 54.203125 
Q 16.5 49.359375 19.40625 46.890625 
Q 22.3125 44.4375 30.421875 42.921875 
L 36.375 41.703125 
Q 47.40625 39.59375 52.65625 34.296875 
Q 57.90625 29 57.90625 20.125 
Q 57.90625 9.515625 50.796875 4.046875 
Q 43.703125 -1.421875 29.984375 -1.421875 
Q 24.8125 -1.421875 18.96875 -0.25 
Q 13.140625 0.921875 6.890625 3.21875 
L 6.890625 13.375 
Q 12.890625 10.015625 18.65625 8.296875 
Q 24.421875 6.59375 29.984375 6.59375 
Q 38.421875 6.59375 43.015625 9.90625 
Q 47.609375 13.234375 47.609375 19.390625 
Q 47.609375 24.75 44.3125 27.78125 
Q 41.015625 30.8125 33.5 32.328125 
L 27.484375 33.5 
Q 16.453125 35.6875 11.515625 40.375 
Q 6.59375 45.0625 6.59375 53.421875 
Q 6.59375 63.09375 13.40625 68.65625 
Q 20.21875 74.21875 32.171875 74.21875 
Q 37.3125 74.21875 42.625 73.28125 
Q 47.953125 72.359375 53.515625 70.515625 
z
" id="DejaVuSans-53"/>
      </defs>
      <g transform="translate(250.349684 581.598438)scale(0.1 -0.1)">
       <use xlink:href="#DejaVuSans-53"/>
      </g>
     </g>
    </g>
    <g id="xtick_6">
     <g id="line2d_6">
      <g>
       <use style="stroke:#000000;stroke-width:0.8;" x="269.192559" xlink:href="#m6a9eeb6859" y="567"/>
      </g>
     </g>
     <g id="text_6">
      <!-- S -->
      <g transform="translate(266.01834 581.598438)scale(0.1 -0.1)">
       <use xlink:href="#DejaVuSans-53"/>
      </g>
     </g>
    </g>
    <g id="xtick_7">
     <g id="line2d_7">
      <g>
       <use style="stroke:#000000;stroke-width:0.8;" x="284.861214" xlink:href="#m6a9eeb6859" y="567"/>
      </g>
     </g>
     <g id="text_7">
      <!-- M -->
      <defs>
       <path d="M 9.8125 72.90625 
L 24.515625 72.90625 
L 43.109375 23.296875 
L 61.8125 72.90625 
L 76.515625 72.90625 
L 76.515625 0 
L 66.890625 0 
L 66.890625 64.015625 
L 48.09375 14.015625 
L 38.1875 14.015625 
L 19.390625 64.015625 
L 19.390625 0 
L 9.8125 0 
z
" id="DejaVuSans-4d"/>
      </defs>
      <g transform="translate(280.547152 581.598438)scale(0.1 -0.1)">
       <use xlink:href="#DejaVuSans-4d"/>
      </g>
     </g>
    </g>
    <g id="xtick_8">
     <g id="line2d_8">
      <g>
       <use style="stroke:#000000;stroke-width:0.8;" x="300.52987" xlink:href="#m6a9eeb6859" y="567"/>
      </g>
     </g>
     <g id="text_8">
      <!-- T -->
      <g transform="translate(297.475964 581.598438)scale(0.1 -0.1)">
       <use xlink:href="#DejaVuSans-54"/>
      </g>
     </g>
    </g>
    <g id="xtick_9">
     <g id="line2d_9">
      <g>
       <use style="stroke:#000000;stroke-width:0.8;" x="316.198526" xlink:href="#m6a9eeb6859" y="567"/>
      </g>
     </g>
     <g id="text_9">
      <!-- W -->
      <g transform="translate(311.254776 581.598438)scale(0.1 -0.1)">
       <use xlink:href="#DejaVuSans-57"/>
      </g>
     </g>
    </g>
    <g id="xtick_10">
     <g id="line2d_10">
      <g>
       <use style="stroke:#000000;stroke-width:0.8;" x="331.867181" xlink:href="#m6a9eeb6859" y="567"/>
      </g>
     </g>
     <g id="text_10">
      <!-- T -->
      <g transform="translate(328.813275 581.598438)scale(0.1 -0.1)">
       <use xlink:href="#DejaVuSans-54"/>
      </g>
     </g>
    </g>
    <g id="xtick_11">
     <g id="line2d_11">
      <g>
       <use style="stroke:#000000;stroke-width:0.8;" x="347.535837" xlink:href="#m6a9eeb6859" y="567"/>
      </g>
     </g>
     <g id="text_11">
      <!-- F -->
      <g transform="translate(344.660056 581.598438)scale(0.1 -0.1)">
       <use xlink:href="#DejaVuSans-46"/>
      </g>
     </g>
    </g>
    <g id="xtick_12">
     <g id="line2d_12">
      <g>
       <use style="stroke:#000000;stroke-width:0.8;" x="363.204493" xlink:href="#m6a9eeb6859" y="567"/>
      </g>
     </g>
     <g id="text_12">
      <!-- S -->
      <g transform="translate(360.030274 581.598438)scale(0.1 -0.1)">
       <use xlink:href="#DejaVuSans-53"/>
      </g>
     </g>
    </g>
    <g id="xtick_13">
     <g id="line2d_13">
      <g>
       <use style="stroke:#000000;stroke-width:0.8;" x="378.873148" xlink:href="#m6a9eeb6859" y="567"/>
      </g>
     </g>
     <g id="text_13">
      <!-- S -->
      <g transform="translate(375.69893 581.598438)scale(0.1 -0.1)">
       <use xlink:href="#DejaVuSans-53"/>
      </g>
     </g>
    </g>
    <g id="xtick_14">
     <g id="line2d_14">
      <g>
       <use style="stroke:#000000;stroke-width:0.8;" x="394.541804" xlink:href="#m6a9eeb6859" y="567"/>
      </g>
     </g>
     <g id="text_14">
      <!-- M -->
      <g transform="translate(390.227742 581.598438)scale(0.1 -0.1)">
       <use xlink:href="#DejaVuSans-4d"/>
      </g>
     </g>
    </g>
    <g id="xtick_15">
     <g id="line2d_15">
      <g>
       <use style="stroke:#000000;stroke-width:0.8;" x="410.21046" xlink:href="#m6a9eeb6859" y="567"/>
      </g>
     </g>
     <g id="text_15">
      <!-- T -->
      <g transform="translate(407.156554 581.598438)scale(0.1 -0.1)">
       <use xlink:href="#DejaVuSans-54"/>
      </g>
     </g>
    </g>
    <g id="xtick_16">
     <g id="line2d_16">
      <g>
       <use style="stroke:#000000;stroke-width:0.8;" x="425.879115" xlink:href="#m6a9eeb6859" y="567"/>
      </g>
     </g>
     <g id="text_16">
      <!-- W -->
      <g transform="translate(420.935365 581.598438)scale(0.1 -0.1)">
       <use xlink:href="#DejaVuSans-57"/>
      </g>
     </g>
    </g>
    <g id="xtick_17">
     <g id="line2d_17">
      <g>
       <use style="stroke:#000000;stroke-width:0.8;" x="441.547771" xlink:href="#m6a9eeb6859" y="567"/>
      </g>
     </g>
     <g id="text_17">
      <!-- T -->
      <g transform="translate(438.493865 581.598438)scale(0.1 -0.1)">
       <use xlink:href="#DejaVuSans-54"/>
      </g>
     </g>
    </g>
    <g id="xtick_18">
     <g id="line2d_18">
      <g>
       <use style="stroke:#000000;stroke-width:0.8;" x="457.216427" xlink:href="#m6a9eeb6859" y="567"/>
      </g>
     </g>
     <g id="text_18">
      <!-- F -->
      <g transform="translate(454.340646 581.598438)scale(0.1 -0.1)">
       <use xlink:href="#DejaVuSans-46"/>
      </g>
     </g>
    </g>
    <g id="xtick_19">
     <g id="line2d_19">
      <g>
       <use style="stroke:#000000;stroke-width:0.8;" x="472.885082" xlink:href="#m6a9eeb6859" y="567"/>
      </g>
     </g>
     <g id="text_19">
      <!-- S -->
      <g transform="translate(469.710864 581.598438)scale(0.1 -0.1)">
       <use xlink:href="#DejaVuSans-53"/>
      </g>
     </g>
    </g>
    <g id="xtick_20">
     <g id="line2d_20">
      <g>
       <use style="stroke:#000000;stroke-width:0.8;" x="488.553738" xlink:href="#m6a9eeb6859" y="567"/>
      </g>
     </g>
     <g id="text_20">
      <!-- S -->
      <g transform="translate(485.379519 581.598438)scale(0.1 -0.1)">
       <use xlink:href="#DejaVuSans-53"/>
      </g>
     </g>
    </g>
    <g id="xtick_21">
     <g id="line2d_21">
      <g>
       <use style="stroke:#000000;stroke-width:0.8;" x="504.222394" xlink:href="#m6a9eeb6859" y="567"/>
      </g>
     </g>
     <g id="text_21">
      <!-- M -->
      <g transform="translate(499.908331 581.598438)scale(0.1 -0.1)">
       <use xlink:href="#DejaVuSans-4d"/>
      </g>
     </g>
    </g>
    <g id="xtick_22">
     <g id="line2d_22">
      <g>
       <use style="stroke:#000000;stroke-width:0.8;" x="519.891049" xlink:href="#m6a9eeb6859" y="567"/>
      </g>
     </g>
     <g id="text_22">
      <!-- T -->
      <g transform="translate(516.837143 581.598438)scale(0.1 -0.1)">
       <use xlink:href="#DejaVuSans-54"/>
      </g>
     </g>
    </g>
    <g id="xtick_23">
     <g id="line2d_23">
      <g>
       <use style="stroke:#000000;stroke-width:0.8;" x="535.559705" xlink:href="#m6a9eeb6859" y="567"/>
      </g>
     </g>
     <g id="text_23">
      <!-- W -->
      <g transform="translate(530.615955 581.598438)scale(0.1 -0.1)">
       <use xlink:href="#DejaVuSans-57"/>
      </g>
     </g>
    </g>
    <g id="xtick_24">
     <g id="line2d_24">
      <g>
       <use style="stroke:#000000;stroke-width:0.8;" x="551.228361" xlink:href="#m6a9eeb6859" y="567"/>
      </g>
     </g>
     <g id="text_24">
      <!-- T -->
      <g transform="translate(548.174455 581.598438)scale(0.1 -0.1)">
       <use xlink:href="#DejaVuSans-54"/>
      </g>
     </g>
    </g>
    <g id="xtick_25">
     <g id="line2d_25">
      <g>
       <use style="stroke:#000000;stroke-width:0.8;" x="566.897016" xlink:href="#m6a9eeb6859" y="567"/>
      </g>
     </g>
     <g id="text_25">
      <!-- F -->
      <g transform="translate(564.021235 581.598438)scale(0.1 -0.1)">
       <use xlink:href="#DejaVuSans-46"/>
      </g>
     </g>
    </g>
    <g id="xtick_26">
     <g id="line2d_26">
      <g>
       <use style="stroke:#000000;stroke-width:0.8;" x="582.565672" xlink:href="#m6a9eeb6859" y="567"/>
      </g>
     </g>
     <g id="text_26">
      <!-- S -->
      <g transform="translate(579.391453 581.598438)scale(0.1 -0.1)">
       <use xlink:href="#DejaVuSans-53"/>
      </g>
     </g>
    </g>
    <g id="xtick_27">
     <g id="line2d_27">
      <g>
       <use style="stroke:#000000;stroke-width:0.8;" x="598.234328" xlink:href="#m6a9eeb6859" y="567"/>
      </g>
     </g>
     <g id="text_27">
      <!-- S -->
      <g transform="translate(595.060109 581.598438)scale(0.1 -0.1)">
       <use xlink:href="#DejaVuSans-53"/>
      </g>
     </g>
    </g>
    <g id="xtick_28">
     <g id="line2d_28">
      <g>
       <use style="stroke:#000000;stroke-width:0.8;" x="613.902984" xlink:href="#m6a9eeb6859" y="567"/>
      </g>
     </g>
     <g id="text_28">
      <!-- M -->
      <g transform="translate(609.588921 581.598438)scale(0.1 -0.1)">
       <use xlink:href="#DejaVuSans-4d"/>
      </g>
     </g>
    </g>
    <g id="xtick_29">
     <g id="line2d_29">
      <g>
       <use style="stroke:#000000;stroke-width:0.8;" x="629.571639" xlink:href="#m6a9eeb6859" y="567"/>
      </g>
     </g>
     <g id="text_29">
      <!-- T -->
      <g transform="translate(626.517733 581.598438)scale(0.1 -0.1)">
       <use xlink:href="#DejaVuSans-54"/>
      </g>
     </g>
    </g>
    <g id="xtick_30">
     <g id="line2d_30">
      <g>
       <use style="stroke:#000000;stroke-width:0.8;" x="645.240295" xlink:href="#m6a9eeb6859" y="567"/>
      </g>
     </g>
     <g id="text_30">
      <!-- W -->
      <g transform="translate(640.296545 581.598438)scale(0.1 -0.1)">
       <use xlink:href="#DejaVuSans-57"/>
      </g>
     </g>
    </g>
    <g id="xtick_31">
     <g id="line2d_31">
      <g>
       <use style="stroke:#000000;stroke-width:0.8;" x="660.908951" xlink:href="#m6a9eeb6859" y="567"/>
      </g>
     </g>
     <g id="text_31">
      <!-- T -->
      <g transform="translate(657.855044 581.598438)scale(0.1 -0.1)">
       <use xlink:href="#DejaVuSans-54"/>
      </g>
     </g>
    </g>
    <g id="xtick_32">
     <g id="line2d_32">
      <g>
       <use style="stroke:#000000;stroke-width:0.8;" x="676.577606" xlink:href="#m6a9eeb6859" y="567"/>
      </g>
     </g>
     <g id="text_32">
      <!-- F -->
      <g transform="translate(673.701825 581.598438)scale(0.1 -0.1)">
       <use xlink:href="#DejaVuSans-46"/>
      </g>
     </g>
    </g>
    <g id="xtick_33">
     <g id="line2d_33">
      <g>
       <use style="stroke:#000000;stroke-width:0.8;" x="692.246262" xlink:href="#m6a9eeb6859" y="567"/>
      </g>
     </g>
     <g id="text_33">
      <!-- S -->
      <g transform="translate(689.072043 581.598438)scale(0.1 -0.1)">
       <use xlink:href="#DejaVuSans-53"/>
      </g>
     </g>
    </g>
    <g id="xtick_34">
     <g id="line2d_34">
      <g>
       <use style="stroke:#000000;stroke-width:0.8;" x="707.914918" xlink:href="#m6a9eeb6859" y="567"/>
      </g>
     </g>
     <g id="text_34">
      <!-- S -->
      <g transform="translate(704.740699 581.598438)scale(0.1 -0.1)">
       <use xlink:href="#DejaVuSans-53"/>
      </g>
     </g>
    </g>
    <g id="xtick_35">
     <g id="line2d_35">
      <g>
       <use style="stroke:#000000;stroke-width:0.8;" x="723.583573" xlink:href="#m6a9eeb6859" y="567"/>
      </g>
     </g>
     <g id="text_35">
      <!-- M -->
      <g transform="translate(719.269511 581.598438)scale(0.1 -0.1)">
       <use xlink:href="#DejaVuSans-4d"/>
      </g>
     </g>
    </g>
    <g id="xtick_36">
     <g id="line2d_36">
      <g>
       <use style="stroke:#000000;stroke-width:0.8;" x="739.252229" xlink:href="#m6a9eeb6859" y="567"/>
      </g>
     </g>
     <g id="text_36">
      <!-- T -->
      <g transform="translate(736.198323 581.598438)scale(0.1 -0.1)">
       <use xlink:href="#DejaVuSans-54"/>
      </g>
     </g>
    </g>
    <g id="xtick_37">
     <g id="line2d_37">
      <g>
       <use style="stroke:#000000;stroke-width:0.8;" x="754.920885" xlink:href="#m6a9eeb6859" y="567"/>
      </g>
     </g>
     <g id="text_37">
      <!-- W -->
      <g transform="translate(749.977135 581.598438)scale(0.1 -0.1)">
       <use xlink:href="#DejaVuSans-57"/>
      </g>
     </g>
    </g>
    <g id="xtick_38">
     <g id="line2d_38">
      <g>
       <use style="stroke:#000000;stroke-width:0.8;" x="770.58954" xlink:href="#m6a9eeb6859" y="567"/>
      </g>
     </g>
     <g id="text_38">
      <!-- T -->
      <g transform="translate(767.535634 581.598438)scale(0.1 -0.1)">
       <use xlink:href="#DejaVuSans-54"/>
      </g>
     </g>
    </g>
    <g id="xtick_39">
     <g id="line2d_39">
      <g>
       <use style="stroke:#000000;stroke-width:0.8;" x="786.258196" xlink:href="#m6a9eeb6859" y="567"/>
      </g>
     </g>
     <g id="text_39">
      <!-- F -->
      <g transform="translate(783.382415 581.598438)scale(0.1 -0.1)">
       <use xlink:href="#DejaVuSans-46"/>
      </g>
     </g>
    </g>
    <g id="xtick_40">
     <g id="line2d_40">
      <g>
       <use style="stroke:#000000;stroke-width:0.8;" x="801.926852" xlink:href="#m6a9eeb6859" y="567"/>
      </g>
     </g>
     <g id="text_40">
      <!-- S -->
      <g transform="translate(798.752633 581.598438)scale(0.1 -0.1)">
       <use xlink:href="#DejaVuSans-53"/>
      </g>
     </g>
    </g>
    <g id="xtick_41">
     <g id="line2d_41">
      <g>
       <use style="stroke:#000000;stroke-width:0.8;" x="817.595507" xlink:href="#m6a9eeb6859" y="567"/>
      </g>
     </g>
     <g id="text_41">
      <!-- S -->
      <g transform="translate(814.421288 581.598438)scale(0.1 -0.1)">
       <use xlink:href="#DejaVuSans-53"/>
      </g>
     </g>
    </g>
    <g id="xtick_42">
     <g id="line2d_42">
      <g>
       <use style="stroke:#000000;stroke-width:0.8;" x="833.264163" xlink:href="#m6a9eeb6859" y="567"/>
      </g>
     </g>
     <g id="text_42">
      <!-- M -->
      <g transform="translate(828.9501 581.598438)scale(0.1 -0.1)">
       <use xlink:href="#DejaVuSans-4d"/>
      </g>
     </g>
    </g>
    <g id="xtick_43">
     <g id="line2d_43">
      <g>
       <use style="stroke:#000000;stroke-width:0.8;" x="848.932819" xlink:href="#m6a9eeb6859" y="567"/>
      </g>
     </g>
     <g id="text_43">
      <!-- T -->
      <g transform="translate(845.878912 581.598438)scale(0.1 -0.1)">
       <use xlink:href="#DejaVuSans-54"/>
      </g>
     </g>
    </g>
    <g id="xtick_44">
     <g id="line2d_44">
      <g>
       <use style="stroke:#000000;stroke-width:0.8;" x="864.601474" xlink:href="#m6a9eeb6859" y="567"/>
      </g>
     </g>
     <g id="text_44">
      <!-- W -->
      <g transform="translate(859.657724 581.598438)scale(0.1 -0.1)">
       <use xlink:href="#DejaVuSans-57"/>
      </g>
     </g>
    </g>
    <g id="xtick_45">
     <g id="line2d_45">
      <g>
       <use style="stroke:#000000;stroke-width:0.8;" x="880.27013" xlink:href="#m6a9eeb6859" y="567"/>
      </g>
     </g>
     <g id="text_45">
      <!-- T -->
      <g transform="translate(877.216224 581.598438)scale(0.1 -0.1)">
       <use xlink:href="#DejaVuSans-54"/>
      </g>
     </g>
    </g>
    <g id="xtick_46">
     <g id="line2d_46">
      <g>
       <use style="stroke:#000000;stroke-width:0.8;" x="895.938786" xlink:href="#m6a9eeb6859" y="567"/>
      </g>
     </g>
     <g id="text_46">
      <!-- F -->
      <g transform="translate(893.063004 581.598438)scale(0.1 -0.1)">
       <use xlink:href="#DejaVuSans-46"/>
      </g>
     </g>
    </g>
    <g id="xtick_47">
     <g id="line2d_47">
      <g>
       <use style="stroke:#000000;stroke-width:0.8;" x="911.607441" xlink:href="#m6a9eeb6859" y="567"/>
      </g>
     </g>
     <g id="text_47">
      <!-- S -->
      <g transform="translate(908.433222 581.598438)scale(0.1 -0.1)">
       <use xlink:href="#DejaVuSans-53"/>
      </g>
     </g>
    </g>
    <g id="xtick_48">
     <g id="line2d_48">
      <g>
       <use style="stroke:#000000;stroke-width:0.8;" x="927.276097" xlink:href="#m6a9eeb6859" y="567"/>
      </g>
     </g>
     <g id="text_48">
      <!-- S -->
      <g transform="translate(924.101878 581.598438)scale(0.1 -0.1)">
       <use xlink:href="#DejaVuSans-53"/>
      </g>
     </g>
    </g>
    <g id="xtick_49">
     <g id="line2d_49">
      <g>
       <use style="stroke:#000000;stroke-width:0.8;" x="942.944753" xlink:href="#m6a9eeb6859" y="567"/>
      </g>
     </g>
     <g id="text_49">
      <!-- M -->
      <g transform="translate(938.63069 581.598438)scale(0.1 -0.1)">
       <use xlink:href="#DejaVuSans-4d"/>
      </g>
     </g>
    </g>
    <g id="xtick_50">
     <g id="line2d_50">
      <g>
       <use style="stroke:#000000;stroke-width:0.8;" x="958.613408" xlink:href="#m6a9eeb6859" y="567"/>
      </g>
     </g>
     <g id="text_50">
      <!-- T -->
      <g transform="translate(955.559502 581.598438)scale(0.1 -0.1)">
       <use xlink:href="#DejaVuSans-54"/>
      </g>
     </g>
    </g>
    <g id="xtick_51">
     <g id="line2d_51">
      <g>
       <use style="stroke:#000000;stroke-width:0.8;" x="974.282064" xlink:href="#m6a9eeb6859" y="567"/>
      </g>
     </g>
     <g id="text_51">
      <!-- W -->
      <g transform="translate(969.338314 581.598438)scale(0.1 -0.1)">
       <use xlink:href="#DejaVuSans-57"/>
      </g>
     </g>
    </g>
    <g id="xtick_52">
     <g id="line2d_52">
      <g>
       <use style="stroke:#000000;stroke-width:0.8;" x="989.95072" xlink:href="#m6a9eeb6859" y="567"/>
      </g>
     </g>
     <g id="text_52">
      <!-- T -->
      <g transform="translate(986.896813 581.598438)scale(0.1 -0.1)">
       <use xlink:href="#DejaVuSans-54"/>
      </g>
     </g>
    </g>
    <g id="xtick_53">
     <g id="line2d_53">
      <defs>
       <path d="M 0 0 
L 0 2 
" id="mb9059af22e" style="stroke:#000000;stroke-width:0.6;"/>
      </defs>
      <g>
       <use style="stroke:#000000;stroke-width:0.6;" x="190.84928" xlink:href="#mb9059af22e" y="567"/>
      </g>
     </g>
    </g>
    <g id="xtick_54">
     <g id="line2d_54">
      <g>
       <use style="stroke:#000000;stroke-width:0.6;" x="206.517936" xlink:href="#mb9059af22e" y="567"/>
      </g>
     </g>
    </g>
    <g id="xtick_55">
     <g id="line2d_55">
      <g>
       <use style="stroke:#000000;stroke-width:0.6;" x="222.186592" xlink:href="#mb9059af22e" y="567"/>
      </g>
     </g>
    </g>
    <g id="xtick_56">
     <g id="line2d_56">
      <g>
       <use style="stroke:#000000;stroke-width:0.6;" x="237.855247" xlink:href="#mb9059af22e" y="567"/>
      </g>
     </g>
    </g>
    <g id="xtick_57">
     <g id="line2d_57">
      <g>
       <use style="stroke:#000000;stroke-width:0.6;" x="253.523903" xlink:href="#mb9059af22e" y="567"/>
      </g>
     </g>
    </g>
    <g id="xtick_58">
     <g id="line2d_58">
      <g>
       <use style="stroke:#000000;stroke-width:0.6;" x="269.192559" xlink:href="#mb9059af22e" y="567"/>
      </g>
     </g>
    </g>
    <g id="xtick_59">
     <g id="line2d_59">
      <g>
       <use style="stroke:#000000;stroke-width:0.6;" x="284.861214" xlink:href="#mb9059af22e" y="567"/>
      </g>
     </g>
    </g>
    <g id="xtick_60">
     <g id="line2d_60">
      <g>
       <use style="stroke:#000000;stroke-width:0.6;" x="300.52987" xlink:href="#mb9059af22e" y="567"/>
      </g>
     </g>
    </g>
    <g id="xtick_61">
     <g id="line2d_61">
      <g>
       <use style="stroke:#000000;stroke-width:0.6;" x="316.198526" xlink:href="#mb9059af22e" y="567"/>
      </g>
     </g>
    </g>
    <g id="xtick_62">
     <g id="line2d_62">
      <g>
       <use style="stroke:#000000;stroke-width:0.6;" x="331.867181" xlink:href="#mb9059af22e" y="567"/>
      </g>
     </g>
    </g>
    <g id="xtick_63">
     <g id="line2d_63">
      <g>
       <use style="stroke:#000000;stroke-width:0.6;" x="347.535837" xlink:href="#mb9059af22e" y="567"/>
      </g>
     </g>
    </g>
    <g id="xtick_64">
     <g id="line2d_64">
      <g>
       <use style="stroke:#000000;stroke-width:0.6;" x="363.204493" xlink:href="#mb9059af22e" y="567"/>
      </g>
     </g>
    </g>
    <g id="xtick_65">
     <g id="line2d_65">
      <g>
       <use style="stroke:#000000;stroke-width:0.6;" x="378.873148" xlink:href="#mb9059af22e" y="567"/>
      </g>
     </g>
    </g>
    <g id="xtick_66">
     <g id="line2d_66">
      <g>
       <use style="stroke:#000000;stroke-width:0.6;" x="394.541804" xlink:href="#mb9059af22e" y="567"/>
      </g>
     </g>
    </g>
    <g id="xtick_67">
     <g id="line2d_67">
      <g>
       <use style="stroke:#000000;stroke-width:0.6;" x="410.21046" xlink:href="#mb9059af22e" y="567"/>
      </g>
     </g>
    </g>
    <g id="xtick_68">
     <g id="line2d_68">
      <g>
       <use style="stroke:#000000;stroke-width:0.6;" x="425.879115" xlink:href="#mb9059af22e" y="567"/>
      </g>
     </g>
    </g>
    <g id="xtick_69">
     <g id="line2d_69">
      <g>
       <use style="stroke:#000000;stroke-width:0.6;" x="441.547771" xlink:href="#mb9059af22e" y="567"/>
      </g>
     </g>
    </g>
    <g id="xtick_70">
     <g id="line2d_70">
      <g>
       <use style="stroke:#000000;stroke-width:0.6;" x="457.216427" xlink:href="#mb9059af22e" y="567"/>
      </g>
     </g>
    </g>
    <g id="xtick_71">
     <g id="line2d_71">
      <g>
       <use style="stroke:#000000;stroke-width:0.6;" x="472.885082" xlink:href="#mb9059af22e" y="567"/>
      </g>
     </g>
    </g>
    <g id="xtick_72">
     <g id="line2d_72">
      <g>
       <use style="stroke:#000000;stroke-width:0.6;" x="488.553738" xlink:href="#mb9059af22e" y="567"/>
      </g>
     </g>
    </g>
    <g id="xtick_73">
     <g id="line2d_73">
      <g>
       <use style="stroke:#000000;stroke-width:0.6;" x="504.222394" xlink:href="#mb9059af22e" y="567"/>
      </g>
     </g>
    </g>
    <g id="xtick_74">
     <g id="line2d_74">
      <g>
       <use style="stroke:#000000;stroke-width:0.6;" x="519.891049" xlink:href="#mb9059af22e" y="567"/>
      </g>
     </g>
    </g>
    <g id="xtick_75">
     <g id="line2d_75">
      <g>
       <use style="stroke:#000000;stroke-width:0.6;" x="535.559705" xlink:href="#mb9059af22e" y="567"/>
      </g>
     </g>
    </g>
    <g id="xtick_76">
     <g id="line2d_76">
      <g>
       <use style="stroke:#000000;stroke-width:0.6;" x="551.228361" xlink:href="#mb9059af22e" y="567"/>
      </g>
     </g>
    </g>
    <g id="xtick_77">
     <g id="line2d_77">
      <g>
       <use style="stroke:#000000;stroke-width:0.6;" x="566.897016" xlink:href="#mb9059af22e" y="567"/>
      </g>
     </g>
    </g>
    <g id="xtick_78">
     <g id="line2d_78">
      <g>
       <use style="stroke:#000000;stroke-width:0.6;" x="582.565672" xlink:href="#mb9059af22e" y="567"/>
      </g>
     </g>
    </g>
    <g id="xtick_79">
     <g id="line2d_79">
      <g>
       <use style="stroke:#000000;stroke-width:0.6;" x="598.234328" xlink:href="#mb9059af22e" y="567"/>
      </g>
     </g>
    </g>
    <g id="xtick_80">
     <g id="line2d_80">
      <g>
       <use style="stroke:#000000;stroke-width:0.6;" x="613.902984" xlink:href="#mb9059af22e" y="567"/>
      </g>
     </g>
    </g>
    <g id="xtick_81">
     <g id="line2d_81">
      <g>
       <use style="stroke:#000000;stroke-width:0.6;" x="629.571639" xlink:href="#mb9059af22e" y="567"/>
      </g>
     </g>
    </g>
    <g id="xtick_82">
     <g id="line2d_82">
      <g>
       <use style="stroke:#000000;stroke-width:0.6;" x="645.240295" xlink:href="#mb9059af22e" y="567"/>
      </g>
     </g>
    </g>
    <g id="xtick_83">
     <g id="line2d_83">
      <g>
       <use style="stroke:#000000;stroke-width:0.6;" x="660.908951" xlink:href="#mb9059af22e" y="567"/>
      </g>
     </g>
    </g>
    <g id="xtick_84">
     <g id="line2d_84">
      <g>
       <use style="stroke:#000000;stroke-width:0.6;" x="676.577606" xlink:href="#mb9059af22e" y="567"/>
      </g>
     </g>
    </g>
    <g id="xtick_85">
     <g id="line2d_85">
      <g>
       <use style="stroke:#000000;stroke-width:0.6;" x="692.246262" xlink:href="#mb9059af22e" y="567"/>
      </g>
     </g>
    </g>
    <g id="xtick_86">
     <g id="line2d_86">
      <g>
       <use style="stroke:#000000;stroke-width:0.6;" x="707.914918" xlink:href="#mb9059af22e" y="567"/>
      </g>
     </g>
    </g>
    <g id="xtick_87">
     <g id="line2d_87">
      <g>
       <use style="stroke:#000000;stroke-width:0.6;" x="723.583573" xlink:href="#mb9059af22e" y="567"/>
      </g>
     </g>
    </g>
    <g id="xtick_88">
     <g id="line2d_88">
      <g>
       <use style="stroke:#000000;stroke-width:0.6;" x="739.252229" xlink:href="#mb9059af22e" y="567"/>
      </g>
     </g>
    </g>
    <g id="xtick_89">
     <g id="line2d_89">
      <g>
       <use style="stroke:#000000;stroke-width:0.6;" x="754.920885" xlink:href="#mb9059af22e" y="567"/>
      </g>
     </g>
    </g>
    <g id="xtick_90">
     <g id="line2d_90">
      <g>
       <use style="stroke:#000000;stroke-width:0.6;" x="770.58954" xlink:href="#mb9059af22e" y="567"/>
      </g>
     </g>
    </g>
    <g id="xtick_91">
     <g id="line2d_91">
      <g>
       <use style="stroke:#000000;stroke-width:0.6;" x="786.258196" xlink:href="#mb9059af22e" y="567"/>
      </g>
     </g>
    </g>
    <g id="xtick_92">
     <g id="line2d_92">
      <g>
       <use style="stroke:#000000;stroke-width:0.6;" x="801.926852" xlink:href="#mb9059af22e" y="567"/>
      </g>
     </g>
    </g>
    <g id="xtick_93">
     <g id="line2d_93">
      <g>
       <use style="stroke:#000000;stroke-width:0.6;" x="817.595507" xlink:href="#mb9059af22e" y="567"/>
      </g>
     </g>
    </g>
    <g id="xtick_94">
     <g id="line2d_94">
      <g>
       <use style="stroke:#000000;stroke-width:0.6;" x="833.264163" xlink:href="#mb9059af22e" y="567"/>
      </g>
     </g>
    </g>
    <g id="xtick_95">
     <g id="line2d_95">
      <g>
       <use style="stroke:#000000;stroke-width:0.6;" x="848.932819" xlink:href="#mb9059af22e" y="567"/>
      </g>
     </g>
    </g>
    <g id="xtick_96">
     <g id="line2d_96">
      <g>
       <use style="stroke:#000000;stroke-width:0.6;" x="864.601474" xlink:href="#mb9059af22e" y="567"/>
      </g>
     </g>
    </g>
    <g id="xtick_97">
     <g id="line2d_97">
      <g>
       <use style="stroke:#000000;stroke-width:0.6;" x="880.27013" xlink:href="#mb9059af22e" y="567"/>
      </g>
     </g>
    </g>
    <g id="xtick_98">
     <g id="line2d_98">
      <g>
       <use style="stroke:#000000;stroke-width:0.6;" x="895.938786" xlink:href="#mb9059af22e" y="567"/>
      </g>
     </g>
    </g>
    <g id="xtick_99">
     <g id="line2d_99">
      <g>
       <use style="stroke:#000000;stroke-width:0.6;" x="911.607441" xlink:href="#mb9059af22e" y="567"/>
      </g>
     </g>
    </g>
    <g id="xtick_100">
     <g id="line2d_100">
      <g>
       <use style="stroke:#000000;stroke-width:0.6;" x="927.276097" xlink:href="#mb9059af22e" y="567"/>
      </g>
     </g>
    </g>
    <g id="xtick_101">
     <g id="line2d_101">
      <g>
       <use style="stroke:#000000;stroke-width:0.6;" x="942.944753" xlink:href="#mb9059af22e" y="567"/>
      </g>
     </g>
    </g>
    <g id="xtick_102">
     <g id="line2d_102">
      <g>
       <use style="stroke:#000000;stroke-width:0.6;" x="958.613408" xlink:href="#mb9059af22e" y="567"/>
      </g>
     </g>
    </g>
    <g id="xtick_103">
     <g id="line2d_103">
      <g>
       <use style="stroke:#000000;stroke-width:0.6;" x="974.282064" xlink:href="#mb9059af22e" y="567"/>
      </g>
     </g>
    </g>
    <g id="xtick_104">
     <g id="line2d_104">
      <g>
       <use style="stroke:#000000;stroke-width:0.6;" x="989.95072" xlink:href="#mb9059af22e" y="567"/>
      </g>
     </g>
    </g>
    <g id="text_53">
     <!-- Day -->
     <defs>
      <path d="M 19.671875 64.796875 
L 19.671875 8.109375 
L 31.59375 8.109375 
Q 46.6875 8.109375 53.6875 14.9375 
Q 60.6875 21.78125 60.6875 36.53125 
Q 60.6875 51.171875 53.6875 57.984375 
Q 46.6875 64.796875 31.59375 64.796875 
z
M 9.8125 72.90625 
L 30.078125 72.90625 
Q 51.265625 72.90625 61.171875 64.09375 
Q 71.09375 55.28125 71.09375 36.53125 
Q 71.09375 17.671875 61.125 8.828125 
Q 51.171875 0 30.078125 0 
L 9.8125 0 
z
" id="DejaVuSans-44"/>
      <path d="M 34.28125 27.484375 
Q 23.390625 27.484375 19.1875 25 
Q 14.984375 22.515625 14.984375 16.5 
Q 14.984375 11.71875 18.140625 8.90625 
Q 21.296875 6.109375 26.703125 6.109375 
Q 34.1875 6.109375 38.703125 11.40625 
Q 43.21875 16.703125 43.21875 25.484375 
L 43.21875 27.484375 
z
M 52.203125 31.203125 
L 52.203125 0 
L 43.21875 0 
L 43.21875 8.296875 
Q 40.140625 3.328125 35.546875 0.953125 
Q 30.953125 -1.421875 24.3125 -1.421875 
Q 15.921875 -1.421875 10.953125 3.296875 
Q 6 8.015625 6 15.921875 
Q 6 25.140625 12.171875 29.828125 
Q 18.359375 34.515625 30.609375 34.515625 
L 43.21875 34.515625 
L 43.21875 35.40625 
Q 43.21875 41.609375 39.140625 45 
Q 35.0625 48.390625 27.6875 48.390625 
Q 23 48.390625 18.546875 47.265625 
Q 14.109375 46.140625 10.015625 43.890625 
L 10.015625 52.203125 
Q 14.9375 54.109375 19.578125 55.046875 
Q 24.21875 56 28.609375 56 
Q 40.484375 56 46.34375 49.84375 
Q 52.203125 43.703125 52.203125 31.203125 
z
" id="DejaVuSans-61"/>
      <path d="M 32.171875 -5.078125 
Q 28.375 -14.84375 24.75 -17.8125 
Q 21.140625 -20.796875 15.09375 -20.796875 
L 7.90625 -20.796875 
L 7.90625 -13.28125 
L 13.1875 -13.28125 
Q 16.890625 -13.28125 18.9375 -11.515625 
Q 21 -9.765625 23.484375 -3.21875 
L 25.09375 0.875 
L 2.984375 54.6875 
L 12.5 54.6875 
L 29.59375 11.921875 
L 46.6875 54.6875 
L 56.203125 54.6875 
z
" id="DejaVuSans-79"/>
     </defs>
     <g transform="translate(580.526562 595.276562)scale(0.1 -0.1)">
      <use xlink:href="#DejaVuSans-44"/>
      <use x="77.001953" xlink:href="#DejaVuSans-61"/>
      <use x="138.28125" xlink:href="#DejaVuSans-79"/>
     </g>
    </g>
   </g>
   <g id="matplotlib.axis_2">
    <g id="ytick_1">
     <g id="line2d_105">
      <defs>
       <path d="M 0 0 
L -3.5 0 
" id="ma3ececab2b" style="stroke:#000000;stroke-width:0.8;"/>
      </defs>
      <g>
       <use style="stroke:#000000;stroke-width:0.8;" x="144" xlink:href="#ma3ececab2b" y="567"/>
      </g>
     </g>
     <g id="text_54">
      <!-- 0 -->
      <defs>
       <path d="M 31.78125 66.40625 
Q 24.171875 66.40625 20.328125 58.90625 
Q 16.5 51.421875 16.5 36.375 
Q 16.5 21.390625 20.328125 13.890625 
Q 24.171875 6.390625 31.78125 6.390625 
Q 39.453125 6.390625 43.28125 13.890625 
Q 47.125 21.390625 47.125 36.375 
Q 47.125 51.421875 43.28125 58.90625 
Q 39.453125 66.40625 31.78125 66.40625 
z
M 31.78125 74.21875 
Q 44.046875 74.21875 50.515625 64.515625 
Q 56.984375 54.828125 56.984375 36.375 
Q 56.984375 17.96875 50.515625 8.265625 
Q 44.046875 -1.421875 31.78125 -1.421875 
Q 19.53125 -1.421875 13.0625 8.265625 
Q 6.59375 17.96875 6.59375 36.375 
Q 6.59375 54.828125 13.0625 64.515625 
Q 19.53125 74.21875 31.78125 74.21875 
z
" id="DejaVuSans-30"/>
      </defs>
      <g transform="translate(130.6375 570.799219)scale(0.1 -0.1)">
       <use xlink:href="#DejaVuSans-30"/>
      </g>
     </g>
    </g>
    <g id="ytick_2">
     <g id="line2d_106">
      <g>
       <use style="stroke:#000000;stroke-width:0.8;" x="144" xlink:href="#ma3ececab2b" y="501.188862"/>
      </g>
     </g>
     <g id="text_55">
      <!-- 50 -->
      <defs>
       <path d="M 10.796875 72.90625 
L 49.515625 72.90625 
L 49.515625 64.59375 
L 19.828125 64.59375 
L 19.828125 46.734375 
Q 21.96875 47.46875 24.109375 47.828125 
Q 26.265625 48.1875 28.421875 48.1875 
Q 40.625 48.1875 47.75 41.5 
Q 54.890625 34.8125 54.890625 23.390625 
Q 54.890625 11.625 47.5625 5.09375 
Q 40.234375 -1.421875 26.90625 -1.421875 
Q 22.3125 -1.421875 17.546875 -0.640625 
Q 12.796875 0.140625 7.71875 1.703125 
L 7.71875 11.625 
Q 12.109375 9.234375 16.796875 8.0625 
Q 21.484375 6.890625 26.703125 6.890625 
Q 35.15625 6.890625 40.078125 11.328125 
Q 45.015625 15.765625 45.015625 23.390625 
Q 45.015625 31 40.078125 35.4375 
Q 35.15625 39.890625 26.703125 39.890625 
Q 22.75 39.890625 18.8125 39.015625 
Q 14.890625 38.140625 10.796875 36.28125 
z
" id="DejaVuSans-35"/>
      </defs>
      <g transform="translate(124.275 504.988081)scale(0.1 -0.1)">
       <use xlink:href="#DejaVuSans-35"/>
       <use x="63.623047" xlink:href="#DejaVuSans-30"/>
      </g>
     </g>
    </g>
    <g id="ytick_3">
     <g id="line2d_107">
      <g>
       <use style="stroke:#000000;stroke-width:0.8;" x="144" xlink:href="#ma3ececab2b" y="435.377724"/>
      </g>
     </g>
     <g id="text_56">
      <!-- 100 -->
      <defs>
       <path d="M 12.40625 8.296875 
L 28.515625 8.296875 
L 28.515625 63.921875 
L 10.984375 60.40625 
L 10.984375 69.390625 
L 28.421875 72.90625 
L 38.28125 72.90625 
L 38.28125 8.296875 
L 54.390625 8.296875 
L 54.390625 0 
L 12.40625 0 
z
" id="DejaVuSans-31"/>
      </defs>
      <g transform="translate(117.9125 439.176943)scale(0.1 -0.1)">
       <use xlink:href="#DejaVuSans-31"/>
       <use x="63.623047" xlink:href="#DejaVuSans-30"/>
       <use x="127.246094" xlink:href="#DejaVuSans-30"/>
      </g>
     </g>
    </g>
    <g id="ytick_4">
     <g id="line2d_108">
      <g>
       <use style="stroke:#000000;stroke-width:0.8;" x="144" xlink:href="#ma3ececab2b" y="369.566586"/>
      </g>
     </g>
     <g id="text_57">
      <!-- 150 -->
      <g transform="translate(117.9125 373.365805)scale(0.1 -0.1)">
       <use xlink:href="#DejaVuSans-31"/>
       <use x="63.623047" xlink:href="#DejaVuSans-35"/>
       <use x="127.246094" xlink:href="#DejaVuSans-30"/>
      </g>
     </g>
    </g>
    <g id="ytick_5">
     <g id="line2d_109">
      <g>
       <use style="stroke:#000000;stroke-width:0.8;" x="144" xlink:href="#ma3ececab2b" y="303.755448"/>
      </g>
     </g>
     <g id="text_58">
      <!-- 200 -->
      <defs>
       <path d="M 19.1875 8.296875 
L 53.609375 8.296875 
L 53.609375 0 
L 7.328125 0 
L 7.328125 8.296875 
Q 12.9375 14.109375 22.625 23.890625 
Q 32.328125 33.6875 34.8125 36.53125 
Q 39.546875 41.84375 41.421875 45.53125 
Q 43.3125 49.21875 43.3125 52.78125 
Q 43.3125 58.59375 39.234375 62.25 
Q 35.15625 65.921875 28.609375 65.921875 
Q 23.96875 65.921875 18.8125 64.3125 
Q 13.671875 62.703125 7.8125 59.421875 
L 7.8125 69.390625 
Q 13.765625 71.78125 18.9375 73 
Q 24.125 74.21875 28.421875 74.21875 
Q 39.75 74.21875 46.484375 68.546875 
Q 53.21875 62.890625 53.21875 53.421875 
Q 53.21875 48.921875 51.53125 44.890625 
Q 49.859375 40.875 45.40625 35.40625 
Q 44.1875 33.984375 37.640625 27.21875 
Q 31.109375 20.453125 19.1875 8.296875 
z
" id="DejaVuSans-32"/>
      </defs>
      <g transform="translate(117.9125 307.554667)scale(0.1 -0.1)">
       <use xlink:href="#DejaVuSans-32"/>
       <use x="63.623047" xlink:href="#DejaVuSans-30"/>
       <use x="127.246094" xlink:href="#DejaVuSans-30"/>
      </g>
     </g>
    </g>
    <g id="ytick_6">
     <g id="line2d_110">
      <g>
       <use style="stroke:#000000;stroke-width:0.8;" x="144" xlink:href="#ma3ececab2b" y="237.94431"/>
      </g>
     </g>
     <g id="text_59">
      <!-- 250 -->
      <g transform="translate(117.9125 241.743529)scale(0.1 -0.1)">
       <use xlink:href="#DejaVuSans-32"/>
       <use x="63.623047" xlink:href="#DejaVuSans-35"/>
       <use x="127.246094" xlink:href="#DejaVuSans-30"/>
      </g>
     </g>
    </g>
    <g id="ytick_7">
     <g id="line2d_111">
      <g>
       <use style="stroke:#000000;stroke-width:0.8;" x="144" xlink:href="#ma3ececab2b" y="172.133172"/>
      </g>
     </g>
     <g id="text_60">
      <!-- 300 -->
      <defs>
       <path d="M 40.578125 39.3125 
Q 47.65625 37.796875 51.625 33 
Q 55.609375 28.21875 55.609375 21.1875 
Q 55.609375 10.40625 48.1875 4.484375 
Q 40.765625 -1.421875 27.09375 -1.421875 
Q 22.515625 -1.421875 17.65625 -0.515625 
Q 12.796875 0.390625 7.625 2.203125 
L 7.625 11.71875 
Q 11.71875 9.328125 16.59375 8.109375 
Q 21.484375 6.890625 26.8125 6.890625 
Q 36.078125 6.890625 40.9375 10.546875 
Q 45.796875 14.203125 45.796875 21.1875 
Q 45.796875 27.640625 41.28125 31.265625 
Q 36.765625 34.90625 28.71875 34.90625 
L 20.21875 34.90625 
L 20.21875 43.015625 
L 29.109375 43.015625 
Q 36.375 43.015625 40.234375 45.921875 
Q 44.09375 48.828125 44.09375 54.296875 
Q 44.09375 59.90625 40.109375 62.90625 
Q 36.140625 65.921875 28.71875 65.921875 
Q 24.65625 65.921875 20.015625 65.03125 
Q 15.375 64.15625 9.8125 62.3125 
L 9.8125 71.09375 
Q 15.4375 72.65625 20.34375 73.4375 
Q 25.25 74.21875 29.59375 74.21875 
Q 40.828125 74.21875 47.359375 69.109375 
Q 53.90625 64.015625 53.90625 55.328125 
Q 53.90625 49.265625 50.4375 45.09375 
Q 46.96875 40.921875 40.578125 39.3125 
z
" id="DejaVuSans-33"/>
      </defs>
      <g transform="translate(117.9125 175.932391)scale(0.1 -0.1)">
       <use xlink:href="#DejaVuSans-33"/>
       <use x="63.623047" xlink:href="#DejaVuSans-30"/>
       <use x="127.246094" xlink:href="#DejaVuSans-30"/>
      </g>
     </g>
    </g>
    <g id="ytick_8">
     <g id="line2d_112">
      <g>
       <use style="stroke:#000000;stroke-width:0.8;" x="144" xlink:href="#ma3ececab2b" y="106.322034"/>
      </g>
     </g>
     <g id="text_61">
      <!-- 350 -->
      <g transform="translate(117.9125 110.121253)scale(0.1 -0.1)">
       <use xlink:href="#DejaVuSans-33"/>
       <use x="63.623047" xlink:href="#DejaVuSans-35"/>
       <use x="127.246094" xlink:href="#DejaVuSans-30"/>
      </g>
     </g>
    </g>
    <g id="text_62">
     <!-- Count -->
     <defs>
      <path d="M 64.40625 67.28125 
L 64.40625 56.890625 
Q 59.421875 61.53125 53.78125 63.8125 
Q 48.140625 66.109375 41.796875 66.109375 
Q 29.296875 66.109375 22.65625 58.46875 
Q 16.015625 50.828125 16.015625 36.375 
Q 16.015625 21.96875 22.65625 14.328125 
Q 29.296875 6.6875 41.796875 6.6875 
Q 48.140625 6.6875 53.78125 8.984375 
Q 59.421875 11.28125 64.40625 15.921875 
L 64.40625 5.609375 
Q 59.234375 2.09375 53.4375 0.328125 
Q 47.65625 -1.421875 41.21875 -1.421875 
Q 24.65625 -1.421875 15.125 8.703125 
Q 5.609375 18.84375 5.609375 36.375 
Q 5.609375 53.953125 15.125 64.078125 
Q 24.65625 74.21875 41.21875 74.21875 
Q 47.75 74.21875 53.53125 72.484375 
Q 59.328125 70.75 64.40625 67.28125 
z
" id="DejaVuSans-43"/>
      <path d="M 30.609375 48.390625 
Q 23.390625 48.390625 19.1875 42.75 
Q 14.984375 37.109375 14.984375 27.296875 
Q 14.984375 17.484375 19.15625 11.84375 
Q 23.34375 6.203125 30.609375 6.203125 
Q 37.796875 6.203125 41.984375 11.859375 
Q 46.1875 17.53125 46.1875 27.296875 
Q 46.1875 37.015625 41.984375 42.703125 
Q 37.796875 48.390625 30.609375 48.390625 
z
M 30.609375 56 
Q 42.328125 56 49.015625 48.375 
Q 55.71875 40.765625 55.71875 27.296875 
Q 55.71875 13.875 49.015625 6.21875 
Q 42.328125 -1.421875 30.609375 -1.421875 
Q 18.84375 -1.421875 12.171875 6.21875 
Q 5.515625 13.875 5.515625 27.296875 
Q 5.515625 40.765625 12.171875 48.375 
Q 18.84375 56 30.609375 56 
z
" id="DejaVuSans-6f"/>
      <path d="M 8.5 21.578125 
L 8.5 54.6875 
L 17.484375 54.6875 
L 17.484375 21.921875 
Q 17.484375 14.15625 20.5 10.265625 
Q 23.53125 6.390625 29.59375 6.390625 
Q 36.859375 6.390625 41.078125 11.03125 
Q 45.3125 15.671875 45.3125 23.6875 
L 45.3125 54.6875 
L 54.296875 54.6875 
L 54.296875 0 
L 45.3125 0 
L 45.3125 8.40625 
Q 42.046875 3.421875 37.71875 1 
Q 33.40625 -1.421875 27.6875 -1.421875 
Q 18.265625 -1.421875 13.375 4.4375 
Q 8.5 10.296875 8.5 21.578125 
z
M 31.109375 56 
z
" id="DejaVuSans-75"/>
      <path d="M 54.890625 33.015625 
L 54.890625 0 
L 45.90625 0 
L 45.90625 32.71875 
Q 45.90625 40.484375 42.875 44.328125 
Q 39.84375 48.1875 33.796875 48.1875 
Q 26.515625 48.1875 22.3125 43.546875 
Q 18.109375 38.921875 18.109375 30.90625 
L 18.109375 0 
L 9.078125 0 
L 9.078125 54.6875 
L 18.109375 54.6875 
L 18.109375 46.1875 
Q 21.34375 51.125 25.703125 53.5625 
Q 30.078125 56 35.796875 56 
Q 45.21875 56 50.046875 50.171875 
Q 54.890625 44.34375 54.890625 33.015625 
z
" id="DejaVuSans-6e"/>
      <path d="M 18.3125 70.21875 
L 18.3125 54.6875 
L 36.8125 54.6875 
L 36.8125 47.703125 
L 18.3125 47.703125 
L 18.3125 18.015625 
Q 18.3125 11.328125 20.140625 9.421875 
Q 21.96875 7.515625 27.59375 7.515625 
L 36.8125 7.515625 
L 36.8125 0 
L 27.59375 0 
Q 17.1875 0 13.234375 3.875 
Q 9.28125 7.765625 9.28125 18.015625 
L 9.28125 47.703125 
L 2.6875 47.703125 
L 2.6875 54.6875 
L 9.28125 54.6875 
L 9.28125 70.21875 
z
" id="DejaVuSans-74"/>
     </defs>
     <g transform="translate(111.832812 337.228437)rotate(-90)scale(0.1 -0.1)">
      <use xlink:href="#DejaVuSans-43"/>
      <use x="69.824219" xlink:href="#DejaVuSans-6f"/>
      <use x="131.005859" xlink:href="#DejaVuSans-75"/>
      <use x="194.384766" xlink:href="#DejaVuSans-6e"/>
      <use x="257.763672" xlink:href="#DejaVuSans-74"/>
     </g>
    </g>
   </g>
   <g id="patch_211">
    <path d="M 144 567 
L 144 77.76 
" style="fill:none;stroke:#000000;stroke-linecap:square;stroke-linejoin:miter;stroke-width:0.8;"/>
   </g>
   <g id="patch_212">
    <path d="M 1036.8 567 
L 1036.8 77.76 
" style="fill:none;stroke:#000000;stroke-linecap:square;stroke-linejoin:miter;stroke-width:0.8;"/>
   </g>
   <g id="patch_213">
    <path d="M 144 567 
L 1036.8 567 
" style="fill:none;stroke:#000000;stroke-linecap:square;stroke-linejoin:miter;stroke-width:0.8;"/>
   </g>
   <g id="patch_214">
    <path d="M 144 77.76 
L 1036.8 77.76 
" style="fill:none;stroke:#000000;stroke-linecap:square;stroke-linejoin:miter;stroke-width:0.8;"/>
   </g>
   <g id="text_63">
    <!-- Daily counts of each sentiment class -->
    <defs>
     <path d="M 9.421875 54.6875 
L 18.40625 54.6875 
L 18.40625 0 
L 9.421875 0 
z
M 9.421875 75.984375 
L 18.40625 75.984375 
L 18.40625 64.59375 
L 9.421875 64.59375 
z
" id="DejaVuSans-69"/>
     <path d="M 9.421875 75.984375 
L 18.40625 75.984375 
L 18.40625 0 
L 9.421875 0 
z
" id="DejaVuSans-6c"/>
     <path id="DejaVuSans-20"/>
     <path d="M 48.78125 52.59375 
L 48.78125 44.1875 
Q 44.96875 46.296875 41.140625 47.34375 
Q 37.3125 48.390625 33.40625 48.390625 
Q 24.65625 48.390625 19.8125 42.84375 
Q 14.984375 37.3125 14.984375 27.296875 
Q 14.984375 17.28125 19.8125 11.734375 
Q 24.65625 6.203125 33.40625 6.203125 
Q 37.3125 6.203125 41.140625 7.25 
Q 44.96875 8.296875 48.78125 10.40625 
L 48.78125 2.09375 
Q 45.015625 0.34375 40.984375 -0.53125 
Q 36.96875 -1.421875 32.421875 -1.421875 
Q 20.0625 -1.421875 12.78125 6.34375 
Q 5.515625 14.109375 5.515625 27.296875 
Q 5.515625 40.671875 12.859375 48.328125 
Q 20.21875 56 33.015625 56 
Q 37.15625 56 41.109375 55.140625 
Q 45.0625 54.296875 48.78125 52.59375 
z
" id="DejaVuSans-63"/>
     <path d="M 44.28125 53.078125 
L 44.28125 44.578125 
Q 40.484375 46.53125 36.375 47.5 
Q 32.28125 48.484375 27.875 48.484375 
Q 21.1875 48.484375 17.84375 46.4375 
Q 14.5 44.390625 14.5 40.28125 
Q 14.5 37.15625 16.890625 35.375 
Q 19.28125 33.59375 26.515625 31.984375 
L 29.59375 31.296875 
Q 39.15625 29.25 43.1875 25.515625 
Q 47.21875 21.78125 47.21875 15.09375 
Q 47.21875 7.46875 41.1875 3.015625 
Q 35.15625 -1.421875 24.609375 -1.421875 
Q 20.21875 -1.421875 15.453125 -0.5625 
Q 10.6875 0.296875 5.421875 2 
L 5.421875 11.28125 
Q 10.40625 8.6875 15.234375 7.390625 
Q 20.0625 6.109375 24.8125 6.109375 
Q 31.15625 6.109375 34.5625 8.28125 
Q 37.984375 10.453125 37.984375 14.40625 
Q 37.984375 18.0625 35.515625 20.015625 
Q 33.0625 21.96875 24.703125 23.78125 
L 21.578125 24.515625 
Q 13.234375 26.265625 9.515625 29.90625 
Q 5.8125 33.546875 5.8125 39.890625 
Q 5.8125 47.609375 11.28125 51.796875 
Q 16.75 56 26.8125 56 
Q 31.78125 56 36.171875 55.265625 
Q 40.578125 54.546875 44.28125 53.078125 
z
" id="DejaVuSans-73"/>
     <path d="M 37.109375 75.984375 
L 37.109375 68.5 
L 28.515625 68.5 
Q 23.6875 68.5 21.796875 66.546875 
Q 19.921875 64.59375 19.921875 59.515625 
L 19.921875 54.6875 
L 34.71875 54.6875 
L 34.71875 47.703125 
L 19.921875 47.703125 
L 19.921875 0 
L 10.890625 0 
L 10.890625 47.703125 
L 2.296875 47.703125 
L 2.296875 54.6875 
L 10.890625 54.6875 
L 10.890625 58.5 
Q 10.890625 67.625 15.140625 71.796875 
Q 19.390625 75.984375 28.609375 75.984375 
z
" id="DejaVuSans-66"/>
     <path d="M 56.203125 29.59375 
L 56.203125 25.203125 
L 14.890625 25.203125 
Q 15.484375 15.921875 20.484375 11.0625 
Q 25.484375 6.203125 34.421875 6.203125 
Q 39.59375 6.203125 44.453125 7.46875 
Q 49.3125 8.734375 54.109375 11.28125 
L 54.109375 2.78125 
Q 49.265625 0.734375 44.1875 -0.34375 
Q 39.109375 -1.421875 33.890625 -1.421875 
Q 20.796875 -1.421875 13.15625 6.1875 
Q 5.515625 13.8125 5.515625 26.8125 
Q 5.515625 40.234375 12.765625 48.109375 
Q 20.015625 56 32.328125 56 
Q 43.359375 56 49.78125 48.890625 
Q 56.203125 41.796875 56.203125 29.59375 
z
M 47.21875 32.234375 
Q 47.125 39.59375 43.09375 43.984375 
Q 39.0625 48.390625 32.421875 48.390625 
Q 24.90625 48.390625 20.390625 44.140625 
Q 15.875 39.890625 15.1875 32.171875 
z
" id="DejaVuSans-65"/>
     <path d="M 54.890625 33.015625 
L 54.890625 0 
L 45.90625 0 
L 45.90625 32.71875 
Q 45.90625 40.484375 42.875 44.328125 
Q 39.84375 48.1875 33.796875 48.1875 
Q 26.515625 48.1875 22.3125 43.546875 
Q 18.109375 38.921875 18.109375 30.90625 
L 18.109375 0 
L 9.078125 0 
L 9.078125 75.984375 
L 18.109375 75.984375 
L 18.109375 46.1875 
Q 21.34375 51.125 25.703125 53.5625 
Q 30.078125 56 35.796875 56 
Q 45.21875 56 50.046875 50.171875 
Q 54.890625 44.34375 54.890625 33.015625 
z
" id="DejaVuSans-68"/>
     <path d="M 52 44.1875 
Q 55.375 50.25 60.0625 53.125 
Q 64.75 56 71.09375 56 
Q 79.640625 56 84.28125 50.015625 
Q 88.921875 44.046875 88.921875 33.015625 
L 88.921875 0 
L 79.890625 0 
L 79.890625 32.71875 
Q 79.890625 40.578125 77.09375 44.375 
Q 74.3125 48.1875 68.609375 48.1875 
Q 61.625 48.1875 57.5625 43.546875 
Q 53.515625 38.921875 53.515625 30.90625 
L 53.515625 0 
L 44.484375 0 
L 44.484375 32.71875 
Q 44.484375 40.625 41.703125 44.40625 
Q 38.921875 48.1875 33.109375 48.1875 
Q 26.21875 48.1875 22.15625 43.53125 
Q 18.109375 38.875 18.109375 30.90625 
L 18.109375 0 
L 9.078125 0 
L 9.078125 54.6875 
L 18.109375 54.6875 
L 18.109375 46.1875 
Q 21.1875 51.21875 25.484375 53.609375 
Q 29.78125 56 35.6875 56 
Q 41.65625 56 45.828125 52.96875 
Q 50 49.953125 52 44.1875 
z
" id="DejaVuSans-6d"/>
    </defs>
    <g transform="translate(480.152812 71.76)scale(0.12 -0.12)">
     <use xlink:href="#DejaVuSans-44"/>
     <use x="77.001953" xlink:href="#DejaVuSans-61"/>
     <use x="138.28125" xlink:href="#DejaVuSans-69"/>
     <use x="166.064453" xlink:href="#DejaVuSans-6c"/>
     <use x="193.847656" xlink:href="#DejaVuSans-79"/>
     <use x="253.027344" xlink:href="#DejaVuSans-20"/>
     <use x="284.814453" xlink:href="#DejaVuSans-63"/>
     <use x="339.794922" xlink:href="#DejaVuSans-6f"/>
     <use x="400.976562" xlink:href="#DejaVuSans-75"/>
     <use x="464.355469" xlink:href="#DejaVuSans-6e"/>
     <use x="527.734375" xlink:href="#DejaVuSans-74"/>
     <use x="566.943359" xlink:href="#DejaVuSans-73"/>
     <use x="619.042969" xlink:href="#DejaVuSans-20"/>
     <use x="650.830078" xlink:href="#DejaVuSans-6f"/>
     <use x="712.011719" xlink:href="#DejaVuSans-66"/>
     <use x="747.216797" xlink:href="#DejaVuSans-20"/>
     <use x="779.003906" xlink:href="#DejaVuSans-65"/>
     <use x="840.527344" xlink:href="#DejaVuSans-61"/>
     <use x="901.806641" xlink:href="#DejaVuSans-63"/>
     <use x="956.787109" xlink:href="#DejaVuSans-68"/>
     <use x="1020.166016" xlink:href="#DejaVuSans-20"/>
     <use x="1051.953125" xlink:href="#DejaVuSans-73"/>
     <use x="1104.052734" xlink:href="#DejaVuSans-65"/>
     <use x="1165.576172" xlink:href="#DejaVuSans-6e"/>
     <use x="1228.955078" xlink:href="#DejaVuSans-74"/>
     <use x="1268.164062" xlink:href="#DejaVuSans-69"/>
     <use x="1295.947266" xlink:href="#DejaVuSans-6d"/>
     <use x="1393.359375" xlink:href="#DejaVuSans-65"/>
     <use x="1454.882812" xlink:href="#DejaVuSans-6e"/>
     <use x="1518.261719" xlink:href="#DejaVuSans-74"/>
     <use x="1557.470703" xlink:href="#DejaVuSans-20"/>
     <use x="1589.257812" xlink:href="#DejaVuSans-63"/>
     <use x="1644.238281" xlink:href="#DejaVuSans-6c"/>
     <use x="1672.021484" xlink:href="#DejaVuSans-61"/>
     <use x="1733.300781" xlink:href="#DejaVuSans-73"/>
     <use x="1785.400391" xlink:href="#DejaVuSans-73"/>
    </g>
   </g>
   <g id="legend_1">
    <g id="patch_215">
     <path d="M 926.728125 144.4725 
L 1029.8 144.4725 
Q 1031.8 144.4725 1031.8 142.4725 
L 1031.8 84.76 
Q 1031.8 82.76 1029.8 82.76 
L 926.728125 82.76 
Q 924.728125 82.76 924.728125 84.76 
L 924.728125 142.4725 
Q 924.728125 144.4725 926.728125 144.4725 
z
" style="fill:#ffffff;opacity:0.8;stroke:#cccccc;stroke-linejoin:miter;"/>
    </g>
    <g id="patch_216">
     <path d="M 928.728125 94.358437 
L 948.728125 94.358437 
L 948.728125 87.358437 
L 928.728125 87.358437 
z
" style="fill:#e6194b;"/>
    </g>
    <g id="text_64">
     <!-- Very Negative -->
     <defs>
      <path d="M 28.609375 0 
L 0.78125 72.90625 
L 11.078125 72.90625 
L 34.1875 11.53125 
L 57.328125 72.90625 
L 67.578125 72.90625 
L 39.796875 0 
z
" id="DejaVuSans-56"/>
      <path d="M 41.109375 46.296875 
Q 39.59375 47.171875 37.8125 47.578125 
Q 36.03125 48 33.890625 48 
Q 26.265625 48 22.1875 43.046875 
Q 18.109375 38.09375 18.109375 28.8125 
L 18.109375 0 
L 9.078125 0 
L 9.078125 54.6875 
L 18.109375 54.6875 
L 18.109375 46.1875 
Q 20.953125 51.171875 25.484375 53.578125 
Q 30.03125 56 36.53125 56 
Q 37.453125 56 38.578125 55.875 
Q 39.703125 55.765625 41.0625 55.515625 
z
" id="DejaVuSans-72"/>
      <path d="M 9.8125 72.90625 
L 23.09375 72.90625 
L 55.421875 11.921875 
L 55.421875 72.90625 
L 64.984375 72.90625 
L 64.984375 0 
L 51.703125 0 
L 19.390625 60.984375 
L 19.390625 0 
L 9.8125 0 
z
" id="DejaVuSans-4e"/>
      <path d="M 45.40625 27.984375 
Q 45.40625 37.75 41.375 43.109375 
Q 37.359375 48.484375 30.078125 48.484375 
Q 22.859375 48.484375 18.828125 43.109375 
Q 14.796875 37.75 14.796875 27.984375 
Q 14.796875 18.265625 18.828125 12.890625 
Q 22.859375 7.515625 30.078125 7.515625 
Q 37.359375 7.515625 41.375 12.890625 
Q 45.40625 18.265625 45.40625 27.984375 
z
M 54.390625 6.78125 
Q 54.390625 -7.171875 48.1875 -13.984375 
Q 42 -20.796875 29.203125 -20.796875 
Q 24.46875 -20.796875 20.265625 -20.09375 
Q 16.0625 -19.390625 12.109375 -17.921875 
L 12.109375 -9.1875 
Q 16.0625 -11.328125 19.921875 -12.34375 
Q 23.78125 -13.375 27.78125 -13.375 
Q 36.625 -13.375 41.015625 -8.765625 
Q 45.40625 -4.15625 45.40625 5.171875 
L 45.40625 9.625 
Q 42.625 4.78125 38.28125 2.390625 
Q 33.9375 0 27.875 0 
Q 17.828125 0 11.671875 7.65625 
Q 5.515625 15.328125 5.515625 27.984375 
Q 5.515625 40.671875 11.671875 48.328125 
Q 17.828125 56 27.875 56 
Q 33.9375 56 38.28125 53.609375 
Q 42.625 51.21875 45.40625 46.390625 
L 45.40625 54.6875 
L 54.390625 54.6875 
z
" id="DejaVuSans-67"/>
      <path d="M 2.984375 54.6875 
L 12.5 54.6875 
L 29.59375 8.796875 
L 46.6875 54.6875 
L 56.203125 54.6875 
L 35.6875 0 
L 23.484375 0 
z
" id="DejaVuSans-76"/>
     </defs>
     <g transform="translate(956.728125 94.358437)scale(0.1 -0.1)">
      <use xlink:href="#DejaVuSans-56"/>
      <use x="68.298828" xlink:href="#DejaVuSans-65"/>
      <use x="129.822266" xlink:href="#DejaVuSans-72"/>
      <use x="170.935547" xlink:href="#DejaVuSans-79"/>
      <use x="230.115234" xlink:href="#DejaVuSans-20"/>
      <use x="261.902344" xlink:href="#DejaVuSans-4e"/>
      <use x="336.707031" xlink:href="#DejaVuSans-65"/>
      <use x="398.230469" xlink:href="#DejaVuSans-67"/>
      <use x="461.707031" xlink:href="#DejaVuSans-61"/>
      <use x="522.986328" xlink:href="#DejaVuSans-74"/>
      <use x="562.195312" xlink:href="#DejaVuSans-69"/>
      <use x="589.978516" xlink:href="#DejaVuSans-76"/>
      <use x="649.158203" xlink:href="#DejaVuSans-65"/>
     </g>
    </g>
    <g id="patch_217">
     <path d="M 928.728125 109.036562 
L 948.728125 109.036562 
L 948.728125 102.036562 
L 928.728125 102.036562 
z
" style="fill:#fabebe;"/>
    </g>
    <g id="text_65">
     <!-- Negative -->
     <g transform="translate(956.728125 109.036562)scale(0.1 -0.1)">
      <use xlink:href="#DejaVuSans-4e"/>
      <use x="74.804688" xlink:href="#DejaVuSans-65"/>
      <use x="136.328125" xlink:href="#DejaVuSans-67"/>
      <use x="199.804688" xlink:href="#DejaVuSans-61"/>
      <use x="261.083984" xlink:href="#DejaVuSans-74"/>
      <use x="300.292969" xlink:href="#DejaVuSans-69"/>
      <use x="328.076172" xlink:href="#DejaVuSans-76"/>
      <use x="387.255859" xlink:href="#DejaVuSans-65"/>
     </g>
    </g>
    <g id="patch_218">
     <path d="M 928.728125 123.714687 
L 948.728125 123.714687 
L 948.728125 116.714687 
L 928.728125 116.714687 
z
" style="fill:#aaffc3;"/>
    </g>
    <g id="text_66">
     <!-- Positive -->
     <defs>
      <path d="M 19.671875 64.796875 
L 19.671875 37.40625 
L 32.078125 37.40625 
Q 38.96875 37.40625 42.71875 40.96875 
Q 46.484375 44.53125 46.484375 51.125 
Q 46.484375 57.671875 42.71875 61.234375 
Q 38.96875 64.796875 32.078125 64.796875 
z
M 9.8125 72.90625 
L 32.078125 72.90625 
Q 44.34375 72.90625 50.609375 67.359375 
Q 56.890625 61.8125 56.890625 51.125 
Q 56.890625 40.328125 50.609375 34.8125 
Q 44.34375 29.296875 32.078125 29.296875 
L 19.671875 29.296875 
L 19.671875 0 
L 9.8125 0 
z
" id="DejaVuSans-50"/>
     </defs>
     <g transform="translate(956.728125 123.714687)scale(0.1 -0.1)">
      <use xlink:href="#DejaVuSans-50"/>
      <use x="60.255859" xlink:href="#DejaVuSans-6f"/>
      <use x="121.4375" xlink:href="#DejaVuSans-73"/>
      <use x="173.537109" xlink:href="#DejaVuSans-69"/>
      <use x="201.320312" xlink:href="#DejaVuSans-74"/>
      <use x="240.529297" xlink:href="#DejaVuSans-69"/>
      <use x="268.3125" xlink:href="#DejaVuSans-76"/>
      <use x="327.492188" xlink:href="#DejaVuSans-65"/>
     </g>
    </g>
    <g id="patch_219">
     <path d="M 928.728125 138.392812 
L 948.728125 138.392812 
L 948.728125 131.392812 
L 928.728125 131.392812 
z
" style="fill:#3cb44b;"/>
    </g>
    <g id="text_67">
     <!-- Very Positive -->
     <g transform="translate(956.728125 138.392812)scale(0.1 -0.1)">
      <use xlink:href="#DejaVuSans-56"/>
      <use x="68.298828" xlink:href="#DejaVuSans-65"/>
      <use x="129.822266" xlink:href="#DejaVuSans-72"/>
      <use x="170.935547" xlink:href="#DejaVuSans-79"/>
      <use x="230.115234" xlink:href="#DejaVuSans-20"/>
      <use x="261.902344" xlink:href="#DejaVuSans-50"/>
      <use x="322.158203" xlink:href="#DejaVuSans-6f"/>
      <use x="383.339844" xlink:href="#DejaVuSans-73"/>
      <use x="435.439453" xlink:href="#DejaVuSans-69"/>
      <use x="463.222656" xlink:href="#DejaVuSans-74"/>
      <use x="502.431641" xlink:href="#DejaVuSans-69"/>
      <use x="530.214844" xlink:href="#DejaVuSans-76"/>
      <use x="589.394531" xlink:href="#DejaVuSans-65"/>
     </g>
    </g>
   </g>
  </g>
 </g>
 <defs>
  <clipPath id="p6d3226049e">
   <rect height="489.24" width="892.8" x="144" y="77.76"/>
  </clipPath>
 </defs>
</svg>
