<?xml version="1.0" encoding="utf-8" standalone="no"?>
<!DOCTYPE svg PUBLIC "-//W3C//DTD SVG 1.1//EN"
  "http://www.w3.org/Graphics/SVG/1.1/DTD/svg11.dtd">
<!-- Created with matplotlib (http://matplotlib.org/) -->
<svg height="648pt" version="1.1" viewBox="0 0 1152 648" width="1152pt" xmlns="http://www.w3.org/2000/svg" xmlns:xlink="http://www.w3.org/1999/xlink">
 <defs>
  <style type="text/css">
*{stroke-linecap:butt;stroke-linejoin:round;}
  </style>
 </defs>
 <g id="figure_1">
  <g id="patch_1">
   <path d="M 0 648 
L 1152 648 
L 1152 0 
L 0 0 
z
" style="fill:#ffffff;"/>
  </g>
  <g id="axes_1">
   <g id="patch_2">
    <path d="M 144 567 
L 1036.8 567 
L 1036.8 77.76 
L 144 77.76 
z
" style="fill:#ffffff;"/>
   </g>
   <g id="patch_3">
    <path clip-path="url(#p6958fdc63c)" d="M 184.581818 567 
L 200.896117 567 
L 200.896117 549.889104 
L 184.581818 549.889104 
z
" style="fill:#e6194b;"/>
   </g>
   <g id="patch_4">
    <path clip-path="url(#p6958fdc63c)" d="M 204.974692 567 
L 221.28899 567 
L 221.28899 509.086199 
L 204.974692 509.086199 
z
" style="fill:#e6194b;"/>
   </g>
   <g id="patch_5">
    <path clip-path="url(#p6958fdc63c)" d="M 225.367565 567 
L 241.681864 567 
L 241.681864 516.983535 
L 225.367565 516.983535 
z
" style="fill:#e6194b;"/>
   </g>
   <g id="patch_6">
    <path clip-path="url(#p6958fdc63c)" d="M 245.760439 567 
L 262.074737 567 
L 262.074737 511.718644 
L 245.760439 511.718644 
z
" style="fill:#e6194b;"/>
   </g>
   <g id="patch_7">
    <path clip-path="url(#p6958fdc63c)" d="M 266.153312 567 
L 282.467611 567 
L 282.467611 551.205327 
L 266.153312 551.205327 
z
" style="fill:#e6194b;"/>
   </g>
   <g id="patch_8">
    <path clip-path="url(#p6958fdc63c)" d="M 286.546185 567 
L 302.860484 567 
L 302.860484 559.102663 
L 286.546185 559.102663 
z
" style="fill:#e6194b;"/>
   </g>
   <g id="patch_9">
    <path clip-path="url(#p6958fdc63c)" d="M 306.939059 567 
L 323.253358 567 
L 323.253358 488.026634 
L 306.939059 488.026634 
z
" style="fill:#e6194b;"/>
   </g>
   <g id="patch_10">
    <path clip-path="url(#p6958fdc63c)" d="M 327.331932 567 
L 343.646231 567 
L 343.646231 511.718644 
L 327.331932 511.718644 
z
" style="fill:#e6194b;"/>
   </g>
   <g id="patch_11">
    <path clip-path="url(#p6958fdc63c)" d="M 347.724806 567 
L 364.039105 567 
L 364.039105 522.248426 
L 347.724806 522.248426 
z
" style="fill:#e6194b;"/>
   </g>
   <g id="patch_12">
    <path clip-path="url(#p6958fdc63c)" d="M 368.117679 567 
L 384.431978 567 
L 384.431978 459.069734 
L 368.117679 459.069734 
z
" style="fill:#e6194b;"/>
   </g>
   <g id="patch_13">
    <path clip-path="url(#p6958fdc63c)" d="M 388.510553 567 
L 404.824852 567 
L 404.824852 459.069734 
L 388.510553 459.069734 
z
" style="fill:#e6194b;"/>
   </g>
   <g id="patch_14">
    <path clip-path="url(#p6958fdc63c)" d="M 408.903426 567 
L 425.217725 567 
L 425.217725 507.769976 
L 408.903426 507.769976 
z
" style="fill:#e6194b;"/>
   </g>
   <g id="patch_15">
    <path clip-path="url(#p6958fdc63c)" d="M 429.2963 567 
L 445.610598 567 
L 445.610598 559.102663 
L 429.2963 559.102663 
z
" style="fill:#e6194b;"/>
   </g>
   <g id="patch_16">
    <path clip-path="url(#p6958fdc63c)" d="M 449.689173 567 
L 466.003472 567 
L 466.003472 509.086199 
L 449.689173 509.086199 
z
" style="fill:#e6194b;"/>
   </g>
   <g id="patch_17">
    <path clip-path="url(#p6958fdc63c)" d="M 470.082047 567 
L 486.396345 567 
L 486.396345 513.034867 
L 470.082047 513.034867 
z
" style="fill:#e6194b;"/>
   </g>
   <g id="patch_18">
    <path clip-path="url(#p6958fdc63c)" d="M 490.47492 567 
L 506.789219 567 
L 506.789219 520.932203 
L 490.47492 520.932203 
z
" style="fill:#e6194b;"/>
   </g>
   <g id="patch_19">
    <path clip-path="url(#p6958fdc63c)" d="M 510.867794 567 
L 527.182092 567 
L 527.182092 524.880872 
L 510.867794 524.880872 
z
" style="fill:#e6194b;"/>
   </g>
   <g id="patch_20">
    <path clip-path="url(#p6958fdc63c)" d="M 531.260667 567 
L 547.574966 567 
L 547.574966 503.821308 
L 531.260667 503.821308 
z
" style="fill:#e6194b;"/>
   </g>
   <g id="patch_21">
    <path clip-path="url(#p6958fdc63c)" d="M 551.65354 567 
L 567.967839 567 
L 567.967839 559.102663 
L 551.65354 559.102663 
z
" style="fill:#e6194b;"/>
   </g>
   <g id="patch_22">
    <path clip-path="url(#p6958fdc63c)" d="M 572.046414 567 
L 588.360713 567 
L 588.360713 535.410654 
L 572.046414 535.410654 
z
" style="fill:#e6194b;"/>
   </g>
   <g id="patch_23">
    <path clip-path="url(#p6958fdc63c)" d="M 592.439287 567 
L 608.753586 567 
L 608.753586 514.35109 
L 592.439287 514.35109 
z
" style="fill:#e6194b;"/>
   </g>
   <g id="patch_24">
    <path clip-path="url(#p6958fdc63c)" d="M 612.832161 567 
L 629.14646 567 
L 629.14646 495.923971 
L 612.832161 495.923971 
z
" style="fill:#e6194b;"/>
   </g>
   <g id="patch_25">
    <path clip-path="url(#p6958fdc63c)" d="M 633.225034 567 
L 649.539333 567 
L 649.539333 518.299758 
L 633.225034 518.299758 
z
" style="fill:#e6194b;"/>
   </g>
   <g id="patch_26">
    <path clip-path="url(#p6958fdc63c)" d="M 653.617908 567 
L 669.932206 567 
L 669.932206 509.086199 
L 653.617908 509.086199 
z
" style="fill:#e6194b;"/>
   </g>
   <g id="patch_27">
    <path clip-path="url(#p6958fdc63c)" d="M 674.010781 567 
L 690.32508 567 
L 690.32508 505.13753 
L 674.010781 505.13753 
z
" style="fill:#e6194b;"/>
   </g>
   <g id="patch_28">
    <path clip-path="url(#p6958fdc63c)" d="M 694.403655 567 
L 710.717953 567 
L 710.717953 519.615981 
L 694.403655 519.615981 
z
" style="fill:#e6194b;"/>
   </g>
   <g id="patch_29">
    <path clip-path="url(#p6958fdc63c)" d="M 714.796528 567 
L 731.110827 567 
L 731.110827 538.043099 
L 714.796528 538.043099 
z
" style="fill:#e6194b;"/>
   </g>
   <g id="patch_30">
    <path clip-path="url(#p6958fdc63c)" d="M 735.189402 567 
L 751.5037 567 
L 751.5037 545.940436 
L 735.189402 545.940436 
z
" style="fill:#e6194b;"/>
   </g>
   <g id="patch_31">
    <path clip-path="url(#p6958fdc63c)" d="M 755.582275 567 
L 771.896574 567 
L 771.896574 535.410654 
L 755.582275 535.410654 
z
" style="fill:#e6194b;"/>
   </g>
   <g id="patch_32">
    <path clip-path="url(#p6958fdc63c)" d="M 775.975148 567 
L 792.289447 567 
L 792.289447 514.35109 
L 775.975148 514.35109 
z
" style="fill:#e6194b;"/>
   </g>
   <g id="patch_33">
    <path clip-path="url(#p6958fdc63c)" d="M 796.368022 567 
L 812.682321 567 
L 812.682321 528.82954 
L 796.368022 528.82954 
z
" style="fill:#e6194b;"/>
   </g>
   <g id="patch_34">
    <path clip-path="url(#p6958fdc63c)" d="M 816.760895 567 
L 833.075194 567 
L 833.075194 482.761743 
L 816.760895 482.761743 
z
" style="fill:#e6194b;"/>
   </g>
   <g id="patch_35">
    <path clip-path="url(#p6958fdc63c)" d="M 837.153769 567 
L 853.468068 567 
L 853.468068 526.197094 
L 837.153769 526.197094 
z
" style="fill:#e6194b;"/>
   </g>
   <g id="patch_36">
    <path clip-path="url(#p6958fdc63c)" d="M 857.546642 567 
L 873.860941 567 
L 873.860941 524.880872 
L 857.546642 524.880872 
z
" style="fill:#e6194b;"/>
   </g>
   <g id="patch_37">
    <path clip-path="url(#p6958fdc63c)" d="M 877.939516 567 
L 894.253815 567 
L 894.253815 494.607748 
L 877.939516 494.607748 
z
" style="fill:#e6194b;"/>
   </g>
   <g id="patch_38">
    <path clip-path="url(#p6958fdc63c)" d="M 898.332389 567 
L 914.646688 567 
L 914.646688 538.043099 
L 898.332389 538.043099 
z
" style="fill:#e6194b;"/>
   </g>
   <g id="patch_39">
    <path clip-path="url(#p6958fdc63c)" d="M 918.725263 567 
L 935.039561 567 
L 935.039561 501.188862 
L 918.725263 501.188862 
z
" style="fill:#e6194b;"/>
   </g>
   <g id="patch_40">
    <path clip-path="url(#p6958fdc63c)" d="M 939.118136 567 
L 955.432435 567 
L 955.432435 522.248426 
L 939.118136 522.248426 
z
" style="fill:#e6194b;"/>
   </g>
   <g id="patch_41">
    <path clip-path="url(#p6958fdc63c)" d="M 959.51101 567 
L 975.825308 567 
L 975.825308 530.145763 
L 959.51101 530.145763 
z
" style="fill:#e6194b;"/>
   </g>
   <g id="patch_42">
    <path clip-path="url(#p6958fdc63c)" d="M 979.903883 567 
L 996.218182 567 
L 996.218182 520.932203 
L 979.903883 520.932203 
z
" style="fill:#e6194b;"/>
   </g>
   <g id="patch_43">
    <path clip-path="url(#p6958fdc63c)" d="M 184.581818 549.889104 
L 200.896117 549.889104 
L 200.896117 499.872639 
L 184.581818 499.872639 
z
" style="fill:#fabebe;"/>
   </g>
   <g id="patch_44">
    <path clip-path="url(#p6958fdc63c)" d="M 204.974692 509.086199 
L 221.28899 509.086199 
L 221.28899 319.550121 
L 204.974692 319.550121 
z
" style="fill:#fabebe;"/>
   </g>
   <g id="patch_45">
    <path clip-path="url(#p6958fdc63c)" d="M 225.367565 516.983535 
L 241.681864 516.983535 
L 241.681864 391.942373 
L 225.367565 391.942373 
z
" style="fill:#fabebe;"/>
   </g>
   <g id="patch_46">
    <path clip-path="url(#p6958fdc63c)" d="M 245.760439 511.718644 
L 262.074737 511.718644 
L 262.074737 369.566586 
L 245.760439 369.566586 
z
" style="fill:#fabebe;"/>
   </g>
   <g id="patch_47">
    <path clip-path="url(#p6958fdc63c)" d="M 266.153312 551.205327 
L 282.467611 551.205327 
L 282.467611 464.334625 
L 266.153312 464.334625 
z
" style="fill:#fabebe;"/>
   </g>
   <g id="patch_48">
    <path clip-path="url(#p6958fdc63c)" d="M 286.546185 559.102663 
L 302.860484 559.102663 
L 302.860484 456.437288 
L 286.546185 456.437288 
z
" style="fill:#fabebe;"/>
   </g>
   <g id="patch_49">
    <path clip-path="url(#p6958fdc63c)" d="M 306.939059 488.026634 
L 323.253358 488.026634 
L 323.253358 301.123002 
L 306.939059 301.123002 
z
" style="fill:#fabebe;"/>
   </g>
   <g id="patch_50">
    <path clip-path="url(#p6958fdc63c)" d="M 327.331932 511.718644 
L 343.646231 511.718644 
L 343.646231 332.712349 
L 327.331932 332.712349 
z
" style="fill:#fabebe;"/>
   </g>
   <g id="patch_51">
    <path clip-path="url(#p6958fdc63c)" d="M 347.724806 522.248426 
L 364.039105 522.248426 
L 364.039105 341.925908 
L 347.724806 341.925908 
z
" style="fill:#fabebe;"/>
   </g>
   <g id="patch_52">
    <path clip-path="url(#p6958fdc63c)" d="M 368.117679 459.069734 
L 384.431978 459.069734 
L 384.431978 272.166102 
L 368.117679 272.166102 
z
" style="fill:#fabebe;"/>
   </g>
   <g id="patch_53">
    <path clip-path="url(#p6958fdc63c)" d="M 388.510553 459.069734 
L 404.824852 459.069734 
L 404.824852 312.969007 
L 388.510553 312.969007 
z
" style="fill:#fabebe;"/>
   </g>
   <g id="patch_54">
    <path clip-path="url(#p6958fdc63c)" d="M 408.903426 507.769976 
L 425.217725 507.769976 
L 425.217725 409.053269 
L 408.903426 409.053269 
z
" style="fill:#fabebe;"/>
   </g>
   <g id="patch_55">
    <path clip-path="url(#p6958fdc63c)" d="M 429.2963 559.102663 
L 445.610598 559.102663 
L 445.610598 420.899274 
L 429.2963 420.899274 
z
" style="fill:#fabebe;"/>
   </g>
   <g id="patch_56">
    <path clip-path="url(#p6958fdc63c)" d="M 449.689173 509.086199 
L 466.003472 509.086199 
L 466.003472 376.1477 
L 449.689173 376.1477 
z
" style="fill:#fabebe;"/>
   </g>
   <g id="patch_57">
    <path clip-path="url(#p6958fdc63c)" d="M 470.082047 513.034867 
L 486.396345 513.034867 
L 486.396345 320.866344 
L 470.082047 320.866344 
z
" style="fill:#fabebe;"/>
   </g>
   <g id="patch_58">
    <path clip-path="url(#p6958fdc63c)" d="M 490.47492 520.932203 
L 506.789219 520.932203 
L 506.789219 352.45569 
L 490.47492 352.45569 
z
" style="fill:#fabebe;"/>
   </g>
   <g id="patch_59">
    <path clip-path="url(#p6958fdc63c)" d="M 510.867794 524.880872 
L 527.182092 524.880872 
L 527.182092 345.874576 
L 510.867794 345.874576 
z
" style="fill:#fabebe;"/>
   </g>
   <g id="patch_60">
    <path clip-path="url(#p6958fdc63c)" d="M 531.260667 503.821308 
L 547.574966 503.821308 
L 547.574966 355.088136 
L 531.260667 355.088136 
z
" style="fill:#fabebe;"/>
   </g>
   <g id="patch_61">
    <path clip-path="url(#p6958fdc63c)" d="M 551.65354 559.102663 
L 567.967839 559.102663 
L 567.967839 436.693947 
L 551.65354 436.693947 
z
" style="fill:#fabebe;"/>
   </g>
   <g id="patch_62">
    <path clip-path="url(#p6958fdc63c)" d="M 572.046414 535.410654 
L 588.360713 535.410654 
L 588.360713 401.155932 
L 572.046414 401.155932 
z
" style="fill:#fabebe;"/>
   </g>
   <g id="patch_63">
    <path clip-path="url(#p6958fdc63c)" d="M 592.439287 514.35109 
L 608.753586 514.35109 
L 608.753586 314.28523 
L 592.439287 314.28523 
z
" style="fill:#fabebe;"/>
   </g>
   <g id="patch_64">
    <path clip-path="url(#p6958fdc63c)" d="M 612.832161 495.923971 
L 629.14646 495.923971 
L 629.14646 334.028571 
L 612.832161 334.028571 
z
" style="fill:#fabebe;"/>
   </g>
   <g id="patch_65">
    <path clip-path="url(#p6958fdc63c)" d="M 633.225034 518.299758 
L 649.539333 518.299758 
L 649.539333 337.97724 
L 633.225034 337.97724 
z
" style="fill:#fabebe;"/>
   </g>
   <g id="patch_66">
    <path clip-path="url(#p6958fdc63c)" d="M 653.617908 509.086199 
L 669.932206 509.086199 
L 669.932206 356.404358 
L 653.617908 356.404358 
z
" style="fill:#fabebe;"/>
   </g>
   <g id="patch_67">
    <path clip-path="url(#p6958fdc63c)" d="M 674.010781 505.13753 
L 690.32508 505.13753 
L 690.32508 422.215496 
L 674.010781 422.215496 
z
" style="fill:#fabebe;"/>
   </g>
   <g id="patch_68">
    <path clip-path="url(#p6958fdc63c)" d="M 694.403655 519.615981 
L 710.717953 519.615981 
L 710.717953 420.899274 
L 694.403655 420.899274 
z
" style="fill:#fabebe;"/>
   </g>
   <g id="patch_69">
    <path clip-path="url(#p6958fdc63c)" d="M 714.796528 538.043099 
L 731.110827 538.043099 
L 731.110827 478.813075 
L 714.796528 478.813075 
z
" style="fill:#fabebe;"/>
   </g>
   <g id="patch_70">
    <path clip-path="url(#p6958fdc63c)" d="M 735.189402 545.940436 
L 751.5037 545.940436 
L 751.5037 426.164165 
L 735.189402 426.164165 
z
" style="fill:#fabebe;"/>
   </g>
   <g id="patch_71">
    <path clip-path="url(#p6958fdc63c)" d="M 755.582275 535.410654 
L 771.896574 535.410654 
L 771.896574 389.309927 
L 755.582275 389.309927 
z
" style="fill:#fabebe;"/>
   </g>
   <g id="patch_72">
    <path clip-path="url(#p6958fdc63c)" d="M 775.975148 514.35109 
L 792.289447 514.35109 
L 792.289447 393.258596 
L 775.975148 393.258596 
z
" style="fill:#fabebe;"/>
   </g>
   <g id="patch_73">
    <path clip-path="url(#p6958fdc63c)" d="M 796.368022 528.82954 
L 812.682321 528.82954 
L 812.682321 373.515254 
L 796.368022 373.515254 
z
" style="fill:#fabebe;"/>
   </g>
   <g id="patch_74">
    <path clip-path="url(#p6958fdc63c)" d="M 816.760895 482.761743 
L 833.075194 482.761743 
L 833.075194 318.233898 
L 816.760895 318.233898 
z
" style="fill:#fabebe;"/>
   </g>
   <g id="patch_75">
    <path clip-path="url(#p6958fdc63c)" d="M 837.153769 526.197094 
L 853.468068 526.197094 
L 853.468068 477.496852 
L 837.153769 477.496852 
z
" style="fill:#fabebe;"/>
   </g>
   <g id="patch_76">
    <path clip-path="url(#p6958fdc63c)" d="M 857.546642 524.880872 
L 873.860941 524.880872 
L 873.860941 470.915738 
L 857.546642 470.915738 
z
" style="fill:#fabebe;"/>
   </g>
   <g id="patch_77">
    <path clip-path="url(#p6958fdc63c)" d="M 877.939516 494.607748 
L 894.253815 494.607748 
L 894.253815 343.242131 
L 877.939516 343.242131 
z
" style="fill:#fabebe;"/>
   </g>
   <g id="patch_78">
    <path clip-path="url(#p6958fdc63c)" d="M 898.332389 538.043099 
L 914.646688 538.043099 
L 914.646688 387.993705 
L 898.332389 387.993705 
z
" style="fill:#fabebe;"/>
   </g>
   <g id="patch_79">
    <path clip-path="url(#p6958fdc63c)" d="M 918.725263 501.188862 
L 935.039561 501.188862 
L 935.039561 372.199031 
L 918.725263 372.199031 
z
" style="fill:#fabebe;"/>
   </g>
   <g id="patch_80">
    <path clip-path="url(#p6958fdc63c)" d="M 939.118136 522.248426 
L 955.432435 522.248426 
L 955.432435 349.823245 
L 939.118136 349.823245 
z
" style="fill:#fabebe;"/>
   </g>
   <g id="patch_81">
    <path clip-path="url(#p6958fdc63c)" d="M 959.51101 530.145763 
L 975.825308 530.145763 
L 975.825308 405.1046 
L 959.51101 405.1046 
z
" style="fill:#fabebe;"/>
   </g>
   <g id="patch_82">
    <path clip-path="url(#p6958fdc63c)" d="M 979.903883 520.932203 
L 996.218182 520.932203 
L 996.218182 485.394189 
L 979.903883 485.394189 
z
" style="fill:#fabebe;"/>
   </g>
   <g id="patch_83">
    <path clip-path="url(#p6958fdc63c)" d="M 184.581818 499.872639 
L 200.896117 499.872639 
L 200.896117 411.685714 
L 184.581818 411.685714 
z
" style="fill:#aaffc3;"/>
   </g>
   <g id="patch_84">
    <path clip-path="url(#p6958fdc63c)" d="M 204.974692 319.550121 
L 221.28899 319.550121 
L 221.28899 180.030508 
L 204.974692 180.030508 
z
" style="fill:#aaffc3;"/>
   </g>
   <g id="patch_85">
    <path clip-path="url(#p6958fdc63c)" d="M 225.367565 391.942373 
L 241.681864 391.942373 
L 241.681864 249.790315 
L 225.367565 249.790315 
z
" style="fill:#aaffc3;"/>
   </g>
   <g id="patch_86">
    <path clip-path="url(#p6958fdc63c)" d="M 245.760439 369.566586 
L 262.074737 369.566586 
L 262.074737 215.568523 
L 245.760439 215.568523 
z
" style="fill:#aaffc3;"/>
   </g>
   <g id="patch_87">
    <path clip-path="url(#p6958fdc63c)" d="M 266.153312 464.334625 
L 282.467611 464.334625 
L 282.467611 380.096368 
L 266.153312 380.096368 
z
" style="fill:#aaffc3;"/>
   </g>
   <g id="patch_88">
    <path clip-path="url(#p6958fdc63c)" d="M 286.546185 456.437288 
L 302.860484 456.437288 
L 302.860484 374.831477 
L 286.546185 374.831477 
z
" style="fill:#aaffc3;"/>
   </g>
   <g id="patch_89">
    <path clip-path="url(#p6958fdc63c)" d="M 306.939059 301.123002 
L 323.253358 301.123002 
L 323.253358 132.646489 
L 306.939059 132.646489 
z
" style="fill:#aaffc3;"/>
   </g>
   <g id="patch_90">
    <path clip-path="url(#p6958fdc63c)" d="M 327.331932 332.712349 
L 343.646231 332.712349 
L 343.646231 202.406295 
L 327.331932 202.406295 
z
" style="fill:#aaffc3;"/>
   </g>
   <g id="patch_91">
    <path clip-path="url(#p6958fdc63c)" d="M 347.724806 341.925908 
L 364.039105 341.925908 
L 364.039105 118.168039 
L 347.724806 118.168039 
z
" style="fill:#aaffc3;"/>
   </g>
   <g id="patch_92">
    <path clip-path="url(#p6958fdc63c)" d="M 368.117679 272.166102 
L 384.431978 272.166102 
L 384.431978 178.714286 
L 368.117679 178.714286 
z
" style="fill:#aaffc3;"/>
   </g>
   <g id="patch_93">
    <path clip-path="url(#p6958fdc63c)" d="M 388.510553 312.969007 
L 404.824852 312.969007 
L 404.824852 183.979177 
L 388.510553 183.979177 
z
" style="fill:#aaffc3;"/>
   </g>
   <g id="patch_94">
    <path clip-path="url(#p6958fdc63c)" d="M 408.903426 409.053269 
L 425.217725 409.053269 
L 425.217725 337.97724 
L 408.903426 337.97724 
z
" style="fill:#aaffc3;"/>
   </g>
   <g id="patch_95">
    <path clip-path="url(#p6958fdc63c)" d="M 429.2963 420.899274 
L 445.610598 420.899274 
L 445.610598 311.652785 
L 429.2963 311.652785 
z
" style="fill:#aaffc3;"/>
   </g>
   <g id="patch_96">
    <path clip-path="url(#p6958fdc63c)" d="M 449.689173 376.1477 
L 466.003472 376.1477 
L 466.003472 237.94431 
L 449.689173 237.94431 
z
" style="fill:#aaffc3;"/>
   </g>
   <g id="patch_97">
    <path clip-path="url(#p6958fdc63c)" d="M 470.082047 320.866344 
L 486.396345 320.866344 
L 486.396345 161.60339 
L 470.082047 161.60339 
z
" style="fill:#aaffc3;"/>
   </g>
   <g id="patch_98">
    <path clip-path="url(#p6958fdc63c)" d="M 490.47492 352.45569 
L 506.789219 352.45569 
L 506.789219 187.927845 
L 490.47492 187.927845 
z
" style="fill:#aaffc3;"/>
   </g>
   <g id="patch_99">
    <path clip-path="url(#p6958fdc63c)" d="M 510.867794 345.874576 
L 527.182092 345.874576 
L 527.182092 219.517191 
L 510.867794 219.517191 
z
" style="fill:#aaffc3;"/>
   </g>
   <g id="patch_100">
    <path clip-path="url(#p6958fdc63c)" d="M 531.260667 355.088136 
L 547.574966 355.088136 
L 547.574966 158.970944 
L 531.260667 158.970944 
z
" style="fill:#aaffc3;"/>
   </g>
   <g id="patch_101">
    <path clip-path="url(#p6958fdc63c)" d="M 551.65354 436.693947 
L 567.967839 436.693947 
L 567.967839 368.250363 
L 551.65354 368.250363 
z
" style="fill:#aaffc3;"/>
   </g>
   <g id="patch_102">
    <path clip-path="url(#p6958fdc63c)" d="M 572.046414 401.155932 
L 588.360713 401.155932 
L 588.360713 316.917676 
L 572.046414 316.917676 
z
" style="fill:#aaffc3;"/>
   </g>
   <g id="patch_103">
    <path clip-path="url(#p6958fdc63c)" d="M 592.439287 314.28523 
L 608.753586 314.28523 
L 608.753586 215.568523 
L 592.439287 215.568523 
z
" style="fill:#aaffc3;"/>
   </g>
   <g id="patch_104">
    <path clip-path="url(#p6958fdc63c)" d="M 612.832161 334.028571 
L 629.14646 334.028571 
L 629.14646 207.671186 
L 612.832161 207.671186 
z
" style="fill:#aaffc3;"/>
   </g>
   <g id="patch_105">
    <path clip-path="url(#p6958fdc63c)" d="M 633.225034 337.97724 
L 649.539333 337.97724 
L 649.539333 180.030508 
L 633.225034 180.030508 
z
" style="fill:#aaffc3;"/>
   </g>
   <g id="patch_106">
    <path clip-path="url(#p6958fdc63c)" d="M 653.617908 356.404358 
L 669.932206 356.404358 
L 669.932206 152.389831 
L 653.617908 152.389831 
z
" style="fill:#aaffc3;"/>
   </g>
   <g id="patch_107">
    <path clip-path="url(#p6958fdc63c)" d="M 674.010781 422.215496 
L 690.32508 422.215496 
L 690.32508 306.387893 
L 674.010781 306.387893 
z
" style="fill:#aaffc3;"/>
   </g>
   <g id="patch_108">
    <path clip-path="url(#p6958fdc63c)" d="M 694.403655 420.899274 
L 710.717953 420.899274 
L 710.717953 322.182567 
L 694.403655 322.182567 
z
" style="fill:#aaffc3;"/>
   </g>
   <g id="patch_109">
    <path clip-path="url(#p6958fdc63c)" d="M 714.796528 478.813075 
L 731.110827 478.813075 
L 731.110827 387.993705 
L 714.796528 387.993705 
z
" style="fill:#aaffc3;"/>
   </g>
   <g id="patch_110">
    <path clip-path="url(#p6958fdc63c)" d="M 735.189402 426.164165 
L 751.5037 426.164165 
L 751.5037 347.190799 
L 735.189402 347.190799 
z
" style="fill:#aaffc3;"/>
   </g>
   <g id="patch_111">
    <path clip-path="url(#p6958fdc63c)" d="M 755.582275 389.309927 
L 771.896574 389.309927 
L 771.896574 222.149637 
L 755.582275 222.149637 
z
" style="fill:#aaffc3;"/>
   </g>
   <g id="patch_112">
    <path clip-path="url(#p6958fdc63c)" d="M 775.975148 393.258596 
L 792.289447 393.258596 
L 792.289447 241.892978 
L 775.975148 241.892978 
z
" style="fill:#aaffc3;"/>
   </g>
   <g id="patch_113">
    <path clip-path="url(#p6958fdc63c)" d="M 796.368022 373.515254 
L 812.682321 373.515254 
L 812.682321 232.679419 
L 796.368022 232.679419 
z
" style="fill:#aaffc3;"/>
   </g>
   <g id="patch_114">
    <path clip-path="url(#p6958fdc63c)" d="M 816.760895 318.233898 
L 833.075194 318.233898 
L 833.075194 139.227603 
L 816.760895 139.227603 
z
" style="fill:#aaffc3;"/>
   </g>
   <g id="patch_115">
    <path clip-path="url(#p6958fdc63c)" d="M 837.153769 477.496852 
L 853.468068 477.496852 
L 853.468068 319.550121 
L 837.153769 319.550121 
z
" style="fill:#aaffc3;"/>
   </g>
   <g id="patch_116">
    <path clip-path="url(#p6958fdc63c)" d="M 857.546642 470.915738 
L 873.860941 470.915738 
L 873.860941 359.036804 
L 857.546642 359.036804 
z
" style="fill:#aaffc3;"/>
   </g>
   <g id="patch_117">
    <path clip-path="url(#p6958fdc63c)" d="M 877.939516 343.242131 
L 894.253815 343.242131 
L 894.253815 190.560291 
L 877.939516 190.560291 
z
" style="fill:#aaffc3;"/>
   </g>
   <g id="patch_118">
    <path clip-path="url(#p6958fdc63c)" d="M 898.332389 387.993705 
L 914.646688 387.993705 
L 914.646688 253.738983 
L 898.332389 253.738983 
z
" style="fill:#aaffc3;"/>
   </g>
   <g id="patch_119">
    <path clip-path="url(#p6958fdc63c)" d="M 918.725263 372.199031 
L 935.039561 372.199031 
L 935.039561 189.244068 
L 918.725263 189.244068 
z
" style="fill:#aaffc3;"/>
   </g>
   <g id="patch_120">
    <path clip-path="url(#p6958fdc63c)" d="M 939.118136 349.823245 
L 955.432435 349.823245 
L 955.432435 189.244068 
L 939.118136 189.244068 
z
" style="fill:#aaffc3;"/>
   </g>
   <g id="patch_121">
    <path clip-path="url(#p6958fdc63c)" d="M 959.51101 405.1046 
L 975.825308 405.1046 
L 975.825308 239.260533 
L 959.51101 239.260533 
z
" style="fill:#aaffc3;"/>
   </g>
   <g id="patch_122">
    <path clip-path="url(#p6958fdc63c)" d="M 979.903883 485.394189 
L 996.218182 485.394189 
L 996.218182 449.856174 
L 979.903883 449.856174 
z
" style="fill:#aaffc3;"/>
   </g>
   <g id="patch_123">
    <path clip-path="url(#p6958fdc63c)" d="M 184.581818 411.685714 
L 200.896117 411.685714 
L 200.896117 407.737046 
L 184.581818 407.737046 
z
" style="fill:#3cb44b;"/>
   </g>
   <g id="patch_124">
    <path clip-path="url(#p6958fdc63c)" d="M 204.974692 180.030508 
L 221.28899 180.030508 
L 221.28899 173.449395 
L 204.974692 173.449395 
z
" style="fill:#3cb44b;"/>
   </g>
   <g id="patch_125">
    <path clip-path="url(#p6958fdc63c)" d="M 225.367565 249.790315 
L 241.681864 249.790315 
L 241.681864 228.730751 
L 225.367565 228.730751 
z
" style="fill:#3cb44b;"/>
   </g>
   <g id="patch_126">
    <path clip-path="url(#p6958fdc63c)" d="M 245.760439 215.568523 
L 262.074737 215.568523 
L 262.074737 205.038741 
L 245.760439 205.038741 
z
" style="fill:#3cb44b;"/>
   </g>
   <g id="patch_127">
    <path clip-path="url(#p6958fdc63c)" d="M 266.153312 380.096368 
L 282.467611 380.096368 
L 282.467611 364.301695 
L 266.153312 364.301695 
z
" style="fill:#3cb44b;"/>
   </g>
   <g id="patch_128">
    <path clip-path="url(#p6958fdc63c)" d="M 286.546185 374.831477 
L 302.860484 374.831477 
L 302.860484 361.669249 
L 286.546185 361.669249 
z
" style="fill:#3cb44b;"/>
   </g>
   <g id="patch_129">
    <path clip-path="url(#p6958fdc63c)" d="M 306.939059 132.646489 
L 323.253358 132.646489 
L 323.253358 127.381598 
L 306.939059 127.381598 
z
" style="fill:#3cb44b;"/>
   </g>
   <g id="patch_130">
    <path clip-path="url(#p6958fdc63c)" d="M 327.331932 202.406295 
L 343.646231 202.406295 
L 343.646231 189.244068 
L 327.331932 189.244068 
z
" style="fill:#3cb44b;"/>
   </g>
   <g id="patch_131">
    <path clip-path="url(#p6958fdc63c)" d="M 347.724806 118.168039 
L 364.039105 118.168039 
L 364.039105 101.057143 
L 347.724806 101.057143 
z
" style="fill:#3cb44b;"/>
   </g>
   <g id="patch_132">
    <path clip-path="url(#p6958fdc63c)" d="M 368.117679 178.714286 
L 384.431978 178.714286 
L 384.431978 164.235835 
L 368.117679 164.235835 
z
" style="fill:#3cb44b;"/>
   </g>
   <g id="patch_133">
    <path clip-path="url(#p6958fdc63c)" d="M 388.510553 183.979177 
L 404.824852 183.979177 
L 404.824852 162.919613 
L 388.510553 162.919613 
z
" style="fill:#3cb44b;"/>
   </g>
   <g id="patch_134">
    <path clip-path="url(#p6958fdc63c)" d="M 408.903426 337.97724 
L 425.217725 337.97724 
L 425.217725 332.712349 
L 408.903426 332.712349 
z
" style="fill:#3cb44b;"/>
   </g>
   <g id="patch_135">
    <path clip-path="url(#p6958fdc63c)" d="M 429.2963 311.652785 
L 445.610598 311.652785 
L 445.610598 297.174334 
L 429.2963 297.174334 
z
" style="fill:#3cb44b;"/>
   </g>
   <g id="patch_136">
    <path clip-path="url(#p6958fdc63c)" d="M 449.689173 237.94431 
L 466.003472 237.94431 
L 466.003472 230.046973 
L 449.689173 230.046973 
z
" style="fill:#3cb44b;"/>
   </g>
   <g id="patch_137">
    <path clip-path="url(#p6958fdc63c)" d="M 470.082047 161.60339 
L 486.396345 161.60339 
L 486.396345 155.022276 
L 470.082047 155.022276 
z
" style="fill:#3cb44b;"/>
   </g>
   <g id="patch_138">
    <path clip-path="url(#p6958fdc63c)" d="M 490.47492 187.927845 
L 506.789219 187.927845 
L 506.789219 177.398063 
L 490.47492 177.398063 
z
" style="fill:#3cb44b;"/>
   </g>
   <g id="patch_139">
    <path clip-path="url(#p6958fdc63c)" d="M 510.867794 219.517191 
L 527.182092 219.517191 
L 527.182092 211.619855 
L 510.867794 211.619855 
z
" style="fill:#3cb44b;"/>
   </g>
   <g id="patch_140">
    <path clip-path="url(#p6958fdc63c)" d="M 531.260667 158.970944 
L 547.574966 158.970944 
L 547.574966 152.389831 
L 531.260667 152.389831 
z
" style="fill:#3cb44b;"/>
   </g>
   <g id="patch_141">
    <path clip-path="url(#p6958fdc63c)" d="M 551.65354 368.250363 
L 567.967839 368.250363 
L 567.967839 357.720581 
L 551.65354 357.720581 
z
" style="fill:#3cb44b;"/>
   </g>
   <g id="patch_142">
    <path clip-path="url(#p6958fdc63c)" d="M 572.046414 316.917676 
L 588.360713 316.917676 
L 588.360713 314.28523 
L 572.046414 314.28523 
z
" style="fill:#3cb44b;"/>
   </g>
   <g id="patch_143">
    <path clip-path="url(#p6958fdc63c)" d="M 592.439287 215.568523 
L 608.753586 215.568523 
L 608.753586 212.936077 
L 592.439287 212.936077 
z
" style="fill:#3cb44b;"/>
   </g>
   <g id="patch_144">
    <path clip-path="url(#p6958fdc63c)" d="M 612.832161 207.671186 
L 629.14646 207.671186 
L 629.14646 190.560291 
L 612.832161 190.560291 
z
" style="fill:#3cb44b;"/>
   </g>
   <g id="patch_145">
    <path clip-path="url(#p6958fdc63c)" d="M 633.225034 180.030508 
L 649.539333 180.030508 
L 649.539333 165.552058 
L 633.225034 165.552058 
z
" style="fill:#3cb44b;"/>
   </g>
   <g id="patch_146">
    <path clip-path="url(#p6958fdc63c)" d="M 653.617908 152.389831 
L 669.932206 152.389831 
L 669.932206 132.646489 
L 653.617908 132.646489 
z
" style="fill:#3cb44b;"/>
   </g>
   <g id="patch_147">
    <path clip-path="url(#p6958fdc63c)" d="M 674.010781 306.387893 
L 690.32508 306.387893 
L 690.32508 302.439225 
L 674.010781 302.439225 
z
" style="fill:#3cb44b;"/>
   </g>
   <g id="patch_148">
    <path clip-path="url(#p6958fdc63c)" d="M 694.403655 322.182567 
L 710.717953 322.182567 
L 710.717953 312.969007 
L 694.403655 312.969007 
z
" style="fill:#3cb44b;"/>
   </g>
   <g id="patch_149">
    <path clip-path="url(#p6958fdc63c)" d="M 714.796528 387.993705 
L 731.110827 387.993705 
L 731.110827 378.780145 
L 714.796528 378.780145 
z
" style="fill:#3cb44b;"/>
   </g>
   <g id="patch_150">
    <path clip-path="url(#p6958fdc63c)" d="M 735.189402 347.190799 
L 751.5037 347.190799 
L 751.5037 332.712349 
L 735.189402 332.712349 
z
" style="fill:#3cb44b;"/>
   </g>
   <g id="patch_151">
    <path clip-path="url(#p6958fdc63c)" d="M 755.582275 222.149637 
L 771.896574 222.149637 
L 771.896574 220.833414 
L 755.582275 220.833414 
z
" style="fill:#3cb44b;"/>
   </g>
   <g id="patch_152">
    <path clip-path="url(#p6958fdc63c)" d="M 775.975148 241.892978 
L 792.289447 241.892978 
L 792.289447 227.414528 
L 775.975148 227.414528 
z
" style="fill:#3cb44b;"/>
   </g>
   <g id="patch_153">
    <path clip-path="url(#p6958fdc63c)" d="M 796.368022 232.679419 
L 812.682321 232.679419 
L 812.682321 212.936077 
L 796.368022 212.936077 
z
" style="fill:#3cb44b;"/>
   </g>
   <g id="patch_154">
    <path clip-path="url(#p6958fdc63c)" d="M 816.760895 139.227603 
L 833.075194 139.227603 
L 833.075194 119.484262 
L 816.760895 119.484262 
z
" style="fill:#3cb44b;"/>
   </g>
   <g id="patch_155">
    <path clip-path="url(#p6958fdc63c)" d="M 837.153769 319.550121 
L 853.468068 319.550121 
L 853.468068 299.80678 
L 837.153769 299.80678 
z
" style="fill:#3cb44b;"/>
   </g>
   <g id="patch_156">
    <path clip-path="url(#p6958fdc63c)" d="M 857.546642 359.036804 
L 873.860941 359.036804 
L 873.860941 314.28523 
L 857.546642 314.28523 
z
" style="fill:#3cb44b;"/>
   </g>
   <g id="patch_157">
    <path clip-path="url(#p6958fdc63c)" d="M 877.939516 190.560291 
L 894.253815 190.560291 
L 894.253815 151.073608 
L 877.939516 151.073608 
z
" style="fill:#3cb44b;"/>
   </g>
   <g id="patch_158">
    <path clip-path="url(#p6958fdc63c)" d="M 898.332389 253.738983 
L 914.646688 253.738983 
L 914.646688 223.46586 
L 898.332389 223.46586 
z
" style="fill:#3cb44b;"/>
   </g>
   <g id="patch_159">
    <path clip-path="url(#p6958fdc63c)" d="M 918.725263 189.244068 
L 935.039561 189.244068 
L 935.039561 166.868281 
L 918.725263 166.868281 
z
" style="fill:#3cb44b;"/>
   </g>
   <g id="patch_160">
    <path clip-path="url(#p6958fdc63c)" d="M 939.118136 189.244068 
L 955.432435 189.244068 
L 955.432435 169.500726 
L 939.118136 169.500726 
z
" style="fill:#3cb44b;"/>
   </g>
   <g id="patch_161">
    <path clip-path="url(#p6958fdc63c)" d="M 959.51101 239.260533 
L 975.825308 239.260533 
L 975.825308 215.568523 
L 959.51101 215.568523 
z
" style="fill:#3cb44b;"/>
   </g>
   <g id="patch_162">
    <path clip-path="url(#p6958fdc63c)" d="M 979.903883 449.856174 
L 996.218182 449.856174 
L 996.218182 444.591283 
L 979.903883 444.591283 
z
" style="fill:#3cb44b;"/>
   </g>
   <g id="matplotlib.axis_1">
    <g id="xtick_1">
     <g id="line2d_1">
      <defs>
       <path d="M 0 0 
L 0 3.5 
" id="mc7ae0c82f0" style="stroke:#000000;stroke-width:0.8;"/>
      </defs>
      <g>
       <use style="stroke:#000000;stroke-width:0.8;" x="192.738968" xlink:href="#mc7ae0c82f0" y="567"/>
      </g>
     </g>
     <g id="text_1">
      <!-- T -->
      <defs>
       <path d="M -0.296875 72.90625 
L 61.375 72.90625 
L 61.375 64.59375 
L 35.5 64.59375 
L 35.5 0 
L 25.59375 0 
L 25.59375 64.59375 
L -0.296875 64.59375 
z
" id="DejaVuSans-54"/>
      </defs>
      <g transform="translate(189.685061 581.598438)scale(0.1 -0.1)">
       <use xlink:href="#DejaVuSans-54"/>
      </g>
     </g>
    </g>
    <g id="xtick_2">
     <g id="line2d_2">
      <g>
       <use style="stroke:#000000;stroke-width:0.8;" x="213.131841" xlink:href="#mc7ae0c82f0" y="567"/>
      </g>
     </g>
     <g id="text_2">
      <!-- W -->
      <defs>
       <path d="M 3.328125 72.90625 
L 13.28125 72.90625 
L 28.609375 11.28125 
L 43.890625 72.90625 
L 54.984375 72.90625 
L 70.3125 11.28125 
L 85.59375 72.90625 
L 95.609375 72.90625 
L 77.296875 0 
L 64.890625 0 
L 49.515625 63.28125 
L 33.984375 0 
L 21.578125 0 
z
" id="DejaVuSans-57"/>
      </defs>
      <g transform="translate(208.188091 581.598438)scale(0.1 -0.1)">
       <use xlink:href="#DejaVuSans-57"/>
      </g>
     </g>
    </g>
    <g id="xtick_3">
     <g id="line2d_3">
      <g>
       <use style="stroke:#000000;stroke-width:0.8;" x="233.524714" xlink:href="#mc7ae0c82f0" y="567"/>
      </g>
     </g>
     <g id="text_3">
      <!-- T -->
      <g transform="translate(230.470808 581.598438)scale(0.1 -0.1)">
       <use xlink:href="#DejaVuSans-54"/>
      </g>
     </g>
    </g>
    <g id="xtick_4">
     <g id="line2d_4">
      <g>
       <use style="stroke:#000000;stroke-width:0.8;" x="253.917588" xlink:href="#mc7ae0c82f0" y="567"/>
      </g>
     </g>
     <g id="text_4">
      <!-- F -->
      <defs>
       <path d="M 9.8125 72.90625 
L 51.703125 72.90625 
L 51.703125 64.59375 
L 19.671875 64.59375 
L 19.671875 43.109375 
L 48.578125 43.109375 
L 48.578125 34.8125 
L 19.671875 34.8125 
L 19.671875 0 
L 9.8125 0 
z
" id="DejaVuSans-46"/>
      </defs>
      <g transform="translate(251.041807 581.598438)scale(0.1 -0.1)">
       <use xlink:href="#DejaVuSans-46"/>
      </g>
     </g>
    </g>
    <g id="xtick_5">
     <g id="line2d_5">
      <g>
       <use style="stroke:#000000;stroke-width:0.8;" x="274.310461" xlink:href="#mc7ae0c82f0" y="567"/>
      </g>
     </g>
     <g id="text_5">
      <!-- S -->
      <defs>
       <path d="M 53.515625 70.515625 
L 53.515625 60.890625 
Q 47.90625 63.578125 42.921875 64.890625 
Q 37.9375 66.21875 33.296875 66.21875 
Q 25.25 66.21875 20.875 63.09375 
Q 16.5 59.96875 16.5 54.203125 
Q 16.5 49.359375 19.40625 46.890625 
Q 22.3125 44.4375 30.421875 42.921875 
L 36.375 41.703125 
Q 47.40625 39.59375 52.65625 34.296875 
Q 57.90625 29 57.90625 20.125 
Q 57.90625 9.515625 50.796875 4.046875 
Q 43.703125 -1.421875 29.984375 -1.421875 
Q 24.8125 -1.421875 18.96875 -0.25 
Q 13.140625 0.921875 6.890625 3.21875 
L 6.890625 13.375 
Q 12.890625 10.015625 18.65625 8.296875 
Q 24.421875 6.59375 29.984375 6.59375 
Q 38.421875 6.59375 43.015625 9.90625 
Q 47.609375 13.234375 47.609375 19.390625 
Q 47.609375 24.75 44.3125 27.78125 
Q 41.015625 30.8125 33.5 32.328125 
L 27.484375 33.5 
Q 16.453125 35.6875 11.515625 40.375 
Q 6.59375 45.0625 6.59375 53.421875 
Q 6.59375 63.09375 13.40625 68.65625 
Q 20.21875 74.21875 32.171875 74.21875 
Q 37.3125 74.21875 42.625 73.28125 
Q 47.953125 72.359375 53.515625 70.515625 
z
" id="DejaVuSans-53"/>
      </defs>
      <g transform="translate(271.136243 581.598438)scale(0.1 -0.1)">
       <use xlink:href="#DejaVuSans-53"/>
      </g>
     </g>
    </g>
    <g id="xtick_6">
     <g id="line2d_6">
      <g>
       <use style="stroke:#000000;stroke-width:0.8;" x="294.703335" xlink:href="#mc7ae0c82f0" y="567"/>
      </g>
     </g>
     <g id="text_6">
      <!-- S -->
      <g transform="translate(291.529116 581.598438)scale(0.1 -0.1)">
       <use xlink:href="#DejaVuSans-53"/>
      </g>
     </g>
    </g>
    <g id="xtick_7">
     <g id="line2d_7">
      <g>
       <use style="stroke:#000000;stroke-width:0.8;" x="315.096208" xlink:href="#mc7ae0c82f0" y="567"/>
      </g>
     </g>
     <g id="text_7">
      <!-- M -->
      <defs>
       <path d="M 9.8125 72.90625 
L 24.515625 72.90625 
L 43.109375 23.296875 
L 61.8125 72.90625 
L 76.515625 72.90625 
L 76.515625 0 
L 66.890625 0 
L 66.890625 64.015625 
L 48.09375 14.015625 
L 38.1875 14.015625 
L 19.390625 64.015625 
L 19.390625 0 
L 9.8125 0 
z
" id="DejaVuSans-4d"/>
      </defs>
      <g transform="translate(310.782146 581.598438)scale(0.1 -0.1)">
       <use xlink:href="#DejaVuSans-4d"/>
      </g>
     </g>
    </g>
    <g id="xtick_8">
     <g id="line2d_8">
      <g>
       <use style="stroke:#000000;stroke-width:0.8;" x="335.489082" xlink:href="#mc7ae0c82f0" y="567"/>
      </g>
     </g>
     <g id="text_8">
      <!-- T -->
      <g transform="translate(332.435176 581.598438)scale(0.1 -0.1)">
       <use xlink:href="#DejaVuSans-54"/>
      </g>
     </g>
    </g>
    <g id="xtick_9">
     <g id="line2d_9">
      <g>
       <use style="stroke:#000000;stroke-width:0.8;" x="355.881955" xlink:href="#mc7ae0c82f0" y="567"/>
      </g>
     </g>
     <g id="text_9">
      <!-- W -->
      <g transform="translate(350.938205 581.598438)scale(0.1 -0.1)">
       <use xlink:href="#DejaVuSans-57"/>
      </g>
     </g>
    </g>
    <g id="xtick_10">
     <g id="line2d_10">
      <g>
       <use style="stroke:#000000;stroke-width:0.8;" x="376.274829" xlink:href="#mc7ae0c82f0" y="567"/>
      </g>
     </g>
     <g id="text_10">
      <!-- T -->
      <g transform="translate(373.220922 581.598438)scale(0.1 -0.1)">
       <use xlink:href="#DejaVuSans-54"/>
      </g>
     </g>
    </g>
    <g id="xtick_11">
     <g id="line2d_11">
      <g>
       <use style="stroke:#000000;stroke-width:0.8;" x="396.667702" xlink:href="#mc7ae0c82f0" y="567"/>
      </g>
     </g>
     <g id="text_11">
      <!-- F -->
      <g transform="translate(393.791921 581.598438)scale(0.1 -0.1)">
       <use xlink:href="#DejaVuSans-46"/>
      </g>
     </g>
    </g>
    <g id="xtick_12">
     <g id="line2d_12">
      <g>
       <use style="stroke:#000000;stroke-width:0.8;" x="417.060576" xlink:href="#mc7ae0c82f0" y="567"/>
      </g>
     </g>
     <g id="text_12">
      <!-- S -->
      <g transform="translate(413.886357 581.598438)scale(0.1 -0.1)">
       <use xlink:href="#DejaVuSans-53"/>
      </g>
     </g>
    </g>
    <g id="xtick_13">
     <g id="line2d_13">
      <g>
       <use style="stroke:#000000;stroke-width:0.8;" x="437.453449" xlink:href="#mc7ae0c82f0" y="567"/>
      </g>
     </g>
     <g id="text_13">
      <!-- S -->
      <g transform="translate(434.27923 581.598438)scale(0.1 -0.1)">
       <use xlink:href="#DejaVuSans-53"/>
      </g>
     </g>
    </g>
    <g id="xtick_14">
     <g id="line2d_14">
      <g>
       <use style="stroke:#000000;stroke-width:0.8;" x="457.846323" xlink:href="#mc7ae0c82f0" y="567"/>
      </g>
     </g>
     <g id="text_14">
      <!-- M -->
      <g transform="translate(453.53226 581.598438)scale(0.1 -0.1)">
       <use xlink:href="#DejaVuSans-4d"/>
      </g>
     </g>
    </g>
    <g id="xtick_15">
     <g id="line2d_15">
      <g>
       <use style="stroke:#000000;stroke-width:0.8;" x="478.239196" xlink:href="#mc7ae0c82f0" y="567"/>
      </g>
     </g>
     <g id="text_15">
      <!-- T -->
      <g transform="translate(475.18529 581.598438)scale(0.1 -0.1)">
       <use xlink:href="#DejaVuSans-54"/>
      </g>
     </g>
    </g>
    <g id="xtick_16">
     <g id="line2d_16">
      <g>
       <use style="stroke:#000000;stroke-width:0.8;" x="498.632069" xlink:href="#mc7ae0c82f0" y="567"/>
      </g>
     </g>
     <g id="text_16">
      <!-- W -->
      <g transform="translate(493.688319 581.598438)scale(0.1 -0.1)">
       <use xlink:href="#DejaVuSans-57"/>
      </g>
     </g>
    </g>
    <g id="xtick_17">
     <g id="line2d_17">
      <g>
       <use style="stroke:#000000;stroke-width:0.8;" x="519.024943" xlink:href="#mc7ae0c82f0" y="567"/>
      </g>
     </g>
     <g id="text_17">
      <!-- T -->
      <g transform="translate(515.971037 581.598438)scale(0.1 -0.1)">
       <use xlink:href="#DejaVuSans-54"/>
      </g>
     </g>
    </g>
    <g id="xtick_18">
     <g id="line2d_18">
      <g>
       <use style="stroke:#000000;stroke-width:0.8;" x="539.417816" xlink:href="#mc7ae0c82f0" y="567"/>
      </g>
     </g>
     <g id="text_18">
      <!-- F -->
      <g transform="translate(536.542035 581.598438)scale(0.1 -0.1)">
       <use xlink:href="#DejaVuSans-46"/>
      </g>
     </g>
    </g>
    <g id="xtick_19">
     <g id="line2d_19">
      <g>
       <use style="stroke:#000000;stroke-width:0.8;" x="559.81069" xlink:href="#mc7ae0c82f0" y="567"/>
      </g>
     </g>
     <g id="text_19">
      <!-- S -->
      <g transform="translate(556.636471 581.598438)scale(0.1 -0.1)">
       <use xlink:href="#DejaVuSans-53"/>
      </g>
     </g>
    </g>
    <g id="xtick_20">
     <g id="line2d_20">
      <g>
       <use style="stroke:#000000;stroke-width:0.8;" x="580.203563" xlink:href="#mc7ae0c82f0" y="567"/>
      </g>
     </g>
     <g id="text_20">
      <!-- S -->
      <g transform="translate(577.029345 581.598438)scale(0.1 -0.1)">
       <use xlink:href="#DejaVuSans-53"/>
      </g>
     </g>
    </g>
    <g id="xtick_21">
     <g id="line2d_21">
      <g>
       <use style="stroke:#000000;stroke-width:0.8;" x="600.596437" xlink:href="#mc7ae0c82f0" y="567"/>
      </g>
     </g>
     <g id="text_21">
      <!-- M -->
      <g transform="translate(596.282374 581.598438)scale(0.1 -0.1)">
       <use xlink:href="#DejaVuSans-4d"/>
      </g>
     </g>
    </g>
    <g id="xtick_22">
     <g id="line2d_22">
      <g>
       <use style="stroke:#000000;stroke-width:0.8;" x="620.98931" xlink:href="#mc7ae0c82f0" y="567"/>
      </g>
     </g>
     <g id="text_22">
      <!-- T -->
      <g transform="translate(617.935404 581.598438)scale(0.1 -0.1)">
       <use xlink:href="#DejaVuSans-54"/>
      </g>
     </g>
    </g>
    <g id="xtick_23">
     <g id="line2d_23">
      <g>
       <use style="stroke:#000000;stroke-width:0.8;" x="641.382184" xlink:href="#mc7ae0c82f0" y="567"/>
      </g>
     </g>
     <g id="text_23">
      <!-- W -->
      <g transform="translate(636.438434 581.598438)scale(0.1 -0.1)">
       <use xlink:href="#DejaVuSans-57"/>
      </g>
     </g>
    </g>
    <g id="xtick_24">
     <g id="line2d_24">
      <g>
       <use style="stroke:#000000;stroke-width:0.8;" x="661.775057" xlink:href="#mc7ae0c82f0" y="567"/>
      </g>
     </g>
     <g id="text_24">
      <!-- T -->
      <g transform="translate(658.721151 581.598438)scale(0.1 -0.1)">
       <use xlink:href="#DejaVuSans-54"/>
      </g>
     </g>
    </g>
    <g id="xtick_25">
     <g id="line2d_25">
      <g>
       <use style="stroke:#000000;stroke-width:0.8;" x="682.167931" xlink:href="#mc7ae0c82f0" y="567"/>
      </g>
     </g>
     <g id="text_25">
      <!-- F -->
      <g transform="translate(679.292149 581.598438)scale(0.1 -0.1)">
       <use xlink:href="#DejaVuSans-46"/>
      </g>
     </g>
    </g>
    <g id="xtick_26">
     <g id="line2d_26">
      <g>
       <use style="stroke:#000000;stroke-width:0.8;" x="702.560804" xlink:href="#mc7ae0c82f0" y="567"/>
      </g>
     </g>
     <g id="text_26">
      <!-- S -->
      <g transform="translate(699.386585 581.598438)scale(0.1 -0.1)">
       <use xlink:href="#DejaVuSans-53"/>
      </g>
     </g>
    </g>
    <g id="xtick_27">
     <g id="line2d_27">
      <g>
       <use style="stroke:#000000;stroke-width:0.8;" x="722.953677" xlink:href="#mc7ae0c82f0" y="567"/>
      </g>
     </g>
     <g id="text_27">
      <!-- S -->
      <g transform="translate(719.779459 581.598438)scale(0.1 -0.1)">
       <use xlink:href="#DejaVuSans-53"/>
      </g>
     </g>
    </g>
    <g id="xtick_28">
     <g id="line2d_28">
      <g>
       <use style="stroke:#000000;stroke-width:0.8;" x="743.346551" xlink:href="#mc7ae0c82f0" y="567"/>
      </g>
     </g>
     <g id="text_28">
      <!-- M -->
      <g transform="translate(739.032488 581.598438)scale(0.1 -0.1)">
       <use xlink:href="#DejaVuSans-4d"/>
      </g>
     </g>
    </g>
    <g id="xtick_29">
     <g id="line2d_29">
      <g>
       <use style="stroke:#000000;stroke-width:0.8;" x="763.739424" xlink:href="#mc7ae0c82f0" y="567"/>
      </g>
     </g>
     <g id="text_29">
      <!-- T -->
      <g transform="translate(760.685518 581.598438)scale(0.1 -0.1)">
       <use xlink:href="#DejaVuSans-54"/>
      </g>
     </g>
    </g>
    <g id="xtick_30">
     <g id="line2d_30">
      <g>
       <use style="stroke:#000000;stroke-width:0.8;" x="784.132298" xlink:href="#mc7ae0c82f0" y="567"/>
      </g>
     </g>
     <g id="text_30">
      <!-- W -->
      <g transform="translate(779.188548 581.598438)scale(0.1 -0.1)">
       <use xlink:href="#DejaVuSans-57"/>
      </g>
     </g>
    </g>
    <g id="xtick_31">
     <g id="line2d_31">
      <g>
       <use style="stroke:#000000;stroke-width:0.8;" x="804.525171" xlink:href="#mc7ae0c82f0" y="567"/>
      </g>
     </g>
     <g id="text_31">
      <!-- T -->
      <g transform="translate(801.471265 581.598438)scale(0.1 -0.1)">
       <use xlink:href="#DejaVuSans-54"/>
      </g>
     </g>
    </g>
    <g id="xtick_32">
     <g id="line2d_32">
      <g>
       <use style="stroke:#000000;stroke-width:0.8;" x="824.918045" xlink:href="#mc7ae0c82f0" y="567"/>
      </g>
     </g>
     <g id="text_32">
      <!-- F -->
      <g transform="translate(822.042264 581.598438)scale(0.1 -0.1)">
       <use xlink:href="#DejaVuSans-46"/>
      </g>
     </g>
    </g>
    <g id="xtick_33">
     <g id="line2d_33">
      <g>
       <use style="stroke:#000000;stroke-width:0.8;" x="845.310918" xlink:href="#mc7ae0c82f0" y="567"/>
      </g>
     </g>
     <g id="text_33">
      <!-- S -->
      <g transform="translate(842.136699 581.598438)scale(0.1 -0.1)">
       <use xlink:href="#DejaVuSans-53"/>
      </g>
     </g>
    </g>
    <g id="xtick_34">
     <g id="line2d_34">
      <g>
       <use style="stroke:#000000;stroke-width:0.8;" x="865.703792" xlink:href="#mc7ae0c82f0" y="567"/>
      </g>
     </g>
     <g id="text_34">
      <!-- S -->
      <g transform="translate(862.529573 581.598438)scale(0.1 -0.1)">
       <use xlink:href="#DejaVuSans-53"/>
      </g>
     </g>
    </g>
    <g id="xtick_35">
     <g id="line2d_35">
      <g>
       <use style="stroke:#000000;stroke-width:0.8;" x="886.096665" xlink:href="#mc7ae0c82f0" y="567"/>
      </g>
     </g>
     <g id="text_35">
      <!-- M -->
      <g transform="translate(881.782603 581.598438)scale(0.1 -0.1)">
       <use xlink:href="#DejaVuSans-4d"/>
      </g>
     </g>
    </g>
    <g id="xtick_36">
     <g id="line2d_36">
      <g>
       <use style="stroke:#000000;stroke-width:0.8;" x="906.489539" xlink:href="#mc7ae0c82f0" y="567"/>
      </g>
     </g>
     <g id="text_36">
      <!-- T -->
      <g transform="translate(903.435632 581.598438)scale(0.1 -0.1)">
       <use xlink:href="#DejaVuSans-54"/>
      </g>
     </g>
    </g>
    <g id="xtick_37">
     <g id="line2d_37">
      <g>
       <use style="stroke:#000000;stroke-width:0.8;" x="926.882412" xlink:href="#mc7ae0c82f0" y="567"/>
      </g>
     </g>
     <g id="text_37">
      <!-- W -->
      <g transform="translate(921.938662 581.598438)scale(0.1 -0.1)">
       <use xlink:href="#DejaVuSans-57"/>
      </g>
     </g>
    </g>
    <g id="xtick_38">
     <g id="line2d_38">
      <g>
       <use style="stroke:#000000;stroke-width:0.8;" x="947.275286" xlink:href="#mc7ae0c82f0" y="567"/>
      </g>
     </g>
     <g id="text_38">
      <!-- T -->
      <g transform="translate(944.221379 581.598438)scale(0.1 -0.1)">
       <use xlink:href="#DejaVuSans-54"/>
      </g>
     </g>
    </g>
    <g id="xtick_39">
     <g id="line2d_39">
      <g>
       <use style="stroke:#000000;stroke-width:0.8;" x="967.668159" xlink:href="#mc7ae0c82f0" y="567"/>
      </g>
     </g>
     <g id="text_39">
      <!-- F -->
      <g transform="translate(964.792378 581.598438)scale(0.1 -0.1)">
       <use xlink:href="#DejaVuSans-46"/>
      </g>
     </g>
    </g>
    <g id="xtick_40">
     <g id="line2d_40">
      <g>
       <use style="stroke:#000000;stroke-width:0.8;" x="988.061032" xlink:href="#mc7ae0c82f0" y="567"/>
      </g>
     </g>
     <g id="text_40">
      <!-- S -->
      <g transform="translate(984.886814 581.598438)scale(0.1 -0.1)">
       <use xlink:href="#DejaVuSans-53"/>
      </g>
     </g>
    </g>
    <g id="xtick_41">
     <g id="line2d_41">
      <defs>
       <path d="M 0 0 
L 0 2 
" id="md3b14261b4" style="stroke:#000000;stroke-width:0.6;"/>
      </defs>
      <g>
       <use style="stroke:#000000;stroke-width:0.6;" x="192.738968" xlink:href="#md3b14261b4" y="567"/>
      </g>
     </g>
    </g>
    <g id="xtick_42">
     <g id="line2d_42">
      <g>
       <use style="stroke:#000000;stroke-width:0.6;" x="213.131841" xlink:href="#md3b14261b4" y="567"/>
      </g>
     </g>
    </g>
    <g id="xtick_43">
     <g id="line2d_43">
      <g>
       <use style="stroke:#000000;stroke-width:0.6;" x="233.524714" xlink:href="#md3b14261b4" y="567"/>
      </g>
     </g>
    </g>
    <g id="xtick_44">
     <g id="line2d_44">
      <g>
       <use style="stroke:#000000;stroke-width:0.6;" x="253.917588" xlink:href="#md3b14261b4" y="567"/>
      </g>
     </g>
    </g>
    <g id="xtick_45">
     <g id="line2d_45">
      <g>
       <use style="stroke:#000000;stroke-width:0.6;" x="274.310461" xlink:href="#md3b14261b4" y="567"/>
      </g>
     </g>
    </g>
    <g id="xtick_46">
     <g id="line2d_46">
      <g>
       <use style="stroke:#000000;stroke-width:0.6;" x="294.703335" xlink:href="#md3b14261b4" y="567"/>
      </g>
     </g>
    </g>
    <g id="xtick_47">
     <g id="line2d_47">
      <g>
       <use style="stroke:#000000;stroke-width:0.6;" x="315.096208" xlink:href="#md3b14261b4" y="567"/>
      </g>
     </g>
    </g>
    <g id="xtick_48">
     <g id="line2d_48">
      <g>
       <use style="stroke:#000000;stroke-width:0.6;" x="335.489082" xlink:href="#md3b14261b4" y="567"/>
      </g>
     </g>
    </g>
    <g id="xtick_49">
     <g id="line2d_49">
      <g>
       <use style="stroke:#000000;stroke-width:0.6;" x="355.881955" xlink:href="#md3b14261b4" y="567"/>
      </g>
     </g>
    </g>
    <g id="xtick_50">
     <g id="line2d_50">
      <g>
       <use style="stroke:#000000;stroke-width:0.6;" x="376.274829" xlink:href="#md3b14261b4" y="567"/>
      </g>
     </g>
    </g>
    <g id="xtick_51">
     <g id="line2d_51">
      <g>
       <use style="stroke:#000000;stroke-width:0.6;" x="396.667702" xlink:href="#md3b14261b4" y="567"/>
      </g>
     </g>
    </g>
    <g id="xtick_52">
     <g id="line2d_52">
      <g>
       <use style="stroke:#000000;stroke-width:0.6;" x="417.060576" xlink:href="#md3b14261b4" y="567"/>
      </g>
     </g>
    </g>
    <g id="xtick_53">
     <g id="line2d_53">
      <g>
       <use style="stroke:#000000;stroke-width:0.6;" x="437.453449" xlink:href="#md3b14261b4" y="567"/>
      </g>
     </g>
    </g>
    <g id="xtick_54">
     <g id="line2d_54">
      <g>
       <use style="stroke:#000000;stroke-width:0.6;" x="457.846323" xlink:href="#md3b14261b4" y="567"/>
      </g>
     </g>
    </g>
    <g id="xtick_55">
     <g id="line2d_55">
      <g>
       <use style="stroke:#000000;stroke-width:0.6;" x="478.239196" xlink:href="#md3b14261b4" y="567"/>
      </g>
     </g>
    </g>
    <g id="xtick_56">
     <g id="line2d_56">
      <g>
       <use style="stroke:#000000;stroke-width:0.6;" x="498.632069" xlink:href="#md3b14261b4" y="567"/>
      </g>
     </g>
    </g>
    <g id="xtick_57">
     <g id="line2d_57">
      <g>
       <use style="stroke:#000000;stroke-width:0.6;" x="519.024943" xlink:href="#md3b14261b4" y="567"/>
      </g>
     </g>
    </g>
    <g id="xtick_58">
     <g id="line2d_58">
      <g>
       <use style="stroke:#000000;stroke-width:0.6;" x="539.417816" xlink:href="#md3b14261b4" y="567"/>
      </g>
     </g>
    </g>
    <g id="xtick_59">
     <g id="line2d_59">
      <g>
       <use style="stroke:#000000;stroke-width:0.6;" x="559.81069" xlink:href="#md3b14261b4" y="567"/>
      </g>
     </g>
    </g>
    <g id="xtick_60">
     <g id="line2d_60">
      <g>
       <use style="stroke:#000000;stroke-width:0.6;" x="580.203563" xlink:href="#md3b14261b4" y="567"/>
      </g>
     </g>
    </g>
    <g id="xtick_61">
     <g id="line2d_61">
      <g>
       <use style="stroke:#000000;stroke-width:0.6;" x="600.596437" xlink:href="#md3b14261b4" y="567"/>
      </g>
     </g>
    </g>
    <g id="xtick_62">
     <g id="line2d_62">
      <g>
       <use style="stroke:#000000;stroke-width:0.6;" x="620.98931" xlink:href="#md3b14261b4" y="567"/>
      </g>
     </g>
    </g>
    <g id="xtick_63">
     <g id="line2d_63">
      <g>
       <use style="stroke:#000000;stroke-width:0.6;" x="641.382184" xlink:href="#md3b14261b4" y="567"/>
      </g>
     </g>
    </g>
    <g id="xtick_64">
     <g id="line2d_64">
      <g>
       <use style="stroke:#000000;stroke-width:0.6;" x="661.775057" xlink:href="#md3b14261b4" y="567"/>
      </g>
     </g>
    </g>
    <g id="xtick_65">
     <g id="line2d_65">
      <g>
       <use style="stroke:#000000;stroke-width:0.6;" x="682.167931" xlink:href="#md3b14261b4" y="567"/>
      </g>
     </g>
    </g>
    <g id="xtick_66">
     <g id="line2d_66">
      <g>
       <use style="stroke:#000000;stroke-width:0.6;" x="702.560804" xlink:href="#md3b14261b4" y="567"/>
      </g>
     </g>
    </g>
    <g id="xtick_67">
     <g id="line2d_67">
      <g>
       <use style="stroke:#000000;stroke-width:0.6;" x="722.953677" xlink:href="#md3b14261b4" y="567"/>
      </g>
     </g>
    </g>
    <g id="xtick_68">
     <g id="line2d_68">
      <g>
       <use style="stroke:#000000;stroke-width:0.6;" x="743.346551" xlink:href="#md3b14261b4" y="567"/>
      </g>
     </g>
    </g>
    <g id="xtick_69">
     <g id="line2d_69">
      <g>
       <use style="stroke:#000000;stroke-width:0.6;" x="763.739424" xlink:href="#md3b14261b4" y="567"/>
      </g>
     </g>
    </g>
    <g id="xtick_70">
     <g id="line2d_70">
      <g>
       <use style="stroke:#000000;stroke-width:0.6;" x="784.132298" xlink:href="#md3b14261b4" y="567"/>
      </g>
     </g>
    </g>
    <g id="xtick_71">
     <g id="line2d_71">
      <g>
       <use style="stroke:#000000;stroke-width:0.6;" x="804.525171" xlink:href="#md3b14261b4" y="567"/>
      </g>
     </g>
    </g>
    <g id="xtick_72">
     <g id="line2d_72">
      <g>
       <use style="stroke:#000000;stroke-width:0.6;" x="824.918045" xlink:href="#md3b14261b4" y="567"/>
      </g>
     </g>
    </g>
    <g id="xtick_73">
     <g id="line2d_73">
      <g>
       <use style="stroke:#000000;stroke-width:0.6;" x="845.310918" xlink:href="#md3b14261b4" y="567"/>
      </g>
     </g>
    </g>
    <g id="xtick_74">
     <g id="line2d_74">
      <g>
       <use style="stroke:#000000;stroke-width:0.6;" x="865.703792" xlink:href="#md3b14261b4" y="567"/>
      </g>
     </g>
    </g>
    <g id="xtick_75">
     <g id="line2d_75">
      <g>
       <use style="stroke:#000000;stroke-width:0.6;" x="886.096665" xlink:href="#md3b14261b4" y="567"/>
      </g>
     </g>
    </g>
    <g id="xtick_76">
     <g id="line2d_76">
      <g>
       <use style="stroke:#000000;stroke-width:0.6;" x="906.489539" xlink:href="#md3b14261b4" y="567"/>
      </g>
     </g>
    </g>
    <g id="xtick_77">
     <g id="line2d_77">
      <g>
       <use style="stroke:#000000;stroke-width:0.6;" x="926.882412" xlink:href="#md3b14261b4" y="567"/>
      </g>
     </g>
    </g>
    <g id="xtick_78">
     <g id="line2d_78">
      <g>
       <use style="stroke:#000000;stroke-width:0.6;" x="947.275286" xlink:href="#md3b14261b4" y="567"/>
      </g>
     </g>
    </g>
    <g id="xtick_79">
     <g id="line2d_79">
      <g>
       <use style="stroke:#000000;stroke-width:0.6;" x="967.668159" xlink:href="#md3b14261b4" y="567"/>
      </g>
     </g>
    </g>
    <g id="xtick_80">
     <g id="line2d_80">
      <g>
       <use style="stroke:#000000;stroke-width:0.6;" x="988.061032" xlink:href="#md3b14261b4" y="567"/>
      </g>
     </g>
    </g>
    <g id="text_41">
     <!-- Day -->
     <defs>
      <path d="M 19.671875 64.796875 
L 19.671875 8.109375 
L 31.59375 8.109375 
Q 46.6875 8.109375 53.6875 14.9375 
Q 60.6875 21.78125 60.6875 36.53125 
Q 60.6875 51.171875 53.6875 57.984375 
Q 46.6875 64.796875 31.59375 64.796875 
z
M 9.8125 72.90625 
L 30.078125 72.90625 
Q 51.265625 72.90625 61.171875 64.09375 
Q 71.09375 55.28125 71.09375 36.53125 
Q 71.09375 17.671875 61.125 8.828125 
Q 51.171875 0 30.078125 0 
L 9.8125 0 
z
" id="DejaVuSans-44"/>
      <path d="M 34.28125 27.484375 
Q 23.390625 27.484375 19.1875 25 
Q 14.984375 22.515625 14.984375 16.5 
Q 14.984375 11.71875 18.140625 8.90625 
Q 21.296875 6.109375 26.703125 6.109375 
Q 34.1875 6.109375 38.703125 11.40625 
Q 43.21875 16.703125 43.21875 25.484375 
L 43.21875 27.484375 
z
M 52.203125 31.203125 
L 52.203125 0 
L 43.21875 0 
L 43.21875 8.296875 
Q 40.140625 3.328125 35.546875 0.953125 
Q 30.953125 -1.421875 24.3125 -1.421875 
Q 15.921875 -1.421875 10.953125 3.296875 
Q 6 8.015625 6 15.921875 
Q 6 25.140625 12.171875 29.828125 
Q 18.359375 34.515625 30.609375 34.515625 
L 43.21875 34.515625 
L 43.21875 35.40625 
Q 43.21875 41.609375 39.140625 45 
Q 35.0625 48.390625 27.6875 48.390625 
Q 23 48.390625 18.546875 47.265625 
Q 14.109375 46.140625 10.015625 43.890625 
L 10.015625 52.203125 
Q 14.9375 54.109375 19.578125 55.046875 
Q 24.21875 56 28.609375 56 
Q 40.484375 56 46.34375 49.84375 
Q 52.203125 43.703125 52.203125 31.203125 
z
" id="DejaVuSans-61"/>
      <path d="M 32.171875 -5.078125 
Q 28.375 -14.84375 24.75 -17.8125 
Q 21.140625 -20.796875 15.09375 -20.796875 
L 7.90625 -20.796875 
L 7.90625 -13.28125 
L 13.1875 -13.28125 
Q 16.890625 -13.28125 18.9375 -11.515625 
Q 21 -9.765625 23.484375 -3.21875 
L 25.09375 0.875 
L 2.984375 54.6875 
L 12.5 54.6875 
L 29.59375 11.921875 
L 46.6875 54.6875 
L 56.203125 54.6875 
z
" id="DejaVuSans-79"/>
     </defs>
     <g transform="translate(580.526562 595.276562)scale(0.1 -0.1)">
      <use xlink:href="#DejaVuSans-44"/>
      <use x="77.001953" xlink:href="#DejaVuSans-61"/>
      <use x="138.28125" xlink:href="#DejaVuSans-79"/>
     </g>
    </g>
   </g>
   <g id="matplotlib.axis_2">
    <g id="ytick_1">
     <g id="line2d_81">
      <defs>
       <path d="M 0 0 
L -3.5 0 
" id="me6b56dc772" style="stroke:#000000;stroke-width:0.8;"/>
      </defs>
      <g>
       <use style="stroke:#000000;stroke-width:0.8;" x="144" xlink:href="#me6b56dc772" y="567"/>
      </g>
     </g>
     <g id="text_42">
      <!-- 0 -->
      <defs>
       <path d="M 31.78125 66.40625 
Q 24.171875 66.40625 20.328125 58.90625 
Q 16.5 51.421875 16.5 36.375 
Q 16.5 21.390625 20.328125 13.890625 
Q 24.171875 6.390625 31.78125 6.390625 
Q 39.453125 6.390625 43.28125 13.890625 
Q 47.125 21.390625 47.125 36.375 
Q 47.125 51.421875 43.28125 58.90625 
Q 39.453125 66.40625 31.78125 66.40625 
z
M 31.78125 74.21875 
Q 44.046875 74.21875 50.515625 64.515625 
Q 56.984375 54.828125 56.984375 36.375 
Q 56.984375 17.96875 50.515625 8.265625 
Q 44.046875 -1.421875 31.78125 -1.421875 
Q 19.53125 -1.421875 13.0625 8.265625 
Q 6.59375 17.96875 6.59375 36.375 
Q 6.59375 54.828125 13.0625 64.515625 
Q 19.53125 74.21875 31.78125 74.21875 
z
" id="DejaVuSans-30"/>
      </defs>
      <g transform="translate(130.6375 570.799219)scale(0.1 -0.1)">
       <use xlink:href="#DejaVuSans-30"/>
      </g>
     </g>
    </g>
    <g id="ytick_2">
     <g id="line2d_82">
      <g>
       <use style="stroke:#000000;stroke-width:0.8;" x="144" xlink:href="#me6b56dc772" y="501.188862"/>
      </g>
     </g>
     <g id="text_43">
      <!-- 50 -->
      <defs>
       <path d="M 10.796875 72.90625 
L 49.515625 72.90625 
L 49.515625 64.59375 
L 19.828125 64.59375 
L 19.828125 46.734375 
Q 21.96875 47.46875 24.109375 47.828125 
Q 26.265625 48.1875 28.421875 48.1875 
Q 40.625 48.1875 47.75 41.5 
Q 54.890625 34.8125 54.890625 23.390625 
Q 54.890625 11.625 47.5625 5.09375 
Q 40.234375 -1.421875 26.90625 -1.421875 
Q 22.3125 -1.421875 17.546875 -0.640625 
Q 12.796875 0.140625 7.71875 1.703125 
L 7.71875 11.625 
Q 12.109375 9.234375 16.796875 8.0625 
Q 21.484375 6.890625 26.703125 6.890625 
Q 35.15625 6.890625 40.078125 11.328125 
Q 45.015625 15.765625 45.015625 23.390625 
Q 45.015625 31 40.078125 35.4375 
Q 35.15625 39.890625 26.703125 39.890625 
Q 22.75 39.890625 18.8125 39.015625 
Q 14.890625 38.140625 10.796875 36.28125 
z
" id="DejaVuSans-35"/>
      </defs>
      <g transform="translate(124.275 504.988081)scale(0.1 -0.1)">
       <use xlink:href="#DejaVuSans-35"/>
       <use x="63.623047" xlink:href="#DejaVuSans-30"/>
      </g>
     </g>
    </g>
    <g id="ytick_3">
     <g id="line2d_83">
      <g>
       <use style="stroke:#000000;stroke-width:0.8;" x="144" xlink:href="#me6b56dc772" y="435.377724"/>
      </g>
     </g>
     <g id="text_44">
      <!-- 100 -->
      <defs>
       <path d="M 12.40625 8.296875 
L 28.515625 8.296875 
L 28.515625 63.921875 
L 10.984375 60.40625 
L 10.984375 69.390625 
L 28.421875 72.90625 
L 38.28125 72.90625 
L 38.28125 8.296875 
L 54.390625 8.296875 
L 54.390625 0 
L 12.40625 0 
z
" id="DejaVuSans-31"/>
      </defs>
      <g transform="translate(117.9125 439.176943)scale(0.1 -0.1)">
       <use xlink:href="#DejaVuSans-31"/>
       <use x="63.623047" xlink:href="#DejaVuSans-30"/>
       <use x="127.246094" xlink:href="#DejaVuSans-30"/>
      </g>
     </g>
    </g>
    <g id="ytick_4">
     <g id="line2d_84">
      <g>
       <use style="stroke:#000000;stroke-width:0.8;" x="144" xlink:href="#me6b56dc772" y="369.566586"/>
      </g>
     </g>
     <g id="text_45">
      <!-- 150 -->
      <g transform="translate(117.9125 373.365805)scale(0.1 -0.1)">
       <use xlink:href="#DejaVuSans-31"/>
       <use x="63.623047" xlink:href="#DejaVuSans-35"/>
       <use x="127.246094" xlink:href="#DejaVuSans-30"/>
      </g>
     </g>
    </g>
    <g id="ytick_5">
     <g id="line2d_85">
      <g>
       <use style="stroke:#000000;stroke-width:0.8;" x="144" xlink:href="#me6b56dc772" y="303.755448"/>
      </g>
     </g>
     <g id="text_46">
      <!-- 200 -->
      <defs>
       <path d="M 19.1875 8.296875 
L 53.609375 8.296875 
L 53.609375 0 
L 7.328125 0 
L 7.328125 8.296875 
Q 12.9375 14.109375 22.625 23.890625 
Q 32.328125 33.6875 34.8125 36.53125 
Q 39.546875 41.84375 41.421875 45.53125 
Q 43.3125 49.21875 43.3125 52.78125 
Q 43.3125 58.59375 39.234375 62.25 
Q 35.15625 65.921875 28.609375 65.921875 
Q 23.96875 65.921875 18.8125 64.3125 
Q 13.671875 62.703125 7.8125 59.421875 
L 7.8125 69.390625 
Q 13.765625 71.78125 18.9375 73 
Q 24.125 74.21875 28.421875 74.21875 
Q 39.75 74.21875 46.484375 68.546875 
Q 53.21875 62.890625 53.21875 53.421875 
Q 53.21875 48.921875 51.53125 44.890625 
Q 49.859375 40.875 45.40625 35.40625 
Q 44.1875 33.984375 37.640625 27.21875 
Q 31.109375 20.453125 19.1875 8.296875 
z
" id="DejaVuSans-32"/>
      </defs>
      <g transform="translate(117.9125 307.554667)scale(0.1 -0.1)">
       <use xlink:href="#DejaVuSans-32"/>
       <use x="63.623047" xlink:href="#DejaVuSans-30"/>
       <use x="127.246094" xlink:href="#DejaVuSans-30"/>
      </g>
     </g>
    </g>
    <g id="ytick_6">
     <g id="line2d_86">
      <g>
       <use style="stroke:#000000;stroke-width:0.8;" x="144" xlink:href="#me6b56dc772" y="237.94431"/>
      </g>
     </g>
     <g id="text_47">
      <!-- 250 -->
      <g transform="translate(117.9125 241.743529)scale(0.1 -0.1)">
       <use xlink:href="#DejaVuSans-32"/>
       <use x="63.623047" xlink:href="#DejaVuSans-35"/>
       <use x="127.246094" xlink:href="#DejaVuSans-30"/>
      </g>
     </g>
    </g>
    <g id="ytick_7">
     <g id="line2d_87">
      <g>
       <use style="stroke:#000000;stroke-width:0.8;" x="144" xlink:href="#me6b56dc772" y="172.133172"/>
      </g>
     </g>
     <g id="text_48">
      <!-- 300 -->
      <defs>
       <path d="M 40.578125 39.3125 
Q 47.65625 37.796875 51.625 33 
Q 55.609375 28.21875 55.609375 21.1875 
Q 55.609375 10.40625 48.1875 4.484375 
Q 40.765625 -1.421875 27.09375 -1.421875 
Q 22.515625 -1.421875 17.65625 -0.515625 
Q 12.796875 0.390625 7.625 2.203125 
L 7.625 11.71875 
Q 11.71875 9.328125 16.59375 8.109375 
Q 21.484375 6.890625 26.8125 6.890625 
Q 36.078125 6.890625 40.9375 10.546875 
Q 45.796875 14.203125 45.796875 21.1875 
Q 45.796875 27.640625 41.28125 31.265625 
Q 36.765625 34.90625 28.71875 34.90625 
L 20.21875 34.90625 
L 20.21875 43.015625 
L 29.109375 43.015625 
Q 36.375 43.015625 40.234375 45.921875 
Q 44.09375 48.828125 44.09375 54.296875 
Q 44.09375 59.90625 40.109375 62.90625 
Q 36.140625 65.921875 28.71875 65.921875 
Q 24.65625 65.921875 20.015625 65.03125 
Q 15.375 64.15625 9.8125 62.3125 
L 9.8125 71.09375 
Q 15.4375 72.65625 20.34375 73.4375 
Q 25.25 74.21875 29.59375 74.21875 
Q 40.828125 74.21875 47.359375 69.109375 
Q 53.90625 64.015625 53.90625 55.328125 
Q 53.90625 49.265625 50.4375 45.09375 
Q 46.96875 40.921875 40.578125 39.3125 
z
" id="DejaVuSans-33"/>
      </defs>
      <g transform="translate(117.9125 175.932391)scale(0.1 -0.1)">
       <use xlink:href="#DejaVuSans-33"/>
       <use x="63.623047" xlink:href="#DejaVuSans-30"/>
       <use x="127.246094" xlink:href="#DejaVuSans-30"/>
      </g>
     </g>
    </g>
    <g id="ytick_8">
     <g id="line2d_88">
      <g>
       <use style="stroke:#000000;stroke-width:0.8;" x="144" xlink:href="#me6b56dc772" y="106.322034"/>
      </g>
     </g>
     <g id="text_49">
      <!-- 350 -->
      <g transform="translate(117.9125 110.121253)scale(0.1 -0.1)">
       <use xlink:href="#DejaVuSans-33"/>
       <use x="63.623047" xlink:href="#DejaVuSans-35"/>
       <use x="127.246094" xlink:href="#DejaVuSans-30"/>
      </g>
     </g>
    </g>
    <g id="text_50">
     <!-- Count -->
     <defs>
      <path d="M 64.40625 67.28125 
L 64.40625 56.890625 
Q 59.421875 61.53125 53.78125 63.8125 
Q 48.140625 66.109375 41.796875 66.109375 
Q 29.296875 66.109375 22.65625 58.46875 
Q 16.015625 50.828125 16.015625 36.375 
Q 16.015625 21.96875 22.65625 14.328125 
Q 29.296875 6.6875 41.796875 6.6875 
Q 48.140625 6.6875 53.78125 8.984375 
Q 59.421875 11.28125 64.40625 15.921875 
L 64.40625 5.609375 
Q 59.234375 2.09375 53.4375 0.328125 
Q 47.65625 -1.421875 41.21875 -1.421875 
Q 24.65625 -1.421875 15.125 8.703125 
Q 5.609375 18.84375 5.609375 36.375 
Q 5.609375 53.953125 15.125 64.078125 
Q 24.65625 74.21875 41.21875 74.21875 
Q 47.75 74.21875 53.53125 72.484375 
Q 59.328125 70.75 64.40625 67.28125 
z
" id="DejaVuSans-43"/>
      <path d="M 30.609375 48.390625 
Q 23.390625 48.390625 19.1875 42.75 
Q 14.984375 37.109375 14.984375 27.296875 
Q 14.984375 17.484375 19.15625 11.84375 
Q 23.34375 6.203125 30.609375 6.203125 
Q 37.796875 6.203125 41.984375 11.859375 
Q 46.1875 17.53125 46.1875 27.296875 
Q 46.1875 37.015625 41.984375 42.703125 
Q 37.796875 48.390625 30.609375 48.390625 
z
M 30.609375 56 
Q 42.328125 56 49.015625 48.375 
Q 55.71875 40.765625 55.71875 27.296875 
Q 55.71875 13.875 49.015625 6.21875 
Q 42.328125 -1.421875 30.609375 -1.421875 
Q 18.84375 -1.421875 12.171875 6.21875 
Q 5.515625 13.875 5.515625 27.296875 
Q 5.515625 40.765625 12.171875 48.375 
Q 18.84375 56 30.609375 56 
z
" id="DejaVuSans-6f"/>
      <path d="M 8.5 21.578125 
L 8.5 54.6875 
L 17.484375 54.6875 
L 17.484375 21.921875 
Q 17.484375 14.15625 20.5 10.265625 
Q 23.53125 6.390625 29.59375 6.390625 
Q 36.859375 6.390625 41.078125 11.03125 
Q 45.3125 15.671875 45.3125 23.6875 
L 45.3125 54.6875 
L 54.296875 54.6875 
L 54.296875 0 
L 45.3125 0 
L 45.3125 8.40625 
Q 42.046875 3.421875 37.71875 1 
Q 33.40625 -1.421875 27.6875 -1.421875 
Q 18.265625 -1.421875 13.375 4.4375 
Q 8.5 10.296875 8.5 21.578125 
z
M 31.109375 56 
z
" id="DejaVuSans-75"/>
      <path d="M 54.890625 33.015625 
L 54.890625 0 
L 45.90625 0 
L 45.90625 32.71875 
Q 45.90625 40.484375 42.875 44.328125 
Q 39.84375 48.1875 33.796875 48.1875 
Q 26.515625 48.1875 22.3125 43.546875 
Q 18.109375 38.921875 18.109375 30.90625 
L 18.109375 0 
L 9.078125 0 
L 9.078125 54.6875 
L 18.109375 54.6875 
L 18.109375 46.1875 
Q 21.34375 51.125 25.703125 53.5625 
Q 30.078125 56 35.796875 56 
Q 45.21875 56 50.046875 50.171875 
Q 54.890625 44.34375 54.890625 33.015625 
z
" id="DejaVuSans-6e"/>
      <path d="M 18.3125 70.21875 
L 18.3125 54.6875 
L 36.8125 54.6875 
L 36.8125 47.703125 
L 18.3125 47.703125 
L 18.3125 18.015625 
Q 18.3125 11.328125 20.140625 9.421875 
Q 21.96875 7.515625 27.59375 7.515625 
L 36.8125 7.515625 
L 36.8125 0 
L 27.59375 0 
Q 17.1875 0 13.234375 3.875 
Q 9.28125 7.765625 9.28125 18.015625 
L 9.28125 47.703125 
L 2.6875 47.703125 
L 2.6875 54.6875 
L 9.28125 54.6875 
L 9.28125 70.21875 
z
" id="DejaVuSans-74"/>
     </defs>
     <g transform="translate(111.832812 337.228437)rotate(-90)scale(0.1 -0.1)">
      <use xlink:href="#DejaVuSans-43"/>
      <use x="69.824219" xlink:href="#DejaVuSans-6f"/>
      <use x="131.005859" xlink:href="#DejaVuSans-75"/>
      <use x="194.384766" xlink:href="#DejaVuSans-6e"/>
      <use x="257.763672" xlink:href="#DejaVuSans-74"/>
     </g>
    </g>
   </g>
   <g id="patch_163">
    <path d="M 144 567 
L 144 77.76 
" style="fill:none;stroke:#000000;stroke-linecap:square;stroke-linejoin:miter;stroke-width:0.8;"/>
   </g>
   <g id="patch_164">
    <path d="M 1036.8 567 
L 1036.8 77.76 
" style="fill:none;stroke:#000000;stroke-linecap:square;stroke-linejoin:miter;stroke-width:0.8;"/>
   </g>
   <g id="patch_165">
    <path d="M 144 567 
L 1036.8 567 
" style="fill:none;stroke:#000000;stroke-linecap:square;stroke-linejoin:miter;stroke-width:0.8;"/>
   </g>
   <g id="patch_166">
    <path d="M 144 77.76 
L 1036.8 77.76 
" style="fill:none;stroke:#000000;stroke-linecap:square;stroke-linejoin:miter;stroke-width:0.8;"/>
   </g>
   <g id="text_51">
    <!-- Daily counts of each sentiment class -->
    <defs>
     <path d="M 9.421875 54.6875 
L 18.40625 54.6875 
L 18.40625 0 
L 9.421875 0 
z
M 9.421875 75.984375 
L 18.40625 75.984375 
L 18.40625 64.59375 
L 9.421875 64.59375 
z
" id="DejaVuSans-69"/>
     <path d="M 9.421875 75.984375 
L 18.40625 75.984375 
L 18.40625 0 
L 9.421875 0 
z
" id="DejaVuSans-6c"/>
     <path id="DejaVuSans-20"/>
     <path d="M 48.78125 52.59375 
L 48.78125 44.1875 
Q 44.96875 46.296875 41.140625 47.34375 
Q 37.3125 48.390625 33.40625 48.390625 
Q 24.65625 48.390625 19.8125 42.84375 
Q 14.984375 37.3125 14.984375 27.296875 
Q 14.984375 17.28125 19.8125 11.734375 
Q 24.65625 6.203125 33.40625 6.203125 
Q 37.3125 6.203125 41.140625 7.25 
Q 44.96875 8.296875 48.78125 10.40625 
L 48.78125 2.09375 
Q 45.015625 0.34375 40.984375 -0.53125 
Q 36.96875 -1.421875 32.421875 -1.421875 
Q 20.0625 -1.421875 12.78125 6.34375 
Q 5.515625 14.109375 5.515625 27.296875 
Q 5.515625 40.671875 12.859375 48.328125 
Q 20.21875 56 33.015625 56 
Q 37.15625 56 41.109375 55.140625 
Q 45.0625 54.296875 48.78125 52.59375 
z
" id="DejaVuSans-63"/>
     <path d="M 44.28125 53.078125 
L 44.28125 44.578125 
Q 40.484375 46.53125 36.375 47.5 
Q 32.28125 48.484375 27.875 48.484375 
Q 21.1875 48.484375 17.84375 46.4375 
Q 14.5 44.390625 14.5 40.28125 
Q 14.5 37.15625 16.890625 35.375 
Q 19.28125 33.59375 26.515625 31.984375 
L 29.59375 31.296875 
Q 39.15625 29.25 43.1875 25.515625 
Q 47.21875 21.78125 47.21875 15.09375 
Q 47.21875 7.46875 41.1875 3.015625 
Q 35.15625 -1.421875 24.609375 -1.421875 
Q 20.21875 -1.421875 15.453125 -0.5625 
Q 10.6875 0.296875 5.421875 2 
L 5.421875 11.28125 
Q 10.40625 8.6875 15.234375 7.390625 
Q 20.0625 6.109375 24.8125 6.109375 
Q 31.15625 6.109375 34.5625 8.28125 
Q 37.984375 10.453125 37.984375 14.40625 
Q 37.984375 18.0625 35.515625 20.015625 
Q 33.0625 21.96875 24.703125 23.78125 
L 21.578125 24.515625 
Q 13.234375 26.265625 9.515625 29.90625 
Q 5.8125 33.546875 5.8125 39.890625 
Q 5.8125 47.609375 11.28125 51.796875 
Q 16.75 56 26.8125 56 
Q 31.78125 56 36.171875 55.265625 
Q 40.578125 54.546875 44.28125 53.078125 
z
" id="DejaVuSans-73"/>
     <path d="M 37.109375 75.984375 
L 37.109375 68.5 
L 28.515625 68.5 
Q 23.6875 68.5 21.796875 66.546875 
Q 19.921875 64.59375 19.921875 59.515625 
L 19.921875 54.6875 
L 34.71875 54.6875 
L 34.71875 47.703125 
L 19.921875 47.703125 
L 19.921875 0 
L 10.890625 0 
L 10.890625 47.703125 
L 2.296875 47.703125 
L 2.296875 54.6875 
L 10.890625 54.6875 
L 10.890625 58.5 
Q 10.890625 67.625 15.140625 71.796875 
Q 19.390625 75.984375 28.609375 75.984375 
z
" id="DejaVuSans-66"/>
     <path d="M 56.203125 29.59375 
L 56.203125 25.203125 
L 14.890625 25.203125 
Q 15.484375 15.921875 20.484375 11.0625 
Q 25.484375 6.203125 34.421875 6.203125 
Q 39.59375 6.203125 44.453125 7.46875 
Q 49.3125 8.734375 54.109375 11.28125 
L 54.109375 2.78125 
Q 49.265625 0.734375 44.1875 -0.34375 
Q 39.109375 -1.421875 33.890625 -1.421875 
Q 20.796875 -1.421875 13.15625 6.1875 
Q 5.515625 13.8125 5.515625 26.8125 
Q 5.515625 40.234375 12.765625 48.109375 
Q 20.015625 56 32.328125 56 
Q 43.359375 56 49.78125 48.890625 
Q 56.203125 41.796875 56.203125 29.59375 
z
M 47.21875 32.234375 
Q 47.125 39.59375 43.09375 43.984375 
Q 39.0625 48.390625 32.421875 48.390625 
Q 24.90625 48.390625 20.390625 44.140625 
Q 15.875 39.890625 15.1875 32.171875 
z
" id="DejaVuSans-65"/>
     <path d="M 54.890625 33.015625 
L 54.890625 0 
L 45.90625 0 
L 45.90625 32.71875 
Q 45.90625 40.484375 42.875 44.328125 
Q 39.84375 48.1875 33.796875 48.1875 
Q 26.515625 48.1875 22.3125 43.546875 
Q 18.109375 38.921875 18.109375 30.90625 
L 18.109375 0 
L 9.078125 0 
L 9.078125 75.984375 
L 18.109375 75.984375 
L 18.109375 46.1875 
Q 21.34375 51.125 25.703125 53.5625 
Q 30.078125 56 35.796875 56 
Q 45.21875 56 50.046875 50.171875 
Q 54.890625 44.34375 54.890625 33.015625 
z
" id="DejaVuSans-68"/>
     <path d="M 52 44.1875 
Q 55.375 50.25 60.0625 53.125 
Q 64.75 56 71.09375 56 
Q 79.640625 56 84.28125 50.015625 
Q 88.921875 44.046875 88.921875 33.015625 
L 88.921875 0 
L 79.890625 0 
L 79.890625 32.71875 
Q 79.890625 40.578125 77.09375 44.375 
Q 74.3125 48.1875 68.609375 48.1875 
Q 61.625 48.1875 57.5625 43.546875 
Q 53.515625 38.921875 53.515625 30.90625 
L 53.515625 0 
L 44.484375 0 
L 44.484375 32.71875 
Q 44.484375 40.625 41.703125 44.40625 
Q 38.921875 48.1875 33.109375 48.1875 
Q 26.21875 48.1875 22.15625 43.53125 
Q 18.109375 38.875 18.109375 30.90625 
L 18.109375 0 
L 9.078125 0 
L 9.078125 54.6875 
L 18.109375 54.6875 
L 18.109375 46.1875 
Q 21.1875 51.21875 25.484375 53.609375 
Q 29.78125 56 35.6875 56 
Q 41.65625 56 45.828125 52.96875 
Q 50 49.953125 52 44.1875 
z
" id="DejaVuSans-6d"/>
    </defs>
    <g transform="translate(480.152812 71.76)scale(0.12 -0.12)">
     <use xlink:href="#DejaVuSans-44"/>
     <use x="77.001953" xlink:href="#DejaVuSans-61"/>
     <use x="138.28125" xlink:href="#DejaVuSans-69"/>
     <use x="166.064453" xlink:href="#DejaVuSans-6c"/>
     <use x="193.847656" xlink:href="#DejaVuSans-79"/>
     <use x="253.027344" xlink:href="#DejaVuSans-20"/>
     <use x="284.814453" xlink:href="#DejaVuSans-63"/>
     <use x="339.794922" xlink:href="#DejaVuSans-6f"/>
     <use x="400.976562" xlink:href="#DejaVuSans-75"/>
     <use x="464.355469" xlink:href="#DejaVuSans-6e"/>
     <use x="527.734375" xlink:href="#DejaVuSans-74"/>
     <use x="566.943359" xlink:href="#DejaVuSans-73"/>
     <use x="619.042969" xlink:href="#DejaVuSans-20"/>
     <use x="650.830078" xlink:href="#DejaVuSans-6f"/>
     <use x="712.011719" xlink:href="#DejaVuSans-66"/>
     <use x="747.216797" xlink:href="#DejaVuSans-20"/>
     <use x="779.003906" xlink:href="#DejaVuSans-65"/>
     <use x="840.527344" xlink:href="#DejaVuSans-61"/>
     <use x="901.806641" xlink:href="#DejaVuSans-63"/>
     <use x="956.787109" xlink:href="#DejaVuSans-68"/>
     <use x="1020.166016" xlink:href="#DejaVuSans-20"/>
     <use x="1051.953125" xlink:href="#DejaVuSans-73"/>
     <use x="1104.052734" xlink:href="#DejaVuSans-65"/>
     <use x="1165.576172" xlink:href="#DejaVuSans-6e"/>
     <use x="1228.955078" xlink:href="#DejaVuSans-74"/>
     <use x="1268.164062" xlink:href="#DejaVuSans-69"/>
     <use x="1295.947266" xlink:href="#DejaVuSans-6d"/>
     <use x="1393.359375" xlink:href="#DejaVuSans-65"/>
     <use x="1454.882812" xlink:href="#DejaVuSans-6e"/>
     <use x="1518.261719" xlink:href="#DejaVuSans-74"/>
     <use x="1557.470703" xlink:href="#DejaVuSans-20"/>
     <use x="1589.257812" xlink:href="#DejaVuSans-63"/>
     <use x="1644.238281" xlink:href="#DejaVuSans-6c"/>
     <use x="1672.021484" xlink:href="#DejaVuSans-61"/>
     <use x="1733.300781" xlink:href="#DejaVuSans-73"/>
     <use x="1785.400391" xlink:href="#DejaVuSans-73"/>
    </g>
   </g>
   <g id="legend_1">
    <g id="patch_167">
     <path d="M 926.728125 144.4725 
L 1029.8 144.4725 
Q 1031.8 144.4725 1031.8 142.4725 
L 1031.8 84.76 
Q 1031.8 82.76 1029.8 82.76 
L 926.728125 82.76 
Q 924.728125 82.76 924.728125 84.76 
L 924.728125 142.4725 
Q 924.728125 144.4725 926.728125 144.4725 
z
" style="fill:#ffffff;opacity:0.8;stroke:#cccccc;stroke-linejoin:miter;"/>
    </g>
    <g id="patch_168">
     <path d="M 928.728125 94.358437 
L 948.728125 94.358437 
L 948.728125 87.358437 
L 928.728125 87.358437 
z
" style="fill:#e6194b;"/>
    </g>
    <g id="text_52">
     <!-- Very Negative -->
     <defs>
      <path d="M 28.609375 0 
L 0.78125 72.90625 
L 11.078125 72.90625 
L 34.1875 11.53125 
L 57.328125 72.90625 
L 67.578125 72.90625 
L 39.796875 0 
z
" id="DejaVuSans-56"/>
      <path d="M 41.109375 46.296875 
Q 39.59375 47.171875 37.8125 47.578125 
Q 36.03125 48 33.890625 48 
Q 26.265625 48 22.1875 43.046875 
Q 18.109375 38.09375 18.109375 28.8125 
L 18.109375 0 
L 9.078125 0 
L 9.078125 54.6875 
L 18.109375 54.6875 
L 18.109375 46.1875 
Q 20.953125 51.171875 25.484375 53.578125 
Q 30.03125 56 36.53125 56 
Q 37.453125 56 38.578125 55.875 
Q 39.703125 55.765625 41.0625 55.515625 
z
" id="DejaVuSans-72"/>
      <path d="M 9.8125 72.90625 
L 23.09375 72.90625 
L 55.421875 11.921875 
L 55.421875 72.90625 
L 64.984375 72.90625 
L 64.984375 0 
L 51.703125 0 
L 19.390625 60.984375 
L 19.390625 0 
L 9.8125 0 
z
" id="DejaVuSans-4e"/>
      <path d="M 45.40625 27.984375 
Q 45.40625 37.75 41.375 43.109375 
Q 37.359375 48.484375 30.078125 48.484375 
Q 22.859375 48.484375 18.828125 43.109375 
Q 14.796875 37.75 14.796875 27.984375 
Q 14.796875 18.265625 18.828125 12.890625 
Q 22.859375 7.515625 30.078125 7.515625 
Q 37.359375 7.515625 41.375 12.890625 
Q 45.40625 18.265625 45.40625 27.984375 
z
M 54.390625 6.78125 
Q 54.390625 -7.171875 48.1875 -13.984375 
Q 42 -20.796875 29.203125 -20.796875 
Q 24.46875 -20.796875 20.265625 -20.09375 
Q 16.0625 -19.390625 12.109375 -17.921875 
L 12.109375 -9.1875 
Q 16.0625 -11.328125 19.921875 -12.34375 
Q 23.78125 -13.375 27.78125 -13.375 
Q 36.625 -13.375 41.015625 -8.765625 
Q 45.40625 -4.15625 45.40625 5.171875 
L 45.40625 9.625 
Q 42.625 4.78125 38.28125 2.390625 
Q 33.9375 0 27.875 0 
Q 17.828125 0 11.671875 7.65625 
Q 5.515625 15.328125 5.515625 27.984375 
Q 5.515625 40.671875 11.671875 48.328125 
Q 17.828125 56 27.875 56 
Q 33.9375 56 38.28125 53.609375 
Q 42.625 51.21875 45.40625 46.390625 
L 45.40625 54.6875 
L 54.390625 54.6875 
z
" id="DejaVuSans-67"/>
      <path d="M 2.984375 54.6875 
L 12.5 54.6875 
L 29.59375 8.796875 
L 46.6875 54.6875 
L 56.203125 54.6875 
L 35.6875 0 
L 23.484375 0 
z
" id="DejaVuSans-76"/>
     </defs>
     <g transform="translate(956.728125 94.358437)scale(0.1 -0.1)">
      <use xlink:href="#DejaVuSans-56"/>
      <use x="68.298828" xlink:href="#DejaVuSans-65"/>
      <use x="129.822266" xlink:href="#DejaVuSans-72"/>
      <use x="170.935547" xlink:href="#DejaVuSans-79"/>
      <use x="230.115234" xlink:href="#DejaVuSans-20"/>
      <use x="261.902344" xlink:href="#DejaVuSans-4e"/>
      <use x="336.707031" xlink:href="#DejaVuSans-65"/>
      <use x="398.230469" xlink:href="#DejaVuSans-67"/>
      <use x="461.707031" xlink:href="#DejaVuSans-61"/>
      <use x="522.986328" xlink:href="#DejaVuSans-74"/>
      <use x="562.195312" xlink:href="#DejaVuSans-69"/>
      <use x="589.978516" xlink:href="#DejaVuSans-76"/>
      <use x="649.158203" xlink:href="#DejaVuSans-65"/>
     </g>
    </g>
    <g id="patch_169">
     <path d="M 928.728125 109.036562 
L 948.728125 109.036562 
L 948.728125 102.036562 
L 928.728125 102.036562 
z
" style="fill:#fabebe;"/>
    </g>
    <g id="text_53">
     <!-- Negative -->
     <g transform="translate(956.728125 109.036562)scale(0.1 -0.1)">
      <use xlink:href="#DejaVuSans-4e"/>
      <use x="74.804688" xlink:href="#DejaVuSans-65"/>
      <use x="136.328125" xlink:href="#DejaVuSans-67"/>
      <use x="199.804688" xlink:href="#DejaVuSans-61"/>
      <use x="261.083984" xlink:href="#DejaVuSans-74"/>
      <use x="300.292969" xlink:href="#DejaVuSans-69"/>
      <use x="328.076172" xlink:href="#DejaVuSans-76"/>
      <use x="387.255859" xlink:href="#DejaVuSans-65"/>
     </g>
    </g>
    <g id="patch_170">
     <path d="M 928.728125 123.714687 
L 948.728125 123.714687 
L 948.728125 116.714687 
L 928.728125 116.714687 
z
" style="fill:#aaffc3;"/>
    </g>
    <g id="text_54">
     <!-- Positive -->
     <defs>
      <path d="M 19.671875 64.796875 
L 19.671875 37.40625 
L 32.078125 37.40625 
Q 38.96875 37.40625 42.71875 40.96875 
Q 46.484375 44.53125 46.484375 51.125 
Q 46.484375 57.671875 42.71875 61.234375 
Q 38.96875 64.796875 32.078125 64.796875 
z
M 9.8125 72.90625 
L 32.078125 72.90625 
Q 44.34375 72.90625 50.609375 67.359375 
Q 56.890625 61.8125 56.890625 51.125 
Q 56.890625 40.328125 50.609375 34.8125 
Q 44.34375 29.296875 32.078125 29.296875 
L 19.671875 29.296875 
L 19.671875 0 
L 9.8125 0 
z
" id="DejaVuSans-50"/>
     </defs>
     <g transform="translate(956.728125 123.714687)scale(0.1 -0.1)">
      <use xlink:href="#DejaVuSans-50"/>
      <use x="60.255859" xlink:href="#DejaVuSans-6f"/>
      <use x="121.4375" xlink:href="#DejaVuSans-73"/>
      <use x="173.537109" xlink:href="#DejaVuSans-69"/>
      <use x="201.320312" xlink:href="#DejaVuSans-74"/>
      <use x="240.529297" xlink:href="#DejaVuSans-69"/>
      <use x="268.3125" xlink:href="#DejaVuSans-76"/>
      <use x="327.492188" xlink:href="#DejaVuSans-65"/>
     </g>
    </g>
    <g id="patch_171">
     <path d="M 928.728125 138.392812 
L 948.728125 138.392812 
L 948.728125 131.392812 
L 928.728125 131.392812 
z
" style="fill:#3cb44b;"/>
    </g>
    <g id="text_55">
     <!-- Very Positive -->
     <g transform="translate(956.728125 138.392812)scale(0.1 -0.1)">
      <use xlink:href="#DejaVuSans-56"/>
      <use x="68.298828" xlink:href="#DejaVuSans-65"/>
      <use x="129.822266" xlink:href="#DejaVuSans-72"/>
      <use x="170.935547" xlink:href="#DejaVuSans-79"/>
      <use x="230.115234" xlink:href="#DejaVuSans-20"/>
      <use x="261.902344" xlink:href="#DejaVuSans-50"/>
      <use x="322.158203" xlink:href="#DejaVuSans-6f"/>
      <use x="383.339844" xlink:href="#DejaVuSans-73"/>
      <use x="435.439453" xlink:href="#DejaVuSans-69"/>
      <use x="463.222656" xlink:href="#DejaVuSans-74"/>
      <use x="502.431641" xlink:href="#DejaVuSans-69"/>
      <use x="530.214844" xlink:href="#DejaVuSans-76"/>
      <use x="589.394531" xlink:href="#DejaVuSans-65"/>
     </g>
    </g>
   </g>
  </g>
 </g>
 <defs>
  <clipPath id="p6958fdc63c">
   <rect height="489.24" width="892.8" x="144" y="77.76"/>
  </clipPath>
 </defs>
</svg>
