<?xml version="1.0" encoding="utf-8" standalone="no"?>
<!DOCTYPE svg PUBLIC "-//W3C//DTD SVG 1.1//EN"
  "http://www.w3.org/Graphics/SVG/1.1/DTD/svg11.dtd">
<!-- Created with matplotlib (http://matplotlib.org/) -->
<svg height="648pt" version="1.1" viewBox="0 0 1152 648" width="1152pt" xmlns="http://www.w3.org/2000/svg" xmlns:xlink="http://www.w3.org/1999/xlink">
 <defs>
  <style type="text/css">
*{stroke-linecap:butt;stroke-linejoin:round;}
  </style>
 </defs>
 <g id="figure_1">
  <g id="patch_1">
   <path d="M 0 648 
L 1152 648 
L 1152 0 
L 0 0 
z
" style="fill:#ffffff;"/>
  </g>
  <g id="axes_1">
   <g id="patch_2">
    <path d="M 144 567 
L 1036.8 567 
L 1036.8 77.76 
L 144 77.76 
z
" style="fill:#ffffff;"/>
   </g>
   <g id="patch_3">
    <path clip-path="url(#p3cead9d5fc)" d="M 184.581818 567 
L 211.863713 567 
L 211.863713 511.275753 
L 184.581818 511.275753 
z
" style="fill:#e6194b;"/>
   </g>
   <g id="patch_4">
    <path clip-path="url(#p3cead9d5fc)" d="M 218.684186 567 
L 245.966081 567 
L 245.966081 498.478992 
L 218.684186 498.478992 
z
" style="fill:#e6194b;"/>
   </g>
   <g id="patch_5">
    <path clip-path="url(#p3cead9d5fc)" d="M 252.786555 567 
L 280.068449 567 
L 280.068449 538.505802 
L 252.786555 538.505802 
z
" style="fill:#e6194b;"/>
   </g>
   <g id="patch_6">
    <path clip-path="url(#p3cead9d5fc)" d="M 286.888923 567 
L 314.170817 567 
L 314.170817 522.239745 
L 286.888923 522.239745 
z
" style="fill:#e6194b;"/>
   </g>
   <g id="patch_7">
    <path clip-path="url(#p3cead9d5fc)" d="M 320.991291 567 
L 348.273186 567 
L 348.273186 511.578281 
L 320.991291 511.578281 
z
" style="fill:#e6194b;"/>
   </g>
   <g id="patch_8">
    <path clip-path="url(#p3cead9d5fc)" d="M 355.093659 567 
L 382.375554 567 
L 382.375554 495.134237 
L 355.093659 495.134237 
z
" style="fill:#e6194b;"/>
   </g>
   <g id="patch_9">
    <path clip-path="url(#p3cead9d5fc)" d="M 389.196028 567 
L 416.477922 567 
L 416.477922 500.662373 
L 389.196028 500.662373 
z
" style="fill:#e6194b;"/>
   </g>
   <g id="patch_10">
    <path clip-path="url(#p3cead9d5fc)" d="M 423.298396 567 
L 450.58029 567 
L 450.58029 490.17719 
L 423.298396 490.17719 
z
" style="fill:#e6194b;"/>
   </g>
   <g id="patch_11">
    <path clip-path="url(#p3cead9d5fc)" d="M 457.400764 567 
L 484.682659 567 
L 484.682659 524.457391 
L 457.400764 524.457391 
z
" style="fill:#e6194b;"/>
   </g>
   <g id="patch_12">
    <path clip-path="url(#p3cead9d5fc)" d="M 491.503132 567 
L 518.785027 567 
L 518.785027 512.016606 
L 491.503132 512.016606 
z
" style="fill:#e6194b;"/>
   </g>
   <g id="patch_13">
    <path clip-path="url(#p3cead9d5fc)" d="M 525.6055 567 
L 552.887395 567 
L 552.887395 504.808475 
L 525.6055 504.808475 
z
" style="fill:#e6194b;"/>
   </g>
   <g id="patch_14">
    <path clip-path="url(#p3cead9d5fc)" d="M 559.707869 567 
L 586.989763 567 
L 586.989763 482.829677 
L 559.707869 482.829677 
z
" style="fill:#e6194b;"/>
   </g>
   <g id="patch_15">
    <path clip-path="url(#p3cead9d5fc)" d="M 593.810237 567 
L 621.092131 567 
L 621.092131 488.995301 
L 593.810237 488.995301 
z
" style="fill:#e6194b;"/>
   </g>
   <g id="patch_16">
    <path clip-path="url(#p3cead9d5fc)" d="M 627.912605 567 
L 655.1945 567 
L 655.1945 497.924107 
L 627.912605 497.924107 
z
" style="fill:#e6194b;"/>
   </g>
   <g id="patch_17">
    <path clip-path="url(#p3cead9d5fc)" d="M 662.014973 567 
L 689.296868 567 
L 689.296868 487.816647 
L 662.014973 487.816647 
z
" style="fill:#e6194b;"/>
   </g>
   <g id="patch_18">
    <path clip-path="url(#p3cead9d5fc)" d="M 696.117341 567 
L 723.399236 567 
L 723.399236 495.477199 
L 696.117341 495.477199 
z
" style="fill:#e6194b;"/>
   </g>
   <g id="patch_19">
    <path clip-path="url(#p3cead9d5fc)" d="M 730.21971 567 
L 757.501604 567 
L 757.501604 498.931826 
L 730.21971 498.931826 
z
" style="fill:#e6194b;"/>
   </g>
   <g id="patch_20">
    <path clip-path="url(#p3cead9d5fc)" d="M 764.322078 567 
L 791.603972 567 
L 791.603972 481.097778 
L 764.322078 481.097778 
z
" style="fill:#e6194b;"/>
   </g>
   <g id="patch_21">
    <path clip-path="url(#p3cead9d5fc)" d="M 798.424446 567 
L 825.706341 567 
L 825.706341 486.541432 
L 798.424446 486.541432 
z
" style="fill:#e6194b;"/>
   </g>
   <g id="patch_22">
    <path clip-path="url(#p3cead9d5fc)" d="M 832.526814 567 
L 859.808709 567 
L 859.808709 496.923183 
L 832.526814 496.923183 
z
" style="fill:#e6194b;"/>
   </g>
   <g id="patch_23">
    <path clip-path="url(#p3cead9d5fc)" d="M 866.629183 567 
L 893.911077 567 
L 893.911077 475.464774 
L 866.629183 475.464774 
z
" style="fill:#e6194b;"/>
   </g>
   <g id="patch_24">
    <path clip-path="url(#p3cead9d5fc)" d="M 900.731551 567 
L 928.013445 567 
L 928.013445 487.74946 
L 900.731551 487.74946 
z
" style="fill:#e6194b;"/>
   </g>
   <g id="patch_25">
    <path clip-path="url(#p3cead9d5fc)" d="M 934.833919 567 
L 962.115814 567 
L 962.115814 486.714462 
L 934.833919 486.714462 
z
" style="fill:#e6194b;"/>
   </g>
   <g id="patch_26">
    <path clip-path="url(#p3cead9d5fc)" d="M 968.936287 567 
L 996.218182 567 
L 996.218182 515.689463 
L 968.936287 515.689463 
z
" style="fill:#e6194b;"/>
   </g>
   <g id="patch_27">
    <path clip-path="url(#p3cead9d5fc)" d="M 184.581818 511.275753 
L 211.863713 511.275753 
L 211.863713 349.769884 
L 184.581818 349.769884 
z
" style="fill:#fabebe;"/>
   </g>
   <g id="patch_28">
    <path clip-path="url(#p3cead9d5fc)" d="M 218.684186 498.478992 
L 245.966081 498.478992 
L 245.966081 301.138487 
L 218.684186 301.138487 
z
" style="fill:#fabebe;"/>
   </g>
   <g id="patch_29">
    <path clip-path="url(#p3cead9d5fc)" d="M 252.786555 538.505802 
L 280.068449 538.505802 
L 280.068449 363.777231 
L 252.786555 363.777231 
z
" style="fill:#fabebe;"/>
   </g>
   <g id="patch_30">
    <path clip-path="url(#p3cead9d5fc)" d="M 286.888923 522.239745 
L 314.170817 522.239745 
L 314.170817 331.748426 
L 286.888923 331.748426 
z
" style="fill:#fabebe;"/>
   </g>
   <g id="patch_31">
    <path clip-path="url(#p3cead9d5fc)" d="M 320.991291 511.578281 
L 348.273186 511.578281 
L 348.273186 324.291094 
L 320.991291 324.291094 
z
" style="fill:#fabebe;"/>
   </g>
   <g id="patch_32">
    <path clip-path="url(#p3cead9d5fc)" d="M 355.093659 495.134237 
L 382.375554 495.134237 
L 382.375554 312.705763 
L 355.093659 312.705763 
z
" style="fill:#fabebe;"/>
   </g>
   <g id="patch_33">
    <path clip-path="url(#p3cead9d5fc)" d="M 389.196028 500.662373 
L 416.477922 500.662373 
L 416.477922 298.885424 
L 389.196028 298.885424 
z
" style="fill:#fabebe;"/>
   </g>
   <g id="patch_34">
    <path clip-path="url(#p3cead9d5fc)" d="M 423.298396 490.17719 
L 450.58029 490.17719 
L 450.58029 261.730413 
L 423.298396 261.730413 
z
" style="fill:#fabebe;"/>
   </g>
   <g id="patch_35">
    <path clip-path="url(#p3cead9d5fc)" d="M 457.400764 524.457391 
L 484.682659 524.457391 
L 484.682659 333.015652 
L 457.400764 333.015652 
z
" style="fill:#fabebe;"/>
   </g>
   <g id="patch_36">
    <path clip-path="url(#p3cead9d5fc)" d="M 491.503132 512.016606 
L 518.785027 512.016606 
L 518.785027 320.13578 
L 491.503132 320.13578 
z
" style="fill:#fabebe;"/>
   </g>
   <g id="patch_37">
    <path clip-path="url(#p3cead9d5fc)" d="M 525.6055 504.808475 
L 552.887395 504.808475 
L 552.887395 289.211186 
L 525.6055 289.211186 
z
" style="fill:#fabebe;"/>
   </g>
   <g id="patch_38">
    <path clip-path="url(#p3cead9d5fc)" d="M 559.707869 482.829677 
L 586.989763 482.829677 
L 586.989763 296.076774 
L 559.707869 296.076774 
z
" style="fill:#fabebe;"/>
   </g>
   <g id="patch_39">
    <path clip-path="url(#p3cead9d5fc)" d="M 593.810237 488.995301 
L 621.092131 488.995301 
L 621.092131 271.403245 
L 593.810237 271.403245 
z
" style="fill:#fabebe;"/>
   </g>
   <g id="patch_40">
    <path clip-path="url(#p3cead9d5fc)" d="M 627.912605 497.924107 
L 655.1945 497.924107 
L 655.1945 282.704177 
L 627.912605 282.704177 
z
" style="fill:#fabebe;"/>
   </g>
   <g id="patch_41">
    <path clip-path="url(#p3cead9d5fc)" d="M 662.014973 487.816647 
L 689.296868 487.816647 
L 689.296868 287.030289 
L 662.014973 287.030289 
z
" style="fill:#fabebe;"/>
   </g>
   <g id="patch_42">
    <path clip-path="url(#p3cead9d5fc)" d="M 696.117341 495.477199 
L 723.399236 495.477199 
L 723.399236 304.950074 
L 696.117341 304.950074 
z
" style="fill:#fabebe;"/>
   </g>
   <g id="patch_43">
    <path clip-path="url(#p3cead9d5fc)" d="M 730.21971 498.931826 
L 757.501604 498.931826 
L 757.501604 292.296298 
L 730.21971 292.296298 
z
" style="fill:#fabebe;"/>
   </g>
   <g id="patch_44">
    <path clip-path="url(#p3cead9d5fc)" d="M 764.322078 481.097778 
L 791.603972 481.097778 
L 791.603972 279.093333 
L 764.322078 279.093333 
z
" style="fill:#fabebe;"/>
   </g>
   <g id="patch_45">
    <path clip-path="url(#p3cead9d5fc)" d="M 798.424446 486.541432 
L 825.706341 486.541432 
L 825.706341 273.715544 
L 798.424446 273.715544 
z
" style="fill:#fabebe;"/>
   </g>
   <g id="patch_46">
    <path clip-path="url(#p3cead9d5fc)" d="M 832.526814 496.923183 
L 859.808709 496.923183 
L 859.808709 286.043873 
L 832.526814 286.043873 
z
" style="fill:#fabebe;"/>
   </g>
   <g id="patch_47">
    <path clip-path="url(#p3cead9d5fc)" d="M 866.629183 475.464774 
L 893.911077 475.464774 
L 893.911077 289.237935 
L 866.629183 289.237935 
z
" style="fill:#fabebe;"/>
   </g>
   <g id="patch_48">
    <path clip-path="url(#p3cead9d5fc)" d="M 900.731551 487.74946 
L 928.013445 487.74946 
L 928.013445 282.75473 
L 900.731551 282.75473 
z
" style="fill:#fabebe;"/>
   </g>
   <g id="patch_49">
    <path clip-path="url(#p3cead9d5fc)" d="M 934.833919 486.714462 
L 962.115814 486.714462 
L 962.115814 293.527385 
L 934.833919 293.527385 
z
" style="fill:#fabebe;"/>
   </g>
   <g id="patch_50">
    <path clip-path="url(#p3cead9d5fc)" d="M 968.936287 515.689463 
L 996.218182 515.689463 
L 996.218182 314.027122 
L 968.936287 314.027122 
z
" style="fill:#fabebe;"/>
   </g>
   <g id="patch_51">
    <path clip-path="url(#p3cead9d5fc)" d="M 184.581818 349.769884 
L 211.863713 349.769884 
L 211.863713 90.038224 
L 184.581818 90.038224 
z
" style="fill:#aaffc3;"/>
   </g>
   <g id="patch_52">
    <path clip-path="url(#p3cead9d5fc)" d="M 218.684186 301.138487 
L 245.966081 301.138487 
L 245.966081 101.057143 
L 218.684186 101.057143 
z
" style="fill:#aaffc3;"/>
   </g>
   <g id="patch_53">
    <path clip-path="url(#p3cead9d5fc)" d="M 252.786555 363.777231 
L 280.068449 363.777231 
L 280.068449 97.652176 
L 252.786555 97.652176 
z
" style="fill:#aaffc3;"/>
   </g>
   <g id="patch_54">
    <path clip-path="url(#p3cead9d5fc)" d="M 286.888923 331.748426 
L 314.170817 331.748426 
L 314.170817 94.414979 
L 286.888923 94.414979 
z
" style="fill:#aaffc3;"/>
   </g>
   <g id="patch_55">
    <path clip-path="url(#p3cead9d5fc)" d="M 320.991291 324.291094 
L 348.273186 324.291094 
L 348.273186 104.515312 
L 320.991291 104.515312 
z
" style="fill:#aaffc3;"/>
   </g>
   <g id="patch_56">
    <path clip-path="url(#p3cead9d5fc)" d="M 355.093659 312.705763 
L 382.375554 312.705763 
L 382.375554 105.400678 
L 355.093659 105.400678 
z
" style="fill:#aaffc3;"/>
   </g>
   <g id="patch_57">
    <path clip-path="url(#p3cead9d5fc)" d="M 389.196028 298.885424 
L 416.477922 298.885424 
L 416.477922 113.692881 
L 389.196028 113.692881 
z
" style="fill:#aaffc3;"/>
   </g>
   <g id="patch_58">
    <path clip-path="url(#p3cead9d5fc)" d="M 423.298396 261.730413 
L 450.58029 261.730413 
L 450.58029 106.06314 
L 423.298396 106.06314 
z
" style="fill:#aaffc3;"/>
   </g>
   <g id="patch_59">
    <path clip-path="url(#p3cead9d5fc)" d="M 457.400764 333.015652 
L 484.682659 333.015652 
L 484.682659 113.212174 
L 457.400764 113.212174 
z
" style="fill:#aaffc3;"/>
   </g>
   <g id="patch_60">
    <path clip-path="url(#p3cead9d5fc)" d="M 491.503132 320.13578 
L 518.785027 320.13578 
L 518.785027 105.812752 
L 491.503132 105.812752 
z
" style="fill:#aaffc3;"/>
   </g>
   <g id="patch_61">
    <path clip-path="url(#p3cead9d5fc)" d="M 525.6055 289.211186 
L 552.887395 289.211186 
L 552.887395 96.417458 
L 525.6055 96.417458 
z
" style="fill:#aaffc3;"/>
   </g>
   <g id="patch_62">
    <path clip-path="url(#p3cead9d5fc)" d="M 559.707869 296.076774 
L 586.989763 296.076774 
L 586.989763 100.556129 
L 559.707869 100.556129 
z
" style="fill:#aaffc3;"/>
   </g>
   <g id="patch_63">
    <path clip-path="url(#p3cead9d5fc)" d="M 593.810237 271.403245 
L 621.092131 271.403245 
L 621.092131 94.182042 
L 593.810237 94.182042 
z
" style="fill:#aaffc3;"/>
   </g>
   <g id="patch_64">
    <path clip-path="url(#p3cead9d5fc)" d="M 627.912605 282.704177 
L 655.1945 282.704177 
L 655.1945 101.165881 
L 627.912605 101.165881 
z
" style="fill:#aaffc3;"/>
   </g>
   <g id="patch_65">
    <path clip-path="url(#p3cead9d5fc)" d="M 662.014973 287.030289 
L 689.296868 287.030289 
L 689.296868 104.342983 
L 662.014973 104.342983 
z
" style="fill:#aaffc3;"/>
   </g>
   <g id="patch_66">
    <path clip-path="url(#p3cead9d5fc)" d="M 696.117341 304.950074 
L 723.399236 304.950074 
L 723.399236 91.583735 
L 696.117341 91.583735 
z
" style="fill:#aaffc3;"/>
   </g>
   <g id="patch_67">
    <path clip-path="url(#p3cead9d5fc)" d="M 730.21971 292.296298 
L 757.501604 292.296298 
L 757.501604 97.20805 
L 730.21971 97.20805 
z
" style="fill:#aaffc3;"/>
   </g>
   <g id="patch_68">
    <path clip-path="url(#p3cead9d5fc)" d="M 764.322078 279.093333 
L 791.603972 279.093333 
L 791.603972 93.866667 
L 764.322078 93.866667 
z
" style="fill:#aaffc3;"/>
   </g>
   <g id="patch_69">
    <path clip-path="url(#p3cead9d5fc)" d="M 798.424446 273.715544 
L 825.706341 273.715544 
L 825.706341 97.225782 
L 798.424446 97.225782 
z
" style="fill:#aaffc3;"/>
   </g>
   <g id="patch_70">
    <path clip-path="url(#p3cead9d5fc)" d="M 832.526814 286.043873 
L 859.808709 286.043873 
L 859.808709 99.82122 
L 832.526814 99.82122 
z
" style="fill:#aaffc3;"/>
   </g>
   <g id="patch_71">
    <path clip-path="url(#p3cead9d5fc)" d="M 866.629183 289.237935 
L 893.911077 289.237935 
L 893.911077 105.378387 
L 866.629183 105.378387 
z
" style="fill:#aaffc3;"/>
   </g>
   <g id="patch_72">
    <path clip-path="url(#p3cead9d5fc)" d="M 900.731551 282.75473 
L 928.013445 282.75473 
L 928.013445 93.610108 
L 900.731551 93.610108 
z
" style="fill:#aaffc3;"/>
   </g>
   <g id="patch_73">
    <path clip-path="url(#p3cead9d5fc)" d="M 934.833919 293.527385 
L 962.115814 293.527385 
L 962.115814 90.304615 
L 934.833919 90.304615 
z
" style="fill:#aaffc3;"/>
   </g>
   <g id="patch_74">
    <path clip-path="url(#p3cead9d5fc)" d="M 968.936287 314.027122 
L 996.218182 314.027122 
L 996.218182 98.045561 
L 968.936287 98.045561 
z
" style="fill:#aaffc3;"/>
   </g>
   <g id="patch_75">
    <path clip-path="url(#p3cead9d5fc)" d="M 184.581818 90.038224 
L 211.863713 90.038224 
L 211.863713 77.76 
L 184.581818 77.76 
z
" style="fill:#3cb44b;"/>
   </g>
   <g id="patch_76">
    <path clip-path="url(#p3cead9d5fc)" d="M 218.684186 101.057143 
L 245.966081 101.057143 
L 245.966081 77.76 
L 218.684186 77.76 
z
" style="fill:#3cb44b;"/>
   </g>
   <g id="patch_77">
    <path clip-path="url(#p3cead9d5fc)" d="M 252.786555 97.652176 
L 280.068449 97.652176 
L 280.068449 77.76 
L 252.786555 77.76 
z
" style="fill:#3cb44b;"/>
   </g>
   <g id="patch_78">
    <path clip-path="url(#p3cead9d5fc)" d="M 286.888923 94.414979 
L 314.170817 94.414979 
L 314.170817 77.76 
L 286.888923 77.76 
z
" style="fill:#3cb44b;"/>
   </g>
   <g id="patch_79">
    <path clip-path="url(#p3cead9d5fc)" d="M 320.991291 104.515312 
L 348.273186 104.515312 
L 348.273186 77.76 
L 320.991291 77.76 
z
" style="fill:#3cb44b;"/>
   </g>
   <g id="patch_80">
    <path clip-path="url(#p3cead9d5fc)" d="M 355.093659 105.400678 
L 382.375554 105.400678 
L 382.375554 77.76 
L 355.093659 77.76 
z
" style="fill:#3cb44b;"/>
   </g>
   <g id="patch_81">
    <path clip-path="url(#p3cead9d5fc)" d="M 389.196028 113.692881 
L 416.477922 113.692881 
L 416.477922 77.76 
L 389.196028 77.76 
z
" style="fill:#3cb44b;"/>
   </g>
   <g id="patch_82">
    <path clip-path="url(#p3cead9d5fc)" d="M 423.298396 106.06314 
L 450.58029 106.06314 
L 450.58029 77.76 
L 423.298396 77.76 
z
" style="fill:#3cb44b;"/>
   </g>
   <g id="patch_83">
    <path clip-path="url(#p3cead9d5fc)" d="M 457.400764 113.212174 
L 484.682659 113.212174 
L 484.682659 77.76 
L 457.400764 77.76 
z
" style="fill:#3cb44b;"/>
   </g>
   <g id="patch_84">
    <path clip-path="url(#p3cead9d5fc)" d="M 491.503132 105.812752 
L 518.785027 105.812752 
L 518.785027 77.76 
L 491.503132 77.76 
z
" style="fill:#3cb44b;"/>
   </g>
   <g id="patch_85">
    <path clip-path="url(#p3cead9d5fc)" d="M 525.6055 96.417458 
L 552.887395 96.417458 
L 552.887395 77.76 
L 525.6055 77.76 
z
" style="fill:#3cb44b;"/>
   </g>
   <g id="patch_86">
    <path clip-path="url(#p3cead9d5fc)" d="M 559.707869 100.556129 
L 586.989763 100.556129 
L 586.989763 77.76 
L 559.707869 77.76 
z
" style="fill:#3cb44b;"/>
   </g>
   <g id="patch_87">
    <path clip-path="url(#p3cead9d5fc)" d="M 593.810237 94.182042 
L 621.092131 94.182042 
L 621.092131 77.76 
L 593.810237 77.76 
z
" style="fill:#3cb44b;"/>
   </g>
   <g id="patch_88">
    <path clip-path="url(#p3cead9d5fc)" d="M 627.912605 101.165881 
L 655.1945 101.165881 
L 655.1945 77.76 
L 627.912605 77.76 
z
" style="fill:#3cb44b;"/>
   </g>
   <g id="patch_89">
    <path clip-path="url(#p3cead9d5fc)" d="M 662.014973 104.342983 
L 689.296868 104.342983 
L 689.296868 77.76 
L 662.014973 77.76 
z
" style="fill:#3cb44b;"/>
   </g>
   <g id="patch_90">
    <path clip-path="url(#p3cead9d5fc)" d="M 696.117341 91.583735 
L 723.399236 91.583735 
L 723.399236 77.76 
L 696.117341 77.76 
z
" style="fill:#3cb44b;"/>
   </g>
   <g id="patch_91">
    <path clip-path="url(#p3cead9d5fc)" d="M 730.21971 97.20805 
L 757.501604 97.20805 
L 757.501604 77.76 
L 730.21971 77.76 
z
" style="fill:#3cb44b;"/>
   </g>
   <g id="patch_92">
    <path clip-path="url(#p3cead9d5fc)" d="M 764.322078 93.866667 
L 791.603972 93.866667 
L 791.603972 77.76 
L 764.322078 77.76 
z
" style="fill:#3cb44b;"/>
   </g>
   <g id="patch_93">
    <path clip-path="url(#p3cead9d5fc)" d="M 798.424446 97.225782 
L 825.706341 97.225782 
L 825.706341 77.76 
L 798.424446 77.76 
z
" style="fill:#3cb44b;"/>
   </g>
   <g id="patch_94">
    <path clip-path="url(#p3cead9d5fc)" d="M 832.526814 99.82122 
L 859.808709 99.82122 
L 859.808709 77.76 
L 832.526814 77.76 
z
" style="fill:#3cb44b;"/>
   </g>
   <g id="patch_95">
    <path clip-path="url(#p3cead9d5fc)" d="M 866.629183 105.378387 
L 893.911077 105.378387 
L 893.911077 77.76 
L 866.629183 77.76 
z
" style="fill:#3cb44b;"/>
   </g>
   <g id="patch_96">
    <path clip-path="url(#p3cead9d5fc)" d="M 900.731551 93.610108 
L 928.013445 93.610108 
L 928.013445 77.76 
L 900.731551 77.76 
z
" style="fill:#3cb44b;"/>
   </g>
   <g id="patch_97">
    <path clip-path="url(#p3cead9d5fc)" d="M 934.833919 90.304615 
L 962.115814 90.304615 
L 962.115814 77.76 
L 934.833919 77.76 
z
" style="fill:#3cb44b;"/>
   </g>
   <g id="patch_98">
    <path clip-path="url(#p3cead9d5fc)" d="M 968.936287 98.045561 
L 996.218182 98.045561 
L 996.218182 77.76 
L 968.936287 77.76 
z
" style="fill:#3cb44b;"/>
   </g>
   <g id="matplotlib.axis_1">
    <g id="xtick_1">
     <g id="line2d_1">
      <defs>
       <path d="M 0 0 
L 0 3.5 
" id="m4461e9365d" style="stroke:#000000;stroke-width:0.8;"/>
      </defs>
      <g>
       <use style="stroke:#000000;stroke-width:0.8;" x="198.222765" xlink:href="#m4461e9365d" y="567"/>
      </g>
     </g>
     <g id="text_1">
      <!-- 00 -->
      <defs>
       <path d="M 31.78125 66.40625 
Q 24.171875 66.40625 20.328125 58.90625 
Q 16.5 51.421875 16.5 36.375 
Q 16.5 21.390625 20.328125 13.890625 
Q 24.171875 6.390625 31.78125 6.390625 
Q 39.453125 6.390625 43.28125 13.890625 
Q 47.125 21.390625 47.125 36.375 
Q 47.125 51.421875 43.28125 58.90625 
Q 39.453125 66.40625 31.78125 66.40625 
z
M 31.78125 74.21875 
Q 44.046875 74.21875 50.515625 64.515625 
Q 56.984375 54.828125 56.984375 36.375 
Q 56.984375 17.96875 50.515625 8.265625 
Q 44.046875 -1.421875 31.78125 -1.421875 
Q 19.53125 -1.421875 13.0625 8.265625 
Q 6.59375 17.96875 6.59375 36.375 
Q 6.59375 54.828125 13.0625 64.515625 
Q 19.53125 74.21875 31.78125 74.21875 
z
" id="DejaVuSans-30"/>
      </defs>
      <g transform="translate(191.860265 581.598438)scale(0.1 -0.1)">
       <use xlink:href="#DejaVuSans-30"/>
       <use x="63.623047" xlink:href="#DejaVuSans-30"/>
      </g>
     </g>
    </g>
    <g id="xtick_2">
     <g id="line2d_2">
      <g>
       <use style="stroke:#000000;stroke-width:0.8;" x="232.325134" xlink:href="#m4461e9365d" y="567"/>
      </g>
     </g>
     <g id="text_2">
      <!-- 01 -->
      <defs>
       <path d="M 12.40625 8.296875 
L 28.515625 8.296875 
L 28.515625 63.921875 
L 10.984375 60.40625 
L 10.984375 69.390625 
L 28.421875 72.90625 
L 38.28125 72.90625 
L 38.28125 8.296875 
L 54.390625 8.296875 
L 54.390625 0 
L 12.40625 0 
z
" id="DejaVuSans-31"/>
      </defs>
      <g transform="translate(225.962634 581.598438)scale(0.1 -0.1)">
       <use xlink:href="#DejaVuSans-30"/>
       <use x="63.623047" xlink:href="#DejaVuSans-31"/>
      </g>
     </g>
    </g>
    <g id="xtick_3">
     <g id="line2d_3">
      <g>
       <use style="stroke:#000000;stroke-width:0.8;" x="266.427502" xlink:href="#m4461e9365d" y="567"/>
      </g>
     </g>
     <g id="text_3">
      <!-- 02 -->
      <defs>
       <path d="M 19.1875 8.296875 
L 53.609375 8.296875 
L 53.609375 0 
L 7.328125 0 
L 7.328125 8.296875 
Q 12.9375 14.109375 22.625 23.890625 
Q 32.328125 33.6875 34.8125 36.53125 
Q 39.546875 41.84375 41.421875 45.53125 
Q 43.3125 49.21875 43.3125 52.78125 
Q 43.3125 58.59375 39.234375 62.25 
Q 35.15625 65.921875 28.609375 65.921875 
Q 23.96875 65.921875 18.8125 64.3125 
Q 13.671875 62.703125 7.8125 59.421875 
L 7.8125 69.390625 
Q 13.765625 71.78125 18.9375 73 
Q 24.125 74.21875 28.421875 74.21875 
Q 39.75 74.21875 46.484375 68.546875 
Q 53.21875 62.890625 53.21875 53.421875 
Q 53.21875 48.921875 51.53125 44.890625 
Q 49.859375 40.875 45.40625 35.40625 
Q 44.1875 33.984375 37.640625 27.21875 
Q 31.109375 20.453125 19.1875 8.296875 
z
" id="DejaVuSans-32"/>
      </defs>
      <g transform="translate(260.065002 581.598438)scale(0.1 -0.1)">
       <use xlink:href="#DejaVuSans-30"/>
       <use x="63.623047" xlink:href="#DejaVuSans-32"/>
      </g>
     </g>
    </g>
    <g id="xtick_4">
     <g id="line2d_4">
      <g>
       <use style="stroke:#000000;stroke-width:0.8;" x="300.52987" xlink:href="#m4461e9365d" y="567"/>
      </g>
     </g>
     <g id="text_4">
      <!-- 03 -->
      <defs>
       <path d="M 40.578125 39.3125 
Q 47.65625 37.796875 51.625 33 
Q 55.609375 28.21875 55.609375 21.1875 
Q 55.609375 10.40625 48.1875 4.484375 
Q 40.765625 -1.421875 27.09375 -1.421875 
Q 22.515625 -1.421875 17.65625 -0.515625 
Q 12.796875 0.390625 7.625 2.203125 
L 7.625 11.71875 
Q 11.71875 9.328125 16.59375 8.109375 
Q 21.484375 6.890625 26.8125 6.890625 
Q 36.078125 6.890625 40.9375 10.546875 
Q 45.796875 14.203125 45.796875 21.1875 
Q 45.796875 27.640625 41.28125 31.265625 
Q 36.765625 34.90625 28.71875 34.90625 
L 20.21875 34.90625 
L 20.21875 43.015625 
L 29.109375 43.015625 
Q 36.375 43.015625 40.234375 45.921875 
Q 44.09375 48.828125 44.09375 54.296875 
Q 44.09375 59.90625 40.109375 62.90625 
Q 36.140625 65.921875 28.71875 65.921875 
Q 24.65625 65.921875 20.015625 65.03125 
Q 15.375 64.15625 9.8125 62.3125 
L 9.8125 71.09375 
Q 15.4375 72.65625 20.34375 73.4375 
Q 25.25 74.21875 29.59375 74.21875 
Q 40.828125 74.21875 47.359375 69.109375 
Q 53.90625 64.015625 53.90625 55.328125 
Q 53.90625 49.265625 50.4375 45.09375 
Q 46.96875 40.921875 40.578125 39.3125 
z
" id="DejaVuSans-33"/>
      </defs>
      <g transform="translate(294.16737 581.598438)scale(0.1 -0.1)">
       <use xlink:href="#DejaVuSans-30"/>
       <use x="63.623047" xlink:href="#DejaVuSans-33"/>
      </g>
     </g>
    </g>
    <g id="xtick_5">
     <g id="line2d_5">
      <g>
       <use style="stroke:#000000;stroke-width:0.8;" x="334.632238" xlink:href="#m4461e9365d" y="567"/>
      </g>
     </g>
     <g id="text_5">
      <!-- 04 -->
      <defs>
       <path d="M 37.796875 64.3125 
L 12.890625 25.390625 
L 37.796875 25.390625 
z
M 35.203125 72.90625 
L 47.609375 72.90625 
L 47.609375 25.390625 
L 58.015625 25.390625 
L 58.015625 17.1875 
L 47.609375 17.1875 
L 47.609375 0 
L 37.796875 0 
L 37.796875 17.1875 
L 4.890625 17.1875 
L 4.890625 26.703125 
z
" id="DejaVuSans-34"/>
      </defs>
      <g transform="translate(328.269738 581.598438)scale(0.1 -0.1)">
       <use xlink:href="#DejaVuSans-30"/>
       <use x="63.623047" xlink:href="#DejaVuSans-34"/>
      </g>
     </g>
    </g>
    <g id="xtick_6">
     <g id="line2d_6">
      <g>
       <use style="stroke:#000000;stroke-width:0.8;" x="368.734607" xlink:href="#m4461e9365d" y="567"/>
      </g>
     </g>
     <g id="text_6">
      <!-- 05 -->
      <defs>
       <path d="M 10.796875 72.90625 
L 49.515625 72.90625 
L 49.515625 64.59375 
L 19.828125 64.59375 
L 19.828125 46.734375 
Q 21.96875 47.46875 24.109375 47.828125 
Q 26.265625 48.1875 28.421875 48.1875 
Q 40.625 48.1875 47.75 41.5 
Q 54.890625 34.8125 54.890625 23.390625 
Q 54.890625 11.625 47.5625 5.09375 
Q 40.234375 -1.421875 26.90625 -1.421875 
Q 22.3125 -1.421875 17.546875 -0.640625 
Q 12.796875 0.140625 7.71875 1.703125 
L 7.71875 11.625 
Q 12.109375 9.234375 16.796875 8.0625 
Q 21.484375 6.890625 26.703125 6.890625 
Q 35.15625 6.890625 40.078125 11.328125 
Q 45.015625 15.765625 45.015625 23.390625 
Q 45.015625 31 40.078125 35.4375 
Q 35.15625 39.890625 26.703125 39.890625 
Q 22.75 39.890625 18.8125 39.015625 
Q 14.890625 38.140625 10.796875 36.28125 
z
" id="DejaVuSans-35"/>
      </defs>
      <g transform="translate(362.372107 581.598438)scale(0.1 -0.1)">
       <use xlink:href="#DejaVuSans-30"/>
       <use x="63.623047" xlink:href="#DejaVuSans-35"/>
      </g>
     </g>
    </g>
    <g id="xtick_7">
     <g id="line2d_7">
      <g>
       <use style="stroke:#000000;stroke-width:0.8;" x="402.836975" xlink:href="#m4461e9365d" y="567"/>
      </g>
     </g>
     <g id="text_7">
      <!-- 06 -->
      <defs>
       <path d="M 33.015625 40.375 
Q 26.375 40.375 22.484375 35.828125 
Q 18.609375 31.296875 18.609375 23.390625 
Q 18.609375 15.53125 22.484375 10.953125 
Q 26.375 6.390625 33.015625 6.390625 
Q 39.65625 6.390625 43.53125 10.953125 
Q 47.40625 15.53125 47.40625 23.390625 
Q 47.40625 31.296875 43.53125 35.828125 
Q 39.65625 40.375 33.015625 40.375 
z
M 52.59375 71.296875 
L 52.59375 62.3125 
Q 48.875 64.0625 45.09375 64.984375 
Q 41.3125 65.921875 37.59375 65.921875 
Q 27.828125 65.921875 22.671875 59.328125 
Q 17.53125 52.734375 16.796875 39.40625 
Q 19.671875 43.65625 24.015625 45.921875 
Q 28.375 48.1875 33.59375 48.1875 
Q 44.578125 48.1875 50.953125 41.515625 
Q 57.328125 34.859375 57.328125 23.390625 
Q 57.328125 12.15625 50.6875 5.359375 
Q 44.046875 -1.421875 33.015625 -1.421875 
Q 20.359375 -1.421875 13.671875 8.265625 
Q 6.984375 17.96875 6.984375 36.375 
Q 6.984375 53.65625 15.1875 63.9375 
Q 23.390625 74.21875 37.203125 74.21875 
Q 40.921875 74.21875 44.703125 73.484375 
Q 48.484375 72.75 52.59375 71.296875 
z
" id="DejaVuSans-36"/>
      </defs>
      <g transform="translate(396.474475 581.598438)scale(0.1 -0.1)">
       <use xlink:href="#DejaVuSans-30"/>
       <use x="63.623047" xlink:href="#DejaVuSans-36"/>
      </g>
     </g>
    </g>
    <g id="xtick_8">
     <g id="line2d_8">
      <g>
       <use style="stroke:#000000;stroke-width:0.8;" x="436.939343" xlink:href="#m4461e9365d" y="567"/>
      </g>
     </g>
     <g id="text_8">
      <!-- 07 -->
      <defs>
       <path d="M 8.203125 72.90625 
L 55.078125 72.90625 
L 55.078125 68.703125 
L 28.609375 0 
L 18.3125 0 
L 43.21875 64.59375 
L 8.203125 64.59375 
z
" id="DejaVuSans-37"/>
      </defs>
      <g transform="translate(430.576843 581.598438)scale(0.1 -0.1)">
       <use xlink:href="#DejaVuSans-30"/>
       <use x="63.623047" xlink:href="#DejaVuSans-37"/>
      </g>
     </g>
    </g>
    <g id="xtick_9">
     <g id="line2d_9">
      <g>
       <use style="stroke:#000000;stroke-width:0.8;" x="471.041711" xlink:href="#m4461e9365d" y="567"/>
      </g>
     </g>
     <g id="text_9">
      <!-- 08 -->
      <defs>
       <path d="M 31.78125 34.625 
Q 24.75 34.625 20.71875 30.859375 
Q 16.703125 27.09375 16.703125 20.515625 
Q 16.703125 13.921875 20.71875 10.15625 
Q 24.75 6.390625 31.78125 6.390625 
Q 38.8125 6.390625 42.859375 10.171875 
Q 46.921875 13.96875 46.921875 20.515625 
Q 46.921875 27.09375 42.890625 30.859375 
Q 38.875 34.625 31.78125 34.625 
z
M 21.921875 38.8125 
Q 15.578125 40.375 12.03125 44.71875 
Q 8.5 49.078125 8.5 55.328125 
Q 8.5 64.0625 14.71875 69.140625 
Q 20.953125 74.21875 31.78125 74.21875 
Q 42.671875 74.21875 48.875 69.140625 
Q 55.078125 64.0625 55.078125 55.328125 
Q 55.078125 49.078125 51.53125 44.71875 
Q 48 40.375 41.703125 38.8125 
Q 48.828125 37.15625 52.796875 32.3125 
Q 56.78125 27.484375 56.78125 20.515625 
Q 56.78125 9.90625 50.3125 4.234375 
Q 43.84375 -1.421875 31.78125 -1.421875 
Q 19.734375 -1.421875 13.25 4.234375 
Q 6.78125 9.90625 6.78125 20.515625 
Q 6.78125 27.484375 10.78125 32.3125 
Q 14.796875 37.15625 21.921875 38.8125 
z
M 18.3125 54.390625 
Q 18.3125 48.734375 21.84375 45.5625 
Q 25.390625 42.390625 31.78125 42.390625 
Q 38.140625 42.390625 41.71875 45.5625 
Q 45.3125 48.734375 45.3125 54.390625 
Q 45.3125 60.0625 41.71875 63.234375 
Q 38.140625 66.40625 31.78125 66.40625 
Q 25.390625 66.40625 21.84375 63.234375 
Q 18.3125 60.0625 18.3125 54.390625 
z
" id="DejaVuSans-38"/>
      </defs>
      <g transform="translate(464.679211 581.598438)scale(0.1 -0.1)">
       <use xlink:href="#DejaVuSans-30"/>
       <use x="63.623047" xlink:href="#DejaVuSans-38"/>
      </g>
     </g>
    </g>
    <g id="xtick_10">
     <g id="line2d_10">
      <g>
       <use style="stroke:#000000;stroke-width:0.8;" x="505.144079" xlink:href="#m4461e9365d" y="567"/>
      </g>
     </g>
     <g id="text_10">
      <!-- 09 -->
      <defs>
       <path d="M 10.984375 1.515625 
L 10.984375 10.5 
Q 14.703125 8.734375 18.5 7.8125 
Q 22.3125 6.890625 25.984375 6.890625 
Q 35.75 6.890625 40.890625 13.453125 
Q 46.046875 20.015625 46.78125 33.40625 
Q 43.953125 29.203125 39.59375 26.953125 
Q 35.25 24.703125 29.984375 24.703125 
Q 19.046875 24.703125 12.671875 31.3125 
Q 6.296875 37.9375 6.296875 49.421875 
Q 6.296875 60.640625 12.9375 67.421875 
Q 19.578125 74.21875 30.609375 74.21875 
Q 43.265625 74.21875 49.921875 64.515625 
Q 56.59375 54.828125 56.59375 36.375 
Q 56.59375 19.140625 48.40625 8.859375 
Q 40.234375 -1.421875 26.421875 -1.421875 
Q 22.703125 -1.421875 18.890625 -0.6875 
Q 15.09375 0.046875 10.984375 1.515625 
z
M 30.609375 32.421875 
Q 37.25 32.421875 41.125 36.953125 
Q 45.015625 41.5 45.015625 49.421875 
Q 45.015625 57.28125 41.125 61.84375 
Q 37.25 66.40625 30.609375 66.40625 
Q 23.96875 66.40625 20.09375 61.84375 
Q 16.21875 57.28125 16.21875 49.421875 
Q 16.21875 41.5 20.09375 36.953125 
Q 23.96875 32.421875 30.609375 32.421875 
z
" id="DejaVuSans-39"/>
      </defs>
      <g transform="translate(498.781579 581.598438)scale(0.1 -0.1)">
       <use xlink:href="#DejaVuSans-30"/>
       <use x="63.623047" xlink:href="#DejaVuSans-39"/>
      </g>
     </g>
    </g>
    <g id="xtick_11">
     <g id="line2d_11">
      <g>
       <use style="stroke:#000000;stroke-width:0.8;" x="539.246448" xlink:href="#m4461e9365d" y="567"/>
      </g>
     </g>
     <g id="text_11">
      <!-- 10 -->
      <g transform="translate(532.883948 581.598438)scale(0.1 -0.1)">
       <use xlink:href="#DejaVuSans-31"/>
       <use x="63.623047" xlink:href="#DejaVuSans-30"/>
      </g>
     </g>
    </g>
    <g id="xtick_12">
     <g id="line2d_12">
      <g>
       <use style="stroke:#000000;stroke-width:0.8;" x="573.348816" xlink:href="#m4461e9365d" y="567"/>
      </g>
     </g>
     <g id="text_12">
      <!-- 11 -->
      <g transform="translate(566.986316 581.598438)scale(0.1 -0.1)">
       <use xlink:href="#DejaVuSans-31"/>
       <use x="63.623047" xlink:href="#DejaVuSans-31"/>
      </g>
     </g>
    </g>
    <g id="xtick_13">
     <g id="line2d_13">
      <g>
       <use style="stroke:#000000;stroke-width:0.8;" x="607.451184" xlink:href="#m4461e9365d" y="567"/>
      </g>
     </g>
     <g id="text_13">
      <!-- 12 -->
      <g transform="translate(601.088684 581.598438)scale(0.1 -0.1)">
       <use xlink:href="#DejaVuSans-31"/>
       <use x="63.623047" xlink:href="#DejaVuSans-32"/>
      </g>
     </g>
    </g>
    <g id="xtick_14">
     <g id="line2d_14">
      <g>
       <use style="stroke:#000000;stroke-width:0.8;" x="641.553552" xlink:href="#m4461e9365d" y="567"/>
      </g>
     </g>
     <g id="text_14">
      <!-- 13 -->
      <g transform="translate(635.191052 581.598438)scale(0.1 -0.1)">
       <use xlink:href="#DejaVuSans-31"/>
       <use x="63.623047" xlink:href="#DejaVuSans-33"/>
      </g>
     </g>
    </g>
    <g id="xtick_15">
     <g id="line2d_15">
      <g>
       <use style="stroke:#000000;stroke-width:0.8;" x="675.655921" xlink:href="#m4461e9365d" y="567"/>
      </g>
     </g>
     <g id="text_15">
      <!-- 14 -->
      <g transform="translate(669.293421 581.598438)scale(0.1 -0.1)">
       <use xlink:href="#DejaVuSans-31"/>
       <use x="63.623047" xlink:href="#DejaVuSans-34"/>
      </g>
     </g>
    </g>
    <g id="xtick_16">
     <g id="line2d_16">
      <g>
       <use style="stroke:#000000;stroke-width:0.8;" x="709.758289" xlink:href="#m4461e9365d" y="567"/>
      </g>
     </g>
     <g id="text_16">
      <!-- 15 -->
      <g transform="translate(703.395789 581.598438)scale(0.1 -0.1)">
       <use xlink:href="#DejaVuSans-31"/>
       <use x="63.623047" xlink:href="#DejaVuSans-35"/>
      </g>
     </g>
    </g>
    <g id="xtick_17">
     <g id="line2d_17">
      <g>
       <use style="stroke:#000000;stroke-width:0.8;" x="743.860657" xlink:href="#m4461e9365d" y="567"/>
      </g>
     </g>
     <g id="text_17">
      <!-- 16 -->
      <g transform="translate(737.498157 581.598438)scale(0.1 -0.1)">
       <use xlink:href="#DejaVuSans-31"/>
       <use x="63.623047" xlink:href="#DejaVuSans-36"/>
      </g>
     </g>
    </g>
    <g id="xtick_18">
     <g id="line2d_18">
      <g>
       <use style="stroke:#000000;stroke-width:0.8;" x="777.963025" xlink:href="#m4461e9365d" y="567"/>
      </g>
     </g>
     <g id="text_18">
      <!-- 17 -->
      <g transform="translate(771.600525 581.598438)scale(0.1 -0.1)">
       <use xlink:href="#DejaVuSans-31"/>
       <use x="63.623047" xlink:href="#DejaVuSans-37"/>
      </g>
     </g>
    </g>
    <g id="xtick_19">
     <g id="line2d_19">
      <g>
       <use style="stroke:#000000;stroke-width:0.8;" x="812.065393" xlink:href="#m4461e9365d" y="567"/>
      </g>
     </g>
     <g id="text_19">
      <!-- 18 -->
      <g transform="translate(805.702893 581.598438)scale(0.1 -0.1)">
       <use xlink:href="#DejaVuSans-31"/>
       <use x="63.623047" xlink:href="#DejaVuSans-38"/>
      </g>
     </g>
    </g>
    <g id="xtick_20">
     <g id="line2d_20">
      <g>
       <use style="stroke:#000000;stroke-width:0.8;" x="846.167762" xlink:href="#m4461e9365d" y="567"/>
      </g>
     </g>
     <g id="text_20">
      <!-- 19 -->
      <g transform="translate(839.805262 581.598438)scale(0.1 -0.1)">
       <use xlink:href="#DejaVuSans-31"/>
       <use x="63.623047" xlink:href="#DejaVuSans-39"/>
      </g>
     </g>
    </g>
    <g id="xtick_21">
     <g id="line2d_21">
      <g>
       <use style="stroke:#000000;stroke-width:0.8;" x="880.27013" xlink:href="#m4461e9365d" y="567"/>
      </g>
     </g>
     <g id="text_21">
      <!-- 20 -->
      <g transform="translate(873.90763 581.598438)scale(0.1 -0.1)">
       <use xlink:href="#DejaVuSans-32"/>
       <use x="63.623047" xlink:href="#DejaVuSans-30"/>
      </g>
     </g>
    </g>
    <g id="xtick_22">
     <g id="line2d_22">
      <g>
       <use style="stroke:#000000;stroke-width:0.8;" x="914.372498" xlink:href="#m4461e9365d" y="567"/>
      </g>
     </g>
     <g id="text_22">
      <!-- 21 -->
      <g transform="translate(908.009998 581.598438)scale(0.1 -0.1)">
       <use xlink:href="#DejaVuSans-32"/>
       <use x="63.623047" xlink:href="#DejaVuSans-31"/>
      </g>
     </g>
    </g>
    <g id="xtick_23">
     <g id="line2d_23">
      <g>
       <use style="stroke:#000000;stroke-width:0.8;" x="948.474866" xlink:href="#m4461e9365d" y="567"/>
      </g>
     </g>
     <g id="text_23">
      <!-- 22 -->
      <g transform="translate(942.112366 581.598438)scale(0.1 -0.1)">
       <use xlink:href="#DejaVuSans-32"/>
       <use x="63.623047" xlink:href="#DejaVuSans-32"/>
      </g>
     </g>
    </g>
    <g id="xtick_24">
     <g id="line2d_24">
      <g>
       <use style="stroke:#000000;stroke-width:0.8;" x="982.577235" xlink:href="#m4461e9365d" y="567"/>
      </g>
     </g>
     <g id="text_24">
      <!-- 23 -->
      <g transform="translate(976.214735 581.598438)scale(0.1 -0.1)">
       <use xlink:href="#DejaVuSans-32"/>
       <use x="63.623047" xlink:href="#DejaVuSans-33"/>
      </g>
     </g>
    </g>
    <g id="text_25">
     <!-- Hour -->
     <defs>
      <path d="M 9.8125 72.90625 
L 19.671875 72.90625 
L 19.671875 43.015625 
L 55.515625 43.015625 
L 55.515625 72.90625 
L 65.375 72.90625 
L 65.375 0 
L 55.515625 0 
L 55.515625 34.71875 
L 19.671875 34.71875 
L 19.671875 0 
L 9.8125 0 
z
" id="DejaVuSans-48"/>
      <path d="M 30.609375 48.390625 
Q 23.390625 48.390625 19.1875 42.75 
Q 14.984375 37.109375 14.984375 27.296875 
Q 14.984375 17.484375 19.15625 11.84375 
Q 23.34375 6.203125 30.609375 6.203125 
Q 37.796875 6.203125 41.984375 11.859375 
Q 46.1875 17.53125 46.1875 27.296875 
Q 46.1875 37.015625 41.984375 42.703125 
Q 37.796875 48.390625 30.609375 48.390625 
z
M 30.609375 56 
Q 42.328125 56 49.015625 48.375 
Q 55.71875 40.765625 55.71875 27.296875 
Q 55.71875 13.875 49.015625 6.21875 
Q 42.328125 -1.421875 30.609375 -1.421875 
Q 18.84375 -1.421875 12.171875 6.21875 
Q 5.515625 13.875 5.515625 27.296875 
Q 5.515625 40.765625 12.171875 48.375 
Q 18.84375 56 30.609375 56 
z
" id="DejaVuSans-6f"/>
      <path d="M 8.5 21.578125 
L 8.5 54.6875 
L 17.484375 54.6875 
L 17.484375 21.921875 
Q 17.484375 14.15625 20.5 10.265625 
Q 23.53125 6.390625 29.59375 6.390625 
Q 36.859375 6.390625 41.078125 11.03125 
Q 45.3125 15.671875 45.3125 23.6875 
L 45.3125 54.6875 
L 54.296875 54.6875 
L 54.296875 0 
L 45.3125 0 
L 45.3125 8.40625 
Q 42.046875 3.421875 37.71875 1 
Q 33.40625 -1.421875 27.6875 -1.421875 
Q 18.265625 -1.421875 13.375 4.4375 
Q 8.5 10.296875 8.5 21.578125 
z
M 31.109375 56 
z
" id="DejaVuSans-75"/>
      <path d="M 41.109375 46.296875 
Q 39.59375 47.171875 37.8125 47.578125 
Q 36.03125 48 33.890625 48 
Q 26.265625 48 22.1875 43.046875 
Q 18.109375 38.09375 18.109375 28.8125 
L 18.109375 0 
L 9.078125 0 
L 9.078125 54.6875 
L 18.109375 54.6875 
L 18.109375 46.1875 
Q 20.953125 51.171875 25.484375 53.578125 
Q 30.03125 56 36.53125 56 
Q 37.453125 56 38.578125 55.875 
Q 39.703125 55.765625 41.0625 55.515625 
z
" id="DejaVuSans-72"/>
     </defs>
     <g transform="translate(578.35625 595.276562)scale(0.1 -0.1)">
      <use xlink:href="#DejaVuSans-48"/>
      <use x="75.195312" xlink:href="#DejaVuSans-6f"/>
      <use x="136.376953" xlink:href="#DejaVuSans-75"/>
      <use x="199.755859" xlink:href="#DejaVuSans-72"/>
     </g>
    </g>
   </g>
   <g id="matplotlib.axis_2">
    <g id="ytick_1">
     <g id="line2d_25">
      <defs>
       <path d="M 0 0 
L -3.5 0 
" id="m5f55eac3ae" style="stroke:#000000;stroke-width:0.8;"/>
      </defs>
      <g>
       <use style="stroke:#000000;stroke-width:0.8;" x="144" xlink:href="#m5f55eac3ae" y="567"/>
      </g>
     </g>
     <g id="text_26">
      <!-- 0 -->
      <g transform="translate(130.6375 570.799219)scale(0.1 -0.1)">
       <use xlink:href="#DejaVuSans-30"/>
      </g>
     </g>
    </g>
    <g id="ytick_2">
     <g id="line2d_26">
      <g>
       <use style="stroke:#000000;stroke-width:0.8;" x="144" xlink:href="#m5f55eac3ae" y="469.152"/>
      </g>
     </g>
     <g id="text_27">
      <!-- 20 -->
      <g transform="translate(124.275 472.951219)scale(0.1 -0.1)">
       <use xlink:href="#DejaVuSans-32"/>
       <use x="63.623047" xlink:href="#DejaVuSans-30"/>
      </g>
     </g>
    </g>
    <g id="ytick_3">
     <g id="line2d_27">
      <g>
       <use style="stroke:#000000;stroke-width:0.8;" x="144" xlink:href="#m5f55eac3ae" y="371.304"/>
      </g>
     </g>
     <g id="text_28">
      <!-- 40 -->
      <g transform="translate(124.275 375.103219)scale(0.1 -0.1)">
       <use xlink:href="#DejaVuSans-34"/>
       <use x="63.623047" xlink:href="#DejaVuSans-30"/>
      </g>
     </g>
    </g>
    <g id="ytick_4">
     <g id="line2d_28">
      <g>
       <use style="stroke:#000000;stroke-width:0.8;" x="144" xlink:href="#m5f55eac3ae" y="273.456"/>
      </g>
     </g>
     <g id="text_29">
      <!-- 60 -->
      <g transform="translate(124.275 277.255219)scale(0.1 -0.1)">
       <use xlink:href="#DejaVuSans-36"/>
       <use x="63.623047" xlink:href="#DejaVuSans-30"/>
      </g>
     </g>
    </g>
    <g id="ytick_5">
     <g id="line2d_29">
      <g>
       <use style="stroke:#000000;stroke-width:0.8;" x="144" xlink:href="#m5f55eac3ae" y="175.608"/>
      </g>
     </g>
     <g id="text_30">
      <!-- 80 -->
      <g transform="translate(124.275 179.407219)scale(0.1 -0.1)">
       <use xlink:href="#DejaVuSans-38"/>
       <use x="63.623047" xlink:href="#DejaVuSans-30"/>
      </g>
     </g>
    </g>
    <g id="ytick_6">
     <g id="line2d_30">
      <g>
       <use style="stroke:#000000;stroke-width:0.8;" x="144" xlink:href="#m5f55eac3ae" y="77.76"/>
      </g>
     </g>
     <g id="text_31">
      <!-- 100 -->
      <g transform="translate(117.9125 81.559219)scale(0.1 -0.1)">
       <use xlink:href="#DejaVuSans-31"/>
       <use x="63.623047" xlink:href="#DejaVuSans-30"/>
       <use x="127.246094" xlink:href="#DejaVuSans-30"/>
      </g>
     </g>
    </g>
    <g id="text_32">
     <!-- Percentage -->
     <defs>
      <path d="M 19.671875 64.796875 
L 19.671875 37.40625 
L 32.078125 37.40625 
Q 38.96875 37.40625 42.71875 40.96875 
Q 46.484375 44.53125 46.484375 51.125 
Q 46.484375 57.671875 42.71875 61.234375 
Q 38.96875 64.796875 32.078125 64.796875 
z
M 9.8125 72.90625 
L 32.078125 72.90625 
Q 44.34375 72.90625 50.609375 67.359375 
Q 56.890625 61.8125 56.890625 51.125 
Q 56.890625 40.328125 50.609375 34.8125 
Q 44.34375 29.296875 32.078125 29.296875 
L 19.671875 29.296875 
L 19.671875 0 
L 9.8125 0 
z
" id="DejaVuSans-50"/>
      <path d="M 56.203125 29.59375 
L 56.203125 25.203125 
L 14.890625 25.203125 
Q 15.484375 15.921875 20.484375 11.0625 
Q 25.484375 6.203125 34.421875 6.203125 
Q 39.59375 6.203125 44.453125 7.46875 
Q 49.3125 8.734375 54.109375 11.28125 
L 54.109375 2.78125 
Q 49.265625 0.734375 44.1875 -0.34375 
Q 39.109375 -1.421875 33.890625 -1.421875 
Q 20.796875 -1.421875 13.15625 6.1875 
Q 5.515625 13.8125 5.515625 26.8125 
Q 5.515625 40.234375 12.765625 48.109375 
Q 20.015625 56 32.328125 56 
Q 43.359375 56 49.78125 48.890625 
Q 56.203125 41.796875 56.203125 29.59375 
z
M 47.21875 32.234375 
Q 47.125 39.59375 43.09375 43.984375 
Q 39.0625 48.390625 32.421875 48.390625 
Q 24.90625 48.390625 20.390625 44.140625 
Q 15.875 39.890625 15.1875 32.171875 
z
" id="DejaVuSans-65"/>
      <path d="M 48.78125 52.59375 
L 48.78125 44.1875 
Q 44.96875 46.296875 41.140625 47.34375 
Q 37.3125 48.390625 33.40625 48.390625 
Q 24.65625 48.390625 19.8125 42.84375 
Q 14.984375 37.3125 14.984375 27.296875 
Q 14.984375 17.28125 19.8125 11.734375 
Q 24.65625 6.203125 33.40625 6.203125 
Q 37.3125 6.203125 41.140625 7.25 
Q 44.96875 8.296875 48.78125 10.40625 
L 48.78125 2.09375 
Q 45.015625 0.34375 40.984375 -0.53125 
Q 36.96875 -1.421875 32.421875 -1.421875 
Q 20.0625 -1.421875 12.78125 6.34375 
Q 5.515625 14.109375 5.515625 27.296875 
Q 5.515625 40.671875 12.859375 48.328125 
Q 20.21875 56 33.015625 56 
Q 37.15625 56 41.109375 55.140625 
Q 45.0625 54.296875 48.78125 52.59375 
z
" id="DejaVuSans-63"/>
      <path d="M 54.890625 33.015625 
L 54.890625 0 
L 45.90625 0 
L 45.90625 32.71875 
Q 45.90625 40.484375 42.875 44.328125 
Q 39.84375 48.1875 33.796875 48.1875 
Q 26.515625 48.1875 22.3125 43.546875 
Q 18.109375 38.921875 18.109375 30.90625 
L 18.109375 0 
L 9.078125 0 
L 9.078125 54.6875 
L 18.109375 54.6875 
L 18.109375 46.1875 
Q 21.34375 51.125 25.703125 53.5625 
Q 30.078125 56 35.796875 56 
Q 45.21875 56 50.046875 50.171875 
Q 54.890625 44.34375 54.890625 33.015625 
z
" id="DejaVuSans-6e"/>
      <path d="M 18.3125 70.21875 
L 18.3125 54.6875 
L 36.8125 54.6875 
L 36.8125 47.703125 
L 18.3125 47.703125 
L 18.3125 18.015625 
Q 18.3125 11.328125 20.140625 9.421875 
Q 21.96875 7.515625 27.59375 7.515625 
L 36.8125 7.515625 
L 36.8125 0 
L 27.59375 0 
Q 17.1875 0 13.234375 3.875 
Q 9.28125 7.765625 9.28125 18.015625 
L 9.28125 47.703125 
L 2.6875 47.703125 
L 2.6875 54.6875 
L 9.28125 54.6875 
L 9.28125 70.21875 
z
" id="DejaVuSans-74"/>
      <path d="M 34.28125 27.484375 
Q 23.390625 27.484375 19.1875 25 
Q 14.984375 22.515625 14.984375 16.5 
Q 14.984375 11.71875 18.140625 8.90625 
Q 21.296875 6.109375 26.703125 6.109375 
Q 34.1875 6.109375 38.703125 11.40625 
Q 43.21875 16.703125 43.21875 25.484375 
L 43.21875 27.484375 
z
M 52.203125 31.203125 
L 52.203125 0 
L 43.21875 0 
L 43.21875 8.296875 
Q 40.140625 3.328125 35.546875 0.953125 
Q 30.953125 -1.421875 24.3125 -1.421875 
Q 15.921875 -1.421875 10.953125 3.296875 
Q 6 8.015625 6 15.921875 
Q 6 25.140625 12.171875 29.828125 
Q 18.359375 34.515625 30.609375 34.515625 
L 43.21875 34.515625 
L 43.21875 35.40625 
Q 43.21875 41.609375 39.140625 45 
Q 35.0625 48.390625 27.6875 48.390625 
Q 23 48.390625 18.546875 47.265625 
Q 14.109375 46.140625 10.015625 43.890625 
L 10.015625 52.203125 
Q 14.9375 54.109375 19.578125 55.046875 
Q 24.21875 56 28.609375 56 
Q 40.484375 56 46.34375 49.84375 
Q 52.203125 43.703125 52.203125 31.203125 
z
" id="DejaVuSans-61"/>
      <path d="M 45.40625 27.984375 
Q 45.40625 37.75 41.375 43.109375 
Q 37.359375 48.484375 30.078125 48.484375 
Q 22.859375 48.484375 18.828125 43.109375 
Q 14.796875 37.75 14.796875 27.984375 
Q 14.796875 18.265625 18.828125 12.890625 
Q 22.859375 7.515625 30.078125 7.515625 
Q 37.359375 7.515625 41.375 12.890625 
Q 45.40625 18.265625 45.40625 27.984375 
z
M 54.390625 6.78125 
Q 54.390625 -7.171875 48.1875 -13.984375 
Q 42 -20.796875 29.203125 -20.796875 
Q 24.46875 -20.796875 20.265625 -20.09375 
Q 16.0625 -19.390625 12.109375 -17.921875 
L 12.109375 -9.1875 
Q 16.0625 -11.328125 19.921875 -12.34375 
Q 23.78125 -13.375 27.78125 -13.375 
Q 36.625 -13.375 41.015625 -8.765625 
Q 45.40625 -4.15625 45.40625 5.171875 
L 45.40625 9.625 
Q 42.625 4.78125 38.28125 2.390625 
Q 33.9375 0 27.875 0 
Q 17.828125 0 11.671875 7.65625 
Q 5.515625 15.328125 5.515625 27.984375 
Q 5.515625 40.671875 11.671875 48.328125 
Q 17.828125 56 27.875 56 
Q 33.9375 56 38.28125 53.609375 
Q 42.625 51.21875 45.40625 46.390625 
L 45.40625 54.6875 
L 54.390625 54.6875 
z
" id="DejaVuSans-67"/>
     </defs>
     <g transform="translate(111.832812 350.7925)rotate(-90)scale(0.1 -0.1)">
      <use xlink:href="#DejaVuSans-50"/>
      <use x="60.255859" xlink:href="#DejaVuSans-65"/>
      <use x="121.779297" xlink:href="#DejaVuSans-72"/>
      <use x="162.861328" xlink:href="#DejaVuSans-63"/>
      <use x="217.841797" xlink:href="#DejaVuSans-65"/>
      <use x="279.365234" xlink:href="#DejaVuSans-6e"/>
      <use x="342.744141" xlink:href="#DejaVuSans-74"/>
      <use x="381.953125" xlink:href="#DejaVuSans-61"/>
      <use x="443.232422" xlink:href="#DejaVuSans-67"/>
      <use x="506.708984" xlink:href="#DejaVuSans-65"/>
     </g>
    </g>
   </g>
   <g id="patch_99">
    <path d="M 144 567 
L 144 77.76 
" style="fill:none;stroke:#000000;stroke-linecap:square;stroke-linejoin:miter;stroke-width:0.8;"/>
   </g>
   <g id="patch_100">
    <path d="M 1036.8 567 
L 1036.8 77.76 
" style="fill:none;stroke:#000000;stroke-linecap:square;stroke-linejoin:miter;stroke-width:0.8;"/>
   </g>
   <g id="patch_101">
    <path d="M 144 567 
L 1036.8 567 
" style="fill:none;stroke:#000000;stroke-linecap:square;stroke-linejoin:miter;stroke-width:0.8;"/>
   </g>
   <g id="patch_102">
    <path d="M 144 77.76 
L 1036.8 77.76 
" style="fill:none;stroke:#000000;stroke-linecap:square;stroke-linejoin:miter;stroke-width:0.8;"/>
   </g>
   <g id="text_33">
    <!-- Hourly percentage of each sentiment class -->
    <defs>
     <path d="M 9.421875 75.984375 
L 18.40625 75.984375 
L 18.40625 0 
L 9.421875 0 
z
" id="DejaVuSans-6c"/>
     <path d="M 32.171875 -5.078125 
Q 28.375 -14.84375 24.75 -17.8125 
Q 21.140625 -20.796875 15.09375 -20.796875 
L 7.90625 -20.796875 
L 7.90625 -13.28125 
L 13.1875 -13.28125 
Q 16.890625 -13.28125 18.9375 -11.515625 
Q 21 -9.765625 23.484375 -3.21875 
L 25.09375 0.875 
L 2.984375 54.6875 
L 12.5 54.6875 
L 29.59375 11.921875 
L 46.6875 54.6875 
L 56.203125 54.6875 
z
" id="DejaVuSans-79"/>
     <path id="DejaVuSans-20"/>
     <path d="M 18.109375 8.203125 
L 18.109375 -20.796875 
L 9.078125 -20.796875 
L 9.078125 54.6875 
L 18.109375 54.6875 
L 18.109375 46.390625 
Q 20.953125 51.265625 25.265625 53.625 
Q 29.59375 56 35.59375 56 
Q 45.5625 56 51.78125 48.09375 
Q 58.015625 40.1875 58.015625 27.296875 
Q 58.015625 14.40625 51.78125 6.484375 
Q 45.5625 -1.421875 35.59375 -1.421875 
Q 29.59375 -1.421875 25.265625 0.953125 
Q 20.953125 3.328125 18.109375 8.203125 
z
M 48.6875 27.296875 
Q 48.6875 37.203125 44.609375 42.84375 
Q 40.53125 48.484375 33.40625 48.484375 
Q 26.265625 48.484375 22.1875 42.84375 
Q 18.109375 37.203125 18.109375 27.296875 
Q 18.109375 17.390625 22.1875 11.75 
Q 26.265625 6.109375 33.40625 6.109375 
Q 40.53125 6.109375 44.609375 11.75 
Q 48.6875 17.390625 48.6875 27.296875 
z
" id="DejaVuSans-70"/>
     <path d="M 37.109375 75.984375 
L 37.109375 68.5 
L 28.515625 68.5 
Q 23.6875 68.5 21.796875 66.546875 
Q 19.921875 64.59375 19.921875 59.515625 
L 19.921875 54.6875 
L 34.71875 54.6875 
L 34.71875 47.703125 
L 19.921875 47.703125 
L 19.921875 0 
L 10.890625 0 
L 10.890625 47.703125 
L 2.296875 47.703125 
L 2.296875 54.6875 
L 10.890625 54.6875 
L 10.890625 58.5 
Q 10.890625 67.625 15.140625 71.796875 
Q 19.390625 75.984375 28.609375 75.984375 
z
" id="DejaVuSans-66"/>
     <path d="M 54.890625 33.015625 
L 54.890625 0 
L 45.90625 0 
L 45.90625 32.71875 
Q 45.90625 40.484375 42.875 44.328125 
Q 39.84375 48.1875 33.796875 48.1875 
Q 26.515625 48.1875 22.3125 43.546875 
Q 18.109375 38.921875 18.109375 30.90625 
L 18.109375 0 
L 9.078125 0 
L 9.078125 75.984375 
L 18.109375 75.984375 
L 18.109375 46.1875 
Q 21.34375 51.125 25.703125 53.5625 
Q 30.078125 56 35.796875 56 
Q 45.21875 56 50.046875 50.171875 
Q 54.890625 44.34375 54.890625 33.015625 
z
" id="DejaVuSans-68"/>
     <path d="M 44.28125 53.078125 
L 44.28125 44.578125 
Q 40.484375 46.53125 36.375 47.5 
Q 32.28125 48.484375 27.875 48.484375 
Q 21.1875 48.484375 17.84375 46.4375 
Q 14.5 44.390625 14.5 40.28125 
Q 14.5 37.15625 16.890625 35.375 
Q 19.28125 33.59375 26.515625 31.984375 
L 29.59375 31.296875 
Q 39.15625 29.25 43.1875 25.515625 
Q 47.21875 21.78125 47.21875 15.09375 
Q 47.21875 7.46875 41.1875 3.015625 
Q 35.15625 -1.421875 24.609375 -1.421875 
Q 20.21875 -1.421875 15.453125 -0.5625 
Q 10.6875 0.296875 5.421875 2 
L 5.421875 11.28125 
Q 10.40625 8.6875 15.234375 7.390625 
Q 20.0625 6.109375 24.8125 6.109375 
Q 31.15625 6.109375 34.5625 8.28125 
Q 37.984375 10.453125 37.984375 14.40625 
Q 37.984375 18.0625 35.515625 20.015625 
Q 33.0625 21.96875 24.703125 23.78125 
L 21.578125 24.515625 
Q 13.234375 26.265625 9.515625 29.90625 
Q 5.8125 33.546875 5.8125 39.890625 
Q 5.8125 47.609375 11.28125 51.796875 
Q 16.75 56 26.8125 56 
Q 31.78125 56 36.171875 55.265625 
Q 40.578125 54.546875 44.28125 53.078125 
z
" id="DejaVuSans-73"/>
     <path d="M 9.421875 54.6875 
L 18.40625 54.6875 
L 18.40625 0 
L 9.421875 0 
z
M 9.421875 75.984375 
L 18.40625 75.984375 
L 18.40625 64.59375 
L 9.421875 64.59375 
z
" id="DejaVuSans-69"/>
     <path d="M 52 44.1875 
Q 55.375 50.25 60.0625 53.125 
Q 64.75 56 71.09375 56 
Q 79.640625 56 84.28125 50.015625 
Q 88.921875 44.046875 88.921875 33.015625 
L 88.921875 0 
L 79.890625 0 
L 79.890625 32.71875 
Q 79.890625 40.578125 77.09375 44.375 
Q 74.3125 48.1875 68.609375 48.1875 
Q 61.625 48.1875 57.5625 43.546875 
Q 53.515625 38.921875 53.515625 30.90625 
L 53.515625 0 
L 44.484375 0 
L 44.484375 32.71875 
Q 44.484375 40.625 41.703125 44.40625 
Q 38.921875 48.1875 33.109375 48.1875 
Q 26.21875 48.1875 22.15625 43.53125 
Q 18.109375 38.875 18.109375 30.90625 
L 18.109375 0 
L 9.078125 0 
L 9.078125 54.6875 
L 18.109375 54.6875 
L 18.109375 46.1875 
Q 21.1875 51.21875 25.484375 53.609375 
Q 29.78125 56 35.6875 56 
Q 41.65625 56 45.828125 52.96875 
Q 50 49.953125 52 44.1875 
z
" id="DejaVuSans-6d"/>
    </defs>
    <g transform="translate(461.428125 71.76)scale(0.12 -0.12)">
     <use xlink:href="#DejaVuSans-48"/>
     <use x="75.195312" xlink:href="#DejaVuSans-6f"/>
     <use x="136.376953" xlink:href="#DejaVuSans-75"/>
     <use x="199.755859" xlink:href="#DejaVuSans-72"/>
     <use x="240.869141" xlink:href="#DejaVuSans-6c"/>
     <use x="268.652344" xlink:href="#DejaVuSans-79"/>
     <use x="327.832031" xlink:href="#DejaVuSans-20"/>
     <use x="359.619141" xlink:href="#DejaVuSans-70"/>
     <use x="423.095703" xlink:href="#DejaVuSans-65"/>
     <use x="484.619141" xlink:href="#DejaVuSans-72"/>
     <use x="525.701172" xlink:href="#DejaVuSans-63"/>
     <use x="580.681641" xlink:href="#DejaVuSans-65"/>
     <use x="642.205078" xlink:href="#DejaVuSans-6e"/>
     <use x="705.583984" xlink:href="#DejaVuSans-74"/>
     <use x="744.792969" xlink:href="#DejaVuSans-61"/>
     <use x="806.072266" xlink:href="#DejaVuSans-67"/>
     <use x="869.548828" xlink:href="#DejaVuSans-65"/>
     <use x="931.072266" xlink:href="#DejaVuSans-20"/>
     <use x="962.859375" xlink:href="#DejaVuSans-6f"/>
     <use x="1024.041016" xlink:href="#DejaVuSans-66"/>
     <use x="1059.246094" xlink:href="#DejaVuSans-20"/>
     <use x="1091.033203" xlink:href="#DejaVuSans-65"/>
     <use x="1152.556641" xlink:href="#DejaVuSans-61"/>
     <use x="1213.835938" xlink:href="#DejaVuSans-63"/>
     <use x="1268.816406" xlink:href="#DejaVuSans-68"/>
     <use x="1332.195312" xlink:href="#DejaVuSans-20"/>
     <use x="1363.982422" xlink:href="#DejaVuSans-73"/>
     <use x="1416.082031" xlink:href="#DejaVuSans-65"/>
     <use x="1477.605469" xlink:href="#DejaVuSans-6e"/>
     <use x="1540.984375" xlink:href="#DejaVuSans-74"/>
     <use x="1580.193359" xlink:href="#DejaVuSans-69"/>
     <use x="1607.976562" xlink:href="#DejaVuSans-6d"/>
     <use x="1705.388672" xlink:href="#DejaVuSans-65"/>
     <use x="1766.912109" xlink:href="#DejaVuSans-6e"/>
     <use x="1830.291016" xlink:href="#DejaVuSans-74"/>
     <use x="1869.5" xlink:href="#DejaVuSans-20"/>
     <use x="1901.287109" xlink:href="#DejaVuSans-63"/>
     <use x="1956.267578" xlink:href="#DejaVuSans-6c"/>
     <use x="1984.050781" xlink:href="#DejaVuSans-61"/>
     <use x="2045.330078" xlink:href="#DejaVuSans-73"/>
     <use x="2097.429688" xlink:href="#DejaVuSans-73"/>
    </g>
   </g>
   <g id="legend_1">
    <g id="patch_103">
     <path d="M 926.728125 562 
L 1029.8 562 
Q 1031.8 562 1031.8 560 
L 1031.8 502.2875 
Q 1031.8 500.2875 1029.8 500.2875 
L 926.728125 500.2875 
Q 924.728125 500.2875 924.728125 502.2875 
L 924.728125 560 
Q 924.728125 562 926.728125 562 
z
" style="fill:#ffffff;opacity:0.8;stroke:#cccccc;stroke-linejoin:miter;"/>
    </g>
    <g id="patch_104">
     <path d="M 928.728125 511.885938 
L 948.728125 511.885938 
L 948.728125 504.885938 
L 928.728125 504.885938 
z
" style="fill:#e6194b;"/>
    </g>
    <g id="text_34">
     <!-- Very Negative -->
     <defs>
      <path d="M 28.609375 0 
L 0.78125 72.90625 
L 11.078125 72.90625 
L 34.1875 11.53125 
L 57.328125 72.90625 
L 67.578125 72.90625 
L 39.796875 0 
z
" id="DejaVuSans-56"/>
      <path d="M 9.8125 72.90625 
L 23.09375 72.90625 
L 55.421875 11.921875 
L 55.421875 72.90625 
L 64.984375 72.90625 
L 64.984375 0 
L 51.703125 0 
L 19.390625 60.984375 
L 19.390625 0 
L 9.8125 0 
z
" id="DejaVuSans-4e"/>
      <path d="M 2.984375 54.6875 
L 12.5 54.6875 
L 29.59375 8.796875 
L 46.6875 54.6875 
L 56.203125 54.6875 
L 35.6875 0 
L 23.484375 0 
z
" id="DejaVuSans-76"/>
     </defs>
     <g transform="translate(956.728125 511.885938)scale(0.1 -0.1)">
      <use xlink:href="#DejaVuSans-56"/>
      <use x="68.298828" xlink:href="#DejaVuSans-65"/>
      <use x="129.822266" xlink:href="#DejaVuSans-72"/>
      <use x="170.935547" xlink:href="#DejaVuSans-79"/>
      <use x="230.115234" xlink:href="#DejaVuSans-20"/>
      <use x="261.902344" xlink:href="#DejaVuSans-4e"/>
      <use x="336.707031" xlink:href="#DejaVuSans-65"/>
      <use x="398.230469" xlink:href="#DejaVuSans-67"/>
      <use x="461.707031" xlink:href="#DejaVuSans-61"/>
      <use x="522.986328" xlink:href="#DejaVuSans-74"/>
      <use x="562.195312" xlink:href="#DejaVuSans-69"/>
      <use x="589.978516" xlink:href="#DejaVuSans-76"/>
      <use x="649.158203" xlink:href="#DejaVuSans-65"/>
     </g>
    </g>
    <g id="patch_105">
     <path d="M 928.728125 526.564062 
L 948.728125 526.564062 
L 948.728125 519.564062 
L 928.728125 519.564062 
z
" style="fill:#fabebe;"/>
    </g>
    <g id="text_35">
     <!-- Negative -->
     <g transform="translate(956.728125 526.564062)scale(0.1 -0.1)">
      <use xlink:href="#DejaVuSans-4e"/>
      <use x="74.804688" xlink:href="#DejaVuSans-65"/>
      <use x="136.328125" xlink:href="#DejaVuSans-67"/>
      <use x="199.804688" xlink:href="#DejaVuSans-61"/>
      <use x="261.083984" xlink:href="#DejaVuSans-74"/>
      <use x="300.292969" xlink:href="#DejaVuSans-69"/>
      <use x="328.076172" xlink:href="#DejaVuSans-76"/>
      <use x="387.255859" xlink:href="#DejaVuSans-65"/>
     </g>
    </g>
    <g id="patch_106">
     <path d="M 928.728125 541.242188 
L 948.728125 541.242188 
L 948.728125 534.242188 
L 928.728125 534.242188 
z
" style="fill:#aaffc3;"/>
    </g>
    <g id="text_36">
     <!-- Positive -->
     <g transform="translate(956.728125 541.242188)scale(0.1 -0.1)">
      <use xlink:href="#DejaVuSans-50"/>
      <use x="60.255859" xlink:href="#DejaVuSans-6f"/>
      <use x="121.4375" xlink:href="#DejaVuSans-73"/>
      <use x="173.537109" xlink:href="#DejaVuSans-69"/>
      <use x="201.320312" xlink:href="#DejaVuSans-74"/>
      <use x="240.529297" xlink:href="#DejaVuSans-69"/>
      <use x="268.3125" xlink:href="#DejaVuSans-76"/>
      <use x="327.492188" xlink:href="#DejaVuSans-65"/>
     </g>
    </g>
    <g id="patch_107">
     <path d="M 928.728125 555.920313 
L 948.728125 555.920313 
L 948.728125 548.920313 
L 928.728125 548.920313 
z
" style="fill:#3cb44b;"/>
    </g>
    <g id="text_37">
     <!-- Very Positive -->
     <g transform="translate(956.728125 555.920313)scale(0.1 -0.1)">
      <use xlink:href="#DejaVuSans-56"/>
      <use x="68.298828" xlink:href="#DejaVuSans-65"/>
      <use x="129.822266" xlink:href="#DejaVuSans-72"/>
      <use x="170.935547" xlink:href="#DejaVuSans-79"/>
      <use x="230.115234" xlink:href="#DejaVuSans-20"/>
      <use x="261.902344" xlink:href="#DejaVuSans-50"/>
      <use x="322.158203" xlink:href="#DejaVuSans-6f"/>
      <use x="383.339844" xlink:href="#DejaVuSans-73"/>
      <use x="435.439453" xlink:href="#DejaVuSans-69"/>
      <use x="463.222656" xlink:href="#DejaVuSans-74"/>
      <use x="502.431641" xlink:href="#DejaVuSans-69"/>
      <use x="530.214844" xlink:href="#DejaVuSans-76"/>
      <use x="589.394531" xlink:href="#DejaVuSans-65"/>
     </g>
    </g>
   </g>
  </g>
 </g>
 <defs>
  <clipPath id="p3cead9d5fc">
   <rect height="489.24" width="892.8" x="144" y="77.76"/>
  </clipPath>
 </defs>
</svg>
